<?xml version="1.0" encoding="UTF-8" standalone="no"?><svg xmlns="http://www.w3.org/2000/svg" xmlns:xlink="http://www.w3.org/1999/xlink" contentStyleType="text/css" height="1365px" preserveAspectRatio="none" style="width:2372px;height:1365px;background:#FFFFFF;" version="1.1" viewBox="0 0 2372 1365" width="2372px" zoomAndPan="magnify"><defs/><g><rect height="26.2969" id="_title" style="stroke:#00000000;stroke-width:1.0;fill:none;" width="190" x="1084.25" y="5"/><text fill="#000000" font-family="sans-serif" font-size="14" font-weight="bold" lengthAdjust="spacing" textLength="180" x="1089.25" y="22.9951">Help us Class Diagram</text><!--MD5=[0b19e4b6e28cfd9d7d559ff6fd11d86b]
class SquareAuthController--><g id="elem_SquareAuthController"><rect codeLine="6" fill="#F1F1F1" height="80.5938" id="SquareAuthController" rx="2.5" ry="2.5" style="stroke:#181818;stroke-width:0.5;" width="405" x="107" y="60.2969"/><ellipse cx="227.25" cy="76.2969" fill="#ADD1B2" rx="11" ry="11" style="stroke:#181818;stroke-width:1.0;"/><path d="M229.5938,71.9688 C228.6563,71.5313 228.0625,71.3906 227.1875,71.3906 C224.5625,71.3906 222.5625,73.4688 222.5625,76.1875 L222.5625,77.3125 C222.5625,79.8906 224.6719,81.7813 227.5625,81.7813 C228.7813,81.7813 229.9375,81.4844 230.6875,80.9375 C231.2656,80.5313 231.5938,80.0781 231.5938,79.6875 C231.5938,79.2344 231.2031,78.8438 230.7344,78.8438 C230.5156,78.8438 230.3125,78.9219 230.125,79.1094 C229.6719,79.5938 229.6719,79.5938 229.4844,79.6875 C229.0625,79.9531 228.375,80.0781 227.6094,80.0781 C225.5625,80.0781 224.2656,78.9844 224.2656,77.2813 L224.2656,76.1875 C224.2656,74.4063 225.5156,73.0938 227.25,73.0938 C227.8281,73.0938 228.4375,73.25 228.9063,73.5 C229.3906,73.7813 229.5625,74 229.6563,74.4063 C229.7188,74.8125 229.75,74.9375 229.8906,75.0625 C230.0313,75.2031 230.2656,75.3125 230.4844,75.3125 C230.75,75.3125 231.0156,75.1719 231.1875,74.9531 C231.2969,74.7969 231.3281,74.6094 231.3281,74.1875 L231.3281,72.7656 C231.3281,72.3281 231.3125,72.2031 231.2188,72.0469 C231.0625,71.7813 230.7813,71.6406 230.4844,71.6406 C230.1875,71.6406 229.9844,71.7344 229.7656,72.0469 L229.5938,71.9688 Z " fill="#000000"/><text fill="#000000" font-family="sans-serif" font-size="14" lengthAdjust="spacing" textLength="156" x="247.75" y="81.1436">SquareAuthController</text><line style="stroke:#181818;stroke-width:0.5;" x1="108" x2="511" y1="92.2969" y2="92.2969"/><line style="stroke:#181818;stroke-width:0.5;" x1="108" x2="511" y1="100.2969" y2="100.2969"/><ellipse cx="118" cy="111.2969" fill="#84BE84" rx="3" ry="3" style="stroke:#038048;stroke-width:1.0;"/><text fill="#000000" font-family="sans-serif" font-size="14" lengthAdjust="spacing" textLength="379" x="127" y="117.292">authorize(AuthorizeWithSquareCommand command)</text><ellipse cx="118" cy="127.5938" fill="#84BE84" rx="3" ry="3" style="stroke:#038048;stroke-width:1.0;"/><text fill="#000000" font-family="sans-serif" font-size="14" lengthAdjust="spacing" textLength="338" x="127" y="133.5889">getAuthLink(GetAuthLinkCommand command)</text></g><!--MD5=[31dcea483600b08fd5178f101ce2bc27]
class AuthorizeWithSquareCommand--><g id="elem_AuthorizeWithSquareCommand"><rect codeLine="11" fill="#F1F1F1" height="129.4844" id="AuthorizeWithSquareCommand" rx="2.5" ry="2.5" style="stroke:#181818;stroke-width:0.5;" width="297" x="7" y="217.2969"/><ellipse cx="39.55" cy="233.2969" fill="#ADD1B2" rx="11" ry="11" style="stroke:#181818;stroke-width:1.0;"/><path d="M41.8938,228.9688 C40.9563,228.5313 40.3625,228.3906 39.4875,228.3906 C36.8625,228.3906 34.8625,230.4688 34.8625,233.1875 L34.8625,234.3125 C34.8625,236.8906 36.9719,238.7813 39.8625,238.7813 C41.0813,238.7813 42.2375,238.4844 42.9875,237.9375 C43.5656,237.5313 43.8938,237.0781 43.8938,236.6875 C43.8938,236.2344 43.5031,235.8438 43.0344,235.8438 C42.8156,235.8438 42.6125,235.9219 42.425,236.1094 C41.9719,236.5938 41.9719,236.5938 41.7844,236.6875 C41.3625,236.9531 40.675,237.0781 39.9094,237.0781 C37.8625,237.0781 36.5656,235.9844 36.5656,234.2813 L36.5656,233.1875 C36.5656,231.4063 37.8156,230.0938 39.55,230.0938 C40.1281,230.0938 40.7375,230.25 41.2063,230.5 C41.6906,230.7813 41.8625,231 41.9563,231.4063 C42.0188,231.8125 42.05,231.9375 42.1906,232.0625 C42.3313,232.2031 42.5656,232.3125 42.7844,232.3125 C43.05,232.3125 43.3156,232.1719 43.4875,231.9531 C43.5969,231.7969 43.6281,231.6094 43.6281,231.1875 L43.6281,229.7656 C43.6281,229.3281 43.6125,229.2031 43.5188,229.0469 C43.3625,228.7813 43.0813,228.6406 42.7844,228.6406 C42.4875,228.6406 42.2844,228.7344 42.0656,229.0469 L41.8938,228.9688 Z " fill="#000000"/><text fill="#000000" font-family="sans-serif" font-size="14" lengthAdjust="spacing" textLength="226" x="57.45" y="238.1436">AuthorizeWithSquareCommand</text><line style="stroke:#181818;stroke-width:0.5;" x1="8" x2="303" y1="249.2969" y2="249.2969"/><ellipse cx="18" cy="260.2969" fill="none" rx="3" ry="3" style="stroke:#038048;stroke-width:1.0;"/><text fill="#000000" font-family="sans-serif" font-size="14" lengthAdjust="spacing" textLength="135" x="27" y="266.292">grant_type : string</text><ellipse cx="18" cy="276.5938" fill="none" rx="3" ry="3" style="stroke:#038048;stroke-width:1.0;"/><text fill="#000000" font-family="sans-serif" font-size="14" lengthAdjust="spacing" textLength="157" x="27" y="282.5889">refresh_token : string</text><ellipse cx="18" cy="292.8906" fill="none" rx="3" ry="3" style="stroke:#038048;stroke-width:1.0;"/><text fill="#000000" font-family="sans-serif" font-size="14" lengthAdjust="spacing" textLength="90" x="27" y="298.8857">code : string</text><ellipse cx="18" cy="309.1875" fill="none" rx="3" ry="3" style="stroke:#038048;stroke-width:1.0;"/><text fill="#000000" font-family="sans-serif" font-size="14" lengthAdjust="spacing" textLength="220" x="27" y="315.1826">square_service : SquareService</text><line style="stroke:#181818;stroke-width:0.5;" x1="8" x2="303" y1="322.4844" y2="322.4844"/><ellipse cx="18" cy="333.4844" fill="#84BE84" rx="3" ry="3" style="stroke:#038048;stroke-width:1.0;"/><text fill="#000000" font-family="sans-serif" font-size="14" lengthAdjust="spacing" textLength="271" x="27" y="339.4795">execute(self) : ObtainTokenResponse</text></g><!--MD5=[cca4f0be91b6914288f1e2000b16dd33]
class GetAuthLinkCommand--><g id="elem_GetAuthLinkCommand"><rect codeLine="19" fill="#F1F1F1" height="80.5938" id="GetAuthLinkCommand" rx="2.5" ry="2.5" style="stroke:#181818;stroke-width:0.5;" width="246" x="339.5" y="241.2969"/><ellipse cx="377" cy="257.2969" fill="#ADD1B2" rx="11" ry="11" style="stroke:#181818;stroke-width:1.0;"/><path d="M379.3438,252.9688 C378.4063,252.5313 377.8125,252.3906 376.9375,252.3906 C374.3125,252.3906 372.3125,254.4688 372.3125,257.1875 L372.3125,258.3125 C372.3125,260.8906 374.4219,262.7813 377.3125,262.7813 C378.5313,262.7813 379.6875,262.4844 380.4375,261.9375 C381.0156,261.5313 381.3438,261.0781 381.3438,260.6875 C381.3438,260.2344 380.9531,259.8438 380.4844,259.8438 C380.2656,259.8438 380.0625,259.9219 379.875,260.1094 C379.4219,260.5938 379.4219,260.5938 379.2344,260.6875 C378.8125,260.9531 378.125,261.0781 377.3594,261.0781 C375.3125,261.0781 374.0156,259.9844 374.0156,258.2813 L374.0156,257.1875 C374.0156,255.4063 375.2656,254.0938 377,254.0938 C377.5781,254.0938 378.1875,254.25 378.6563,254.5 C379.1406,254.7813 379.3125,255 379.4063,255.4063 C379.4688,255.8125 379.5,255.9375 379.6406,256.0625 C379.7813,256.2031 380.0156,256.3125 380.2344,256.3125 C380.5,256.3125 380.7656,256.1719 380.9375,255.9531 C381.0469,255.7969 381.0781,255.6094 381.0781,255.1875 L381.0781,253.7656 C381.0781,253.3281 381.0625,253.2031 380.9688,253.0469 C380.8125,252.7813 380.5313,252.6406 380.2344,252.6406 C379.9375,252.6406 379.7344,252.7344 379.5156,253.0469 L379.3438,252.9688 Z " fill="#000000"/><text fill="#000000" font-family="sans-serif" font-size="14" lengthAdjust="spacing" textLength="164" x="396" y="262.1436">GetAuthLinkCommand</text><line style="stroke:#181818;stroke-width:0.5;" x1="340.5" x2="584.5" y1="273.2969" y2="273.2969"/><ellipse cx="350.5" cy="284.2969" fill="none" rx="3" ry="3" style="stroke:#038048;stroke-width:1.0;"/><text fill="#000000" font-family="sans-serif" font-size="14" lengthAdjust="spacing" textLength="220" x="359.5" y="290.292">square_service : SquareService</text><line style="stroke:#181818;stroke-width:0.5;" x1="340.5" x2="584.5" y1="297.5938" y2="297.5938"/><ellipse cx="350.5" cy="308.5938" fill="#84BE84" rx="3" ry="3" style="stroke:#038048;stroke-width:1.0;"/><text fill="#000000" font-family="sans-serif" font-size="14" lengthAdjust="spacing" textLength="149" x="359.5" y="314.5889">execute(self) : string</text></g><!--MD5=[2e8f1cf2e0856031fb9c2dc6f6bdb60a]
class SquareService--><g id="elem_SquareService"><rect codeLine="27" fill="#F1F1F1" height="210.9688" id="SquareService" rx="2.5" ry="2.5" style="stroke:#181818;stroke-width:0.5;" width="708" x="856.5" y="406.2969"/><ellipse cx="1155.25" cy="422.2969" fill="#ADD1B2" rx="11" ry="11" style="stroke:#181818;stroke-width:1.0;"/><path d="M1157.5938,417.9688 C1156.6563,417.5313 1156.0625,417.3906 1155.1875,417.3906 C1152.5625,417.3906 1150.5625,419.4688 1150.5625,422.1875 L1150.5625,423.3125 C1150.5625,425.8906 1152.6719,427.7813 1155.5625,427.7813 C1156.7813,427.7813 1157.9375,427.4844 1158.6875,426.9375 C1159.2656,426.5313 1159.5938,426.0781 1159.5938,425.6875 C1159.5938,425.2344 1159.2031,424.8438 1158.7344,424.8438 C1158.5156,424.8438 1158.3125,424.9219 1158.125,425.1094 C1157.6719,425.5938 1157.6719,425.5938 1157.4844,425.6875 C1157.0625,425.9531 1156.375,426.0781 1155.6094,426.0781 C1153.5625,426.0781 1152.2656,424.9844 1152.2656,423.2813 L1152.2656,422.1875 C1152.2656,420.4063 1153.5156,419.0938 1155.25,419.0938 C1155.8281,419.0938 1156.4375,419.25 1156.9063,419.5 C1157.3906,419.7813 1157.5625,420 1157.6563,420.4063 C1157.7188,420.8125 1157.75,420.9375 1157.8906,421.0625 C1158.0313,421.2031 1158.2656,421.3125 1158.4844,421.3125 C1158.75,421.3125 1159.0156,421.1719 1159.1875,420.9531 C1159.2969,420.7969 1159.3281,420.6094 1159.3281,420.1875 L1159.3281,418.7656 C1159.3281,418.3281 1159.3125,418.2031 1159.2188,418.0469 C1159.0625,417.7813 1158.7813,417.6406 1158.4844,417.6406 C1158.1875,417.6406 1157.9844,417.7344 1157.7656,418.0469 L1157.5938,417.9688 Z " fill="#000000"/><text fill="#000000" font-family="sans-serif" font-size="14" lengthAdjust="spacing" textLength="102" x="1175.75" y="427.1436">SquareService</text><line style="stroke:#181818;stroke-width:0.5;" x1="857.5" x2="1563.5" y1="438.2969" y2="438.2969"/><ellipse cx="867.5" cy="449.2969" fill="none" rx="3" ry="3" style="stroke:#038048;stroke-width:1.0;"/><text fill="#000000" font-family="sans-serif" font-size="14" lengthAdjust="spacing" textLength="145" x="876.5" y="455.292">Variables : Variables</text><ellipse cx="867.5" cy="465.5938" fill="none" rx="3" ry="3" style="stroke:#038048;stroke-width:1.0;"/><text fill="#000000" font-family="sans-serif" font-size="14" lengthAdjust="spacing" textLength="159" x="876.5" y="471.5889">Constants : Constants</text><line style="stroke:#181818;stroke-width:0.5;" x1="857.5" x2="1563.5" y1="478.8906" y2="478.8906"/><ellipse cx="867.5" cy="489.8906" fill="#84BE84" rx="3" ry="3" style="stroke:#038048;stroke-width:1.0;"/><text fill="#000000" font-family="sans-serif" font-size="14" lengthAdjust="spacing" textLength="277" x="876.5" y="495.8857">get_access_token(self, command) : str</text><ellipse cx="867.5" cy="506.1875" fill="#84BE84" rx="3" ry="3" style="stroke:#038048;stroke-width:1.0;"/><text fill="#000000" font-family="sans-serif" font-size="14" lengthAdjust="spacing" textLength="682" x="876.5" y="512.1826">authorize_with_square(self, AuthorizeWithSquareCommand command) : ObtainTokenResponse</text><ellipse cx="867.5" cy="522.4844" fill="#84BE84" rx="3" ry="3" style="stroke:#038048;stroke-width:1.0;"/><text fill="#000000" font-family="sans-serif" font-size="14" lengthAdjust="spacing" textLength="655" x="876.5" y="528.4795">checkout_with_square(self, CheckoutWithSquareCommand command) : CheckoutResponse</text><ellipse cx="867.5" cy="538.7813" fill="#84BE84" rx="3" ry="3" style="stroke:#038048;stroke-width:1.0;"/><text fill="#000000" font-family="sans-serif" font-size="14" lengthAdjust="spacing" textLength="515" x="876.5" y="544.7764">update_with_square(self, UpdateWithSquareCommand command) : bool</text><ellipse cx="867.5" cy="555.0781" fill="#84BE84" rx="3" ry="3" style="stroke:#038048;stroke-width:1.0;"/><text fill="#000000" font-family="sans-serif" font-size="14" lengthAdjust="spacing" textLength="499" x="876.5" y="561.0732">delete_link_square(self, DeleteLinkSquareCommand command) : bool</text><ellipse cx="867.5" cy="571.375" fill="#84BE84" rx="3" ry="3" style="stroke:#038048;stroke-width:1.0;"/><text fill="#000000" font-family="sans-serif" font-size="14" lengthAdjust="spacing" textLength="522" x="876.5" y="577.3701">get_payment_link(self, RetrieveWithSquareCommand command) : string</text><ellipse cx="867.5" cy="587.6719" fill="#84BE84" rx="3" ry="3" style="stroke:#038048;stroke-width:1.0;"/><text fill="#000000" font-family="sans-serif" font-size="14" lengthAdjust="spacing" textLength="575" x="876.5" y="593.667">list_locations(self, ListLocationsSquareCommand command) : LocationResponse</text><ellipse cx="867.5" cy="603.9688" fill="#84BE84" rx="3" ry="3" style="stroke:#038048;stroke-width:1.0;"/><text fill="#000000" font-family="sans-serif" font-size="14" lengthAdjust="spacing" textLength="516" x="876.5" y="609.9639">update_location(self, UpdateLocationSquareCommand command) : bool</text></g><!--MD5=[6e99dd7eb643e9fd9f8b133e2e7a6b4c]
class ObtainTokenResponse--><g id="elem_ObtainTokenResponse"><rect codeLine="40" fill="#F1F1F1" height="113.1875" id="ObtainTokenResponse" rx="2.5" ry="2.5" style="stroke:#181818;stroke-width:0.5;" width="196" x="673.5" y="701.7969"/><ellipse cx="688.5" cy="717.7969" fill="#ADD1B2" rx="11" ry="11" style="stroke:#181818;stroke-width:1.0;"/><path d="M690.8438,713.4688 C689.9063,713.0313 689.3125,712.8906 688.4375,712.8906 C685.8125,712.8906 683.8125,714.9688 683.8125,717.6875 L683.8125,718.8125 C683.8125,721.3906 685.9219,723.2813 688.8125,723.2813 C690.0313,723.2813 691.1875,722.9844 691.9375,722.4375 C692.5156,722.0313 692.8438,721.5781 692.8438,721.1875 C692.8438,720.7344 692.4531,720.3438 691.9844,720.3438 C691.7656,720.3438 691.5625,720.4219 691.375,720.6094 C690.9219,721.0938 690.9219,721.0938 690.7344,721.1875 C690.3125,721.4531 689.625,721.5781 688.8594,721.5781 C686.8125,721.5781 685.5156,720.4844 685.5156,718.7813 L685.5156,717.6875 C685.5156,715.9063 686.7656,714.5938 688.5,714.5938 C689.0781,714.5938 689.6875,714.75 690.1563,715 C690.6406,715.2813 690.8125,715.5 690.9063,715.9063 C690.9688,716.3125 691,716.4375 691.1406,716.5625 C691.2813,716.7031 691.5156,716.8125 691.7344,716.8125 C692,716.8125 692.2656,716.6719 692.4375,716.4531 C692.5469,716.2969 692.5781,716.1094 692.5781,715.6875 L692.5781,714.2656 C692.5781,713.8281 692.5625,713.7031 692.4688,713.5469 C692.3125,713.2813 692.0313,713.1406 691.7344,713.1406 C691.4375,713.1406 691.2344,713.2344 691.0156,713.5469 L690.8438,713.4688 Z " fill="#000000"/><text fill="#000000" font-family="sans-serif" font-size="14" lengthAdjust="spacing" textLength="164" x="702.5" y="722.6436">ObtainTokenResponse</text><line style="stroke:#181818;stroke-width:0.5;" x1="674.5" x2="868.5" y1="733.7969" y2="733.7969"/><ellipse cx="684.5" cy="744.7969" fill="none" rx="3" ry="3" style="stroke:#038048;stroke-width:1.0;"/><text fill="#000000" font-family="sans-serif" font-size="14" lengthAdjust="spacing" textLength="152" x="693.5" y="750.792">access_token : string</text><ellipse cx="684.5" cy="761.0938" fill="none" rx="3" ry="3" style="stroke:#038048;stroke-width:1.0;"/><text fill="#000000" font-family="sans-serif" font-size="14" lengthAdjust="spacing" textLength="145" x="693.5" y="767.0889">merchant_id : string</text><ellipse cx="684.5" cy="777.3906" fill="none" rx="3" ry="3" style="stroke:#038048;stroke-width:1.0;"/><text fill="#000000" font-family="sans-serif" font-size="14" lengthAdjust="spacing" textLength="157" x="693.5" y="783.3857">refresh_token : string</text><ellipse cx="684.5" cy="793.6875" fill="none" rx="3" ry="3" style="stroke:#038048;stroke-width:1.0;"/><text fill="#000000" font-family="sans-serif" font-size="14" lengthAdjust="spacing" textLength="134" x="693.5" y="799.6826">short_lived : string</text><line style="stroke:#181818;stroke-width:0.5;" x1="674.5" x2="868.5" y1="806.9844" y2="806.9844"/></g><!--MD5=[6648317ef4ae95a4ebcb0a31bb1ed1f3]
class ObtainTokenRequest--><g id="elem_ObtainTokenRequest"><rect codeLine="47" fill="#F1F1F1" height="162.0781" id="ObtainTokenRequest" rx="2.5" ry="2.5" style="stroke:#181818;stroke-width:0.5;" width="185" x="905" y="677.2969"/><ellipse cx="920" cy="693.2969" fill="#ADD1B2" rx="11" ry="11" style="stroke:#181818;stroke-width:1.0;"/><path d="M922.3438,688.9688 C921.4063,688.5313 920.8125,688.3906 919.9375,688.3906 C917.3125,688.3906 915.3125,690.4688 915.3125,693.1875 L915.3125,694.3125 C915.3125,696.8906 917.4219,698.7813 920.3125,698.7813 C921.5313,698.7813 922.6875,698.4844 923.4375,697.9375 C924.0156,697.5313 924.3438,697.0781 924.3438,696.6875 C924.3438,696.2344 923.9531,695.8438 923.4844,695.8438 C923.2656,695.8438 923.0625,695.9219 922.875,696.1094 C922.4219,696.5938 922.4219,696.5938 922.2344,696.6875 C921.8125,696.9531 921.125,697.0781 920.3594,697.0781 C918.3125,697.0781 917.0156,695.9844 917.0156,694.2813 L917.0156,693.1875 C917.0156,691.4063 918.2656,690.0938 920,690.0938 C920.5781,690.0938 921.1875,690.25 921.6563,690.5 C922.1406,690.7813 922.3125,691 922.4063,691.4063 C922.4688,691.8125 922.5,691.9375 922.6406,692.0625 C922.7813,692.2031 923.0156,692.3125 923.2344,692.3125 C923.5,692.3125 923.7656,692.1719 923.9375,691.9531 C924.0469,691.7969 924.0781,691.6094 924.0781,691.1875 L924.0781,689.7656 C924.0781,689.3281 924.0625,689.2031 923.9688,689.0469 C923.8125,688.7813 923.5313,688.6406 923.2344,688.6406 C922.9375,688.6406 922.7344,688.7344 922.5156,689.0469 L922.3438,688.9688 Z " fill="#000000"/><text fill="#000000" font-family="sans-serif" font-size="14" lengthAdjust="spacing" textLength="153" x="934" y="698.1436">ObtainTokenRequest</text><line style="stroke:#181818;stroke-width:0.5;" x1="906" x2="1089" y1="709.2969" y2="709.2969"/><ellipse cx="916" cy="720.2969" fill="none" rx="3" ry="3" style="stroke:#038048;stroke-width:1.0;"/><text fill="#000000" font-family="sans-serif" font-size="14" lengthAdjust="spacing" textLength="135" x="925" y="726.292">grant_type : string</text><ellipse cx="916" cy="736.5938" fill="none" rx="3" ry="3" style="stroke:#038048;stroke-width:1.0;"/><text fill="#000000" font-family="sans-serif" font-size="14" lengthAdjust="spacing" textLength="157" x="925" y="742.5889">refresh_token : string</text><ellipse cx="916" cy="752.8906" fill="none" rx="3" ry="3" style="stroke:#038048;stroke-width:1.0;"/><text fill="#000000" font-family="sans-serif" font-size="14" lengthAdjust="spacing" textLength="90" x="925" y="758.8857">code : string</text><ellipse cx="916" cy="769.1875" fill="none" rx="3" ry="3" style="stroke:#038048;stroke-width:1.0;"/><text fill="#000000" font-family="sans-serif" font-size="14" lengthAdjust="spacing" textLength="134" x="925" y="775.1826">short_lived : string</text><ellipse cx="916" cy="785.4844" fill="none" rx="3" ry="3" style="stroke:#038048;stroke-width:1.0;"/><text fill="#000000" font-family="sans-serif" font-size="14" lengthAdjust="spacing" textLength="116" x="925" y="791.4795">client_id : string</text><ellipse cx="916" cy="801.7813" fill="none" rx="3" ry="3" style="stroke:#038048;stroke-width:1.0;"/><text fill="#000000" font-family="sans-serif" font-size="14" lengthAdjust="spacing" textLength="149" x="925" y="807.7764">client_secret : string</text><ellipse cx="916" cy="818.0781" fill="none" rx="3" ry="3" style="stroke:#038048;stroke-width:1.0;"/><text fill="#000000" font-family="sans-serif" font-size="14" lengthAdjust="spacing" textLength="105" x="925" y="824.0732">scopes : string</text><line style="stroke:#181818;stroke-width:0.5;" x1="906" x2="1089" y1="831.375" y2="831.375"/></g><!--MD5=[5e03793b92c3a2216eb9003616ffb388]
class SquarePaymentController--><g id="elem_SquarePaymentController"><rect codeLine="62" fill="#F1F1F1" height="113.1875" id="SquarePaymentController" rx="2.5" ry="2.5" style="stroke:#181818;stroke-width:0.5;" width="383" x="1019" y="44.2969"/><ellipse cx="1113.25" cy="60.2969" fill="#ADD1B2" rx="11" ry="11" style="stroke:#181818;stroke-width:1.0;"/><path d="M1115.5938,55.9688 C1114.6563,55.5313 1114.0625,55.3906 1113.1875,55.3906 C1110.5625,55.3906 1108.5625,57.4688 1108.5625,60.1875 L1108.5625,61.3125 C1108.5625,63.8906 1110.6719,65.7813 1113.5625,65.7813 C1114.7813,65.7813 1115.9375,65.4844 1116.6875,64.9375 C1117.2656,64.5313 1117.5938,64.0781 1117.5938,63.6875 C1117.5938,63.2344 1117.2031,62.8438 1116.7344,62.8438 C1116.5156,62.8438 1116.3125,62.9219 1116.125,63.1094 C1115.6719,63.5938 1115.6719,63.5938 1115.4844,63.6875 C1115.0625,63.9531 1114.375,64.0781 1113.6094,64.0781 C1111.5625,64.0781 1110.2656,62.9844 1110.2656,61.2813 L1110.2656,60.1875 C1110.2656,58.4063 1111.5156,57.0938 1113.25,57.0938 C1113.8281,57.0938 1114.4375,57.25 1114.9063,57.5 C1115.3906,57.7813 1115.5625,58 1115.6563,58.4063 C1115.7188,58.8125 1115.75,58.9375 1115.8906,59.0625 C1116.0313,59.2031 1116.2656,59.3125 1116.4844,59.3125 C1116.75,59.3125 1117.0156,59.1719 1117.1875,58.9531 C1117.2969,58.7969 1117.3281,58.6094 1117.3281,58.1875 L1117.3281,56.7656 C1117.3281,56.3281 1117.3125,56.2031 1117.2188,56.0469 C1117.0625,55.7813 1116.7813,55.6406 1116.4844,55.6406 C1116.1875,55.6406 1115.9844,55.7344 1115.7656,56.0469 L1115.5938,55.9688 Z " fill="#000000"/><text fill="#000000" font-family="sans-serif" font-size="14" lengthAdjust="spacing" textLength="186" x="1133.75" y="65.1436">SquarePaymentController</text><line style="stroke:#181818;stroke-width:0.5;" x1="1020" x2="1401" y1="76.2969" y2="76.2969"/><line style="stroke:#181818;stroke-width:0.5;" x1="1020" x2="1401" y1="84.2969" y2="84.2969"/><ellipse cx="1030" cy="95.2969" fill="#84BE84" rx="3" ry="3" style="stroke:#038048;stroke-width:1.0;"/><text fill="#000000" font-family="sans-serif" font-size="14" lengthAdjust="spacing" textLength="357" x="1039" y="101.292">create(CheckoutWithSquareCommand command)</text><ellipse cx="1030" cy="111.5938" fill="#84BE84" rx="3" ry="3" style="stroke:#038048;stroke-width:1.0;"/><text fill="#000000" font-family="sans-serif" font-size="14" lengthAdjust="spacing" textLength="335" x="1039" y="117.5889">read(RetrieveWithSquareCommand command)</text><ellipse cx="1030" cy="127.8906" fill="#84BE84" rx="3" ry="3" style="stroke:#038048;stroke-width:1.0;"/><text fill="#000000" font-family="sans-serif" font-size="14" lengthAdjust="spacing" textLength="344" x="1039" y="133.8857">update(UpdateWithSquareCommand command)</text><ellipse cx="1030" cy="144.1875" fill="#84BE84" rx="3" ry="3" style="stroke:#038048;stroke-width:1.0;"/><text fill="#000000" font-family="sans-serif" font-size="14" lengthAdjust="spacing" textLength="333" x="1039" y="150.1826">delete(DeleteLinkSquareCommand command)</text></g><!--MD5=[8ef198ecc90da7eff8ef4c50656473b8]
class CheckoutWithSquareCommand--><g id="elem_CheckoutWithSquareCommand"><rect codeLine="69" fill="#F1F1F1" height="80.5938" id="CheckoutWithSquareCommand" rx="2.5" ry="2.5" style="stroke:#181818;stroke-width:0.5;" width="272" x="620.5" y="241.2969"/><ellipse cx="642.25" cy="257.2969" fill="#ADD1B2" rx="11" ry="11" style="stroke:#181818;stroke-width:1.0;"/><path d="M644.5938,252.9688 C643.6563,252.5313 643.0625,252.3906 642.1875,252.3906 C639.5625,252.3906 637.5625,254.4688 637.5625,257.1875 L637.5625,258.3125 C637.5625,260.8906 639.6719,262.7813 642.5625,262.7813 C643.7813,262.7813 644.9375,262.4844 645.6875,261.9375 C646.2656,261.5313 646.5938,261.0781 646.5938,260.6875 C646.5938,260.2344 646.2031,259.8438 645.7344,259.8438 C645.5156,259.8438 645.3125,259.9219 645.125,260.1094 C644.6719,260.5938 644.6719,260.5938 644.4844,260.6875 C644.0625,260.9531 643.375,261.0781 642.6094,261.0781 C640.5625,261.0781 639.2656,259.9844 639.2656,258.2813 L639.2656,257.1875 C639.2656,255.4063 640.5156,254.0938 642.25,254.0938 C642.8281,254.0938 643.4375,254.25 643.9063,254.5 C644.3906,254.7813 644.5625,255 644.6563,255.4063 C644.7188,255.8125 644.75,255.9375 644.8906,256.0625 C645.0313,256.2031 645.2656,256.3125 645.4844,256.3125 C645.75,256.3125 646.0156,256.1719 646.1875,255.9531 C646.2969,255.7969 646.3281,255.6094 646.3281,255.1875 L646.3281,253.7656 C646.3281,253.3281 646.3125,253.2031 646.2188,253.0469 C646.0625,252.7813 645.7813,252.6406 645.4844,252.6406 C645.1875,252.6406 644.9844,252.7344 644.7656,253.0469 L644.5938,252.9688 Z " fill="#000000"/><text fill="#000000" font-family="sans-serif" font-size="14" lengthAdjust="spacing" textLength="225" x="657.75" y="262.1436">CheckoutWithSquareCommand</text><line style="stroke:#181818;stroke-width:0.5;" x1="621.5" x2="891.5" y1="273.2969" y2="273.2969"/><ellipse cx="631.5" cy="284.2969" fill="none" rx="3" ry="3" style="stroke:#038048;stroke-width:1.0;"/><text fill="#000000" font-family="sans-serif" font-size="14" lengthAdjust="spacing" textLength="220" x="640.5" y="290.292">square_service : SquareService</text><line style="stroke:#181818;stroke-width:0.5;" x1="621.5" x2="891.5" y1="297.5938" y2="297.5938"/><ellipse cx="631.5" cy="308.5938" fill="#84BE84" rx="3" ry="3" style="stroke:#038048;stroke-width:1.0;"/><text fill="#000000" font-family="sans-serif" font-size="14" lengthAdjust="spacing" textLength="246" x="640.5" y="314.5889">execute(self) : CheckoutResponse</text></g><!--MD5=[499b507d6467b14d003b34b04c8225a8]
class RetrieveWithSquareCommand--><g id="elem_RetrieveWithSquareCommand"><rect codeLine="74" fill="#F1F1F1" height="80.5938" id="RetrieveWithSquareCommand" rx="2.5" ry="2.5" style="stroke:#181818;stroke-width:0.5;" width="272" x="927.5" y="241.2969"/><ellipse cx="952.4" cy="257.2969" fill="#ADD1B2" rx="11" ry="11" style="stroke:#181818;stroke-width:1.0;"/><path d="M954.7438,252.9688 C953.8063,252.5313 953.2125,252.3906 952.3375,252.3906 C949.7125,252.3906 947.7125,254.4688 947.7125,257.1875 L947.7125,258.3125 C947.7125,260.8906 949.8219,262.7813 952.7125,262.7813 C953.9313,262.7813 955.0875,262.4844 955.8375,261.9375 C956.4156,261.5313 956.7438,261.0781 956.7438,260.6875 C956.7438,260.2344 956.3531,259.8438 955.8844,259.8438 C955.6656,259.8438 955.4625,259.9219 955.275,260.1094 C954.8219,260.5938 954.8219,260.5938 954.6344,260.6875 C954.2125,260.9531 953.525,261.0781 952.7594,261.0781 C950.7125,261.0781 949.4156,259.9844 949.4156,258.2813 L949.4156,257.1875 C949.4156,255.4063 950.6656,254.0938 952.4,254.0938 C952.9781,254.0938 953.5875,254.25 954.0563,254.5 C954.5406,254.7813 954.7125,255 954.8063,255.4063 C954.8688,255.8125 954.9,255.9375 955.0406,256.0625 C955.1813,256.2031 955.4156,256.3125 955.6344,256.3125 C955.9,256.3125 956.1656,256.1719 956.3375,255.9531 C956.4469,255.7969 956.4781,255.6094 956.4781,255.1875 L956.4781,253.7656 C956.4781,253.3281 956.4625,253.2031 956.3688,253.0469 C956.2125,252.7813 955.9313,252.6406 955.6344,252.6406 C955.3375,252.6406 955.1344,252.7344 954.9156,253.0469 L954.7438,252.9688 Z " fill="#000000"/><text fill="#000000" font-family="sans-serif" font-size="14" lengthAdjust="spacing" textLength="218" x="968.6" y="262.1436">RetrieveWithSquareCommand</text><line style="stroke:#181818;stroke-width:0.5;" x1="928.5" x2="1198.5" y1="273.2969" y2="273.2969"/><ellipse cx="938.5" cy="284.2969" fill="none" rx="3" ry="3" style="stroke:#038048;stroke-width:1.0;"/><text fill="#000000" font-family="sans-serif" font-size="14" lengthAdjust="spacing" textLength="220" x="947.5" y="290.292">square_service : SquareService</text><line style="stroke:#181818;stroke-width:0.5;" x1="928.5" x2="1198.5" y1="297.5938" y2="297.5938"/><ellipse cx="938.5" cy="308.5938" fill="#84BE84" rx="3" ry="3" style="stroke:#038048;stroke-width:1.0;"/><text fill="#000000" font-family="sans-serif" font-size="14" lengthAdjust="spacing" textLength="246" x="947.5" y="314.5889">execute(self) : CheckoutResponse</text></g><!--MD5=[0ff90fa3199e99d180704784f7c52b46]
class UpdateWithSquareCommand--><g id="elem_UpdateWithSquareCommand"><rect codeLine="79" fill="#F1F1F1" height="80.5938" id="UpdateWithSquareCommand" rx="2.5" ry="2.5" style="stroke:#181818;stroke-width:0.5;" width="246" x="1234.5" y="241.2969"/><ellipse cx="1252.2" cy="257.2969" fill="#ADD1B2" rx="11" ry="11" style="stroke:#181818;stroke-width:1.0;"/><path d="M1254.5438,252.9688 C1253.6063,252.5313 1253.0125,252.3906 1252.1375,252.3906 C1249.5125,252.3906 1247.5125,254.4688 1247.5125,257.1875 L1247.5125,258.3125 C1247.5125,260.8906 1249.6219,262.7813 1252.5125,262.7813 C1253.7313,262.7813 1254.8875,262.4844 1255.6375,261.9375 C1256.2156,261.5313 1256.5438,261.0781 1256.5438,260.6875 C1256.5438,260.2344 1256.1531,259.8438 1255.6844,259.8438 C1255.4656,259.8438 1255.2625,259.9219 1255.075,260.1094 C1254.6219,260.5938 1254.6219,260.5938 1254.4344,260.6875 C1254.0125,260.9531 1253.325,261.0781 1252.5594,261.0781 C1250.5125,261.0781 1249.2156,259.9844 1249.2156,258.2813 L1249.2156,257.1875 C1249.2156,255.4063 1250.4656,254.0938 1252.2,254.0938 C1252.7781,254.0938 1253.3875,254.25 1253.8563,254.5 C1254.3406,254.7813 1254.5125,255 1254.6063,255.4063 C1254.6688,255.8125 1254.7,255.9375 1254.8406,256.0625 C1254.9813,256.2031 1255.2156,256.3125 1255.4344,256.3125 C1255.7,256.3125 1255.9656,256.1719 1256.1375,255.9531 C1256.2469,255.7969 1256.2781,255.6094 1256.2781,255.1875 L1256.2781,253.7656 C1256.2781,253.3281 1256.2625,253.2031 1256.1688,253.0469 C1256.0125,252.7813 1255.7313,252.6406 1255.4344,252.6406 C1255.1375,252.6406 1254.9344,252.7344 1254.7156,253.0469 L1254.5438,252.9688 Z " fill="#000000"/><text fill="#000000" font-family="sans-serif" font-size="14" lengthAdjust="spacing" textLength="208" x="1266.8" y="262.1436">UpdateWithSquareCommand</text><line style="stroke:#181818;stroke-width:0.5;" x1="1235.5" x2="1479.5" y1="273.2969" y2="273.2969"/><ellipse cx="1245.5" cy="284.2969" fill="none" rx="3" ry="3" style="stroke:#038048;stroke-width:1.0;"/><text fill="#000000" font-family="sans-serif" font-size="14" lengthAdjust="spacing" textLength="220" x="1254.5" y="290.292">square_service : SquareService</text><line style="stroke:#181818;stroke-width:0.5;" x1="1235.5" x2="1479.5" y1="297.5938" y2="297.5938"/><ellipse cx="1245.5" cy="308.5938" fill="#84BE84" rx="3" ry="3" style="stroke:#038048;stroke-width:1.0;"/><text fill="#000000" font-family="sans-serif" font-size="14" lengthAdjust="spacing" textLength="139" x="1254.5" y="314.5889">execute(self) : bool</text></g><!--MD5=[feba1852b3bd3ccf46da0fdb73cc640b]
class DeleteLinkSquareCommand--><g id="elem_DeleteLinkSquareCommand"><rect codeLine="84" fill="#F1F1F1" height="80.5938" id="DeleteLinkSquareCommand" rx="2.5" ry="2.5" style="stroke:#181818;stroke-width:0.5;" width="246" x="1515.5" y="241.2969"/><ellipse cx="1536.35" cy="257.2969" fill="#ADD1B2" rx="11" ry="11" style="stroke:#181818;stroke-width:1.0;"/><path d="M1538.6938,252.9688 C1537.7563,252.5313 1537.1625,252.3906 1536.2875,252.3906 C1533.6625,252.3906 1531.6625,254.4688 1531.6625,257.1875 L1531.6625,258.3125 C1531.6625,260.8906 1533.7719,262.7813 1536.6625,262.7813 C1537.8813,262.7813 1539.0375,262.4844 1539.7875,261.9375 C1540.3656,261.5313 1540.6938,261.0781 1540.6938,260.6875 C1540.6938,260.2344 1540.3031,259.8438 1539.8344,259.8438 C1539.6156,259.8438 1539.4125,259.9219 1539.225,260.1094 C1538.7719,260.5938 1538.7719,260.5938 1538.5844,260.6875 C1538.1625,260.9531 1537.475,261.0781 1536.7094,261.0781 C1534.6625,261.0781 1533.3656,259.9844 1533.3656,258.2813 L1533.3656,257.1875 C1533.3656,255.4063 1534.6156,254.0938 1536.35,254.0938 C1536.9281,254.0938 1537.5375,254.25 1538.0063,254.5 C1538.4906,254.7813 1538.6625,255 1538.7563,255.4063 C1538.8188,255.8125 1538.85,255.9375 1538.9906,256.0625 C1539.1313,256.2031 1539.3656,256.3125 1539.5844,256.3125 C1539.85,256.3125 1540.1156,256.1719 1540.2875,255.9531 C1540.3969,255.7969 1540.4281,255.6094 1540.4281,255.1875 L1540.4281,253.7656 C1540.4281,253.3281 1540.4125,253.2031 1540.3188,253.0469 C1540.1625,252.7813 1539.8813,252.6406 1539.5844,252.6406 C1539.2875,252.6406 1539.0844,252.7344 1538.8656,253.0469 L1538.6938,252.9688 Z " fill="#000000"/><text fill="#000000" font-family="sans-serif" font-size="14" lengthAdjust="spacing" textLength="201" x="1551.65" y="262.1436">DeleteLinkSquareCommand</text><line style="stroke:#181818;stroke-width:0.5;" x1="1516.5" x2="1760.5" y1="273.2969" y2="273.2969"/><ellipse cx="1526.5" cy="284.2969" fill="none" rx="3" ry="3" style="stroke:#038048;stroke-width:1.0;"/><text fill="#000000" font-family="sans-serif" font-size="14" lengthAdjust="spacing" textLength="220" x="1535.5" y="290.292">square_service : SquareService</text><line style="stroke:#181818;stroke-width:0.5;" x1="1516.5" x2="1760.5" y1="297.5938" y2="297.5938"/><ellipse cx="1526.5" cy="308.5938" fill="#84BE84" rx="3" ry="3" style="stroke:#038048;stroke-width:1.0;"/><text fill="#000000" font-family="sans-serif" font-size="14" lengthAdjust="spacing" textLength="139" x="1535.5" y="314.5889">execute(self) : bool</text></g><!--MD5=[48e4669d5beec46de07565680b1f0cff]
class CheckoutResponse--><g id="elem_CheckoutResponse"><rect codeLine="89" fill="#F1F1F1" height="129.4844" id="CheckoutResponse" rx="2.5" ry="2.5" style="stroke:#181818;stroke-width:0.5;" width="171" x="1125" y="693.7969"/><ellipse cx="1140" cy="709.7969" fill="#ADD1B2" rx="11" ry="11" style="stroke:#181818;stroke-width:1.0;"/><path d="M1142.3438,705.4688 C1141.4063,705.0313 1140.8125,704.8906 1139.9375,704.8906 C1137.3125,704.8906 1135.3125,706.9688 1135.3125,709.6875 L1135.3125,710.8125 C1135.3125,713.3906 1137.4219,715.2813 1140.3125,715.2813 C1141.5313,715.2813 1142.6875,714.9844 1143.4375,714.4375 C1144.0156,714.0313 1144.3438,713.5781 1144.3438,713.1875 C1144.3438,712.7344 1143.9531,712.3438 1143.4844,712.3438 C1143.2656,712.3438 1143.0625,712.4219 1142.875,712.6094 C1142.4219,713.0938 1142.4219,713.0938 1142.2344,713.1875 C1141.8125,713.4531 1141.125,713.5781 1140.3594,713.5781 C1138.3125,713.5781 1137.0156,712.4844 1137.0156,710.7813 L1137.0156,709.6875 C1137.0156,707.9063 1138.2656,706.5938 1140,706.5938 C1140.5781,706.5938 1141.1875,706.75 1141.6563,707 C1142.1406,707.2813 1142.3125,707.5 1142.4063,707.9063 C1142.4688,708.3125 1142.5,708.4375 1142.6406,708.5625 C1142.7813,708.7031 1143.0156,708.8125 1143.2344,708.8125 C1143.5,708.8125 1143.7656,708.6719 1143.9375,708.4531 C1144.0469,708.2969 1144.0781,708.1094 1144.0781,707.6875 L1144.0781,706.2656 C1144.0781,705.8281 1144.0625,705.7031 1143.9688,705.5469 C1143.8125,705.2813 1143.5313,705.1406 1143.2344,705.1406 C1142.9375,705.1406 1142.7344,705.2344 1142.5156,705.5469 L1142.3438,705.4688 Z " fill="#000000"/><text fill="#000000" font-family="sans-serif" font-size="14" lengthAdjust="spacing" textLength="139" x="1154" y="714.6436">CheckoutResponse</text><line style="stroke:#181818;stroke-width:0.5;" x1="1126" x2="1295" y1="725.7969" y2="725.7969"/><ellipse cx="1136" cy="736.7969" fill="none" rx="3" ry="3" style="stroke:#038048;stroke-width:1.0;"/><text fill="#000000" font-family="sans-serif" font-size="14" lengthAdjust="spacing" textLength="68" x="1145" y="742.792">id : string</text><ellipse cx="1136" cy="753.0938" fill="none" rx="3" ry="3" style="stroke:#038048;stroke-width:1.0;"/><text fill="#000000" font-family="sans-serif" font-size="14" lengthAdjust="spacing" textLength="133" x="1145" y="759.0889">created_at : string</text><ellipse cx="1136" cy="769.3906" fill="none" rx="3" ry="3" style="stroke:#038048;stroke-width:1.0;"/><text fill="#000000" font-family="sans-serif" font-size="14" lengthAdjust="spacing" textLength="114" x="1145" y="775.3857">order_id : string</text><ellipse cx="1136" cy="785.6875" fill="none" rx="3" ry="3" style="stroke:#038048;stroke-width:1.0;"/><text fill="#000000" font-family="sans-serif" font-size="14" lengthAdjust="spacing" textLength="73" x="1145" y="791.6826">url : string</text><ellipse cx="1136" cy="801.9844" fill="none" rx="3" ry="3" style="stroke:#038048;stroke-width:1.0;"/><text fill="#000000" font-family="sans-serif" font-size="14" lengthAdjust="spacing" textLength="107" x="1145" y="807.9795">version : string</text><line style="stroke:#181818;stroke-width:0.5;" x1="1126" x2="1295" y1="815.2813" y2="815.2813"/></g><!--MD5=[a96d3e6272ebfa61c2e302757b2000cc]
class CheckoutRequest--><g id="elem_CheckoutRequest"><rect codeLine="97" fill="#F1F1F1" height="80.5938" id="CheckoutRequest" rx="2.5" ry="2.5" style="stroke:#181818;stroke-width:0.5;" width="160" x="1331.5" y="717.7969"/><ellipse cx="1346.5" cy="733.7969" fill="#ADD1B2" rx="11" ry="11" style="stroke:#181818;stroke-width:1.0;"/><path d="M1348.8438,729.4688 C1347.9063,729.0313 1347.3125,728.8906 1346.4375,728.8906 C1343.8125,728.8906 1341.8125,730.9688 1341.8125,733.6875 L1341.8125,734.8125 C1341.8125,737.3906 1343.9219,739.2813 1346.8125,739.2813 C1348.0313,739.2813 1349.1875,738.9844 1349.9375,738.4375 C1350.5156,738.0313 1350.8438,737.5781 1350.8438,737.1875 C1350.8438,736.7344 1350.4531,736.3438 1349.9844,736.3438 C1349.7656,736.3438 1349.5625,736.4219 1349.375,736.6094 C1348.9219,737.0938 1348.9219,737.0938 1348.7344,737.1875 C1348.3125,737.4531 1347.625,737.5781 1346.8594,737.5781 C1344.8125,737.5781 1343.5156,736.4844 1343.5156,734.7813 L1343.5156,733.6875 C1343.5156,731.9063 1344.7656,730.5938 1346.5,730.5938 C1347.0781,730.5938 1347.6875,730.75 1348.1563,731 C1348.6406,731.2813 1348.8125,731.5 1348.9063,731.9063 C1348.9688,732.3125 1349,732.4375 1349.1406,732.5625 C1349.2813,732.7031 1349.5156,732.8125 1349.7344,732.8125 C1350,732.8125 1350.2656,732.6719 1350.4375,732.4531 C1350.5469,732.2969 1350.5781,732.1094 1350.5781,731.6875 L1350.5781,730.2656 C1350.5781,729.8281 1350.5625,729.7031 1350.4688,729.5469 C1350.3125,729.2813 1350.0313,729.1406 1349.7344,729.1406 C1349.4375,729.1406 1349.2344,729.2344 1349.0156,729.5469 L1348.8438,729.4688 Z " fill="#000000"/><text fill="#000000" font-family="sans-serif" font-size="14" lengthAdjust="spacing" textLength="128" x="1360.5" y="738.6436">CheckoutRequest</text><line style="stroke:#181818;stroke-width:0.5;" x1="1332.5" x2="1490.5" y1="749.7969" y2="749.7969"/><ellipse cx="1342.5" cy="760.7969" fill="none" rx="3" ry="3" style="stroke:#038048;stroke-width:1.0;"/><text fill="#000000" font-family="sans-serif" font-size="14" lengthAdjust="spacing" textLength="93" x="1351.5" y="766.792">order : Order</text><ellipse cx="1342.5" cy="777.0938" fill="none" rx="3" ry="3" style="stroke:#038048;stroke-width:1.0;"/><text fill="#000000" font-family="sans-serif" font-size="14" lengthAdjust="spacing" textLength="102" x="1351.5" y="783.0889">source : string</text><line style="stroke:#181818;stroke-width:0.5;" x1="1332.5" x2="1490.5" y1="790.3906" y2="790.3906"/></g><!--MD5=[cf4d6237fcae255cd2e1656cf84a30e2]
class Order--><g id="elem_Order"><rect codeLine="102" fill="#F1F1F1" height="129.4844" id="Order" rx="2.5" ry="2.5" style="stroke:#181818;stroke-width:0.5;" width="315" x="1230" y="907.7969"/><ellipse cx="1362.75" cy="923.7969" fill="#ADD1B2" rx="11" ry="11" style="stroke:#181818;stroke-width:1.0;"/><path d="M1365.0938,919.4688 C1364.1563,919.0313 1363.5625,918.8906 1362.6875,918.8906 C1360.0625,918.8906 1358.0625,920.9688 1358.0625,923.6875 L1358.0625,924.8125 C1358.0625,927.3906 1360.1719,929.2813 1363.0625,929.2813 C1364.2813,929.2813 1365.4375,928.9844 1366.1875,928.4375 C1366.7656,928.0313 1367.0938,927.5781 1367.0938,927.1875 C1367.0938,926.7344 1366.7031,926.3438 1366.2344,926.3438 C1366.0156,926.3438 1365.8125,926.4219 1365.625,926.6094 C1365.1719,927.0938 1365.1719,927.0938 1364.9844,927.1875 C1364.5625,927.4531 1363.875,927.5781 1363.1094,927.5781 C1361.0625,927.5781 1359.7656,926.4844 1359.7656,924.7813 L1359.7656,923.6875 C1359.7656,921.9063 1361.0156,920.5938 1362.75,920.5938 C1363.3281,920.5938 1363.9375,920.75 1364.4063,921 C1364.8906,921.2813 1365.0625,921.5 1365.1563,921.9063 C1365.2188,922.3125 1365.25,922.4375 1365.3906,922.5625 C1365.5313,922.7031 1365.7656,922.8125 1365.9844,922.8125 C1366.25,922.8125 1366.5156,922.6719 1366.6875,922.4531 C1366.7969,922.2969 1366.8281,922.1094 1366.8281,921.6875 L1366.8281,920.2656 C1366.8281,919.8281 1366.8125,919.7031 1366.7188,919.5469 C1366.5625,919.2813 1366.2813,919.1406 1365.9844,919.1406 C1365.6875,919.1406 1365.4844,919.2344 1365.2656,919.5469 L1365.0938,919.4688 Z " fill="#000000"/><text fill="#000000" font-family="sans-serif" font-size="14" lengthAdjust="spacing" textLength="41" x="1383.25" y="928.6436">Order</text><line style="stroke:#181818;stroke-width:0.5;" x1="1231" x2="1544" y1="939.7969" y2="939.7969"/><ellipse cx="1241" cy="950.7969" fill="none" rx="3" ry="3" style="stroke:#038048;stroke-width:1.0;"/><text fill="#000000" font-family="sans-serif" font-size="14" lengthAdjust="spacing" textLength="143" x="1250" y="956.792">customer_id : string</text><ellipse cx="1241" cy="967.0938" fill="none" rx="3" ry="3" style="stroke:#038048;stroke-width:1.0;"/><text fill="#000000" font-family="sans-serif" font-size="14" lengthAdjust="spacing" textLength="133" x="1250" y="973.0889">location_id : string</text><ellipse cx="1241" cy="983.3906" fill="none" rx="3" ry="3" style="stroke:#038048;stroke-width:1.0;"/><text fill="#000000" font-family="sans-serif" font-size="14" lengthAdjust="spacing" textLength="161" x="1250" y="989.3857">line_items : LineItem[]</text><ellipse cx="1241" cy="999.6875" fill="none" rx="3" ry="3" style="stroke:#038048;stroke-width:1.0;"/><text fill="#000000" font-family="sans-serif" font-size="14" lengthAdjust="spacing" textLength="161" x="1250" y="1005.6826">payment_note : string</text><ellipse cx="1241" cy="1015.9844" fill="none" rx="3" ry="3" style="stroke:#038048;stroke-width:1.0;"/><text fill="#000000" font-family="sans-serif" font-size="14" lengthAdjust="spacing" textLength="289" x="1250" y="1021.9795">pre_populated_data : PrePopulatedData</text><line style="stroke:#181818;stroke-width:0.5;" x1="1231" x2="1544" y1="1029.2813" y2="1029.2813"/></g><!--MD5=[24e7354b14fe45153051fb5e63b1cd34]
class LineItem--><g id="elem_LineItem"><rect codeLine="110" fill="#F1F1F1" height="113.1875" id="LineItem" rx="2.5" ry="2.5" style="stroke:#181818;stroke-width:0.5;" width="220" x="1050.5" y="1105.2969"/><ellipse cx="1124.25" cy="1121.2969" fill="#ADD1B2" rx="11" ry="11" style="stroke:#181818;stroke-width:1.0;"/><path d="M1126.5938,1116.9688 C1125.6563,1116.5313 1125.0625,1116.3906 1124.1875,1116.3906 C1121.5625,1116.3906 1119.5625,1118.4688 1119.5625,1121.1875 L1119.5625,1122.3125 C1119.5625,1124.8906 1121.6719,1126.7813 1124.5625,1126.7813 C1125.7813,1126.7813 1126.9375,1126.4844 1127.6875,1125.9375 C1128.2656,1125.5313 1128.5938,1125.0781 1128.5938,1124.6875 C1128.5938,1124.2344 1128.2031,1123.8438 1127.7344,1123.8438 C1127.5156,1123.8438 1127.3125,1123.9219 1127.125,1124.1094 C1126.6719,1124.5938 1126.6719,1124.5938 1126.4844,1124.6875 C1126.0625,1124.9531 1125.375,1125.0781 1124.6094,1125.0781 C1122.5625,1125.0781 1121.2656,1123.9844 1121.2656,1122.2813 L1121.2656,1121.1875 C1121.2656,1119.4063 1122.5156,1118.0938 1124.25,1118.0938 C1124.8281,1118.0938 1125.4375,1118.25 1125.9063,1118.5 C1126.3906,1118.7813 1126.5625,1119 1126.6563,1119.4063 C1126.7188,1119.8125 1126.75,1119.9375 1126.8906,1120.0625 C1127.0313,1120.2031 1127.2656,1120.3125 1127.4844,1120.3125 C1127.75,1120.3125 1128.0156,1120.1719 1128.1875,1119.9531 C1128.2969,1119.7969 1128.3281,1119.6094 1128.3281,1119.1875 L1128.3281,1117.7656 C1128.3281,1117.3281 1128.3125,1117.2031 1128.2188,1117.0469 C1128.0625,1116.7813 1127.7813,1116.6406 1127.4844,1116.6406 C1127.1875,1116.6406 1126.9844,1116.7344 1126.7656,1117.0469 L1126.5938,1116.9688 Z " fill="#000000"/><text fill="#000000" font-family="sans-serif" font-size="14" lengthAdjust="spacing" textLength="64" x="1144.75" y="1126.1436">LineItem</text><line style="stroke:#181818;stroke-width:0.5;" x1="1051.5" x2="1269.5" y1="1137.2969" y2="1137.2969"/><ellipse cx="1061.5" cy="1148.2969" fill="none" rx="3" ry="3" style="stroke:#038048;stroke-width:1.0;"/><text fill="#000000" font-family="sans-serif" font-size="14" lengthAdjust="spacing" textLength="130" x="1070.5" y="1154.292">item_type : string</text><ellipse cx="1061.5" cy="1164.5938" fill="none" rx="3" ry="3" style="stroke:#038048;stroke-width:1.0;"/><text fill="#000000" font-family="sans-serif" font-size="14" lengthAdjust="spacing" textLength="95" x="1070.5" y="1170.5889">name : string</text><ellipse cx="1061.5" cy="1180.8906" fill="none" rx="3" ry="3" style="stroke:#038048;stroke-width:1.0;"/><text fill="#000000" font-family="sans-serif" font-size="14" lengthAdjust="spacing" textLength="93" x="1070.5" y="1186.8857">quantity : int</text><ellipse cx="1061.5" cy="1197.1875" fill="none" rx="3" ry="3" style="stroke:#038048;stroke-width:1.0;"/><text fill="#000000" font-family="sans-serif" font-size="14" lengthAdjust="spacing" textLength="194" x="1070.5" y="1203.1826">base_price_money : Money</text><line style="stroke:#181818;stroke-width:0.5;" x1="1051.5" x2="1269.5" y1="1210.4844" y2="1210.4844"/></g><!--MD5=[7162a60a1e87e344919cb9da0847da14]
class PrePopulatedData--><g id="elem_PrePopulatedData"><rect codeLine="117" fill="#F1F1F1" height="80.5938" id="PrePopulatedData" rx="2.5" ry="2.5" style="stroke:#181818;stroke-width:0.5;" width="238" x="1305.5" y="1121.2969"/><ellipse cx="1354.75" cy="1137.2969" fill="#ADD1B2" rx="11" ry="11" style="stroke:#181818;stroke-width:1.0;"/><path d="M1357.0938,1132.9688 C1356.1563,1132.5313 1355.5625,1132.3906 1354.6875,1132.3906 C1352.0625,1132.3906 1350.0625,1134.4688 1350.0625,1137.1875 L1350.0625,1138.3125 C1350.0625,1140.8906 1352.1719,1142.7813 1355.0625,1142.7813 C1356.2813,1142.7813 1357.4375,1142.4844 1358.1875,1141.9375 C1358.7656,1141.5313 1359.0938,1141.0781 1359.0938,1140.6875 C1359.0938,1140.2344 1358.7031,1139.8438 1358.2344,1139.8438 C1358.0156,1139.8438 1357.8125,1139.9219 1357.625,1140.1094 C1357.1719,1140.5938 1357.1719,1140.5938 1356.9844,1140.6875 C1356.5625,1140.9531 1355.875,1141.0781 1355.1094,1141.0781 C1353.0625,1141.0781 1351.7656,1139.9844 1351.7656,1138.2813 L1351.7656,1137.1875 C1351.7656,1135.4063 1353.0156,1134.0938 1354.75,1134.0938 C1355.3281,1134.0938 1355.9375,1134.25 1356.4063,1134.5 C1356.8906,1134.7813 1357.0625,1135 1357.1563,1135.4063 C1357.2188,1135.8125 1357.25,1135.9375 1357.3906,1136.0625 C1357.5313,1136.2031 1357.7656,1136.3125 1357.9844,1136.3125 C1358.25,1136.3125 1358.5156,1136.1719 1358.6875,1135.9531 C1358.7969,1135.7969 1358.8281,1135.6094 1358.8281,1135.1875 L1358.8281,1133.7656 C1358.8281,1133.3281 1358.8125,1133.2031 1358.7188,1133.0469 C1358.5625,1132.7813 1358.2813,1132.6406 1357.9844,1132.6406 C1357.6875,1132.6406 1357.4844,1132.7344 1357.2656,1133.0469 L1357.0938,1132.9688 Z " fill="#000000"/><text fill="#000000" font-family="sans-serif" font-size="14" lengthAdjust="spacing" textLength="131" x="1375.25" y="1142.1436">PrePopulatedData</text><line style="stroke:#181818;stroke-width:0.5;" x1="1306.5" x2="1542.5" y1="1153.2969" y2="1153.2969"/><ellipse cx="1316.5" cy="1164.2969" fill="none" rx="3" ry="3" style="stroke:#038048;stroke-width:1.0;"/><text fill="#000000" font-family="sans-serif" font-size="14" lengthAdjust="spacing" textLength="142" x="1325.5" y="1170.292">buyer_email : string</text><ellipse cx="1316.5" cy="1180.5938" fill="none" rx="3" ry="3" style="stroke:#038048;stroke-width:1.0;"/><text fill="#000000" font-family="sans-serif" font-size="14" lengthAdjust="spacing" textLength="212" x="1325.5" y="1186.5889">buyer_phone_number : string</text><line style="stroke:#181818;stroke-width:0.5;" x1="1306.5" x2="1542.5" y1="1193.8906" y2="1193.8906"/></g><!--MD5=[08dbe06e87f91eb667838fe2f259c34a]
class Money--><g id="elem_Money"><rect codeLine="122" fill="#F1F1F1" height="80.5938" id="Money" rx="2.5" ry="2.5" style="stroke:#181818;stroke-width:0.5;" width="143" x="1089" y="1278.2969"/><ellipse cx="1132.8" cy="1294.2969" fill="#ADD1B2" rx="11" ry="11" style="stroke:#181818;stroke-width:1.0;"/><path d="M1135.1438,1289.9688 C1134.2063,1289.5313 1133.6125,1289.3906 1132.7375,1289.3906 C1130.1125,1289.3906 1128.1125,1291.4688 1128.1125,1294.1875 L1128.1125,1295.3125 C1128.1125,1297.8906 1130.2219,1299.7813 1133.1125,1299.7813 C1134.3313,1299.7813 1135.4875,1299.4844 1136.2375,1298.9375 C1136.8156,1298.5313 1137.1438,1298.0781 1137.1438,1297.6875 C1137.1438,1297.2344 1136.7531,1296.8438 1136.2844,1296.8438 C1136.0656,1296.8438 1135.8625,1296.9219 1135.675,1297.1094 C1135.2219,1297.5938 1135.2219,1297.5938 1135.0344,1297.6875 C1134.6125,1297.9531 1133.925,1298.0781 1133.1594,1298.0781 C1131.1125,1298.0781 1129.8156,1296.9844 1129.8156,1295.2813 L1129.8156,1294.1875 C1129.8156,1292.4063 1131.0656,1291.0938 1132.8,1291.0938 C1133.3781,1291.0938 1133.9875,1291.25 1134.4563,1291.5 C1134.9406,1291.7813 1135.1125,1292 1135.2063,1292.4063 C1135.2688,1292.8125 1135.3,1292.9375 1135.4406,1293.0625 C1135.5813,1293.2031 1135.8156,1293.3125 1136.0344,1293.3125 C1136.3,1293.3125 1136.5656,1293.1719 1136.7375,1292.9531 C1136.8469,1292.7969 1136.8781,1292.6094 1136.8781,1292.1875 L1136.8781,1290.7656 C1136.8781,1290.3281 1136.8625,1290.2031 1136.7688,1290.0469 C1136.6125,1289.7813 1136.3313,1289.6406 1136.0344,1289.6406 C1135.7375,1289.6406 1135.5344,1289.7344 1135.3156,1290.0469 L1135.1438,1289.9688 Z " fill="#000000"/><text fill="#000000" font-family="sans-serif" font-size="14" lengthAdjust="spacing" textLength="47" x="1153.2" y="1299.1436">Money</text><line style="stroke:#181818;stroke-width:0.5;" x1="1090" x2="1231" y1="1310.2969" y2="1310.2969"/><ellipse cx="1100" cy="1321.2969" fill="none" rx="3" ry="3" style="stroke:#038048;stroke-width:1.0;"/><text fill="#000000" font-family="sans-serif" font-size="14" lengthAdjust="spacing" textLength="88" x="1109" y="1327.292">amount : int</text><ellipse cx="1100" cy="1337.5938" fill="none" rx="3" ry="3" style="stroke:#038048;stroke-width:1.0;"/><text fill="#000000" font-family="sans-serif" font-size="14" lengthAdjust="spacing" textLength="117" x="1109" y="1343.5889">currency : string</text><line style="stroke:#181818;stroke-width:0.5;" x1="1090" x2="1231" y1="1350.8906" y2="1350.8906"/></g><!--MD5=[9ee85c12246063c9b9127ead9d28d7da]
class SquareLocationController--><g id="elem_SquareLocationController"><rect codeLine="146" fill="#F1F1F1" height="80.5938" id="SquareLocationController" rx="2.5" ry="2.5" style="stroke:#181818;stroke-width:0.5;" width="463" x="1849" y="60.2969"/><ellipse cx="1984.25" cy="76.2969" fill="#ADD1B2" rx="11" ry="11" style="stroke:#181818;stroke-width:1.0;"/><path d="M1986.5938,71.9688 C1985.6563,71.5313 1985.0625,71.3906 1984.1875,71.3906 C1981.5625,71.3906 1979.5625,73.4688 1979.5625,76.1875 L1979.5625,77.3125 C1979.5625,79.8906 1981.6719,81.7813 1984.5625,81.7813 C1985.7813,81.7813 1986.9375,81.4844 1987.6875,80.9375 C1988.2656,80.5313 1988.5938,80.0781 1988.5938,79.6875 C1988.5938,79.2344 1988.2031,78.8438 1987.7344,78.8438 C1987.5156,78.8438 1987.3125,78.9219 1987.125,79.1094 C1986.6719,79.5938 1986.6719,79.5938 1986.4844,79.6875 C1986.0625,79.9531 1985.375,80.0781 1984.6094,80.0781 C1982.5625,80.0781 1981.2656,78.9844 1981.2656,77.2813 L1981.2656,76.1875 C1981.2656,74.4063 1982.5156,73.0938 1984.25,73.0938 C1984.8281,73.0938 1985.4375,73.25 1985.9063,73.5 C1986.3906,73.7813 1986.5625,74 1986.6563,74.4063 C1986.7188,74.8125 1986.75,74.9375 1986.8906,75.0625 C1987.0313,75.2031 1987.2656,75.3125 1987.4844,75.3125 C1987.75,75.3125 1988.0156,75.1719 1988.1875,74.9531 C1988.2969,74.7969 1988.3281,74.6094 1988.3281,74.1875 L1988.3281,72.7656 C1988.3281,72.3281 1988.3125,72.2031 1988.2188,72.0469 C1988.0625,71.7813 1987.7813,71.6406 1987.4844,71.6406 C1987.1875,71.6406 1986.9844,71.7344 1986.7656,72.0469 L1986.5938,71.9688 Z " fill="#000000"/><text fill="#000000" font-family="sans-serif" font-size="14" lengthAdjust="spacing" textLength="184" x="2004.75" y="81.1436">SquareLocationController</text><line style="stroke:#181818;stroke-width:0.5;" x1="1850" x2="2311" y1="92.2969" y2="92.2969"/><line style="stroke:#181818;stroke-width:0.5;" x1="1850" x2="2311" y1="100.2969" y2="100.2969"/><ellipse cx="1860" cy="111.2969" fill="#84BE84" rx="3" ry="3" style="stroke:#038048;stroke-width:1.0;"/><text fill="#000000" font-family="sans-serif" font-size="14" lengthAdjust="spacing" textLength="396" x="1869" y="117.292">list_locations(ListLocationsSquareCommand command)</text><ellipse cx="1860" cy="127.5938" fill="#84BE84" rx="3" ry="3" style="stroke:#038048;stroke-width:1.0;"/><text fill="#000000" font-family="sans-serif" font-size="14" lengthAdjust="spacing" textLength="437" x="1869" y="133.5889">update_location(UpdateLocationSquareCommand command)</text></g><!--MD5=[927353b1f3658f4755d85fe0dcddbbf6]
class ListLocationsSquareCommand--><g id="elem_ListLocationsSquareCommand"><rect codeLine="151" fill="#F1F1F1" height="80.5938" id="ListLocationsSquareCommand" rx="2.5" ry="2.5" style="stroke:#181818;stroke-width:0.5;" width="265" x="1797" y="241.2969"/><ellipse cx="1819.2" cy="257.2969" fill="#ADD1B2" rx="11" ry="11" style="stroke:#181818;stroke-width:1.0;"/><path d="M1821.5438,252.9688 C1820.6063,252.5313 1820.0125,252.3906 1819.1375,252.3906 C1816.5125,252.3906 1814.5125,254.4688 1814.5125,257.1875 L1814.5125,258.3125 C1814.5125,260.8906 1816.6219,262.7813 1819.5125,262.7813 C1820.7313,262.7813 1821.8875,262.4844 1822.6375,261.9375 C1823.2156,261.5313 1823.5438,261.0781 1823.5438,260.6875 C1823.5438,260.2344 1823.1531,259.8438 1822.6844,259.8438 C1822.4656,259.8438 1822.2625,259.9219 1822.075,260.1094 C1821.6219,260.5938 1821.6219,260.5938 1821.4344,260.6875 C1821.0125,260.9531 1820.325,261.0781 1819.5594,261.0781 C1817.5125,261.0781 1816.2156,259.9844 1816.2156,258.2813 L1816.2156,257.1875 C1816.2156,255.4063 1817.4656,254.0938 1819.2,254.0938 C1819.7781,254.0938 1820.3875,254.25 1820.8563,254.5 C1821.3406,254.7813 1821.5125,255 1821.6063,255.4063 C1821.6688,255.8125 1821.7,255.9375 1821.8406,256.0625 C1821.9813,256.2031 1822.2156,256.3125 1822.4344,256.3125 C1822.7,256.3125 1822.9656,256.1719 1823.1375,255.9531 C1823.2469,255.7969 1823.2781,255.6094 1823.2781,255.1875 L1823.2781,253.7656 C1823.2781,253.3281 1823.2625,253.2031 1823.1688,253.0469 C1823.0125,252.7813 1822.7313,252.6406 1822.4344,252.6406 C1822.1375,252.6406 1821.9344,252.7344 1821.7156,253.0469 L1821.5438,252.9688 Z " fill="#000000"/><text fill="#000000" font-family="sans-serif" font-size="14" lengthAdjust="spacing" textLength="217" x="1834.8" y="262.1436">ListLocationsSquareCommand</text><line style="stroke:#181818;stroke-width:0.5;" x1="1798" x2="2061" y1="273.2969" y2="273.2969"/><ellipse cx="1808" cy="284.2969" fill="none" rx="3" ry="3" style="stroke:#038048;stroke-width:1.0;"/><text fill="#000000" font-family="sans-serif" font-size="14" lengthAdjust="spacing" textLength="220" x="1817" y="290.292">square_service : SquareService</text><line style="stroke:#181818;stroke-width:0.5;" x1="1798" x2="2061" y1="297.5938" y2="297.5938"/><ellipse cx="1808" cy="308.5938" fill="#84BE84" rx="3" ry="3" style="stroke:#038048;stroke-width:1.0;"/><text fill="#000000" font-family="sans-serif" font-size="14" lengthAdjust="spacing" textLength="239" x="1817" y="314.5889">execute(self) : LocationResponse</text></g><!--MD5=[1dce61032a98253a7d0a134c96c49ab4]
class UpdateLocationSquareCommand--><g id="elem_UpdateLocationSquareCommand"><rect codeLine="156" fill="#F1F1F1" height="80.5938" id="UpdateLocationSquareCommand" rx="2.5" ry="2.5" style="stroke:#181818;stroke-width:0.5;" width="268" x="2097.5" y="241.2969"/><ellipse cx="2112.5" cy="257.2969" fill="#ADD1B2" rx="11" ry="11" style="stroke:#181818;stroke-width:1.0;"/><path d="M2114.8438,252.9688 C2113.9063,252.5313 2113.3125,252.3906 2112.4375,252.3906 C2109.8125,252.3906 2107.8125,254.4688 2107.8125,257.1875 L2107.8125,258.3125 C2107.8125,260.8906 2109.9219,262.7813 2112.8125,262.7813 C2114.0313,262.7813 2115.1875,262.4844 2115.9375,261.9375 C2116.5156,261.5313 2116.8438,261.0781 2116.8438,260.6875 C2116.8438,260.2344 2116.4531,259.8438 2115.9844,259.8438 C2115.7656,259.8438 2115.5625,259.9219 2115.375,260.1094 C2114.9219,260.5938 2114.9219,260.5938 2114.7344,260.6875 C2114.3125,260.9531 2113.625,261.0781 2112.8594,261.0781 C2110.8125,261.0781 2109.5156,259.9844 2109.5156,258.2813 L2109.5156,257.1875 C2109.5156,255.4063 2110.7656,254.0938 2112.5,254.0938 C2113.0781,254.0938 2113.6875,254.25 2114.1563,254.5 C2114.6406,254.7813 2114.8125,255 2114.9063,255.4063 C2114.9688,255.8125 2115,255.9375 2115.1406,256.0625 C2115.2813,256.2031 2115.5156,256.3125 2115.7344,256.3125 C2116,256.3125 2116.2656,256.1719 2116.4375,255.9531 C2116.5469,255.7969 2116.5781,255.6094 2116.5781,255.1875 L2116.5781,253.7656 C2116.5781,253.3281 2116.5625,253.2031 2116.4688,253.0469 C2116.3125,252.7813 2116.0313,252.6406 2115.7344,252.6406 C2115.4375,252.6406 2115.2344,252.7344 2115.0156,253.0469 L2114.8438,252.9688 Z " fill="#000000"/><text fill="#000000" font-family="sans-serif" font-size="14" lengthAdjust="spacing" textLength="236" x="2126.5" y="262.1436">UpdateLocationSquareCommand</text><line style="stroke:#181818;stroke-width:0.5;" x1="2098.5" x2="2364.5" y1="273.2969" y2="273.2969"/><ellipse cx="2108.5" cy="284.2969" fill="none" rx="3" ry="3" style="stroke:#038048;stroke-width:1.0;"/><text fill="#000000" font-family="sans-serif" font-size="14" lengthAdjust="spacing" textLength="220" x="2117.5" y="290.292">square_service : SquareService</text><line style="stroke:#181818;stroke-width:0.5;" x1="2098.5" x2="2364.5" y1="297.5938" y2="297.5938"/><ellipse cx="2108.5" cy="308.5938" fill="#84BE84" rx="3" ry="3" style="stroke:#038048;stroke-width:1.0;"/><text fill="#000000" font-family="sans-serif" font-size="14" lengthAdjust="spacing" textLength="139" x="2117.5" y="314.5889">execute(self) : bool</text></g><!--MD5=[a1180356d4a0e1f39ab36d890152522c]
class LocationResponse--><g id="elem_LocationResponse"><rect codeLine="161" fill="#F1F1F1" height="64.2969" id="LocationResponse" rx="2.5" ry="2.5" style="stroke:#181818;stroke-width:0.5;" width="176" x="1573.5" y="726.2969"/><ellipse cx="1593.9" cy="742.2969" fill="#ADD1B2" rx="11" ry="11" style="stroke:#181818;stroke-width:1.0;"/><path d="M1596.2438,737.9688 C1595.3063,737.5313 1594.7125,737.3906 1593.8375,737.3906 C1591.2125,737.3906 1589.2125,739.4688 1589.2125,742.1875 L1589.2125,743.3125 C1589.2125,745.8906 1591.3219,747.7813 1594.2125,747.7813 C1595.4313,747.7813 1596.5875,747.4844 1597.3375,746.9375 C1597.9156,746.5313 1598.2438,746.0781 1598.2438,745.6875 C1598.2438,745.2344 1597.8531,744.8438 1597.3844,744.8438 C1597.1656,744.8438 1596.9625,744.9219 1596.775,745.1094 C1596.3219,745.5938 1596.3219,745.5938 1596.1344,745.6875 C1595.7125,745.9531 1595.025,746.0781 1594.2594,746.0781 C1592.2125,746.0781 1590.9156,744.9844 1590.9156,743.2813 L1590.9156,742.1875 C1590.9156,740.4063 1592.1656,739.0938 1593.9,739.0938 C1594.4781,739.0938 1595.0875,739.25 1595.5563,739.5 C1596.0406,739.7813 1596.2125,740 1596.3063,740.4063 C1596.3688,740.8125 1596.4,740.9375 1596.5406,741.0625 C1596.6813,741.2031 1596.9156,741.3125 1597.1344,741.3125 C1597.4,741.3125 1597.6656,741.1719 1597.8375,740.9531 C1597.9469,740.7969 1597.9781,740.6094 1597.9781,740.1875 L1597.9781,738.7656 C1597.9781,738.3281 1597.9625,738.2031 1597.8688,738.0469 C1597.7125,737.7813 1597.4313,737.6406 1597.1344,737.6406 C1596.8375,737.6406 1596.6344,737.7344 1596.4156,738.0469 L1596.2438,737.9688 Z " fill="#000000"/><text fill="#000000" font-family="sans-serif" font-size="14" lengthAdjust="spacing" textLength="132" x="1609.1" y="747.1436">LocationResponse</text><line style="stroke:#181818;stroke-width:0.5;" x1="1574.5" x2="1748.5" y1="758.2969" y2="758.2969"/><ellipse cx="1584.5" cy="769.2969" fill="none" rx="3" ry="3" style="stroke:#038048;stroke-width:1.0;"/><text fill="#000000" font-family="sans-serif" font-size="14" lengthAdjust="spacing" textLength="150" x="1593.5" y="775.292">locations : Location[]</text><line style="stroke:#181818;stroke-width:0.5;" x1="1574.5" x2="1748.5" y1="782.5938" y2="782.5938"/></g><!--MD5=[4f1f3706c1a355a8488e154afcaed5df]
class Location--><g id="elem_Location"><rect codeLine="165" fill="#F1F1F1" height="145.7813" id="Location" rx="2.5" ry="2.5" style="stroke:#181818;stroke-width:0.5;" width="211" x="1580" y="899.2969"/><ellipse cx="1650.25" cy="915.2969" fill="#ADD1B2" rx="11" ry="11" style="stroke:#181818;stroke-width:1.0;"/><path d="M1652.5938,910.9688 C1651.6563,910.5313 1651.0625,910.3906 1650.1875,910.3906 C1647.5625,910.3906 1645.5625,912.4688 1645.5625,915.1875 L1645.5625,916.3125 C1645.5625,918.8906 1647.6719,920.7813 1650.5625,920.7813 C1651.7813,920.7813 1652.9375,920.4844 1653.6875,919.9375 C1654.2656,919.5313 1654.5938,919.0781 1654.5938,918.6875 C1654.5938,918.2344 1654.2031,917.8438 1653.7344,917.8438 C1653.5156,917.8438 1653.3125,917.9219 1653.125,918.1094 C1652.6719,918.5938 1652.6719,918.5938 1652.4844,918.6875 C1652.0625,918.9531 1651.375,919.0781 1650.6094,919.0781 C1648.5625,919.0781 1647.2656,917.9844 1647.2656,916.2813 L1647.2656,915.1875 C1647.2656,913.4063 1648.5156,912.0938 1650.25,912.0938 C1650.8281,912.0938 1651.4375,912.25 1651.9063,912.5 C1652.3906,912.7813 1652.5625,913 1652.6563,913.4063 C1652.7188,913.8125 1652.75,913.9375 1652.8906,914.0625 C1653.0313,914.2031 1653.2656,914.3125 1653.4844,914.3125 C1653.75,914.3125 1654.0156,914.1719 1654.1875,913.9531 C1654.2969,913.7969 1654.3281,913.6094 1654.3281,913.1875 L1654.3281,911.7656 C1654.3281,911.3281 1654.3125,911.2031 1654.2188,911.0469 C1654.0625,910.7813 1653.7813,910.6406 1653.4844,910.6406 C1653.1875,910.6406 1652.9844,910.7344 1652.7656,911.0469 L1652.5938,910.9688 Z " fill="#000000"/><text fill="#000000" font-family="sans-serif" font-size="14" lengthAdjust="spacing" textLength="62" x="1670.75" y="920.1436">Location</text><line style="stroke:#181818;stroke-width:0.5;" x1="1581" x2="1790" y1="931.2969" y2="931.2969"/><ellipse cx="1591" cy="942.2969" fill="none" rx="3" ry="3" style="stroke:#038048;stroke-width:1.0;"/><text fill="#000000" font-family="sans-serif" font-size="14" lengthAdjust="spacing" textLength="68" x="1600" y="948.292">id : string</text><ellipse cx="1591" cy="958.5938" fill="none" rx="3" ry="3" style="stroke:#038048;stroke-width:1.0;"/><text fill="#000000" font-family="sans-serif" font-size="14" lengthAdjust="spacing" textLength="95" x="1600" y="964.5889">name : string</text><ellipse cx="1591" cy="974.8906" fill="none" rx="3" ry="3" style="stroke:#038048;stroke-width:1.0;"/><text fill="#000000" font-family="sans-serif" font-size="14" lengthAdjust="spacing" textLength="162" x="1600" y="980.8857">business_email : string</text><ellipse cx="1591" cy="991.1875" fill="none" rx="3" ry="3" style="stroke:#038048;stroke-width:1.0;"/><text fill="#000000" font-family="sans-serif" font-size="14" lengthAdjust="spacing" textLength="111" x="1600" y="997.1826">logo_url : string</text><ellipse cx="1591" cy="1007.4844" fill="none" rx="3" ry="3" style="stroke:#038048;stroke-width:1.0;"/><text fill="#000000" font-family="sans-serif" font-size="14" lengthAdjust="spacing" textLength="145" x="1600" y="1013.4795">merchant_id : string</text><ellipse cx="1591" cy="1023.7813" fill="none" rx="3" ry="3" style="stroke:#038048;stroke-width:1.0;"/><text fill="#000000" font-family="sans-serif" font-size="14" lengthAdjust="spacing" textLength="185" x="1600" y="1029.7764">coordinates : Coordinates</text><line style="stroke:#181818;stroke-width:0.5;" x1="1581" x2="1790" y1="1037.0781" y2="1037.0781"/></g><!--MD5=[f8ed75971b0a6b6896f5b0ea32ec4e3d]
class Coordinates--><g id="elem_Coordinates"><rect codeLine="174" fill="#F1F1F1" height="80.5938" id="Coordinates" rx="2.5" ry="2.5" style="stroke:#181818;stroke-width:0.5;" width="141" x="1615" y="1121.2969"/><ellipse cx="1639.9" cy="1137.2969" fill="#ADD1B2" rx="11" ry="11" style="stroke:#181818;stroke-width:1.0;"/><path d="M1642.2438,1132.9688 C1641.3063,1132.5313 1640.7125,1132.3906 1639.8375,1132.3906 C1637.2125,1132.3906 1635.2125,1134.4688 1635.2125,1137.1875 L1635.2125,1138.3125 C1635.2125,1140.8906 1637.3219,1142.7813 1640.2125,1142.7813 C1641.4313,1142.7813 1642.5875,1142.4844 1643.3375,1141.9375 C1643.9156,1141.5313 1644.2438,1141.0781 1644.2438,1140.6875 C1644.2438,1140.2344 1643.8531,1139.8438 1643.3844,1139.8438 C1643.1656,1139.8438 1642.9625,1139.9219 1642.775,1140.1094 C1642.3219,1140.5938 1642.3219,1140.5938 1642.1344,1140.6875 C1641.7125,1140.9531 1641.025,1141.0781 1640.2594,1141.0781 C1638.2125,1141.0781 1636.9156,1139.9844 1636.9156,1138.2813 L1636.9156,1137.1875 C1636.9156,1135.4063 1638.1656,1134.0938 1639.9,1134.0938 C1640.4781,1134.0938 1641.0875,1134.25 1641.5563,1134.5 C1642.0406,1134.7813 1642.2125,1135 1642.3063,1135.4063 C1642.3688,1135.8125 1642.4,1135.9375 1642.5406,1136.0625 C1642.6813,1136.2031 1642.9156,1136.3125 1643.1344,1136.3125 C1643.4,1136.3125 1643.6656,1136.1719 1643.8375,1135.9531 C1643.9469,1135.7969 1643.9781,1135.6094 1643.9781,1135.1875 L1643.9781,1133.7656 C1643.9781,1133.3281 1643.9625,1133.2031 1643.8688,1133.0469 C1643.7125,1132.7813 1643.4313,1132.6406 1643.1344,1132.6406 C1642.8375,1132.6406 1642.6344,1132.7344 1642.4156,1133.0469 L1642.2438,1132.9688 Z " fill="#000000"/><text fill="#000000" font-family="sans-serif" font-size="14" lengthAdjust="spacing" textLength="87" x="1656.1" y="1142.1436">Coordinates</text><line style="stroke:#181818;stroke-width:0.5;" x1="1616" x2="1755" y1="1153.2969" y2="1153.2969"/><ellipse cx="1626" cy="1164.2969" fill="none" rx="3" ry="3" style="stroke:#038048;stroke-width:1.0;"/><text fill="#000000" font-family="sans-serif" font-size="14" lengthAdjust="spacing" textLength="103" x="1635" y="1170.292">latitude : float</text><ellipse cx="1626" cy="1180.5938" fill="none" rx="3" ry="3" style="stroke:#038048;stroke-width:1.0;"/><text fill="#000000" font-family="sans-serif" font-size="14" lengthAdjust="spacing" textLength="115" x="1635" y="1186.5889">longitude : float</text><line style="stroke:#181818;stroke-width:0.5;" x1="1616" x2="1755" y1="1193.8906" y2="1193.8906"/></g><!--MD5=[d0dcb2546d2cd31c5ee16eb9612c4a83]
link SquareAuthController to AuthorizeWithSquareCommand--><g id="link_SquareAuthController_AuthorizeWithSquareCommand"><path codeLine="24" d="M205.5,141.4169 C205.5,141.4169 205.5,212.1569 205.5,212.1569 " fill="none" id="SquareAuthController-to-AuthorizeWithSquareCommand" style="stroke:#181818;stroke-width:1.0;stroke-dasharray:7.0,7.0;"/><polygon fill="#181818" points="205.5,217.1569,209.5,208.1569,205.5,212.1569,201.5,208.1569,205.5,217.1569" style="stroke:#181818;stroke-width:1.0;"/><text fill="#000000" font-family="sans-serif" font-size="13" lengthAdjust="spacing" textLength="30" x="174.5" y="172.8538">uses</text></g><!--MD5=[9809b10a813bf0f0ada03c3f75e10f86]
link SquareAuthController to GetAuthLinkCommand--><g id="link_SquareAuthController_GetAuthLinkCommand"><path codeLine="25" d="M425.75,141.4169 C425.75,141.4169 425.75,235.9969 425.75,235.9969 " fill="none" id="SquareAuthController-to-GetAuthLinkCommand" style="stroke:#181818;stroke-width:1.0;stroke-dasharray:7.0,7.0;"/><polygon fill="#181818" points="425.75,240.9969,429.75,231.9969,425.75,235.9969,421.75,231.9969,425.75,240.9969" style="stroke:#181818;stroke-width:1.0;"/><text fill="#000000" font-family="sans-serif" font-size="13" lengthAdjust="spacing" textLength="30" x="394.75" y="184.7738">uses</text></g><!--MD5=[ff5bfcb24f167bc57a76371933af786b]
link SquareService to ObtainTokenResponse--><g id="link_SquareService_ObtainTokenResponse"><path codeLine="57" d="M863,617.4079 C863,617.4079 863,696.4819 863,696.4819 " fill="none" id="SquareService-to-ObtainTokenResponse" style="stroke:#181818;stroke-width:1.0;stroke-dasharray:7.0,7.0;"/><polygon fill="#181818" points="863,701.4819,867,692.4819,863,696.4819,859,692.4819,863,701.4819" style="stroke:#181818;stroke-width:1.0;"/><text fill="#000000" font-family="sans-serif" font-size="13" lengthAdjust="spacing" textLength="30" x="832" y="653.0118">uses</text></g><!--MD5=[efa7f6c70801d0919788d6107c4348bc]
link SquareService to ObtainTokenRequest--><g id="link_SquareService_ObtainTokenRequest"><path codeLine="58" d="M997.5,617.4079 C997.5,617.4079 997.5,672.1199 997.5,672.1199 " fill="none" id="SquareService-to-ObtainTokenRequest" style="stroke:#181818;stroke-width:1.0;stroke-dasharray:7.0,7.0;"/><polygon fill="#181818" points="997.5,677.1199,1001.5,668.1199,997.5,672.1199,993.5,668.1199,997.5,677.1199" style="stroke:#181818;stroke-width:1.0;"/><text fill="#000000" font-family="sans-serif" font-size="13" lengthAdjust="spacing" textLength="30" x="966.5" y="640.8308">uses</text></g><!--MD5=[ed8c0062ef3739a31f49e55aae468be9]
link AuthorizeWithSquareCommand to SquareService--><g id="link_AuthorizeWithSquareCommand_SquareService"><path codeLine="59" d="M304.1,334.2969 C513.06,334.2969 868.5,334.2969 868.5,334.2969 C868.5,334.2969 868.5,401.2369 868.5,401.2369 " fill="none" id="AuthorizeWithSquareCommand-to-SquareService" style="stroke:#181818;stroke-width:1.0;stroke-dasharray:7.0,7.0;"/><polygon fill="#181818" points="868.5,406.2369,872.5,397.2369,868.5,401.2369,864.5,397.2369,868.5,406.2369" style="stroke:#181818;stroke-width:1.0;"/><text fill="#000000" font-family="sans-serif" font-size="13" lengthAdjust="spacing" textLength="30" x="588.77" y="330.3638">uses</text></g><!--MD5=[799dde4a90b48c63af14f1165f605d14]
link GetAuthLinkCommand to SquareService--><g id="link_GetAuthLinkCommand_SquareService"><path codeLine="60" d="M462.5,322.4769 C462.5,388.6469 462.5,512.2969 462.5,512.2969 C462.5,512.2969 851.488,512.2969 851.488,512.2969 " fill="none" id="GetAuthLinkCommand-to-SquareService" style="stroke:#181818;stroke-width:1.0;stroke-dasharray:7.0,7.0;"/><polygon fill="#181818" points="856.488,512.2969,847.488,508.2969,851.488,512.2969,847.488,516.2969,856.488,512.2969" style="stroke:#181818;stroke-width:1.0;"/><text fill="#000000" font-family="sans-serif" font-size="13" lengthAdjust="spacing" textLength="30" x="531.083" y="508.3638">uses</text></g><!--MD5=[68f7875bb3ba2c77b6a97b7d41252ce6]
link SquareService to CheckoutResponse--><g id="link_SquareService_CheckoutResponse"><path codeLine="127" d="M1210.5,617.4079 C1210.5,617.4079 1210.5,688.5159 1210.5,688.5159 " fill="none" id="SquareService-to-CheckoutResponse" style="stroke:#181818;stroke-width:1.0;stroke-dasharray:7.0,7.0;"/><polygon fill="#181818" points="1210.5,693.5159,1214.5,684.5159,1210.5,688.5159,1206.5,684.5159,1210.5,693.5159" style="stroke:#181818;stroke-width:1.0;"/><text fill="#000000" font-family="sans-serif" font-size="13" lengthAdjust="spacing" textLength="30" x="1179.5" y="649.0288">uses</text></g><!--MD5=[3d189ccb6dc608014c4d21726f27022a]
link SquareService to CheckoutRequest--><g id="link_SquareService_CheckoutRequest"><path codeLine="128" d="M1411.5,617.4079 C1411.5,617.4079 1411.5,712.5749 1411.5,712.5749 " fill="none" id="SquareService-to-CheckoutRequest" style="stroke:#181818;stroke-width:1.0;stroke-dasharray:7.0,7.0;"/><polygon fill="#181818" points="1411.5,717.5749,1415.5,708.5749,1411.5,712.5749,1407.5,708.5749,1411.5,717.5749" style="stroke:#181818;stroke-width:1.0;"/><text fill="#000000" font-family="sans-serif" font-size="13" lengthAdjust="spacing" textLength="30" x="1380.5" y="661.0578">uses</text></g><!--MD5=[334aec969d338c8947a74d9978cd0e5b]
link CheckoutRequest to Order--><g id="link_CheckoutRequest_Order"><path codeLine="129" d="M1411.5,798.7999 C1411.5,798.7999 1411.5,902.5589 1411.5,902.5589 " fill="none" id="CheckoutRequest-to-Order" style="stroke:#181818;stroke-width:1.0;stroke-dasharray:7.0,7.0;"/><polygon fill="#181818" points="1411.5,907.5589,1415.5,898.5589,1411.5,902.5589,1407.5,898.5589,1411.5,907.5589" style="stroke:#181818;stroke-width:1.0;"/><text fill="#000000" font-family="sans-serif" font-size="13" lengthAdjust="spacing" textLength="30" x="1380.5" y="846.7458">uses</text></g><!--MD5=[bb7896cd95a18301bc8f089d30a057b9]
link Order to LineItem--><g id="link_Order_LineItem"><path codeLine="130" d="M1250.25,1036.9819 C1250.25,1036.9819 1250.25,1100.0069 1250.25,1100.0069 " fill="none" id="Order-to-LineItem" style="stroke:#181818;stroke-width:1.0;stroke-dasharray:7.0,7.0;"/><polygon fill="#181818" points="1250.25,1105.0069,1254.25,1096.0069,1250.25,1100.0069,1246.25,1096.0069,1250.25,1105.0069" style="stroke:#181818;stroke-width:1.0;"/><text fill="#000000" font-family="sans-serif" font-size="13" lengthAdjust="spacing" textLength="30" x="1219.25" y="1064.5618">uses</text></g><!--MD5=[a4a886862249a7336f93bcf0fd737f87]
link Order to PrePopulatedData--><g id="link_Order_PrePopulatedData"><path codeLine="131" d="M1424.5,1036.9819 C1424.5,1036.9819 1424.5,1116.1119 1424.5,1116.1119 " fill="none" id="Order-to-PrePopulatedData" style="stroke:#181818;stroke-width:1.0;stroke-dasharray:7.0,7.0;"/><polygon fill="#181818" points="1424.5,1121.1119,1428.5,1112.1119,1424.5,1116.1119,1420.5,1112.1119,1424.5,1121.1119" style="stroke:#181818;stroke-width:1.0;"/><text fill="#000000" font-family="sans-serif" font-size="13" lengthAdjust="spacing" textLength="30" x="1393.5" y="1072.6138">uses</text></g><!--MD5=[07d514fdf7df31a4574d1f405ff0258a]
link LineItem to Money--><g id="link_LineItem_Money"><path codeLine="132" d="M1160.5,1218.4779 C1160.5,1218.4779 1160.5,1272.9568 1160.5,1272.9568 " fill="none" id="LineItem-to-Money" style="stroke:#181818;stroke-width:1.0;stroke-dasharray:7.0,7.0;"/><polygon fill="#181818" points="1160.5,1277.9568,1164.5,1268.9568,1160.5,1272.9568,1156.5,1268.9568,1160.5,1277.9568" style="stroke:#181818;stroke-width:1.0;"/><text fill="#000000" font-family="sans-serif" font-size="13" lengthAdjust="spacing" textLength="30" x="1129.5" y="1241.7838">uses</text></g><!--MD5=[75e21f7395b5e261b36cdcd3fd3834b1]
link SquarePaymentController to CheckoutWithSquareCommand--><g id="link_SquarePaymentController_CheckoutWithSquareCommand"><path codeLine="136" d="M1018.95,149.2969 C894.959,149.2969 756.5,149.2969 756.5,149.2969 C756.5,149.2969 756.5,235.9569 756.5,235.9569 " fill="none" id="SquarePaymentController-to-CheckoutWithSquareCommand" style="stroke:#181818;stroke-width:1.0;stroke-dasharray:7.0,7.0;"/><polygon fill="#181818" points="756.5,240.9569,760.5,231.9569,756.5,235.9569,752.5,231.9569,756.5,240.9569" style="stroke:#181818;stroke-width:1.0;"/><text fill="#000000" font-family="sans-serif" font-size="13" lengthAdjust="spacing" textLength="30" x="813.393" y="145.3638">uses</text></g><!--MD5=[6a62bf26b339e661c4e95164d34c5764]
link SquarePaymentController to RetrieveWithSquareCommand--><g id="link_SquarePaymentController_RetrieveWithSquareCommand"><path codeLine="137" d="M1109.25,157.5669 C1109.25,157.5669 1109.25,236.2969 1109.25,236.2969 " fill="none" id="SquarePaymentController-to-RetrieveWithSquareCommand" style="stroke:#181818;stroke-width:1.0;stroke-dasharray:7.0,7.0;"/><polygon fill="#181818" points="1109.25,241.2969,1113.25,232.2969,1109.25,236.2969,1105.25,232.2969,1109.25,241.2969" style="stroke:#181818;stroke-width:1.0;"/><text fill="#000000" font-family="sans-serif" font-size="13" lengthAdjust="spacing" textLength="30" x="1078.25" y="193.0038">uses</text></g><!--MD5=[c1e77a9a9e7a13c118b4a4c31205cd4d]
link SquarePaymentController to UpdateWithSquareCommand--><g id="link_SquarePaymentController_UpdateWithSquareCommand"><path codeLine="138" d="M1318.25,157.5669 C1318.25,157.5669 1318.25,236.2969 1318.25,236.2969 " fill="none" id="SquarePaymentController-to-UpdateWithSquareCommand" style="stroke:#181818;stroke-width:1.0;stroke-dasharray:7.0,7.0;"/><polygon fill="#181818" points="1318.25,241.2969,1322.25,232.2969,1318.25,236.2969,1314.25,232.2969,1318.25,241.2969" style="stroke:#181818;stroke-width:1.0;"/><text fill="#000000" font-family="sans-serif" font-size="13" lengthAdjust="spacing" textLength="30" x="1287.25" y="193.0038">uses</text></g><!--MD5=[da66d4e8a7b84fc45bb6581e71e6b313]
link SquarePaymentController to DeleteLinkSquareCommand--><g id="link_SquarePaymentController_DeleteLinkSquareCommand"><path codeLine="139" d="M1402.28,149.2969 C1516.15,149.2969 1638.5,149.2969 1638.5,149.2969 C1638.5,149.2969 1638.5,235.9569 1638.5,235.9569 " fill="none" id="SquarePaymentController-to-DeleteLinkSquareCommand" style="stroke:#181818;stroke-width:1.0;stroke-dasharray:7.0,7.0;"/><polygon fill="#181818" points="1638.5,240.9569,1642.5,231.9569,1638.5,235.9569,1634.5,231.9569,1638.5,240.9569" style="stroke:#181818;stroke-width:1.0;"/><text fill="#000000" font-family="sans-serif" font-size="13" lengthAdjust="spacing" textLength="30" x="1532.72" y="145.3638">uses</text></g><!--MD5=[52f62e828a577440d9bc21fd7a27d319]
link CheckoutWithSquareCommand to SquareService--><g id="link_CheckoutWithSquareCommand_SquareService"><path codeLine="141" d="M880.5,322.3869 C880.5,322.3869 880.5,400.9309 880.5,400.9309 " fill="none" id="CheckoutWithSquareCommand-to-SquareService" style="stroke:#181818;stroke-width:1.0;stroke-dasharray:7.0,7.0;"/><polygon fill="#181818" points="880.5,405.9309,884.5,396.9309,880.5,400.9309,876.5,396.9309,880.5,405.9309" style="stroke:#181818;stroke-width:1.0;"/><text fill="#000000" font-family="sans-serif" font-size="13" lengthAdjust="spacing" textLength="30" x="849.5" y="357.7238">uses</text></g><!--MD5=[7786f31f8bd693d5f47b56539e896d79]
link RetrieveWithSquareCommand to SquareService--><g id="link_RetrieveWithSquareCommand_SquareService"><path codeLine="142" d="M1063.5,322.3869 C1063.5,322.3869 1063.5,400.9309 1063.5,400.9309 " fill="none" id="RetrieveWithSquareCommand-to-SquareService" style="stroke:#181818;stroke-width:1.0;stroke-dasharray:7.0,7.0;"/><polygon fill="#181818" points="1063.5,405.9309,1067.5,396.9309,1063.5,400.9309,1059.5,396.9309,1063.5,405.9309" style="stroke:#181818;stroke-width:1.0;"/><text fill="#000000" font-family="sans-serif" font-size="13" lengthAdjust="spacing" textLength="30" x="1032.5" y="357.7238">uses</text></g><!--MD5=[696414c2507c2bbace83a22be1c20218]
link UpdateWithSquareCommand to SquareService--><g id="link_UpdateWithSquareCommand_SquareService"><path codeLine="143" d="M1357.5,322.3869 C1357.5,322.3869 1357.5,400.9309 1357.5,400.9309 " fill="none" id="UpdateWithSquareCommand-to-SquareService" style="stroke:#181818;stroke-width:1.0;stroke-dasharray:7.0,7.0;"/><polygon fill="#181818" points="1357.5,405.9309,1361.5,396.9309,1357.5,400.9309,1353.5,396.9309,1357.5,405.9309" style="stroke:#181818;stroke-width:1.0;"/><text fill="#000000" font-family="sans-serif" font-size="13" lengthAdjust="spacing" textLength="30" x="1326.5" y="357.7238">uses</text></g><!--MD5=[8bb7c55270c8f016de8212f55ebc1708]
link DeleteLinkSquareCommand to SquareService--><g id="link_DeleteLinkSquareCommand_SquareService"><path codeLine="144" d="M1540,322.3869 C1540,322.3869 1540,400.9309 1540,400.9309 " fill="none" id="DeleteLinkSquareCommand-to-SquareService" style="stroke:#181818;stroke-width:1.0;stroke-dasharray:7.0,7.0;"/><polygon fill="#181818" points="1540,405.9309,1544,396.9309,1540,400.9309,1536,396.9309,1540,405.9309" style="stroke:#181818;stroke-width:1.0;"/><text fill="#000000" font-family="sans-serif" font-size="13" lengthAdjust="spacing" textLength="30" x="1509" y="357.7238">uses</text></g><!--MD5=[daf61960b00b92422d86e5cc61a0109d]
link SquareLocationController to ListLocationsSquareCommand--><g id="link_SquareLocationController_ListLocationsSquareCommand"><path codeLine="179" d="M1955.5,141.4169 C1955.5,141.4169 1955.5,235.9969 1955.5,235.9969 " fill="none" id="SquareLocationController-to-ListLocationsSquareCommand" style="stroke:#181818;stroke-width:1.0;stroke-dasharray:7.0,7.0;"/><polygon fill="#181818" points="1955.5,240.9969,1959.5,231.9969,1955.5,235.9969,1951.5,231.9969,1955.5,240.9969" style="stroke:#181818;stroke-width:1.0;"/><text fill="#000000" font-family="sans-serif" font-size="13" lengthAdjust="spacing" textLength="30" x="1924.5" y="184.7738">uses</text></g><!--MD5=[182e0bc6b9e8198c3c4e3759208f48d6]
link SquareLocationController to UpdateLocationSquareCommand--><g id="link_SquareLocationController_UpdateLocationSquareCommand"><path codeLine="180" d="M2204.75,141.4169 C2204.75,141.4169 2204.75,235.9969 2204.75,235.9969 " fill="none" id="SquareLocationController-to-UpdateLocationSquareCommand" style="stroke:#181818;stroke-width:1.0;stroke-dasharray:7.0,7.0;"/><polygon fill="#181818" points="2204.75,240.9969,2208.75,231.9969,2204.75,235.9969,2200.75,231.9969,2204.75,240.9969" style="stroke:#181818;stroke-width:1.0;"/><text fill="#000000" font-family="sans-serif" font-size="13" lengthAdjust="spacing" textLength="30" x="2173.75" y="184.7738">uses</text></g><!--MD5=[e2aaa90375b160b328c0ae3bfda0def9]
link ListLocationsSquareCommand to SquareService--><g id="link_ListLocationsSquareCommand_SquareService"><path codeLine="181" d="M1929.5,322.3069 C1929.5,379.5679 1929.5,477.2969 1929.5,477.2969 C1929.5,477.2969 1569.73,477.2969 1569.73,477.2969 " fill="none" id="ListLocationsSquareCommand-to-SquareService" style="stroke:#181818;stroke-width:1.0;stroke-dasharray:7.0,7.0;"/><polygon fill="#181818" points="1564.73,477.2969,1573.73,481.2969,1569.73,477.2969,1573.73,473.2969,1564.73,477.2969" style="stroke:#181818;stroke-width:1.0;"/><text fill="#000000" font-family="sans-serif" font-size="13" lengthAdjust="spacing" textLength="30" x="1796.11" y="473.3638">uses</text></g><!--MD5=[d94ff7215c1a4726445298e20d6f909c]
link UpdateLocationSquareCommand to SquareService--><g id="link_UpdateLocationSquareCommand_SquareService"><path codeLine="182" d="M2231.5,322.4069 C2231.5,396.7839 2231.5,547.2969 2231.5,547.2969 C2231.5,547.2969 1569.73,547.2969 1569.73,547.2969 " fill="none" id="UpdateLocationSquareCommand-to-SquareService" style="stroke:#181818;stroke-width:1.0;stroke-dasharray:7.0,7.0;"/><polygon fill="#181818" points="1564.73,547.2969,1573.73,551.2969,1569.73,547.2969,1573.73,543.2969,1564.73,547.2969" style="stroke:#181818;stroke-width:1.0;"/><text fill="#000000" font-family="sans-serif" font-size="13" lengthAdjust="spacing" textLength="30" x="1982.06" y="543.3638">uses</text></g><!--MD5=[16878b4f9c1e3f65468753a7a8b39fa1]
link SquareService to LocationResponse--><g id="link_SquareService_LocationResponse"><path codeLine="183" d="M1554.75,617.4079 C1554.75,684.3119 1554.75,758.2969 1554.75,758.2969 C1554.75,758.2969 1568.34,758.2969 1568.34,758.2969 " fill="none" id="SquareService-to-LocationResponse" style="stroke:#181818;stroke-width:1.0;stroke-dasharray:7.0,7.0;"/><polygon fill="#181818" points="1573.34,758.2969,1564.34,754.2969,1568.34,758.2969,1564.34,762.2969,1573.34,758.2969" style="stroke:#181818;stroke-width:1.0;"/><text fill="#000000" font-family="sans-serif" font-size="13" lengthAdjust="spacing" textLength="30" x="1523.75" y="690.7168">uses</text></g><!--MD5=[f61cb4c22374dcd2ded7c279df6f9324]
link LocationResponse to Location--><g id="link_LocationResponse_Location"><path codeLine="184" d="M1664.75,790.3349 C1664.75,790.3349 1664.75,894.2139 1664.75,894.2139 " fill="none" id="LocationResponse-to-Location" style="stroke:#181818;stroke-width:1.0;stroke-dasharray:7.0,7.0;"/><polygon fill="#181818" points="1664.75,899.2139,1668.75,890.2139,1664.75,894.2139,1660.75,890.2139,1664.75,899.2139" style="stroke:#181818;stroke-width:1.0;"/><text fill="#000000" font-family="sans-serif" font-size="13" lengthAdjust="spacing" textLength="30" x="1633.75" y="838.3408">uses</text></g><!--MD5=[1c96f95f97e75bf39712c127e9de0c1b]
link Location to Coordinates--><g id="link_Location_Coordinates"><path codeLine="185" d="M1685.5,1045.5629 C1685.5,1045.5629 1685.5,1116.2909 1685.5,1116.2909 " fill="none" id="Location-to-Coordinates" style="stroke:#181818;stroke-width:1.0;stroke-dasharray:7.0,7.0;"/><polygon fill="#181818" points="1685.5,1121.2909,1689.5,1112.2909,1685.5,1116.2909,1681.5,1112.2909,1685.5,1121.2909" style="stroke:#181818;stroke-width:1.0;"/><text fill="#000000" font-family="sans-serif" font-size="13" lengthAdjust="spacing" textLength="30" x="1654.5" y="1076.9938">uses</text></g><!--MD5=[dc7acb21ea1dda52c41204eb45c81b9f]
@startuml
title "Help us Class Diagram"

' avoid problems with angled crows feet
skinparam linetype ortho

class SquareAuthController {
    + authorize(AuthorizeWithSquareCommand command)
    + getAuthLink(GetAuthLinkCommand command)
}

class AuthorizeWithSquareCommand {
    + grant_type : string
    + refresh_token : string
    + code : string
    + square_service : SquareService
    + execute(self) : ObtainTokenResponse
}

class GetAuthLinkCommand {
    + square_service : SquareService
    + execute(self) : string
}

SquareAuthController ..> AuthorizeWithSquareCommand : uses
SquareAuthController ..> GetAuthLinkCommand : uses

class SquareService {
    + Variables : Variables
    + Constants : Constants
    + get_access_token(self, command) : str
    + authorize_with_square(self, AuthorizeWithSquareCommand command) : ObtainTokenResponse
    + checkout_with_square(self, CheckoutWithSquareCommand command) : CheckoutResponse
    + update_with_square(self, UpdateWithSquareCommand command) : bool
    + delete_link_square(self, DeleteLinkSquareCommand command) : bool
    + get_payment_link(self, RetrieveWithSquareCommand command) : string
    + list_locations(self, ListLocationsSquareCommand command) : LocationResponse
    + update_location(self, UpdateLocationSquareCommand command) : bool
}

class ObtainTokenResponse {
    + access_token : string
    + merchant_id : string
    + refresh_token : string
    + short_lived : string
}

class ObtainTokenRequest {
    + grant_type : string
    + refresh_token : string
    + code : string
    + short_lived : string
    + client_id : string
    + client_secret : string
    + scopes : string
}

SquareService ..> ObtainTokenResponse : uses
SquareService ..> ObtainTokenRequest : uses
AuthorizeWithSquareCommand ..> SquareService : uses
GetAuthLinkCommand ..> SquareService : uses

class SquarePaymentController {
    + create(CheckoutWithSquareCommand command)
    + read(RetrieveWithSquareCommand command)
    + update(UpdateWithSquareCommand command)
    + delete(DeleteLinkSquareCommand command)
}

class CheckoutWithSquareCommand {
    + square_service : SquareService
    + execute(self) : CheckoutResponse
}

class RetrieveWithSquareCommand {
    + square_service : SquareService
    + execute(self) : CheckoutResponse
}

class UpdateWithSquareCommand {
    + square_service : SquareService
    + execute(self) : bool
}

class DeleteLinkSquareCommand {
    + square_service : SquareService
    + execute(self) : bool
}

class CheckoutResponse {
    + id : string
    + created_at : string
    + order_id : string
    + url : string
    + version : string
}

class  CheckoutRequest {
    + order : Order
    + source : string
}

class Order {
    + customer_id : string
    + location_id : string
    + line_items : LineItem[]
    + payment_note : string
    + pre_populated_data : PrePopulatedData
}

class LineItem {
    + item_type : string
    + name : string
    + quantity : int
    + base_price_money : Money
}

class PrePopulatedData {
    + buyer_email : string
    + buyer_phone_number : string
}

class Money {
    + amount : int
    + currency : string
}

SquareService ..> CheckoutResponse : uses
SquareService ..> CheckoutRequest : uses
CheckoutRequest ..> Order : uses
Order ..> LineItem : uses
Order ..> PrePopulatedData : uses
LineItem ..> Money : uses



SquarePaymentController ..> CheckoutWithSquareCommand : uses
SquarePaymentController ..> RetrieveWithSquareCommand : uses
SquarePaymentController ..> UpdateWithSquareCommand : uses
SquarePaymentController ..> DeleteLinkSquareCommand : uses

CheckoutWithSquareCommand ..> SquareService : uses
RetrieveWithSquareCommand ..> SquareService : uses
UpdateWithSquareCommand ..> SquareService : uses
DeleteLinkSquareCommand ..> SquareService : uses

class SquareLocationController {
    + list_locations(ListLocationsSquareCommand command)
    + update_location(UpdateLocationSquareCommand command)
}

class ListLocationsSquareCommand {
    + square_service : SquareService
    + execute(self) : LocationResponse
}

class UpdateLocationSquareCommand {
    + square_service : SquareService
    + execute(self) : bool
}

class LocationResponse {
    + locations : Location[]
}

class Location {
    + id : string
    + name : string
    + business_email : string
    + logo_url : string
    + merchant_id : string
    + coordinates : Coordinates
}

class Coordinates {
    + latitude : float
    + longitude : float
}

SquareLocationController ..> ListLocationsSquareCommand : uses
SquareLocationController ..> UpdateLocationSquareCommand : uses
ListLocationsSquareCommand ..> SquareService : uses
UpdateLocationSquareCommand ..> SquareService : uses
SquareService ..> LocationResponse : uses
LocationResponse ..> Location : uses
Location ..> Coordinates : uses
@enduml

@startuml
title "Help us Class Diagram"

skinparam linetype ortho

class SquareAuthController {
    + authorize(AuthorizeWithSquareCommand command)
    + getAuthLink(GetAuthLinkCommand command)
}

class AuthorizeWithSquareCommand {
    + grant_type : string
    + refresh_token : string
    + code : string
    + square_service : SquareService
    + execute(self) : ObtainTokenResponse
}

class GetAuthLinkCommand {
    + square_service : SquareService
    + execute(self) : string
}

SquareAuthController ..> AuthorizeWithSquareCommand : uses
SquareAuthController ..> GetAuthLinkCommand : uses

class SquareService {
    + Variables : Variables
    + Constants : Constants
    + get_access_token(self, command) : str
    + authorize_with_square(self, AuthorizeWithSquareCommand command) : ObtainTokenResponse
    + checkout_with_square(self, CheckoutWithSquareCommand command) : CheckoutResponse
    + update_with_square(self, UpdateWithSquareCommand command) : bool
    + delete_link_square(self, DeleteLinkSquareCommand command) : bool
    + get_payment_link(self, RetrieveWithSquareCommand command) : string
    + list_locations(self, ListLocationsSquareCommand command) : LocationResponse
    + update_location(self, UpdateLocationSquareCommand command) : bool
}

class ObtainTokenResponse {
    + access_token : string
    + merchant_id : string
    + refresh_token : string
    + short_lived : string
}

class ObtainTokenRequest {
    + grant_type : string
    + refresh_token : string
    + code : string
    + short_lived : string
    + client_id : string
    + client_secret : string
    + scopes : string
}

SquareService ..> ObtainTokenResponse : uses
SquareService ..> ObtainTokenRequest : uses
AuthorizeWithSquareCommand ..> SquareService : uses
GetAuthLinkCommand ..> SquareService : uses

class SquarePaymentController {
    + create(CheckoutWithSquareCommand command)
    + read(RetrieveWithSquareCommand command)
    + update(UpdateWithSquareCommand command)
    + delete(DeleteLinkSquareCommand command)
}

class CheckoutWithSquareCommand {
    + square_service : SquareService
    + execute(self) : CheckoutResponse
}

class RetrieveWithSquareCommand {
    + square_service : SquareService
    + execute(self) : CheckoutResponse
}

class UpdateWithSquareCommand {
    + square_service : SquareService
    + execute(self) : bool
}

class DeleteLinkSquareCommand {
    + square_service : SquareService
    + execute(self) : bool
}

class CheckoutResponse {
    + id : string
    + created_at : string
    + order_id : string
    + url : string
    + version : string
}

class  CheckoutRequest {
    + order : Order
    + source : string
}

class Order {
    + customer_id : string
    + location_id : string
    + line_items : LineItem[]
    + payment_note : string
    + pre_populated_data : PrePopulatedData
}

class LineItem {
    + item_type : string
    + name : string
    + quantity : int
    + base_price_money : Money
}

class PrePopulatedData {
    + buyer_email : string
    + buyer_phone_number : string
}

class Money {
    + amount : int
    + currency : string
}

SquareService ..> CheckoutResponse : uses
SquareService ..> CheckoutRequest : uses
CheckoutRequest ..> Order : uses
Order ..> LineItem : uses
Order ..> PrePopulatedData : uses
LineItem ..> Money : uses



SquarePaymentController ..> CheckoutWithSquareCommand : uses
SquarePaymentController ..> RetrieveWithSquareCommand : uses
SquarePaymentController ..> UpdateWithSquareCommand : uses
SquarePaymentController ..> DeleteLinkSquareCommand : uses

CheckoutWithSquareCommand ..> SquareService : uses
RetrieveWithSquareCommand ..> SquareService : uses
UpdateWithSquareCommand ..> SquareService : uses
DeleteLinkSquareCommand ..> SquareService : uses

class SquareLocationController {
    + list_locations(ListLocationsSquareCommand command)
    + update_location(UpdateLocationSquareCommand command)
}

class ListLocationsSquareCommand {
    + square_service : SquareService
    + execute(self) : LocationResponse
}

class UpdateLocationSquareCommand {
    + square_service : SquareService
    + execute(self) : bool
}

class LocationResponse {
    + locations : Location[]
}

class Location {
    + id : string
    + name : string
    + business_email : string
    + logo_url : string
    + merchant_id : string
    + coordinates : Coordinates
}

class Coordinates {
    + latitude : float
    + longitude : float
}

SquareLocationController ..> ListLocationsSquareCommand : uses
SquareLocationController ..> UpdateLocationSquareCommand : uses
ListLocationsSquareCommand ..> SquareService : uses
UpdateLocationSquareCommand ..> SquareService : uses
SquareService ..> LocationResponse : uses
LocationResponse ..> Location : uses
Location ..> Coordinates : uses
@enduml

PlantUML version 1.2022.7beta1(Unknown compile time)
(GPL source distribution)
Java Runtime: Java(TM) SE Runtime Environment
JVM: Java HotSpot(TM) 64-Bit Server VM
Default Encoding: UTF-8
Language: en
Country: US
--></g></svg>