<?xml version="1.0" encoding="UTF-8" standalone="no"?><svg xmlns="http://www.w3.org/2000/svg" xmlns:xlink="http://www.w3.org/1999/xlink" contentStyleType="text/css" height="528px" preserveAspectRatio="none" style="width:1390px;height:528px;background:#FFFFFF;" version="1.1" viewBox="0 0 1390 528" width="1390px" zoomAndPan="magnify"><defs/><g><rect height="26.2969" style="stroke:#00000000;stroke-width:1.0;fill:none;" width="190" x="593.25" y="5"/><text fill="#000000" font-family="sans-serif" font-size="14" font-weight="bold" lengthAdjust="spacing" textLength="180" x="598.25" y="22.9951">Help us Class Diagram</text><!--MD5=[eb92ff98141099eac257249261739307]
class ExternalApiCredentials--><g id="elem_ExternalApiCredentials"><rect codeLine="3" fill="#F1F1F1" height="113.1875" id="ExternalApiCredentials" rx="2.5" ry="2.5" style="stroke:#181818;stroke-width:0.5;" width="221" x="113" y="68.7969"/><ellipse cx="138.35" cy="84.7969" fill="#ADD1B2" rx="11" ry="11" style="stroke:#181818;stroke-width:1.0;"/><path d="M140.6938,80.4688 C139.7563,80.0313 139.1625,79.8906 138.2875,79.8906 C135.6625,79.8906 133.6625,81.9688 133.6625,84.6875 L133.6625,85.8125 C133.6625,88.3906 135.7719,90.2813 138.6625,90.2813 C139.8813,90.2813 141.0375,89.9844 141.7875,89.4375 C142.3656,89.0313 142.6938,88.5781 142.6938,88.1875 C142.6938,87.7344 142.3031,87.3438 141.8344,87.3438 C141.6156,87.3438 141.4125,87.4219 141.225,87.6094 C140.7719,88.0938 140.7719,88.0938 140.5844,88.1875 C140.1625,88.4531 139.475,88.5781 138.7094,88.5781 C136.6625,88.5781 135.3656,87.4844 135.3656,85.7813 L135.3656,84.6875 C135.3656,82.9063 136.6156,81.5938 138.35,81.5938 C138.9281,81.5938 139.5375,81.75 140.0063,82 C140.4906,82.2813 140.6625,82.5 140.7563,82.9063 C140.8188,83.3125 140.85,83.4375 140.9906,83.5625 C141.1313,83.7031 141.3656,83.8125 141.5844,83.8125 C141.85,83.8125 142.1156,83.6719 142.2875,83.4531 C142.3969,83.2969 142.4281,83.1094 142.4281,82.6875 L142.4281,81.2656 C142.4281,80.8281 142.4125,80.7031 142.3188,80.5469 C142.1625,80.2813 141.8813,80.1406 141.5844,80.1406 C141.2875,80.1406 141.0844,80.2344 140.8656,80.5469 L140.6938,80.4688 Z " fill="#000000"/><text fill="#000000" font-family="sans-serif" font-size="14" lengthAdjust="spacing" textLength="166" x="154.65" y="89.6436">ExternalApiCredentials</text><line style="stroke:#181818;stroke-width:0.5;" x1="114" x2="333" y1="100.7969" y2="100.7969"/><ellipse cx="124" cy="111.7969" fill="none" rx="3" ry="3" style="stroke:#038048;stroke-width:1.0;"/><text fill="#000000" font-family="sans-serif" font-size="14" lengthAdjust="spacing" textLength="145" x="133" y="117.792">directus_api_url : str</text><ellipse cx="124" cy="128.0938" fill="none" rx="3" ry="3" style="stroke:#038048;stroke-width:1.0;"/><text fill="#000000" font-family="sans-serif" font-size="14" lengthAdjust="spacing" textLength="153" x="133" y="134.0889">directus_api_key : str</text><ellipse cx="124" cy="144.3906" fill="none" rx="3" ry="3" style="stroke:#038048;stroke-width:1.0;"/><text fill="#000000" font-family="sans-serif" font-size="14" lengthAdjust="spacing" textLength="134" x="133" y="150.3857">square_api_url : str</text><ellipse cx="124" cy="160.6875" fill="none" rx="3" ry="3" style="stroke:#038048;stroke-width:1.0;"/><text fill="#000000" font-family="sans-serif" font-size="14" lengthAdjust="spacing" textLength="195" x="133" y="166.6826">ebay_search_endpoint : str</text><line style="stroke:#181818;stroke-width:0.5;" x1="114" x2="333" y1="173.9844" y2="173.9844"/></g><!--MD5=[053bb6a4a3afdd20f74e89c760dc9638]
class SerpService--><g id="elem_SerpService"><rect codeLine="10" fill="#F1F1F1" height="80.5938" id="SerpService" rx="2.5" ry="2.5" style="stroke:#181818;stroke-width:0.5;" width="394" x="7.5" y="441.2969"/><ellipse cx="156.75" cy="457.2969" fill="#ADD1B2" rx="11" ry="11" style="stroke:#181818;stroke-width:1.0;"/><path d="M159.0938,452.9688 C158.1563,452.5313 157.5625,452.3906 156.6875,452.3906 C154.0625,452.3906 152.0625,454.4688 152.0625,457.1875 L152.0625,458.3125 C152.0625,460.8906 154.1719,462.7813 157.0625,462.7813 C158.2813,462.7813 159.4375,462.4844 160.1875,461.9375 C160.7656,461.5313 161.0938,461.0781 161.0938,460.6875 C161.0938,460.2344 160.7031,459.8438 160.2344,459.8438 C160.0156,459.8438 159.8125,459.9219 159.625,460.1094 C159.1719,460.5938 159.1719,460.5938 158.9844,460.6875 C158.5625,460.9531 157.875,461.0781 157.1094,461.0781 C155.0625,461.0781 153.7656,459.9844 153.7656,458.2813 L153.7656,457.1875 C153.7656,455.4063 155.0156,454.0938 156.75,454.0938 C157.3281,454.0938 157.9375,454.25 158.4063,454.5 C158.8906,454.7813 159.0625,455 159.1563,455.4063 C159.2188,455.8125 159.25,455.9375 159.3906,456.0625 C159.5313,456.2031 159.7656,456.3125 159.9844,456.3125 C160.25,456.3125 160.5156,456.1719 160.6875,455.9531 C160.7969,455.7969 160.8281,455.6094 160.8281,455.1875 L160.8281,453.7656 C160.8281,453.3281 160.8125,453.2031 160.7188,453.0469 C160.5625,452.7813 160.2813,452.6406 159.9844,452.6406 C159.6875,452.6406 159.4844,452.7344 159.2656,453.0469 L159.0938,452.9688 Z " fill="#000000"/><text fill="#000000" font-family="sans-serif" font-size="14" lengthAdjust="spacing" textLength="87" x="177.25" y="462.1436">SerpService</text><line style="stroke:#181818;stroke-width:0.5;" x1="8.5" x2="400.5" y1="473.2969" y2="473.2969"/><rect fill="none" height="6" style="stroke:#C82930;stroke-width:1.0;" width="6" x="15.5" y="481.2969"/><text fill="#000000" font-family="sans-serif" font-size="14" lengthAdjust="spacing" textLength="355" x="27.5" y="490.292">external_api_credentials : ExternalApiCredentials</text><line style="stroke:#181818;stroke-width:0.5;" x1="8.5" x2="400.5" y1="497.5938" y2="497.5938"/><ellipse cx="18.5" cy="508.5938" fill="#84BE84" rx="3" ry="3" style="stroke:#038048;stroke-width:1.0;"/><text fill="#000000" font-family="sans-serif" font-size="14" lengthAdjust="spacing" textLength="368" x="27.5" y="514.5889">List&lt;SearchResult&gt; search_with_ebay(str keyword)</text></g><!--MD5=[04c986212dbd7a6edcbb0c84ee03c1fe]
class PaymentService--><g id="elem_PaymentService"><rect codeLine="15" fill="#F1F1F1" height="80.5938" id="PaymentService" rx="2.5" ry="2.5" style="stroke:#181818;stroke-width:0.5;" width="458" x="436.5" y="441.2969"/><ellipse cx="602.75" cy="457.2969" fill="#ADD1B2" rx="11" ry="11" style="stroke:#181818;stroke-width:1.0;"/><path d="M605.0938,452.9688 C604.1563,452.5313 603.5625,452.3906 602.6875,452.3906 C600.0625,452.3906 598.0625,454.4688 598.0625,457.1875 L598.0625,458.3125 C598.0625,460.8906 600.1719,462.7813 603.0625,462.7813 C604.2813,462.7813 605.4375,462.4844 606.1875,461.9375 C606.7656,461.5313 607.0938,461.0781 607.0938,460.6875 C607.0938,460.2344 606.7031,459.8438 606.2344,459.8438 C606.0156,459.8438 605.8125,459.9219 605.625,460.1094 C605.1719,460.5938 605.1719,460.5938 604.9844,460.6875 C604.5625,460.9531 603.875,461.0781 603.1094,461.0781 C601.0625,461.0781 599.7656,459.9844 599.7656,458.2813 L599.7656,457.1875 C599.7656,455.4063 601.0156,454.0938 602.75,454.0938 C603.3281,454.0938 603.9375,454.25 604.4063,454.5 C604.8906,454.7813 605.0625,455 605.1563,455.4063 C605.2188,455.8125 605.25,455.9375 605.3906,456.0625 C605.5313,456.2031 605.7656,456.3125 605.9844,456.3125 C606.25,456.3125 606.5156,456.1719 606.6875,455.9531 C606.7969,455.7969 606.8281,455.6094 606.8281,455.1875 L606.8281,453.7656 C606.8281,453.3281 606.8125,453.2031 606.7188,453.0469 C606.5625,452.7813 606.2813,452.6406 605.9844,452.6406 C605.6875,452.6406 605.4844,452.7344 605.2656,453.0469 L605.0938,452.9688 Z " fill="#000000"/><text fill="#000000" font-family="sans-serif" font-size="14" lengthAdjust="spacing" textLength="117" x="623.25" y="462.1436">PaymentService</text><line style="stroke:#181818;stroke-width:0.5;" x1="437.5" x2="893.5" y1="473.2969" y2="473.2969"/><rect fill="none" height="6" style="stroke:#C82930;stroke-width:1.0;" width="6" x="444.5" y="481.2969"/><text fill="#000000" font-family="sans-serif" font-size="14" lengthAdjust="spacing" textLength="355" x="456.5" y="490.292">external_api_credentials : ExternalApiCredentials</text><line style="stroke:#181818;stroke-width:0.5;" x1="437.5" x2="893.5" y1="497.5938" y2="497.5938"/><ellipse cx="447.5" cy="508.5938" fill="#84BE84" rx="3" ry="3" style="stroke:#038048;stroke-width:1.0;"/><text fill="#000000" font-family="sans-serif" font-size="14" lengthAdjust="spacing" textLength="432" x="456.5" y="514.5889">charge_with_square(List&lt;SearchResult&gt; search_results) : str</text></g><!--MD5=[bc7a2585be9684605f100403883890b4]
class BackendService--><g id="elem_BackendService"><rect codeLine="20" fill="#F1F1F1" height="80.5938" id="BackendService" rx="2.5" ry="2.5" style="stroke:#181818;stroke-width:0.5;" width="454" x="929.5" y="441.2969"/><ellipse cx="1094.75" cy="457.2969" fill="#ADD1B2" rx="11" ry="11" style="stroke:#181818;stroke-width:1.0;"/><path d="M1097.0938,452.9688 C1096.1563,452.5313 1095.5625,452.3906 1094.6875,452.3906 C1092.0625,452.3906 1090.0625,454.4688 1090.0625,457.1875 L1090.0625,458.3125 C1090.0625,460.8906 1092.1719,462.7813 1095.0625,462.7813 C1096.2813,462.7813 1097.4375,462.4844 1098.1875,461.9375 C1098.7656,461.5313 1099.0938,461.0781 1099.0938,460.6875 C1099.0938,460.2344 1098.7031,459.8438 1098.2344,459.8438 C1098.0156,459.8438 1097.8125,459.9219 1097.625,460.1094 C1097.1719,460.5938 1097.1719,460.5938 1096.9844,460.6875 C1096.5625,460.9531 1095.875,461.0781 1095.1094,461.0781 C1093.0625,461.0781 1091.7656,459.9844 1091.7656,458.2813 L1091.7656,457.1875 C1091.7656,455.4063 1093.0156,454.0938 1094.75,454.0938 C1095.3281,454.0938 1095.9375,454.25 1096.4063,454.5 C1096.8906,454.7813 1097.0625,455 1097.1563,455.4063 C1097.2188,455.8125 1097.25,455.9375 1097.3906,456.0625 C1097.5313,456.2031 1097.7656,456.3125 1097.9844,456.3125 C1098.25,456.3125 1098.5156,456.1719 1098.6875,455.9531 C1098.7969,455.7969 1098.8281,455.6094 1098.8281,455.1875 L1098.8281,453.7656 C1098.8281,453.3281 1098.8125,453.2031 1098.7188,453.0469 C1098.5625,452.7813 1098.2813,452.6406 1097.9844,452.6406 C1097.6875,452.6406 1097.4844,452.7344 1097.2656,453.0469 L1097.0938,452.9688 Z " fill="#000000"/><text fill="#000000" font-family="sans-serif" font-size="14" lengthAdjust="spacing" textLength="115" x="1115.25" y="462.1436">BackendService</text><line style="stroke:#181818;stroke-width:0.5;" x1="930.5" x2="1382.5" y1="473.2969" y2="473.2969"/><rect fill="none" height="6" style="stroke:#C82930;stroke-width:1.0;" width="6" x="937.5" y="481.2969"/><text fill="#000000" font-family="sans-serif" font-size="14" lengthAdjust="spacing" textLength="355" x="949.5" y="490.292">external_api_credentials : ExternalApiCredentials</text><line style="stroke:#181818;stroke-width:0.5;" x1="930.5" x2="1382.5" y1="497.5938" y2="497.5938"/><ellipse cx="940.5" cy="508.5938" fill="#84BE84" rx="3" ry="3" style="stroke:#038048;stroke-width:1.0;"/><text fill="#000000" font-family="sans-serif" font-size="14" lengthAdjust="spacing" textLength="428" x="949.5" y="514.5889">save_payment_result(List&lt;SearchResult&gt; search_results)   -</text></g><!--MD5=[0653f8dae23042bd6dde0eb89a530340]
class SearchResult--><g id="elem_SearchResult"><rect codeLine="25" fill="#F1F1F1" height="162.0781" id="SearchResult" rx="2.5" ry="2.5" style="stroke:#181818;stroke-width:0.5;" width="185" x="637" y="44.2969"/><ellipse cx="678.55" cy="60.2969" fill="#ADD1B2" rx="11" ry="11" style="stroke:#181818;stroke-width:1.0;"/><path d="M680.8938,55.9688 C679.9563,55.5313 679.3625,55.3906 678.4875,55.3906 C675.8625,55.3906 673.8625,57.4688 673.8625,60.1875 L673.8625,61.3125 C673.8625,63.8906 675.9719,65.7813 678.8625,65.7813 C680.0813,65.7813 681.2375,65.4844 681.9875,64.9375 C682.5656,64.5313 682.8938,64.0781 682.8938,63.6875 C682.8938,63.2344 682.5031,62.8438 682.0344,62.8438 C681.8156,62.8438 681.6125,62.9219 681.425,63.1094 C680.9719,63.5938 680.9719,63.5938 680.7844,63.6875 C680.3625,63.9531 679.675,64.0781 678.9094,64.0781 C676.8625,64.0781 675.5656,62.9844 675.5656,61.2813 L675.5656,60.1875 C675.5656,58.4063 676.8156,57.0938 678.55,57.0938 C679.1281,57.0938 679.7375,57.25 680.2063,57.5 C680.6906,57.7813 680.8625,58 680.9563,58.4063 C681.0188,58.8125 681.05,58.9375 681.1906,59.0625 C681.3313,59.2031 681.5656,59.3125 681.7844,59.3125 C682.05,59.3125 682.3156,59.1719 682.4875,58.9531 C682.5969,58.7969 682.6281,58.6094 682.6281,58.1875 L682.6281,56.7656 C682.6281,56.3281 682.6125,56.2031 682.5188,56.0469 C682.3625,55.7813 682.0813,55.6406 681.7844,55.6406 C681.4875,55.6406 681.2844,55.7344 681.0656,56.0469 L680.8938,55.9688 Z " fill="#000000"/><text fill="#000000" font-family="sans-serif" font-size="14" lengthAdjust="spacing" textLength="94" x="698.45" y="65.1436">SearchResult</text><line style="stroke:#181818;stroke-width:0.5;" x1="638" x2="821" y1="76.2969" y2="76.2969"/><ellipse cx="648" cy="87.2969" fill="none" rx="3" ry="3" style="stroke:#038048;stroke-width:1.0;"/><text fill="#000000" font-family="sans-serif" font-size="14" lengthAdjust="spacing" textLength="64" x="657" y="93.292">title : str</text><ellipse cx="648" cy="103.5938" fill="none" rx="3" ry="3" style="stroke:#038048;stroke-width:1.0;"/><text fill="#000000" font-family="sans-serif" font-size="14" lengthAdjust="spacing" textLength="59" x="657" y="109.5889">link : str</text><ellipse cx="648" cy="119.8906" fill="none" rx="3" ry="3" style="stroke:#038048;stroke-width:1.0;"/><text fill="#000000" font-family="sans-serif" font-size="14" lengthAdjust="spacing" textLength="101" x="657" y="125.8857">condition : str</text><ellipse cx="648" cy="136.1875" fill="none" rx="3" ry="3" style="stroke:#038048;stroke-width:1.0;"/><text fill="#000000" font-family="sans-serif" font-size="14" lengthAdjust="spacing" textLength="70" x="657" y="142.1826">price : str</text><ellipse cx="648" cy="152.4844" fill="none" rx="3" ry="3" style="stroke:#038048;stroke-width:1.0;"/><text fill="#000000" font-family="sans-serif" font-size="14" lengthAdjust="spacing" textLength="95" x="657" y="158.4795">shipping : str</text><ellipse cx="648" cy="168.7813" fill="none" rx="3" ry="3" style="stroke:#038048;stroke-width:1.0;"/><text fill="#000000" font-family="sans-serif" font-size="14" lengthAdjust="spacing" textLength="159" x="657" y="174.7764">extensions : List&lt;str&gt;</text><ellipse cx="648" cy="185.0781" fill="none" rx="3" ry="3" style="stroke:#038048;stroke-width:1.0;"/><text fill="#000000" font-family="sans-serif" font-size="14" lengthAdjust="spacing" textLength="106" x="657" y="191.0732">thumbnail : str</text><line style="stroke:#181818;stroke-width:0.5;" x1="638" x2="821" y1="198.375" y2="198.375"/></g><!--MD5=[2eba06dd0e991185ec81b0e205ea5301]
class SearchController--><g id="elem_SearchController"><rect codeLine="36" fill="#F1F1F1" height="80.5938" id="SearchController" rx="2.5" ry="2.5" style="stroke:#181818;stroke-width:0.5;" width="403" x="7" y="283.2969"/><ellipse cx="143.25" cy="299.2969" fill="#ADD1B2" rx="11" ry="11" style="stroke:#181818;stroke-width:1.0;"/><path d="M145.5938,294.9688 C144.6563,294.5313 144.0625,294.3906 143.1875,294.3906 C140.5625,294.3906 138.5625,296.4688 138.5625,299.1875 L138.5625,300.3125 C138.5625,302.8906 140.6719,304.7813 143.5625,304.7813 C144.7813,304.7813 145.9375,304.4844 146.6875,303.9375 C147.2656,303.5313 147.5938,303.0781 147.5938,302.6875 C147.5938,302.2344 147.2031,301.8438 146.7344,301.8438 C146.5156,301.8438 146.3125,301.9219 146.125,302.1094 C145.6719,302.5938 145.6719,302.5938 145.4844,302.6875 C145.0625,302.9531 144.375,303.0781 143.6094,303.0781 C141.5625,303.0781 140.2656,301.9844 140.2656,300.2813 L140.2656,299.1875 C140.2656,297.4063 141.5156,296.0938 143.25,296.0938 C143.8281,296.0938 144.4375,296.25 144.9063,296.5 C145.3906,296.7813 145.5625,297 145.6563,297.4063 C145.7188,297.8125 145.75,297.9375 145.8906,298.0625 C146.0313,298.2031 146.2656,298.3125 146.4844,298.3125 C146.75,298.3125 147.0156,298.1719 147.1875,297.9531 C147.2969,297.7969 147.3281,297.6094 147.3281,297.1875 L147.3281,295.7656 C147.3281,295.3281 147.3125,295.2031 147.2188,295.0469 C147.0625,294.7813 146.7813,294.6406 146.4844,294.6406 C146.1875,294.6406 145.9844,294.7344 145.7656,295.0469 L145.5938,294.9688 Z " fill="#000000"/><text fill="#000000" font-family="sans-serif" font-size="14" lengthAdjust="spacing" textLength="122" x="163.75" y="304.1436">SearchController</text><line style="stroke:#181818;stroke-width:0.5;" x1="8" x2="409" y1="315.2969" y2="315.2969"/><rect fill="none" height="6" style="stroke:#C82930;stroke-width:1.0;" width="6" x="15" y="323.2969"/><text fill="#000000" font-family="sans-serif" font-size="14" lengthAdjust="spacing" textLength="190" x="27" y="332.292">serp_service : SerpService</text><line style="stroke:#181818;stroke-width:0.5;" x1="8" x2="409" y1="339.5938" y2="339.5938"/><ellipse cx="18" cy="350.5938" fill="#84BE84" rx="3" ry="3" style="stroke:#038048;stroke-width:1.0;"/><text fill="#000000" font-family="sans-serif" font-size="14" lengthAdjust="spacing" textLength="377" x="27" y="356.5889">search_with_ebay(str keyword) : List&lt;SearchResult&gt;</text></g><!--MD5=[c83f54922bd1076e47c619e9ad7fd812]
class PaymentController--><g id="elem_PaymentController"><rect codeLine="41" fill="#F1F1F1" height="80.5938" id="PaymentController" rx="2.5" ry="2.5" style="stroke:#181818;stroke-width:0.5;" width="435" x="448" y="283.2969"/><ellipse cx="592.75" cy="299.2969" fill="#ADD1B2" rx="11" ry="11" style="stroke:#181818;stroke-width:1.0;"/><path d="M595.0938,294.9688 C594.1563,294.5313 593.5625,294.3906 592.6875,294.3906 C590.0625,294.3906 588.0625,296.4688 588.0625,299.1875 L588.0625,300.3125 C588.0625,302.8906 590.1719,304.7813 593.0625,304.7813 C594.2813,304.7813 595.4375,304.4844 596.1875,303.9375 C596.7656,303.5313 597.0938,303.0781 597.0938,302.6875 C597.0938,302.2344 596.7031,301.8438 596.2344,301.8438 C596.0156,301.8438 595.8125,301.9219 595.625,302.1094 C595.1719,302.5938 595.1719,302.5938 594.9844,302.6875 C594.5625,302.9531 593.875,303.0781 593.1094,303.0781 C591.0625,303.0781 589.7656,301.9844 589.7656,300.2813 L589.7656,299.1875 C589.7656,297.4063 591.0156,296.0938 592.75,296.0938 C593.3281,296.0938 593.9375,296.25 594.4063,296.5 C594.8906,296.7813 595.0625,297 595.1563,297.4063 C595.2188,297.8125 595.25,297.9375 595.3906,298.0625 C595.5313,298.2031 595.7656,298.3125 595.9844,298.3125 C596.25,298.3125 596.5156,298.1719 596.6875,297.9531 C596.7969,297.7969 596.8281,297.6094 596.8281,297.1875 L596.8281,295.7656 C596.8281,295.3281 596.8125,295.2031 596.7188,295.0469 C596.5625,294.7813 596.2813,294.6406 595.9844,294.6406 C595.6875,294.6406 595.4844,294.7344 595.2656,295.0469 L595.0938,294.9688 Z " fill="#000000"/><text fill="#000000" font-family="sans-serif" font-size="14" lengthAdjust="spacing" textLength="137" x="613.25" y="304.1436">PaymentController</text><line style="stroke:#181818;stroke-width:0.5;" x1="449" x2="882" y1="315.2969" y2="315.2969"/><rect fill="none" height="6" style="stroke:#C82930;stroke-width:1.0;" width="6" x="456" y="323.2969"/><text fill="#000000" font-family="sans-serif" font-size="14" lengthAdjust="spacing" textLength="253" x="468" y="332.292">payment_service : PaymentService</text><line style="stroke:#181818;stroke-width:0.5;" x1="449" x2="882" y1="339.5938" y2="339.5938"/><ellipse cx="459" cy="350.5938" fill="#84BE84" rx="3" ry="3" style="stroke:#038048;stroke-width:1.0;"/><text fill="#000000" font-family="sans-serif" font-size="14" lengthAdjust="spacing" textLength="409" x="468" y="356.5889">pay_with_square(List&lt;SearchResult&gt; search_results) : str</text></g><!--MD5=[009cfaa84eec3602558bae4f1cb7f7f6]
class LambdaHandler--><g id="elem_LambdaHandler"><rect codeLine="46" fill="#F1F1F1" height="64.2969" id="LambdaHandler" rx="2.5" ry="2.5" style="stroke:#181818;stroke-width:0.5;" width="232" x="369.5" y="93.2969"/><ellipse cx="425.25" cy="109.2969" fill="#ADD1B2" rx="11" ry="11" style="stroke:#181818;stroke-width:1.0;"/><path d="M427.5938,104.9688 C426.6563,104.5313 426.0625,104.3906 425.1875,104.3906 C422.5625,104.3906 420.5625,106.4688 420.5625,109.1875 L420.5625,110.3125 C420.5625,112.8906 422.6719,114.7813 425.5625,114.7813 C426.7813,114.7813 427.9375,114.4844 428.6875,113.9375 C429.2656,113.5313 429.5938,113.0781 429.5938,112.6875 C429.5938,112.2344 429.2031,111.8438 428.7344,111.8438 C428.5156,111.8438 428.3125,111.9219 428.125,112.1094 C427.6719,112.5938 427.6719,112.5938 427.4844,112.6875 C427.0625,112.9531 426.375,113.0781 425.6094,113.0781 C423.5625,113.0781 422.2656,111.9844 422.2656,110.2813 L422.2656,109.1875 C422.2656,107.4063 423.5156,106.0938 425.25,106.0938 C425.8281,106.0938 426.4375,106.25 426.9063,106.5 C427.3906,106.7813 427.5625,107 427.6563,107.4063 C427.7188,107.8125 427.75,107.9375 427.8906,108.0625 C428.0313,108.2031 428.2656,108.3125 428.4844,108.3125 C428.75,108.3125 429.0156,108.1719 429.1875,107.9531 C429.2969,107.7969 429.3281,107.6094 429.3281,107.1875 L429.3281,105.7656 C429.3281,105.3281 429.3125,105.2031 429.2188,105.0469 C429.0625,104.7813 428.7813,104.6406 428.4844,104.6406 C428.1875,104.6406 427.9844,104.7344 427.7656,105.0469 L427.5938,104.9688 Z " fill="#000000"/><text fill="#000000" font-family="sans-serif" font-size="14" lengthAdjust="spacing" textLength="112" x="445.75" y="114.1436">LambdaHandler</text><line style="stroke:#181818;stroke-width:0.5;" x1="370.5" x2="600.5" y1="125.2969" y2="125.2969"/><line style="stroke:#181818;stroke-width:0.5;" x1="370.5" x2="600.5" y1="133.2969" y2="133.2969"/><ellipse cx="380.5" cy="144.2969" fill="#84BE84" rx="3" ry="3" style="stroke:#038048;stroke-width:1.0;"/><text fill="#000000" font-family="sans-serif" font-size="14" lengthAdjust="spacing" textLength="206" x="389.5" y="150.292">handle(event, context) : dict</text></g><!--MD5=[48009b1da05e076677d63765034ebc95]
link SearchController to SerpService--><g id="link_SearchController_SerpService"><path codeLine="51" d="M207.48,364.5659 C206.921,386.3859 206.225,413.5099 205.647,436.0654 " fill="none" id="SearchController-to-SerpService" style="stroke:#181818;stroke-width:1.0;stroke-dasharray:7.0,7.0;"/><polygon fill="#181818" points="205.518,441.1005,209.7476,432.2061,205.6463,436.1021,201.7502,432.0008,205.518,441.1005" style="stroke:#181818;stroke-width:1.0;"/><text fill="#000000" font-family="sans-serif" font-size="13" lengthAdjust="spacing" textLength="31" x="208.5" y="407.3638">Uses</text></g><!--MD5=[69fcafa38d1b1e331753b4931f3a1e98]
link PaymentController to PaymentService--><g id="link_PaymentController_PaymentService"><path codeLine="53" d="M665.5,364.5659 C665.5,386.3859 665.5,413.5099 665.5,436.0654 " fill="none" id="PaymentController-to-PaymentService" style="stroke:#181818;stroke-width:1.0;stroke-dasharray:7.0,7.0;"/><polygon fill="#181818" points="665.5,441.1005,669.5,432.1005,665.5,436.1005,661.5,432.1005,665.5,441.1005" style="stroke:#181818;stroke-width:1.0;"/><text fill="#000000" font-family="sans-serif" font-size="13" lengthAdjust="spacing" textLength="31" x="666.5" y="407.3638">Uses</text></g><!--MD5=[c63de7087f8cf934a66850757b501d3b]
link PaymentController to BackendService--><g id="link_PaymentController_BackendService"><path codeLine="55" d="M790.035,364.3639 C862.594,387.4179 953.948,416.4419 1027.29,439.7455 " fill="none" id="PaymentController-to-BackendService" style="stroke:#181818;stroke-width:1.0;stroke-dasharray:7.0,7.0;"/><polygon fill="#181818" points="1032.1,441.272,1024.7341,434.7342,1027.3348,439.7577,1022.3113,442.3585,1032.1,441.272" style="stroke:#181818;stroke-width:1.0;"/><text fill="#000000" font-family="sans-serif" font-size="13" lengthAdjust="spacing" textLength="31" x="926.5" y="407.3638">Uses</text></g><!--MD5=[b5c768fac94eed2a7e863c054f82a61c]
link LambdaHandler to PaymentController--><g id="link_LambdaHandler_PaymentController"><path codeLine="57" d="M514.022,157.4329 C544.054,190.2189 591.583,242.1039 625.386,279.0059 " fill="none" id="LambdaHandler-to-PaymentController" style="stroke:#181818;stroke-width:1.0;stroke-dasharray:7.0,7.0;"/><polygon fill="#181818" points="629.025,282.9789,625.8959,273.6403,625.6479,279.2917,619.9964,279.0437,629.025,282.9789" style="stroke:#181818;stroke-width:1.0;"/><text fill="#000000" font-family="sans-serif" font-size="13" lengthAdjust="spacing" textLength="31" x="598.5" y="249.3638">Uses</text></g><!--MD5=[3a1a64d06de1b264946364205c193755]
link LambdaHandler to SearchController--><g id="link_LambdaHandler_SearchController"><path codeLine="59" d="M441.609,157.4329 C395.017,190.4839 321.064,242.9459 268.971,279.8999 " fill="none" id="LambdaHandler-to-SearchController" style="stroke:#181818;stroke-width:1.0;stroke-dasharray:7.0,7.0;"/><polygon fill="#181818" points="264.631,282.9789,274.2861,281.0347,268.7093,280.0862,269.6578,274.5094,264.631,282.9789" style="stroke:#181818;stroke-width:1.0;"/><text fill="#000000" font-family="sans-serif" font-size="13" lengthAdjust="spacing" textLength="31" x="331.5" y="249.3638">Uses</text></g><!--MD5=[ce248ad4a12ce9cb04c7076f5d524baa]
@startuml
title "Help us Class Diagram"

class ExternalApiCredentials {
    + directus_api_url : str
    + directus_api_key : str
    + square_api_url : str
    + ebay_search_endpoint : str
}

class SerpService {
    - external_api_credentials : ExternalApiCredentials
    + List<SearchResult> search_with_ebay(str keyword)
}

class PaymentService {
    - external_api_credentials : ExternalApiCredentials
    + charge_with_square(List<SearchResult> search_results) : str
}

class BackendService {
    - external_api_credentials : ExternalApiCredentials
    + save_payment_result(List<SearchResult> search_results)   -
}

class SearchResult {
    + title : str
    + link : str
    + condition : str
    + price : str
    + shipping : str
    + extensions : List<str>
    + thumbnail : str

}

class SearchController {
    - serp_service : SerpService
    + search_with_ebay(str keyword) : List<SearchResult>
}

class PaymentController {
    - payment_service : PaymentService
    + pay_with_square(List<SearchResult> search_results) : str
}

class LambdaHandler {
    + handle(event, context) : dict
}


SearchController ..> SerpService : Uses

PaymentController ..> PaymentService : Uses

PaymentController ..> BackendService : Uses

LambdaHandler ..> PaymentController : Uses

LambdaHandler ..> SearchController : Uses
@enduml

PlantUML version 1.2022.6beta5(Unknown compile time)
(GPL source distribution)
Java Runtime: Java(TM) SE Runtime Environment
JVM: Java HotSpot(TM) 64-Bit Server VM
Default Encoding: UTF-8
Language: en
Country: US
--></g></svg>