<?xml version="1.0" encoding="UTF-8" standalone="no"?><svg xmlns="http://www.w3.org/2000/svg" xmlns:xlink="http://www.w3.org/1999/xlink" contentStyleType="text/css" height="751px" preserveAspectRatio="none" style="width:1510px;height:751px;background:#FFFFFF;" version="1.1" viewBox="0 0 1510 751" width="1510px" zoomAndPan="magnify"><defs/><g><rect height="26.2969" style="stroke:#00000000;stroke-width:1.0;fill:none;" width="190" x="653" y="5"/><text fill="#000000" font-family="sans-serif" font-size="14" font-weight="bold" lengthAdjust="spacing" textLength="180" x="658" y="22.9951">Help us Class Diagram</text><!--MD5=[6e99dd7eb643e9fd9f8b133e2e7a6b4c]
class ObtainTokenResponse--><g id="elem_ObtainTokenResponse"><rect codeLine="3" fill="#F1F1F1" height="113.1875" id="ObtainTokenResponse" rx="2.5" ry="2.5" style="stroke:#181818;stroke-width:0.5;" width="196" x="312.5" y="623.2969"/><ellipse cx="327.5" cy="639.2969" fill="#ADD1B2" rx="11" ry="11" style="stroke:#181818;stroke-width:1.0;"/><path d="M329.8438,634.9688 C328.9063,634.5313 328.3125,634.3906 327.4375,634.3906 C324.8125,634.3906 322.8125,636.4688 322.8125,639.1875 L322.8125,640.3125 C322.8125,642.8906 324.9219,644.7813 327.8125,644.7813 C329.0313,644.7813 330.1875,644.4844 330.9375,643.9375 C331.5156,643.5313 331.8438,643.0781 331.8438,642.6875 C331.8438,642.2344 331.4531,641.8438 330.9844,641.8438 C330.7656,641.8438 330.5625,641.9219 330.375,642.1094 C329.9219,642.5938 329.9219,642.5938 329.7344,642.6875 C329.3125,642.9531 328.625,643.0781 327.8594,643.0781 C325.8125,643.0781 324.5156,641.9844 324.5156,640.2813 L324.5156,639.1875 C324.5156,637.4063 325.7656,636.0938 327.5,636.0938 C328.0781,636.0938 328.6875,636.25 329.1563,636.5 C329.6406,636.7813 329.8125,637 329.9063,637.4063 C329.9688,637.8125 330,637.9375 330.1406,638.0625 C330.2813,638.2031 330.5156,638.3125 330.7344,638.3125 C331,638.3125 331.2656,638.1719 331.4375,637.9531 C331.5469,637.7969 331.5781,637.6094 331.5781,637.1875 L331.5781,635.7656 C331.5781,635.3281 331.5625,635.2031 331.4688,635.0469 C331.3125,634.7813 331.0313,634.6406 330.7344,634.6406 C330.4375,634.6406 330.2344,634.7344 330.0156,635.0469 L329.8438,634.9688 Z " fill="#000000"/><text fill="#000000" font-family="sans-serif" font-size="14" lengthAdjust="spacing" textLength="164" x="341.5" y="644.1436">ObtainTokenResponse</text><line style="stroke:#181818;stroke-width:0.5;" x1="313.5" x2="507.5" y1="655.2969" y2="655.2969"/><ellipse cx="323.5" cy="666.2969" fill="none" rx="3" ry="3" style="stroke:#038048;stroke-width:1.0;"/><text fill="#000000" font-family="sans-serif" font-size="14" lengthAdjust="spacing" textLength="130" x="332.5" y="672.292">access_token : str</text><ellipse cx="323.5" cy="682.5938" fill="none" rx="3" ry="3" style="stroke:#038048;stroke-width:1.0;"/><text fill="#000000" font-family="sans-serif" font-size="14" lengthAdjust="spacing" textLength="123" x="332.5" y="688.5889">merchant_id : str</text><ellipse cx="323.5" cy="698.8906" fill="none" rx="3" ry="3" style="stroke:#038048;stroke-width:1.0;"/><text fill="#000000" font-family="sans-serif" font-size="14" lengthAdjust="spacing" textLength="135" x="332.5" y="704.8857">refresh_token : str</text><ellipse cx="323.5" cy="715.1875" fill="none" rx="3" ry="3" style="stroke:#038048;stroke-width:1.0;"/><text fill="#000000" font-family="sans-serif" font-size="14" lengthAdjust="spacing" textLength="124" x="332.5" y="721.1826">short_lived : bool</text><line style="stroke:#181818;stroke-width:0.5;" x1="313.5" x2="507.5" y1="728.4844" y2="728.4844"/></g><!--MD5=[6648317ef4ae95a4ebcb0a31bb1ed1f3]
class ObtainTokenRequest--><g id="elem_ObtainTokenRequest"><rect codeLine="10" fill="#F1F1F1" height="129.4844" id="ObtainTokenRequest" rx="2.5" ry="2.5" style="stroke:#181818;stroke-width:0.5;" width="185" x="544" y="615.2969"/><ellipse cx="559" cy="631.2969" fill="#ADD1B2" rx="11" ry="11" style="stroke:#181818;stroke-width:1.0;"/><path d="M561.3438,626.9688 C560.4063,626.5313 559.8125,626.3906 558.9375,626.3906 C556.3125,626.3906 554.3125,628.4688 554.3125,631.1875 L554.3125,632.3125 C554.3125,634.8906 556.4219,636.7813 559.3125,636.7813 C560.5313,636.7813 561.6875,636.4844 562.4375,635.9375 C563.0156,635.5313 563.3438,635.0781 563.3438,634.6875 C563.3438,634.2344 562.9531,633.8438 562.4844,633.8438 C562.2656,633.8438 562.0625,633.9219 561.875,634.1094 C561.4219,634.5938 561.4219,634.5938 561.2344,634.6875 C560.8125,634.9531 560.125,635.0781 559.3594,635.0781 C557.3125,635.0781 556.0156,633.9844 556.0156,632.2813 L556.0156,631.1875 C556.0156,629.4063 557.2656,628.0938 559,628.0938 C559.5781,628.0938 560.1875,628.25 560.6563,628.5 C561.1406,628.7813 561.3125,629 561.4063,629.4063 C561.4688,629.8125 561.5,629.9375 561.6406,630.0625 C561.7813,630.2031 562.0156,630.3125 562.2344,630.3125 C562.5,630.3125 562.7656,630.1719 562.9375,629.9531 C563.0469,629.7969 563.0781,629.6094 563.0781,629.1875 L563.0781,627.7656 C563.0781,627.3281 563.0625,627.2031 562.9688,627.0469 C562.8125,626.7813 562.5313,626.6406 562.2344,626.6406 C561.9375,626.6406 561.7344,626.7344 561.5156,627.0469 L561.3438,626.9688 Z " fill="#000000"/><text fill="#000000" font-family="sans-serif" font-size="14" lengthAdjust="spacing" textLength="153" x="573" y="636.1436">ObtainTokenRequest</text><line style="stroke:#181818;stroke-width:0.5;" x1="545" x2="728" y1="647.2969" y2="647.2969"/><ellipse cx="555" cy="658.2969" fill="none" rx="3" ry="3" style="stroke:#038048;stroke-width:1.0;"/><text fill="#000000" font-family="sans-serif" font-size="14" lengthAdjust="spacing" textLength="113" x="564" y="664.292">grant_type : str</text><ellipse cx="555" cy="674.5938" fill="none" rx="3" ry="3" style="stroke:#038048;stroke-width:1.0;"/><text fill="#000000" font-family="sans-serif" font-size="14" lengthAdjust="spacing" textLength="94" x="564" y="680.5889">client_id : str</text><ellipse cx="555" cy="690.8906" fill="none" rx="3" ry="3" style="stroke:#038048;stroke-width:1.0;"/><text fill="#000000" font-family="sans-serif" font-size="14" lengthAdjust="spacing" textLength="127" x="564" y="696.8857">client_secret : str</text><ellipse cx="555" cy="707.1875" fill="none" rx="3" ry="3" style="stroke:#038048;stroke-width:1.0;"/><text fill="#000000" font-family="sans-serif" font-size="14" lengthAdjust="spacing" textLength="85" x="564" y="713.1826">scopes : list</text><ellipse cx="555" cy="723.4844" fill="none" rx="3" ry="3" style="stroke:#038048;stroke-width:1.0;"/><text fill="#000000" font-family="sans-serif" font-size="14" lengthAdjust="spacing" textLength="68" x="564" y="729.4795">code : str</text><line style="stroke:#181818;stroke-width:0.5;" x1="545" x2="728" y1="736.7813" y2="736.7813"/></g><!--MD5=[9cacc36a4b2316eea47106032a1700e9]
class SearchResultRequest--><g id="elem_SearchResultRequest"><rect codeLine="18" fill="#F1F1F1" height="80.5938" id="SearchResultRequest" rx="2.5" ry="2.5" style="stroke:#181818;stroke-width:0.5;" width="344" x="764.5" y="639.2969"/><ellipse cx="855.75" cy="655.2969" fill="#ADD1B2" rx="11" ry="11" style="stroke:#181818;stroke-width:1.0;"/><path d="M858.0938,650.9688 C857.1563,650.5313 856.5625,650.3906 855.6875,650.3906 C853.0625,650.3906 851.0625,652.4688 851.0625,655.1875 L851.0625,656.3125 C851.0625,658.8906 853.1719,660.7813 856.0625,660.7813 C857.2813,660.7813 858.4375,660.4844 859.1875,659.9375 C859.7656,659.5313 860.0938,659.0781 860.0938,658.6875 C860.0938,658.2344 859.7031,657.8438 859.2344,657.8438 C859.0156,657.8438 858.8125,657.9219 858.625,658.1094 C858.1719,658.5938 858.1719,658.5938 857.9844,658.6875 C857.5625,658.9531 856.875,659.0781 856.1094,659.0781 C854.0625,659.0781 852.7656,657.9844 852.7656,656.2813 L852.7656,655.1875 C852.7656,653.4063 854.0156,652.0938 855.75,652.0938 C856.3281,652.0938 856.9375,652.25 857.4063,652.5 C857.8906,652.7813 858.0625,653 858.1563,653.4063 C858.2188,653.8125 858.25,653.9375 858.3906,654.0625 C858.5313,654.2031 858.7656,654.3125 858.9844,654.3125 C859.25,654.3125 859.5156,654.1719 859.6875,653.9531 C859.7969,653.7969 859.8281,653.6094 859.8281,653.1875 L859.8281,651.7656 C859.8281,651.3281 859.8125,651.2031 859.7188,651.0469 C859.5625,650.7813 859.2813,650.6406 858.9844,650.6406 C858.6875,650.6406 858.4844,650.7344 858.2656,651.0469 L858.0938,650.9688 Z " fill="#000000"/><text fill="#000000" font-family="sans-serif" font-size="14" lengthAdjust="spacing" textLength="153" x="876.25" y="660.1436">SearchResultRequest</text><line style="stroke:#181818;stroke-width:0.5;" x1="765.5" x2="1107.5" y1="671.2969" y2="671.2969"/><ellipse cx="775.5" cy="682.2969" fill="none" rx="3" ry="3" style="stroke:#038048;stroke-width:1.0;"/><text fill="#000000" font-family="sans-serif" font-size="14" lengthAdjust="spacing" textLength="166" x="784.5" y="688.292">authorizationCode : str</text><ellipse cx="775.5" cy="698.5938" fill="none" rx="3" ry="3" style="stroke:#038048;stroke-width:1.0;"/><text fill="#000000" font-family="sans-serif" font-size="14" lengthAdjust="spacing" textLength="318" x="784.5" y="704.5889">List&lt;SearchResultResponse&gt; search_results</text><line style="stroke:#181818;stroke-width:0.5;" x1="765.5" x2="1107.5" y1="711.8906" y2="711.8906"/></g><!--MD5=[f2bc77f958c6bf9c93552407cd3f26ea]
class TransactionResult--><g id="elem_TransactionResult"><rect codeLine="23" fill="#F1F1F1" height="48" id="TransactionResult" rx="2.5" ry="2.5" style="stroke:#181818;stroke-width:0.5;" width="161" x="1144" y="655.7969"/><ellipse cx="1159" cy="671.7969" fill="#ADD1B2" rx="11" ry="11" style="stroke:#181818;stroke-width:1.0;"/><path d="M1161.3438,667.4688 C1160.4063,667.0313 1159.8125,666.8906 1158.9375,666.8906 C1156.3125,666.8906 1154.3125,668.9688 1154.3125,671.6875 L1154.3125,672.8125 C1154.3125,675.3906 1156.4219,677.2813 1159.3125,677.2813 C1160.5313,677.2813 1161.6875,676.9844 1162.4375,676.4375 C1163.0156,676.0313 1163.3438,675.5781 1163.3438,675.1875 C1163.3438,674.7344 1162.9531,674.3438 1162.4844,674.3438 C1162.2656,674.3438 1162.0625,674.4219 1161.875,674.6094 C1161.4219,675.0938 1161.4219,675.0938 1161.2344,675.1875 C1160.8125,675.4531 1160.125,675.5781 1159.3594,675.5781 C1157.3125,675.5781 1156.0156,674.4844 1156.0156,672.7813 L1156.0156,671.6875 C1156.0156,669.9063 1157.2656,668.5938 1159,668.5938 C1159.5781,668.5938 1160.1875,668.75 1160.6563,669 C1161.1406,669.2813 1161.3125,669.5 1161.4063,669.9063 C1161.4688,670.3125 1161.5,670.4375 1161.6406,670.5625 C1161.7813,670.7031 1162.0156,670.8125 1162.2344,670.8125 C1162.5,670.8125 1162.7656,670.6719 1162.9375,670.4531 C1163.0469,670.2969 1163.0781,670.1094 1163.0781,669.6875 L1163.0781,668.2656 C1163.0781,667.8281 1163.0625,667.7031 1162.9688,667.5469 C1162.8125,667.2813 1162.5313,667.1406 1162.2344,667.1406 C1161.9375,667.1406 1161.7344,667.2344 1161.5156,667.5469 L1161.3438,667.4688 Z " fill="#000000"/><text fill="#000000" font-family="sans-serif" font-size="14" lengthAdjust="spacing" textLength="129" x="1173" y="676.6436">TransactionResult</text><line style="stroke:#181818;stroke-width:0.5;" x1="1145" x2="1304" y1="687.7969" y2="687.7969"/><line style="stroke:#181818;stroke-width:0.5;" x1="1145" x2="1304" y1="695.7969" y2="695.7969"/></g><!--MD5=[053bb6a4a3afdd20f74e89c760dc9638]
class SerpService--><g id="elem_SerpService"><rect codeLine="25" fill="#F1F1F1" height="64.2969" id="SerpService" rx="2.5" ry="2.5" style="stroke:#181818;stroke-width:0.5;" width="464" x="11.5" y="465.7969"/><ellipse cx="195.75" cy="481.7969" fill="#ADD1B2" rx="11" ry="11" style="stroke:#181818;stroke-width:1.0;"/><path d="M198.0938,477.4688 C197.1563,477.0313 196.5625,476.8906 195.6875,476.8906 C193.0625,476.8906 191.0625,478.9688 191.0625,481.6875 L191.0625,482.8125 C191.0625,485.3906 193.1719,487.2813 196.0625,487.2813 C197.2813,487.2813 198.4375,486.9844 199.1875,486.4375 C199.7656,486.0313 200.0938,485.5781 200.0938,485.1875 C200.0938,484.7344 199.7031,484.3438 199.2344,484.3438 C199.0156,484.3438 198.8125,484.4219 198.625,484.6094 C198.1719,485.0938 198.1719,485.0938 197.9844,485.1875 C197.5625,485.4531 196.875,485.5781 196.1094,485.5781 C194.0625,485.5781 192.7656,484.4844 192.7656,482.7813 L192.7656,481.6875 C192.7656,479.9063 194.0156,478.5938 195.75,478.5938 C196.3281,478.5938 196.9375,478.75 197.4063,479 C197.8906,479.2813 198.0625,479.5 198.1563,479.9063 C198.2188,480.3125 198.25,480.4375 198.3906,480.5625 C198.5313,480.7031 198.7656,480.8125 198.9844,480.8125 C199.25,480.8125 199.5156,480.6719 199.6875,480.4531 C199.7969,480.2969 199.8281,480.1094 199.8281,479.6875 L199.8281,478.2656 C199.8281,477.8281 199.8125,477.7031 199.7188,477.5469 C199.5625,477.2813 199.2813,477.1406 198.9844,477.1406 C198.6875,477.1406 198.4844,477.2344 198.2656,477.5469 L198.0938,477.4688 Z " fill="#000000"/><text fill="#000000" font-family="sans-serif" font-size="14" lengthAdjust="spacing" textLength="87" x="216.25" y="486.6436">SerpService</text><line style="stroke:#181818;stroke-width:0.5;" x1="12.5" x2="474.5" y1="497.7969" y2="497.7969"/><line style="stroke:#181818;stroke-width:0.5;" x1="12.5" x2="474.5" y1="505.7969" y2="505.7969"/><ellipse cx="22.5" cy="516.7969" fill="#84BE84" rx="3" ry="3" style="stroke:#038048;stroke-width:1.0;"/><text fill="#000000" font-family="sans-serif" font-size="14" lengthAdjust="spacing" textLength="438" x="31.5" y="522.792">List&lt;SearchResultResponse&gt; search_with_ebay(str keyword)</text></g><!--MD5=[04c986212dbd7a6edcbb0c84ee03c1fe]
class PaymentService--><g id="elem_PaymentService"><rect codeLine="29" fill="#F1F1F1" height="80.5938" id="PaymentService" rx="2.5" ry="2.5" style="stroke:#181818;stroke-width:0.5;" width="549" x="512" y="457.2969"/><ellipse cx="723.75" cy="473.2969" fill="#ADD1B2" rx="11" ry="11" style="stroke:#181818;stroke-width:1.0;"/><path d="M726.0938,468.9688 C725.1563,468.5313 724.5625,468.3906 723.6875,468.3906 C721.0625,468.3906 719.0625,470.4688 719.0625,473.1875 L719.0625,474.3125 C719.0625,476.8906 721.1719,478.7813 724.0625,478.7813 C725.2813,478.7813 726.4375,478.4844 727.1875,477.9375 C727.7656,477.5313 728.0938,477.0781 728.0938,476.6875 C728.0938,476.2344 727.7031,475.8438 727.2344,475.8438 C727.0156,475.8438 726.8125,475.9219 726.625,476.1094 C726.1719,476.5938 726.1719,476.5938 725.9844,476.6875 C725.5625,476.9531 724.875,477.0781 724.1094,477.0781 C722.0625,477.0781 720.7656,475.9844 720.7656,474.2813 L720.7656,473.1875 C720.7656,471.4063 722.0156,470.0938 723.75,470.0938 C724.3281,470.0938 724.9375,470.25 725.4063,470.5 C725.8906,470.7813 726.0625,471 726.1563,471.4063 C726.2188,471.8125 726.25,471.9375 726.3906,472.0625 C726.5313,472.2031 726.7656,472.3125 726.9844,472.3125 C727.25,472.3125 727.5156,472.1719 727.6875,471.9531 C727.7969,471.7969 727.8281,471.6094 727.8281,471.1875 L727.8281,469.7656 C727.8281,469.3281 727.8125,469.2031 727.7188,469.0469 C727.5625,468.7813 727.2813,468.6406 726.9844,468.6406 C726.6875,468.6406 726.4844,468.7344 726.2656,469.0469 L726.0938,468.9688 Z " fill="#000000"/><text fill="#000000" font-family="sans-serif" font-size="14" lengthAdjust="spacing" textLength="117" x="744.25" y="478.1436">PaymentService</text><line style="stroke:#181818;stroke-width:0.5;" x1="513" x2="1060" y1="489.2969" y2="489.2969"/><line style="stroke:#181818;stroke-width:0.5;" x1="513" x2="1060" y1="497.2969" y2="497.2969"/><ellipse cx="523" cy="508.2969" fill="#84BE84" rx="3" ry="3" style="stroke:#038048;stroke-width:1.0;"/><text fill="#000000" font-family="sans-serif" font-size="14" lengthAdjust="spacing" textLength="469" x="532" y="514.292">authorize_with_square(str authorizationCode) : TransactionResult</text><ellipse cx="523" cy="524.5938" fill="#84BE84" rx="3" ry="3" style="stroke:#038048;stroke-width:1.0;"/><text fill="#000000" font-family="sans-serif" font-size="14" lengthAdjust="spacing" textLength="523" x="532" y="530.5889">checkout_with_square(SearchResultRequest search_results_request) : str</text></g><!--MD5=[bc7a2585be9684605f100403883890b4]
class BackendService--><g id="elem_BackendService"><rect codeLine="34" fill="#F1F1F1" height="64.2969" id="BackendService" rx="2.5" ry="2.5" style="stroke:#181818;stroke-width:0.5;" width="407" x="1096" y="465.7969"/><ellipse cx="1237.75" cy="481.7969" fill="#ADD1B2" rx="11" ry="11" style="stroke:#181818;stroke-width:1.0;"/><path d="M1240.0938,477.4688 C1239.1563,477.0313 1238.5625,476.8906 1237.6875,476.8906 C1235.0625,476.8906 1233.0625,478.9688 1233.0625,481.6875 L1233.0625,482.8125 C1233.0625,485.3906 1235.1719,487.2813 1238.0625,487.2813 C1239.2813,487.2813 1240.4375,486.9844 1241.1875,486.4375 C1241.7656,486.0313 1242.0938,485.5781 1242.0938,485.1875 C1242.0938,484.7344 1241.7031,484.3438 1241.2344,484.3438 C1241.0156,484.3438 1240.8125,484.4219 1240.625,484.6094 C1240.1719,485.0938 1240.1719,485.0938 1239.9844,485.1875 C1239.5625,485.4531 1238.875,485.5781 1238.1094,485.5781 C1236.0625,485.5781 1234.7656,484.4844 1234.7656,482.7813 L1234.7656,481.6875 C1234.7656,479.9063 1236.0156,478.5938 1237.75,478.5938 C1238.3281,478.5938 1238.9375,478.75 1239.4063,479 C1239.8906,479.2813 1240.0625,479.5 1240.1563,479.9063 C1240.2188,480.3125 1240.25,480.4375 1240.3906,480.5625 C1240.5313,480.7031 1240.7656,480.8125 1240.9844,480.8125 C1241.25,480.8125 1241.5156,480.6719 1241.6875,480.4531 C1241.7969,480.2969 1241.8281,480.1094 1241.8281,479.6875 L1241.8281,478.2656 C1241.8281,477.8281 1241.8125,477.7031 1241.7188,477.5469 C1241.5625,477.2813 1241.2813,477.1406 1240.9844,477.1406 C1240.6875,477.1406 1240.4844,477.2344 1240.2656,477.5469 L1240.0938,477.4688 Z " fill="#000000"/><text fill="#000000" font-family="sans-serif" font-size="14" lengthAdjust="spacing" textLength="115" x="1258.25" y="486.6436">BackendService</text><line style="stroke:#181818;stroke-width:0.5;" x1="1097" x2="1502" y1="497.7969" y2="497.7969"/><line style="stroke:#181818;stroke-width:0.5;" x1="1097" x2="1502" y1="505.7969" y2="505.7969"/><ellipse cx="1107" cy="516.7969" fill="#84BE84" rx="3" ry="3" style="stroke:#038048;stroke-width:1.0;"/><text fill="#000000" font-family="sans-serif" font-size="14" lengthAdjust="spacing" textLength="381" x="1116" y="522.792">save_payment_result(TransactionResult result) : bool</text></g><!--MD5=[2d8a4277e81725947b7ee10853785d4e]
class SearchResultResponse--><g id="elem_SearchResultResponse"><rect codeLine="38" fill="#F1F1F1" height="162.0781" id="SearchResultResponse" rx="2.5" ry="2.5" style="stroke:#181818;stroke-width:0.5;" width="196" x="725.5" y="44.2969"/><ellipse cx="740.5" cy="60.2969" fill="#ADD1B2" rx="11" ry="11" style="stroke:#181818;stroke-width:1.0;"/><path d="M742.8438,55.9688 C741.9063,55.5313 741.3125,55.3906 740.4375,55.3906 C737.8125,55.3906 735.8125,57.4688 735.8125,60.1875 L735.8125,61.3125 C735.8125,63.8906 737.9219,65.7813 740.8125,65.7813 C742.0313,65.7813 743.1875,65.4844 743.9375,64.9375 C744.5156,64.5313 744.8438,64.0781 744.8438,63.6875 C744.8438,63.2344 744.4531,62.8438 743.9844,62.8438 C743.7656,62.8438 743.5625,62.9219 743.375,63.1094 C742.9219,63.5938 742.9219,63.5938 742.7344,63.6875 C742.3125,63.9531 741.625,64.0781 740.8594,64.0781 C738.8125,64.0781 737.5156,62.9844 737.5156,61.2813 L737.5156,60.1875 C737.5156,58.4063 738.7656,57.0938 740.5,57.0938 C741.0781,57.0938 741.6875,57.25 742.1563,57.5 C742.6406,57.7813 742.8125,58 742.9063,58.4063 C742.9688,58.8125 743,58.9375 743.1406,59.0625 C743.2813,59.2031 743.5156,59.3125 743.7344,59.3125 C744,59.3125 744.2656,59.1719 744.4375,58.9531 C744.5469,58.7969 744.5781,58.6094 744.5781,58.1875 L744.5781,56.7656 C744.5781,56.3281 744.5625,56.2031 744.4688,56.0469 C744.3125,55.7813 744.0313,55.6406 743.7344,55.6406 C743.4375,55.6406 743.2344,55.7344 743.0156,56.0469 L742.8438,55.9688 Z " fill="#000000"/><text fill="#000000" font-family="sans-serif" font-size="14" lengthAdjust="spacing" textLength="164" x="754.5" y="65.1436">SearchResultResponse</text><line style="stroke:#181818;stroke-width:0.5;" x1="726.5" x2="920.5" y1="76.2969" y2="76.2969"/><ellipse cx="736.5" cy="87.2969" fill="none" rx="3" ry="3" style="stroke:#038048;stroke-width:1.0;"/><text fill="#000000" font-family="sans-serif" font-size="14" lengthAdjust="spacing" textLength="64" x="745.5" y="93.292">title : str</text><ellipse cx="736.5" cy="103.5938" fill="none" rx="3" ry="3" style="stroke:#038048;stroke-width:1.0;"/><text fill="#000000" font-family="sans-serif" font-size="14" lengthAdjust="spacing" textLength="59" x="745.5" y="109.5889">link : str</text><ellipse cx="736.5" cy="119.8906" fill="none" rx="3" ry="3" style="stroke:#038048;stroke-width:1.0;"/><text fill="#000000" font-family="sans-serif" font-size="14" lengthAdjust="spacing" textLength="101" x="745.5" y="125.8857">condition : str</text><ellipse cx="736.5" cy="136.1875" fill="none" rx="3" ry="3" style="stroke:#038048;stroke-width:1.0;"/><text fill="#000000" font-family="sans-serif" font-size="14" lengthAdjust="spacing" textLength="70" x="745.5" y="142.1826">price : str</text><ellipse cx="736.5" cy="152.4844" fill="none" rx="3" ry="3" style="stroke:#038048;stroke-width:1.0;"/><text fill="#000000" font-family="sans-serif" font-size="14" lengthAdjust="spacing" textLength="95" x="745.5" y="158.4795">shipping : str</text><ellipse cx="736.5" cy="168.7813" fill="none" rx="3" ry="3" style="stroke:#038048;stroke-width:1.0;"/><text fill="#000000" font-family="sans-serif" font-size="14" lengthAdjust="spacing" textLength="159" x="745.5" y="174.7764">extensions : List&lt;str&gt;</text><ellipse cx="736.5" cy="185.0781" fill="none" rx="3" ry="3" style="stroke:#038048;stroke-width:1.0;"/><text fill="#000000" font-family="sans-serif" font-size="14" lengthAdjust="spacing" textLength="106" x="745.5" y="191.0732">thumbnail : str</text><line style="stroke:#181818;stroke-width:0.5;" x1="726.5" x2="920.5" y1="198.375" y2="198.375"/></g><!--MD5=[2eba06dd0e991185ec81b0e205ea5301]
class SearchController--><g id="elem_SearchController"><rect codeLine="49" fill="#F1F1F1" height="80.5938" id="SearchController" rx="2.5" ry="2.5" style="stroke:#181818;stroke-width:0.5;" width="473" x="7" y="291.2969"/><ellipse cx="178.25" cy="307.2969" fill="#ADD1B2" rx="11" ry="11" style="stroke:#181818;stroke-width:1.0;"/><path d="M180.5938,302.9688 C179.6563,302.5313 179.0625,302.3906 178.1875,302.3906 C175.5625,302.3906 173.5625,304.4688 173.5625,307.1875 L173.5625,308.3125 C173.5625,310.8906 175.6719,312.7813 178.5625,312.7813 C179.7813,312.7813 180.9375,312.4844 181.6875,311.9375 C182.2656,311.5313 182.5938,311.0781 182.5938,310.6875 C182.5938,310.2344 182.2031,309.8438 181.7344,309.8438 C181.5156,309.8438 181.3125,309.9219 181.125,310.1094 C180.6719,310.5938 180.6719,310.5938 180.4844,310.6875 C180.0625,310.9531 179.375,311.0781 178.6094,311.0781 C176.5625,311.0781 175.2656,309.9844 175.2656,308.2813 L175.2656,307.1875 C175.2656,305.4063 176.5156,304.0938 178.25,304.0938 C178.8281,304.0938 179.4375,304.25 179.9063,304.5 C180.3906,304.7813 180.5625,305 180.6563,305.4063 C180.7188,305.8125 180.75,305.9375 180.8906,306.0625 C181.0313,306.2031 181.2656,306.3125 181.4844,306.3125 C181.75,306.3125 182.0156,306.1719 182.1875,305.9531 C182.2969,305.7969 182.3281,305.6094 182.3281,305.1875 L182.3281,303.7656 C182.3281,303.3281 182.3125,303.2031 182.2188,303.0469 C182.0625,302.7813 181.7813,302.6406 181.4844,302.6406 C181.1875,302.6406 180.9844,302.7344 180.7656,303.0469 L180.5938,302.9688 Z " fill="#000000"/><text fill="#000000" font-family="sans-serif" font-size="14" lengthAdjust="spacing" textLength="122" x="198.75" y="312.1436">SearchController</text><line style="stroke:#181818;stroke-width:0.5;" x1="8" x2="479" y1="323.2969" y2="323.2969"/><rect fill="none" height="6" style="stroke:#C82930;stroke-width:1.0;" width="6" x="15" y="331.2969"/><text fill="#000000" font-family="sans-serif" font-size="14" lengthAdjust="spacing" textLength="190" x="27" y="340.292">serp_service : SerpService</text><line style="stroke:#181818;stroke-width:0.5;" x1="8" x2="479" y1="347.5938" y2="347.5938"/><ellipse cx="18" cy="358.5938" fill="#84BE84" rx="3" ry="3" style="stroke:#038048;stroke-width:1.0;"/><text fill="#000000" font-family="sans-serif" font-size="14" lengthAdjust="spacing" textLength="447" x="27" y="364.5889">search_with_ebay(str keyword) : List&lt;SearchResultResponse&gt;</text></g><!--MD5=[c83f54922bd1076e47c619e9ad7fd812]
class PaymentController--><g id="elem_PaymentController"><rect codeLine="54" fill="#F1F1F1" height="96.8906" id="PaymentController" rx="2.5" ry="2.5" style="stroke:#181818;stroke-width:0.5;" width="549" x="515" y="283.2969"/><ellipse cx="716.75" cy="299.2969" fill="#ADD1B2" rx="11" ry="11" style="stroke:#181818;stroke-width:1.0;"/><path d="M719.0938,294.9688 C718.1563,294.5313 717.5625,294.3906 716.6875,294.3906 C714.0625,294.3906 712.0625,296.4688 712.0625,299.1875 L712.0625,300.3125 C712.0625,302.8906 714.1719,304.7813 717.0625,304.7813 C718.2813,304.7813 719.4375,304.4844 720.1875,303.9375 C720.7656,303.5313 721.0938,303.0781 721.0938,302.6875 C721.0938,302.2344 720.7031,301.8438 720.2344,301.8438 C720.0156,301.8438 719.8125,301.9219 719.625,302.1094 C719.1719,302.5938 719.1719,302.5938 718.9844,302.6875 C718.5625,302.9531 717.875,303.0781 717.1094,303.0781 C715.0625,303.0781 713.7656,301.9844 713.7656,300.2813 L713.7656,299.1875 C713.7656,297.4063 715.0156,296.0938 716.75,296.0938 C717.3281,296.0938 717.9375,296.25 718.4063,296.5 C718.8906,296.7813 719.0625,297 719.1563,297.4063 C719.2188,297.8125 719.25,297.9375 719.3906,298.0625 C719.5313,298.2031 719.7656,298.3125 719.9844,298.3125 C720.25,298.3125 720.5156,298.1719 720.6875,297.9531 C720.7969,297.7969 720.8281,297.6094 720.8281,297.1875 L720.8281,295.7656 C720.8281,295.3281 720.8125,295.2031 720.7188,295.0469 C720.5625,294.7813 720.2813,294.6406 719.9844,294.6406 C719.6875,294.6406 719.4844,294.7344 719.2656,295.0469 L719.0938,294.9688 Z " fill="#000000"/><text fill="#000000" font-family="sans-serif" font-size="14" lengthAdjust="spacing" textLength="137" x="737.25" y="304.1436">PaymentController</text><line style="stroke:#181818;stroke-width:0.5;" x1="516" x2="1063" y1="315.2969" y2="315.2969"/><rect fill="none" height="6" style="stroke:#C82930;stroke-width:1.0;" width="6" x="523" y="323.2969"/><text fill="#000000" font-family="sans-serif" font-size="14" lengthAdjust="spacing" textLength="253" x="535" y="332.292">payment_service : PaymentService</text><line style="stroke:#181818;stroke-width:0.5;" x1="516" x2="1063" y1="339.5938" y2="339.5938"/><ellipse cx="526" cy="350.5938" fill="#84BE84" rx="3" ry="3" style="stroke:#038048;stroke-width:1.0;"/><text fill="#000000" font-family="sans-serif" font-size="14" lengthAdjust="spacing" textLength="523" x="535" y="356.5889">checkout_with_square(SearchResultRequest search_results_request) : str</text><ellipse cx="526" cy="366.8906" fill="#84BE84" rx="3" ry="3" style="stroke:#038048;stroke-width:1.0;"/><text fill="#000000" font-family="sans-serif" font-size="14" lengthAdjust="spacing" textLength="380" x="535" y="372.8857">callback_with_square(TransactionResult result) : bool</text></g><!--MD5=[009cfaa84eec3602558bae4f1cb7f7f6]
class LambdaHandler--><g id="elem_LambdaHandler"><rect codeLine="60" fill="#F1F1F1" height="64.2969" id="LambdaHandler" rx="2.5" ry="2.5" style="stroke:#181818;stroke-width:0.5;" width="232" x="458.5" y="93.2969"/><ellipse cx="514.25" cy="109.2969" fill="#ADD1B2" rx="11" ry="11" style="stroke:#181818;stroke-width:1.0;"/><path d="M516.5938,104.9688 C515.6563,104.5313 515.0625,104.3906 514.1875,104.3906 C511.5625,104.3906 509.5625,106.4688 509.5625,109.1875 L509.5625,110.3125 C509.5625,112.8906 511.6719,114.7813 514.5625,114.7813 C515.7813,114.7813 516.9375,114.4844 517.6875,113.9375 C518.2656,113.5313 518.5938,113.0781 518.5938,112.6875 C518.5938,112.2344 518.2031,111.8438 517.7344,111.8438 C517.5156,111.8438 517.3125,111.9219 517.125,112.1094 C516.6719,112.5938 516.6719,112.5938 516.4844,112.6875 C516.0625,112.9531 515.375,113.0781 514.6094,113.0781 C512.5625,113.0781 511.2656,111.9844 511.2656,110.2813 L511.2656,109.1875 C511.2656,107.4063 512.5156,106.0938 514.25,106.0938 C514.8281,106.0938 515.4375,106.25 515.9063,106.5 C516.3906,106.7813 516.5625,107 516.6563,107.4063 C516.7188,107.8125 516.75,107.9375 516.8906,108.0625 C517.0313,108.2031 517.2656,108.3125 517.4844,108.3125 C517.75,108.3125 518.0156,108.1719 518.1875,107.9531 C518.2969,107.7969 518.3281,107.6094 518.3281,107.1875 L518.3281,105.7656 C518.3281,105.3281 518.3125,105.2031 518.2188,105.0469 C518.0625,104.7813 517.7813,104.6406 517.4844,104.6406 C517.1875,104.6406 516.9844,104.7344 516.7656,105.0469 L516.5938,104.9688 Z " fill="#000000"/><text fill="#000000" font-family="sans-serif" font-size="14" lengthAdjust="spacing" textLength="112" x="534.75" y="114.1436">LambdaHandler</text><line style="stroke:#181818;stroke-width:0.5;" x1="459.5" x2="689.5" y1="125.2969" y2="125.2969"/><line style="stroke:#181818;stroke-width:0.5;" x1="459.5" x2="689.5" y1="133.2969" y2="133.2969"/><ellipse cx="469.5" cy="144.2969" fill="#84BE84" rx="3" ry="3" style="stroke:#038048;stroke-width:1.0;"/><text fill="#000000" font-family="sans-serif" font-size="14" lengthAdjust="spacing" textLength="206" x="478.5" y="150.292">handle(event, context) : dict</text></g><!--MD5=[48009b1da05e076677d63765034ebc95]
link SearchController to SerpService--><g id="link_SearchController_SerpService"><path codeLine="65" d="M243.5,372.4969 C243.5,399.3359 243.5,434.5019 243.5,460.5779 " fill="none" id="SearchController-to-SerpService" style="stroke:#181818;stroke-width:1.0;stroke-dasharray:7.0,7.0;"/><polygon fill="#181818" points="243.5,465.6669,247.5,456.6669,243.5,460.6669,239.5,456.6669,243.5,465.6669" style="stroke:#181818;stroke-width:1.0;"/><text fill="#000000" font-family="sans-serif" font-size="13" lengthAdjust="spacing" textLength="31" x="244.5" y="423.3638">Uses</text></g><!--MD5=[69fcafa38d1b1e331753b4931f3a1e98]
link PaymentController to PaymentService--><g id="link_PaymentController_PaymentService"><path codeLine="67" d="M788.624,380.6729 C788.213,403.1679 787.725,429.8329 787.321,451.9339 " fill="none" id="PaymentController-to-PaymentService" style="stroke:#181818;stroke-width:1.0;stroke-dasharray:7.0,7.0;"/><polygon fill="#181818" points="787.225,457.1569,791.3889,448.2315,787.3164,452.1577,783.3903,448.0852,787.225,457.1569" style="stroke:#181818;stroke-width:1.0;"/><text fill="#000000" font-family="sans-serif" font-size="13" lengthAdjust="spacing" textLength="31" x="789.5" y="423.3638">Uses</text></g><!--MD5=[c63de7087f8cf934a66850757b501d3b]
link PaymentController to BackendService--><g id="link_PaymentController_BackendService"><path codeLine="69" d="M937.356,380.3429 C1020.97,407.2299 1123.37,440.1579 1197.92,464.1309 " fill="none" id="PaymentController-to-BackendService" style="stroke:#181818;stroke-width:1.0;stroke-dasharray:7.0,7.0;"/><polygon fill="#181818" points="1202.79,465.6969,1195.444,459.1367,1198.0294,464.1681,1192.998,466.7536,1202.79,465.6969" style="stroke:#181818;stroke-width:1.0;"/><text fill="#000000" font-family="sans-serif" font-size="13" lengthAdjust="spacing" textLength="31" x="1075.5" y="423.3638">Uses</text></g><!--MD5=[8578da7550e543eec33f2e12c0298132]
link PaymentService to ObtainTokenResponse--><g id="link_PaymentService_ObtainTokenResponse"><path codeLine="71" d="M693.311,538.4089 C643.389,560.1649 581.098,588.1749 526.5,615.2969 C522.105,617.4799 517.635,619.7419 513.134,622.0529 " fill="none" id="PaymentService-to-ObtainTokenResponse" style="stroke:#181818;stroke-width:1.0;stroke-dasharray:7.0,7.0;"/><polygon fill="#181818" points="508.623,624.3799,518.4554,623.8108,513.0671,622.0886,514.7893,616.7002,508.623,624.3799" style="stroke:#181818;stroke-width:1.0;"/><text fill="#000000" font-family="sans-serif" font-size="13" lengthAdjust="spacing" textLength="31" x="627.5" y="581.3638">Uses</text></g><!--MD5=[3565ede833ddc247b7c00665114fe223]
link PaymentService to ObtainTokenRequest--><g id="link_PaymentService_ObtainTokenRequest"><path codeLine="73" d="M753.582,538.2989 C735.818,559.6149 713.398,586.5199 692.942,611.0659 " fill="none" id="PaymentService-to-ObtainTokenRequest" style="stroke:#181818;stroke-width:1.0;stroke-dasharray:7.0,7.0;"/><polygon fill="#181818" points="689.677,614.9839,698.5117,610.6309,692.8781,611.1429,692.3661,605.5092,689.677,614.9839" style="stroke:#181818;stroke-width:1.0;"/><text fill="#000000" font-family="sans-serif" font-size="13" lengthAdjust="spacing" textLength="31" x="726.5" y="581.3638">Uses</text></g><!--MD5=[e28223938a9118de62765230cbbb4ef7]
link PaymentService to TransactionResult--><g id="link_PaymentService_TransactionResult"><path codeLine="75" d="M926.888,538.3809 C989.412,558.1569 1063.09,584.4679 1126.5,615.2969 C1148.01,625.7569 1170.52,640.0649 1188.53,652.4523 " fill="none" id="PaymentService-to-TransactionResult" style="stroke:#181818;stroke-width:1.0;stroke-dasharray:7.0,7.0;"/><polygon fill="#181818" points="1193,655.5566,1187.8743,647.1466,1188.8881,652.7119,1183.3228,653.7257,1193,655.5566" style="stroke:#181818;stroke-width:1.0;"/><text fill="#000000" font-family="sans-serif" font-size="13" lengthAdjust="spacing" textLength="31" x="1055.5" y="581.3638">Uses</text></g><!--MD5=[c658fbdc95c4687c31995128f3c9ce1d]
link PaymentService to SearchResultRequest--><g id="link_PaymentService_SearchResultRequest"><path codeLine="77" d="M819.418,538.2989 C843.271,566.9219 875.519,605.6199 900.132,635.1559 " fill="none" id="PaymentService-to-SearchResultRequest" style="stroke:#181818;stroke-width:1.0;stroke-dasharray:7.0,7.0;"/><polygon fill="#181818" points="903.4,639.0769,900.7109,629.6022,900.1989,635.2359,894.5653,634.7239,903.4,639.0769" style="stroke:#181818;stroke-width:1.0;"/><text fill="#000000" font-family="sans-serif" font-size="13" lengthAdjust="spacing" textLength="31" x="858.5" y="581.3638">Uses</text></g><!--MD5=[b5c768fac94eed2a7e863c054f82a61c]
link LambdaHandler to PaymentController--><g id="link_LambdaHandler_PaymentController"><path codeLine="79" d="M607.154,157.3559 C641.18,189.7209 695.068,240.9769 735.454,279.3899 " fill="none" id="LambdaHandler-to-PaymentController" style="stroke:#181818;stroke-width:1.0;stroke-dasharray:7.0,7.0;"/><polygon fill="#181818" points="739.319,283.0669,735.5543,273.9659,735.696,279.621,730.0409,279.7627,739.319,283.0669" style="stroke:#181818;stroke-width:1.0;"/><text fill="#000000" font-family="sans-serif" font-size="13" lengthAdjust="spacing" textLength="31" x="709.5" y="249.3638">Uses</text></g><!--MD5=[3a1a64d06de1b264946364205c193755]
link LambdaHandler to SearchController--><g id="link_LambdaHandler_SearchController"><path codeLine="81" d="M524.228,157.3559 C467.624,192.3279 375.318,249.3569 312.112,288.4069 " fill="none" id="LambdaHandler-to-SearchController" style="stroke:#181818;stroke-width:1.0;stroke-dasharray:7.0,7.0;"/><polygon fill="#181818" points="307.613,291.1859,317.3721,289.859,311.8668,288.5581,313.1677,283.0529,307.613,291.1859" style="stroke:#181818;stroke-width:1.0;"/><text fill="#000000" font-family="sans-serif" font-size="13" lengthAdjust="spacing" textLength="31" x="390.5" y="249.3638">Uses</text></g><!--MD5=[de2ed0c1b633b6a99de0b510b2cbad35]
@startuml
title "Help us Class Diagram"

class ObtainTokenResponse {
    + access_token : str
    + merchant_id : str
    + refresh_token : str
    + short_lived : bool
}

class ObtainTokenRequest {
    + grant_type : str
    + client_id : str
    + client_secret : str
    + scopes : list
    + code : str
}

class SearchResultRequest {
    + authorizationCode : str
    + List<SearchResultResponse> search_results
}

class TransactionResult

class SerpService {
    + List<SearchResultResponse> search_with_ebay(str keyword)
}

class PaymentService {
    + authorize_with_square(str authorizationCode) : TransactionResult
    + checkout_with_square(SearchResultRequest search_results_request) : str
}

class BackendService {
    + save_payment_result(TransactionResult result) : bool
}

class SearchResultResponse {
    + title : str
    + link : str
    + condition : str
    + price : str
    + shipping : str
    + extensions : List<str>
    + thumbnail : str

}

class SearchController {
    - serp_service : SerpService
    + search_with_ebay(str keyword) : List<SearchResultResponse>
}

class PaymentController {
    - payment_service : PaymentService
    + checkout_with_square(SearchResultRequest search_results_request) : str
    + callback_with_square(TransactionResult result) : bool
}

class LambdaHandler {
    + handle(event, context) : dict
}


SearchController ..> SerpService : Uses

PaymentController ..> PaymentService : Uses

PaymentController ..> BackendService : Uses

PaymentService ..> ObtainTokenResponse : Uses

PaymentService ..> ObtainTokenRequest : Uses

PaymentService ..> TransactionResult : Uses

PaymentService ..> SearchResultRequest : Uses

LambdaHandler ..> PaymentController : Uses

LambdaHandler ..> SearchController : Uses
@enduml

PlantUML version 1.2022.6beta5(Unknown compile time)
(GPL source distribution)
Java Runtime: Java(TM) SE Runtime Environment
JVM: Java HotSpot(TM) 64-Bit Server VM
Default Encoding: UTF-8
Language: en
Country: US
--></g></svg>