<?xml version="1.0" encoding="UTF-8" standalone="no"?><svg xmlns="http://www.w3.org/2000/svg" xmlns:xlink="http://www.w3.org/1999/xlink" contentStyleType="text/css" height="1417px" preserveAspectRatio="none" style="width:1768px;height:1417px;background:#FFFFFF;" version="1.1" viewBox="0 0 1768 1417" width="1768px" zoomAndPan="magnify"><defs/><g><rect height="26.2969" id="_title" style="stroke:#00000000;stroke-width:1.0;fill:none;" width="190" x="782.25" y="5"/><text fill="#000000" font-family="sans-serif" font-size="14" font-weight="bold" lengthAdjust="spacing" textLength="180" x="787.25" y="22.9951">Help us Class Diagram</text><!--MD5=[0b19e4b6e28cfd9d7d559ff6fd11d86b]
class SquareAuthController--><g id="elem_SquareAuthController"><rect codeLine="3" fill="#F1F1F1" height="80.5938" id="SquareAuthController" rx="2.5" ry="2.5" style="stroke:#181818;stroke-width:0.5;" width="405" x="78" y="60.2969"/><ellipse cx="198.25" cy="76.2969" fill="#ADD1B2" rx="11" ry="11" style="stroke:#181818;stroke-width:1.0;"/><path d="M200.5938,71.9688 C199.6563,71.5313 199.0625,71.3906 198.1875,71.3906 C195.5625,71.3906 193.5625,73.4688 193.5625,76.1875 L193.5625,77.3125 C193.5625,79.8906 195.6719,81.7813 198.5625,81.7813 C199.7813,81.7813 200.9375,81.4844 201.6875,80.9375 C202.2656,80.5313 202.5938,80.0781 202.5938,79.6875 C202.5938,79.2344 202.2031,78.8438 201.7344,78.8438 C201.5156,78.8438 201.3125,78.9219 201.125,79.1094 C200.6719,79.5938 200.6719,79.5938 200.4844,79.6875 C200.0625,79.9531 199.375,80.0781 198.6094,80.0781 C196.5625,80.0781 195.2656,78.9844 195.2656,77.2813 L195.2656,76.1875 C195.2656,74.4063 196.5156,73.0938 198.25,73.0938 C198.8281,73.0938 199.4375,73.25 199.9063,73.5 C200.3906,73.7813 200.5625,74 200.6563,74.4063 C200.7188,74.8125 200.75,74.9375 200.8906,75.0625 C201.0313,75.2031 201.2656,75.3125 201.4844,75.3125 C201.75,75.3125 202.0156,75.1719 202.1875,74.9531 C202.2969,74.7969 202.3281,74.6094 202.3281,74.1875 L202.3281,72.7656 C202.3281,72.3281 202.3125,72.2031 202.2188,72.0469 C202.0625,71.7813 201.7813,71.6406 201.4844,71.6406 C201.1875,71.6406 200.9844,71.7344 200.7656,72.0469 L200.5938,71.9688 Z " fill="#000000"/><text fill="#000000" font-family="sans-serif" font-size="14" lengthAdjust="spacing" textLength="156" x="218.75" y="81.1436">SquareAuthController</text><line style="stroke:#181818;stroke-width:0.5;" x1="79" x2="482" y1="92.2969" y2="92.2969"/><line style="stroke:#181818;stroke-width:0.5;" x1="79" x2="482" y1="100.2969" y2="100.2969"/><ellipse cx="89" cy="111.2969" fill="#84BE84" rx="3" ry="3" style="stroke:#038048;stroke-width:1.0;"/><text fill="#000000" font-family="sans-serif" font-size="14" lengthAdjust="spacing" textLength="379" x="98" y="117.292">authorize(AuthorizeWithSquareCommand command)</text><ellipse cx="89" cy="127.5938" fill="#84BE84" rx="3" ry="3" style="stroke:#038048;stroke-width:1.0;"/><text fill="#000000" font-family="sans-serif" font-size="14" lengthAdjust="spacing" textLength="338" x="98" y="133.5889">getAuthLink(GetAuthLinkCommand command)</text></g><!--MD5=[31dcea483600b08fd5178f101ce2bc27]
class AuthorizeWithSquareCommand--><g id="elem_AuthorizeWithSquareCommand"><rect codeLine="8" fill="#F1F1F1" height="129.4844" id="AuthorizeWithSquareCommand" rx="2.5" ry="2.5" style="stroke:#181818;stroke-width:0.5;" width="297" x="7" y="234.2969"/><ellipse cx="39.55" cy="250.2969" fill="#ADD1B2" rx="11" ry="11" style="stroke:#181818;stroke-width:1.0;"/><path d="M41.8938,245.9688 C40.9563,245.5313 40.3625,245.3906 39.4875,245.3906 C36.8625,245.3906 34.8625,247.4688 34.8625,250.1875 L34.8625,251.3125 C34.8625,253.8906 36.9719,255.7813 39.8625,255.7813 C41.0813,255.7813 42.2375,255.4844 42.9875,254.9375 C43.5656,254.5313 43.8938,254.0781 43.8938,253.6875 C43.8938,253.2344 43.5031,252.8438 43.0344,252.8438 C42.8156,252.8438 42.6125,252.9219 42.425,253.1094 C41.9719,253.5938 41.9719,253.5938 41.7844,253.6875 C41.3625,253.9531 40.675,254.0781 39.9094,254.0781 C37.8625,254.0781 36.5656,252.9844 36.5656,251.2813 L36.5656,250.1875 C36.5656,248.4063 37.8156,247.0938 39.55,247.0938 C40.1281,247.0938 40.7375,247.25 41.2063,247.5 C41.6906,247.7813 41.8625,248 41.9563,248.4063 C42.0188,248.8125 42.05,248.9375 42.1906,249.0625 C42.3313,249.2031 42.5656,249.3125 42.7844,249.3125 C43.05,249.3125 43.3156,249.1719 43.4875,248.9531 C43.5969,248.7969 43.6281,248.6094 43.6281,248.1875 L43.6281,246.7656 C43.6281,246.3281 43.6125,246.2031 43.5188,246.0469 C43.3625,245.7813 43.0813,245.6406 42.7844,245.6406 C42.4875,245.6406 42.2844,245.7344 42.0656,246.0469 L41.8938,245.9688 Z " fill="#000000"/><text fill="#000000" font-family="sans-serif" font-size="14" lengthAdjust="spacing" textLength="226" x="57.45" y="255.1436">AuthorizeWithSquareCommand</text><line style="stroke:#181818;stroke-width:0.5;" x1="8" x2="303" y1="266.2969" y2="266.2969"/><ellipse cx="18" cy="277.2969" fill="none" rx="3" ry="3" style="stroke:#038048;stroke-width:1.0;"/><text fill="#000000" font-family="sans-serif" font-size="14" lengthAdjust="spacing" textLength="135" x="27" y="283.292">grant_type : string</text><ellipse cx="18" cy="293.5938" fill="none" rx="3" ry="3" style="stroke:#038048;stroke-width:1.0;"/><text fill="#000000" font-family="sans-serif" font-size="14" lengthAdjust="spacing" textLength="157" x="27" y="299.5889">refresh_token : string</text><ellipse cx="18" cy="309.8906" fill="none" rx="3" ry="3" style="stroke:#038048;stroke-width:1.0;"/><text fill="#000000" font-family="sans-serif" font-size="14" lengthAdjust="spacing" textLength="90" x="27" y="315.8857">code : string</text><ellipse cx="18" cy="326.1875" fill="none" rx="3" ry="3" style="stroke:#038048;stroke-width:1.0;"/><text fill="#000000" font-family="sans-serif" font-size="14" lengthAdjust="spacing" textLength="220" x="27" y="332.1826">square_service : SquareService</text><line style="stroke:#181818;stroke-width:0.5;" x1="8" x2="303" y1="339.4844" y2="339.4844"/><ellipse cx="18" cy="350.4844" fill="#84BE84" rx="3" ry="3" style="stroke:#038048;stroke-width:1.0;"/><text fill="#000000" font-family="sans-serif" font-size="14" lengthAdjust="spacing" textLength="271" x="27" y="356.4795">execute(self) : ObtainTokenResponse</text></g><!--MD5=[cca4f0be91b6914288f1e2000b16dd33]
class GetAuthLinkCommand--><g id="elem_GetAuthLinkCommand"><rect codeLine="16" fill="#F1F1F1" height="80.5938" id="GetAuthLinkCommand" rx="2.5" ry="2.5" style="stroke:#181818;stroke-width:0.5;" width="246" x="339.5" y="258.2969"/><ellipse cx="377" cy="274.2969" fill="#ADD1B2" rx="11" ry="11" style="stroke:#181818;stroke-width:1.0;"/><path d="M379.3438,269.9688 C378.4063,269.5313 377.8125,269.3906 376.9375,269.3906 C374.3125,269.3906 372.3125,271.4688 372.3125,274.1875 L372.3125,275.3125 C372.3125,277.8906 374.4219,279.7813 377.3125,279.7813 C378.5313,279.7813 379.6875,279.4844 380.4375,278.9375 C381.0156,278.5313 381.3438,278.0781 381.3438,277.6875 C381.3438,277.2344 380.9531,276.8438 380.4844,276.8438 C380.2656,276.8438 380.0625,276.9219 379.875,277.1094 C379.4219,277.5938 379.4219,277.5938 379.2344,277.6875 C378.8125,277.9531 378.125,278.0781 377.3594,278.0781 C375.3125,278.0781 374.0156,276.9844 374.0156,275.2813 L374.0156,274.1875 C374.0156,272.4063 375.2656,271.0938 377,271.0938 C377.5781,271.0938 378.1875,271.25 378.6563,271.5 C379.1406,271.7813 379.3125,272 379.4063,272.4063 C379.4688,272.8125 379.5,272.9375 379.6406,273.0625 C379.7813,273.2031 380.0156,273.3125 380.2344,273.3125 C380.5,273.3125 380.7656,273.1719 380.9375,272.9531 C381.0469,272.7969 381.0781,272.6094 381.0781,272.1875 L381.0781,270.7656 C381.0781,270.3281 381.0625,270.2031 380.9688,270.0469 C380.8125,269.7813 380.5313,269.6406 380.2344,269.6406 C379.9375,269.6406 379.7344,269.7344 379.5156,270.0469 L379.3438,269.9688 Z " fill="#000000"/><text fill="#000000" font-family="sans-serif" font-size="14" lengthAdjust="spacing" textLength="164" x="396" y="279.1436">GetAuthLinkCommand</text><line style="stroke:#181818;stroke-width:0.5;" x1="340.5" x2="584.5" y1="290.2969" y2="290.2969"/><ellipse cx="350.5" cy="301.2969" fill="none" rx="3" ry="3" style="stroke:#038048;stroke-width:1.0;"/><text fill="#000000" font-family="sans-serif" font-size="14" lengthAdjust="spacing" textLength="220" x="359.5" y="307.292">square_service : SquareService</text><line style="stroke:#181818;stroke-width:0.5;" x1="340.5" x2="584.5" y1="314.5938" y2="314.5938"/><ellipse cx="350.5" cy="325.5938" fill="#84BE84" rx="3" ry="3" style="stroke:#038048;stroke-width:1.0;"/><text fill="#000000" font-family="sans-serif" font-size="14" lengthAdjust="spacing" textLength="149" x="359.5" y="331.5889">execute(self) : string</text></g><!--MD5=[2e8f1cf2e0856031fb9c2dc6f6bdb60a]
class SquareService--><g id="elem_SquareService"><rect codeLine="24" fill="#F1F1F1" height="178.375" id="SquareService" rx="2.5" ry="2.5" style="stroke:#181818;stroke-width:0.5;" width="708" x="555.5" y="440.2969"/><ellipse cx="854.25" cy="456.2969" fill="#ADD1B2" rx="11" ry="11" style="stroke:#181818;stroke-width:1.0;"/><path d="M856.5938,451.9688 C855.6563,451.5313 855.0625,451.3906 854.1875,451.3906 C851.5625,451.3906 849.5625,453.4688 849.5625,456.1875 L849.5625,457.3125 C849.5625,459.8906 851.6719,461.7813 854.5625,461.7813 C855.7813,461.7813 856.9375,461.4844 857.6875,460.9375 C858.2656,460.5313 858.5938,460.0781 858.5938,459.6875 C858.5938,459.2344 858.2031,458.8438 857.7344,458.8438 C857.5156,458.8438 857.3125,458.9219 857.125,459.1094 C856.6719,459.5938 856.6719,459.5938 856.4844,459.6875 C856.0625,459.9531 855.375,460.0781 854.6094,460.0781 C852.5625,460.0781 851.2656,458.9844 851.2656,457.2813 L851.2656,456.1875 C851.2656,454.4063 852.5156,453.0938 854.25,453.0938 C854.8281,453.0938 855.4375,453.25 855.9063,453.5 C856.3906,453.7813 856.5625,454 856.6563,454.4063 C856.7188,454.8125 856.75,454.9375 856.8906,455.0625 C857.0313,455.2031 857.2656,455.3125 857.4844,455.3125 C857.75,455.3125 858.0156,455.1719 858.1875,454.9531 C858.2969,454.7969 858.3281,454.6094 858.3281,454.1875 L858.3281,452.7656 C858.3281,452.3281 858.3125,452.2031 858.2188,452.0469 C858.0625,451.7813 857.7813,451.6406 857.4844,451.6406 C857.1875,451.6406 856.9844,451.7344 856.7656,452.0469 L856.5938,451.9688 Z " fill="#000000"/><text fill="#000000" font-family="sans-serif" font-size="14" lengthAdjust="spacing" textLength="102" x="874.75" y="461.1436">SquareService</text><line style="stroke:#181818;stroke-width:0.5;" x1="556.5" x2="1262.5" y1="472.2969" y2="472.2969"/><ellipse cx="566.5" cy="483.2969" fill="none" rx="3" ry="3" style="stroke:#038048;stroke-width:1.0;"/><text fill="#000000" font-family="sans-serif" font-size="14" lengthAdjust="spacing" textLength="145" x="575.5" y="489.292">Variables : Variables</text><ellipse cx="566.5" cy="499.5938" fill="none" rx="3" ry="3" style="stroke:#038048;stroke-width:1.0;"/><text fill="#000000" font-family="sans-serif" font-size="14" lengthAdjust="spacing" textLength="159" x="575.5" y="505.5889">Constants : Constants</text><line style="stroke:#181818;stroke-width:0.5;" x1="556.5" x2="1262.5" y1="512.8906" y2="512.8906"/><ellipse cx="566.5" cy="523.8906" fill="#84BE84" rx="3" ry="3" style="stroke:#038048;stroke-width:1.0;"/><text fill="#000000" font-family="sans-serif" font-size="14" lengthAdjust="spacing" textLength="277" x="575.5" y="529.8857">get_access_token(self, command) : str</text><ellipse cx="566.5" cy="540.1875" fill="#84BE84" rx="3" ry="3" style="stroke:#038048;stroke-width:1.0;"/><text fill="#000000" font-family="sans-serif" font-size="14" lengthAdjust="spacing" textLength="682" x="575.5" y="546.1826">authorize_with_square(self, AuthorizeWithSquareCommand command) : ObtainTokenResponse</text><ellipse cx="566.5" cy="556.4844" fill="#84BE84" rx="3" ry="3" style="stroke:#038048;stroke-width:1.0;"/><text fill="#000000" font-family="sans-serif" font-size="14" lengthAdjust="spacing" textLength="655" x="575.5" y="562.4795">checkout_with_square(self, CheckoutWithSquareCommand command) : CheckoutResponse</text><ellipse cx="566.5" cy="572.7813" fill="#84BE84" rx="3" ry="3" style="stroke:#038048;stroke-width:1.0;"/><text fill="#000000" font-family="sans-serif" font-size="14" lengthAdjust="spacing" textLength="515" x="575.5" y="578.7764">update_with_square(self, UpdateWithSquareCommand command) : bool</text><ellipse cx="566.5" cy="589.0781" fill="#84BE84" rx="3" ry="3" style="stroke:#038048;stroke-width:1.0;"/><text fill="#000000" font-family="sans-serif" font-size="14" lengthAdjust="spacing" textLength="499" x="575.5" y="595.0732">delete_link_square(self, DeleteLinkSquareCommand command) : bool</text><ellipse cx="566.5" cy="605.375" fill="#84BE84" rx="3" ry="3" style="stroke:#038048;stroke-width:1.0;"/><text fill="#000000" font-family="sans-serif" font-size="14" lengthAdjust="spacing" textLength="522" x="575.5" y="611.3701">get_payment_link(self, RetrieveWithSquareCommand command) : string</text></g><!--MD5=[6e99dd7eb643e9fd9f8b133e2e7a6b4c]
class ObtainTokenResponse--><g id="elem_ObtainTokenResponse"><rect codeLine="35" fill="#F1F1F1" height="113.1875" id="ObtainTokenResponse" rx="2.5" ry="2.5" style="stroke:#181818;stroke-width:0.5;" width="196" x="479.5" y="719.7969"/><ellipse cx="494.5" cy="735.7969" fill="#ADD1B2" rx="11" ry="11" style="stroke:#181818;stroke-width:1.0;"/><path d="M496.8438,731.4688 C495.9063,731.0313 495.3125,730.8906 494.4375,730.8906 C491.8125,730.8906 489.8125,732.9688 489.8125,735.6875 L489.8125,736.8125 C489.8125,739.3906 491.9219,741.2813 494.8125,741.2813 C496.0313,741.2813 497.1875,740.9844 497.9375,740.4375 C498.5156,740.0313 498.8438,739.5781 498.8438,739.1875 C498.8438,738.7344 498.4531,738.3438 497.9844,738.3438 C497.7656,738.3438 497.5625,738.4219 497.375,738.6094 C496.9219,739.0938 496.9219,739.0938 496.7344,739.1875 C496.3125,739.4531 495.625,739.5781 494.8594,739.5781 C492.8125,739.5781 491.5156,738.4844 491.5156,736.7813 L491.5156,735.6875 C491.5156,733.9063 492.7656,732.5938 494.5,732.5938 C495.0781,732.5938 495.6875,732.75 496.1563,733 C496.6406,733.2813 496.8125,733.5 496.9063,733.9063 C496.9688,734.3125 497,734.4375 497.1406,734.5625 C497.2813,734.7031 497.5156,734.8125 497.7344,734.8125 C498,734.8125 498.2656,734.6719 498.4375,734.4531 C498.5469,734.2969 498.5781,734.1094 498.5781,733.6875 L498.5781,732.2656 C498.5781,731.8281 498.5625,731.7031 498.4688,731.5469 C498.3125,731.2813 498.0313,731.1406 497.7344,731.1406 C497.4375,731.1406 497.2344,731.2344 497.0156,731.5469 L496.8438,731.4688 Z " fill="#000000"/><text fill="#000000" font-family="sans-serif" font-size="14" lengthAdjust="spacing" textLength="164" x="508.5" y="740.6436">ObtainTokenResponse</text><line style="stroke:#181818;stroke-width:0.5;" x1="480.5" x2="674.5" y1="751.7969" y2="751.7969"/><ellipse cx="490.5" cy="762.7969" fill="none" rx="3" ry="3" style="stroke:#038048;stroke-width:1.0;"/><text fill="#000000" font-family="sans-serif" font-size="14" lengthAdjust="spacing" textLength="152" x="499.5" y="768.792">access_token : string</text><ellipse cx="490.5" cy="779.0938" fill="none" rx="3" ry="3" style="stroke:#038048;stroke-width:1.0;"/><text fill="#000000" font-family="sans-serif" font-size="14" lengthAdjust="spacing" textLength="145" x="499.5" y="785.0889">merchant_id : string</text><ellipse cx="490.5" cy="795.3906" fill="none" rx="3" ry="3" style="stroke:#038048;stroke-width:1.0;"/><text fill="#000000" font-family="sans-serif" font-size="14" lengthAdjust="spacing" textLength="157" x="499.5" y="801.3857">refresh_token : string</text><ellipse cx="490.5" cy="811.6875" fill="none" rx="3" ry="3" style="stroke:#038048;stroke-width:1.0;"/><text fill="#000000" font-family="sans-serif" font-size="14" lengthAdjust="spacing" textLength="134" x="499.5" y="817.6826">short_lived : string</text><line style="stroke:#181818;stroke-width:0.5;" x1="480.5" x2="674.5" y1="824.9844" y2="824.9844"/></g><!--MD5=[6648317ef4ae95a4ebcb0a31bb1ed1f3]
class ObtainTokenRequest--><g id="elem_ObtainTokenRequest"><rect codeLine="42" fill="#F1F1F1" height="162.0781" id="ObtainTokenRequest" rx="2.5" ry="2.5" style="stroke:#181818;stroke-width:0.5;" width="185" x="711" y="695.2969"/><ellipse cx="726" cy="711.2969" fill="#ADD1B2" rx="11" ry="11" style="stroke:#181818;stroke-width:1.0;"/><path d="M728.3438,706.9688 C727.4063,706.5313 726.8125,706.3906 725.9375,706.3906 C723.3125,706.3906 721.3125,708.4688 721.3125,711.1875 L721.3125,712.3125 C721.3125,714.8906 723.4219,716.7813 726.3125,716.7813 C727.5313,716.7813 728.6875,716.4844 729.4375,715.9375 C730.0156,715.5313 730.3438,715.0781 730.3438,714.6875 C730.3438,714.2344 729.9531,713.8438 729.4844,713.8438 C729.2656,713.8438 729.0625,713.9219 728.875,714.1094 C728.4219,714.5938 728.4219,714.5938 728.2344,714.6875 C727.8125,714.9531 727.125,715.0781 726.3594,715.0781 C724.3125,715.0781 723.0156,713.9844 723.0156,712.2813 L723.0156,711.1875 C723.0156,709.4063 724.2656,708.0938 726,708.0938 C726.5781,708.0938 727.1875,708.25 727.6563,708.5 C728.1406,708.7813 728.3125,709 728.4063,709.4063 C728.4688,709.8125 728.5,709.9375 728.6406,710.0625 C728.7813,710.2031 729.0156,710.3125 729.2344,710.3125 C729.5,710.3125 729.7656,710.1719 729.9375,709.9531 C730.0469,709.7969 730.0781,709.6094 730.0781,709.1875 L730.0781,707.7656 C730.0781,707.3281 730.0625,707.2031 729.9688,707.0469 C729.8125,706.7813 729.5313,706.6406 729.2344,706.6406 C728.9375,706.6406 728.7344,706.7344 728.5156,707.0469 L728.3438,706.9688 Z " fill="#000000"/><text fill="#000000" font-family="sans-serif" font-size="14" lengthAdjust="spacing" textLength="153" x="740" y="716.1436">ObtainTokenRequest</text><line style="stroke:#181818;stroke-width:0.5;" x1="712" x2="895" y1="727.2969" y2="727.2969"/><ellipse cx="722" cy="738.2969" fill="none" rx="3" ry="3" style="stroke:#038048;stroke-width:1.0;"/><text fill="#000000" font-family="sans-serif" font-size="14" lengthAdjust="spacing" textLength="135" x="731" y="744.292">grant_type : string</text><ellipse cx="722" cy="754.5938" fill="none" rx="3" ry="3" style="stroke:#038048;stroke-width:1.0;"/><text fill="#000000" font-family="sans-serif" font-size="14" lengthAdjust="spacing" textLength="157" x="731" y="760.5889">refresh_token : string</text><ellipse cx="722" cy="770.8906" fill="none" rx="3" ry="3" style="stroke:#038048;stroke-width:1.0;"/><text fill="#000000" font-family="sans-serif" font-size="14" lengthAdjust="spacing" textLength="90" x="731" y="776.8857">code : string</text><ellipse cx="722" cy="787.1875" fill="none" rx="3" ry="3" style="stroke:#038048;stroke-width:1.0;"/><text fill="#000000" font-family="sans-serif" font-size="14" lengthAdjust="spacing" textLength="134" x="731" y="793.1826">short_lived : string</text><ellipse cx="722" cy="803.4844" fill="none" rx="3" ry="3" style="stroke:#038048;stroke-width:1.0;"/><text fill="#000000" font-family="sans-serif" font-size="14" lengthAdjust="spacing" textLength="116" x="731" y="809.4795">client_id : string</text><ellipse cx="722" cy="819.7813" fill="none" rx="3" ry="3" style="stroke:#038048;stroke-width:1.0;"/><text fill="#000000" font-family="sans-serif" font-size="14" lengthAdjust="spacing" textLength="149" x="731" y="825.7764">client_secret : string</text><ellipse cx="722" cy="836.0781" fill="none" rx="3" ry="3" style="stroke:#038048;stroke-width:1.0;"/><text fill="#000000" font-family="sans-serif" font-size="14" lengthAdjust="spacing" textLength="105" x="731" y="842.0732">scopes : string</text><line style="stroke:#181818;stroke-width:0.5;" x1="712" x2="895" y1="849.375" y2="849.375"/></g><!--MD5=[5e03793b92c3a2216eb9003616ffb388]
class SquarePaymentController--><g id="elem_SquarePaymentController"><rect codeLine="57" fill="#F1F1F1" height="113.1875" id="SquarePaymentController" rx="2.5" ry="2.5" style="stroke:#181818;stroke-width:0.5;" width="383" x="1018" y="44.2969"/><ellipse cx="1112.25" cy="60.2969" fill="#ADD1B2" rx="11" ry="11" style="stroke:#181818;stroke-width:1.0;"/><path d="M1114.5938,55.9688 C1113.6563,55.5313 1113.0625,55.3906 1112.1875,55.3906 C1109.5625,55.3906 1107.5625,57.4688 1107.5625,60.1875 L1107.5625,61.3125 C1107.5625,63.8906 1109.6719,65.7813 1112.5625,65.7813 C1113.7813,65.7813 1114.9375,65.4844 1115.6875,64.9375 C1116.2656,64.5313 1116.5938,64.0781 1116.5938,63.6875 C1116.5938,63.2344 1116.2031,62.8438 1115.7344,62.8438 C1115.5156,62.8438 1115.3125,62.9219 1115.125,63.1094 C1114.6719,63.5938 1114.6719,63.5938 1114.4844,63.6875 C1114.0625,63.9531 1113.375,64.0781 1112.6094,64.0781 C1110.5625,64.0781 1109.2656,62.9844 1109.2656,61.2813 L1109.2656,60.1875 C1109.2656,58.4063 1110.5156,57.0938 1112.25,57.0938 C1112.8281,57.0938 1113.4375,57.25 1113.9063,57.5 C1114.3906,57.7813 1114.5625,58 1114.6563,58.4063 C1114.7188,58.8125 1114.75,58.9375 1114.8906,59.0625 C1115.0313,59.2031 1115.2656,59.3125 1115.4844,59.3125 C1115.75,59.3125 1116.0156,59.1719 1116.1875,58.9531 C1116.2969,58.7969 1116.3281,58.6094 1116.3281,58.1875 L1116.3281,56.7656 C1116.3281,56.3281 1116.3125,56.2031 1116.2188,56.0469 C1116.0625,55.7813 1115.7813,55.6406 1115.4844,55.6406 C1115.1875,55.6406 1114.9844,55.7344 1114.7656,56.0469 L1114.5938,55.9688 Z " fill="#000000"/><text fill="#000000" font-family="sans-serif" font-size="14" lengthAdjust="spacing" textLength="186" x="1132.75" y="65.1436">SquarePaymentController</text><line style="stroke:#181818;stroke-width:0.5;" x1="1019" x2="1400" y1="76.2969" y2="76.2969"/><line style="stroke:#181818;stroke-width:0.5;" x1="1019" x2="1400" y1="84.2969" y2="84.2969"/><ellipse cx="1029" cy="95.2969" fill="#84BE84" rx="3" ry="3" style="stroke:#038048;stroke-width:1.0;"/><text fill="#000000" font-family="sans-serif" font-size="14" lengthAdjust="spacing" textLength="357" x="1038" y="101.292">create(CheckoutWithSquareCommand command)</text><ellipse cx="1029" cy="111.5938" fill="#84BE84" rx="3" ry="3" style="stroke:#038048;stroke-width:1.0;"/><text fill="#000000" font-family="sans-serif" font-size="14" lengthAdjust="spacing" textLength="335" x="1038" y="117.5889">read(RetrieveWithSquareCommand command)</text><ellipse cx="1029" cy="127.8906" fill="#84BE84" rx="3" ry="3" style="stroke:#038048;stroke-width:1.0;"/><text fill="#000000" font-family="sans-serif" font-size="14" lengthAdjust="spacing" textLength="344" x="1038" y="133.8857">update(UpdateWithSquareCommand command)</text><ellipse cx="1029" cy="144.1875" fill="#84BE84" rx="3" ry="3" style="stroke:#038048;stroke-width:1.0;"/><text fill="#000000" font-family="sans-serif" font-size="14" lengthAdjust="spacing" textLength="333" x="1038" y="150.1826">delete(DeleteLinkSquareCommand command)</text></g><!--MD5=[8ef198ecc90da7eff8ef4c50656473b8]
class CheckoutWithSquareCommand--><g id="elem_CheckoutWithSquareCommand"><rect codeLine="64" fill="#F1F1F1" height="80.5938" id="CheckoutWithSquareCommand" rx="2.5" ry="2.5" style="stroke:#181818;stroke-width:0.5;" width="272" x="620.5" y="258.2969"/><ellipse cx="642.25" cy="274.2969" fill="#ADD1B2" rx="11" ry="11" style="stroke:#181818;stroke-width:1.0;"/><path d="M644.5938,269.9688 C643.6563,269.5313 643.0625,269.3906 642.1875,269.3906 C639.5625,269.3906 637.5625,271.4688 637.5625,274.1875 L637.5625,275.3125 C637.5625,277.8906 639.6719,279.7813 642.5625,279.7813 C643.7813,279.7813 644.9375,279.4844 645.6875,278.9375 C646.2656,278.5313 646.5938,278.0781 646.5938,277.6875 C646.5938,277.2344 646.2031,276.8438 645.7344,276.8438 C645.5156,276.8438 645.3125,276.9219 645.125,277.1094 C644.6719,277.5938 644.6719,277.5938 644.4844,277.6875 C644.0625,277.9531 643.375,278.0781 642.6094,278.0781 C640.5625,278.0781 639.2656,276.9844 639.2656,275.2813 L639.2656,274.1875 C639.2656,272.4063 640.5156,271.0938 642.25,271.0938 C642.8281,271.0938 643.4375,271.25 643.9063,271.5 C644.3906,271.7813 644.5625,272 644.6563,272.4063 C644.7188,272.8125 644.75,272.9375 644.8906,273.0625 C645.0313,273.2031 645.2656,273.3125 645.4844,273.3125 C645.75,273.3125 646.0156,273.1719 646.1875,272.9531 C646.2969,272.7969 646.3281,272.6094 646.3281,272.1875 L646.3281,270.7656 C646.3281,270.3281 646.3125,270.2031 646.2188,270.0469 C646.0625,269.7813 645.7813,269.6406 645.4844,269.6406 C645.1875,269.6406 644.9844,269.7344 644.7656,270.0469 L644.5938,269.9688 Z " fill="#000000"/><text fill="#000000" font-family="sans-serif" font-size="14" lengthAdjust="spacing" textLength="225" x="657.75" y="279.1436">CheckoutWithSquareCommand</text><line style="stroke:#181818;stroke-width:0.5;" x1="621.5" x2="891.5" y1="290.2969" y2="290.2969"/><ellipse cx="631.5" cy="301.2969" fill="none" rx="3" ry="3" style="stroke:#038048;stroke-width:1.0;"/><text fill="#000000" font-family="sans-serif" font-size="14" lengthAdjust="spacing" textLength="220" x="640.5" y="307.292">square_service : SquareService</text><line style="stroke:#181818;stroke-width:0.5;" x1="621.5" x2="891.5" y1="314.5938" y2="314.5938"/><ellipse cx="631.5" cy="325.5938" fill="#84BE84" rx="3" ry="3" style="stroke:#038048;stroke-width:1.0;"/><text fill="#000000" font-family="sans-serif" font-size="14" lengthAdjust="spacing" textLength="246" x="640.5" y="331.5889">execute(self) : CheckoutResponse</text></g><!--MD5=[499b507d6467b14d003b34b04c8225a8]
class RetrieveWithSquareCommand--><g id="elem_RetrieveWithSquareCommand"><rect codeLine="69" fill="#F1F1F1" height="80.5938" id="RetrieveWithSquareCommand" rx="2.5" ry="2.5" style="stroke:#181818;stroke-width:0.5;" width="272" x="927.5" y="258.2969"/><ellipse cx="952.4" cy="274.2969" fill="#ADD1B2" rx="11" ry="11" style="stroke:#181818;stroke-width:1.0;"/><path d="M954.7438,269.9688 C953.8063,269.5313 953.2125,269.3906 952.3375,269.3906 C949.7125,269.3906 947.7125,271.4688 947.7125,274.1875 L947.7125,275.3125 C947.7125,277.8906 949.8219,279.7813 952.7125,279.7813 C953.9313,279.7813 955.0875,279.4844 955.8375,278.9375 C956.4156,278.5313 956.7438,278.0781 956.7438,277.6875 C956.7438,277.2344 956.3531,276.8438 955.8844,276.8438 C955.6656,276.8438 955.4625,276.9219 955.275,277.1094 C954.8219,277.5938 954.8219,277.5938 954.6344,277.6875 C954.2125,277.9531 953.525,278.0781 952.7594,278.0781 C950.7125,278.0781 949.4156,276.9844 949.4156,275.2813 L949.4156,274.1875 C949.4156,272.4063 950.6656,271.0938 952.4,271.0938 C952.9781,271.0938 953.5875,271.25 954.0563,271.5 C954.5406,271.7813 954.7125,272 954.8063,272.4063 C954.8688,272.8125 954.9,272.9375 955.0406,273.0625 C955.1813,273.2031 955.4156,273.3125 955.6344,273.3125 C955.9,273.3125 956.1656,273.1719 956.3375,272.9531 C956.4469,272.7969 956.4781,272.6094 956.4781,272.1875 L956.4781,270.7656 C956.4781,270.3281 956.4625,270.2031 956.3688,270.0469 C956.2125,269.7813 955.9313,269.6406 955.6344,269.6406 C955.3375,269.6406 955.1344,269.7344 954.9156,270.0469 L954.7438,269.9688 Z " fill="#000000"/><text fill="#000000" font-family="sans-serif" font-size="14" lengthAdjust="spacing" textLength="218" x="968.6" y="279.1436">RetrieveWithSquareCommand</text><line style="stroke:#181818;stroke-width:0.5;" x1="928.5" x2="1198.5" y1="290.2969" y2="290.2969"/><ellipse cx="938.5" cy="301.2969" fill="none" rx="3" ry="3" style="stroke:#038048;stroke-width:1.0;"/><text fill="#000000" font-family="sans-serif" font-size="14" lengthAdjust="spacing" textLength="220" x="947.5" y="307.292">square_service : SquareService</text><line style="stroke:#181818;stroke-width:0.5;" x1="928.5" x2="1198.5" y1="314.5938" y2="314.5938"/><ellipse cx="938.5" cy="325.5938" fill="#84BE84" rx="3" ry="3" style="stroke:#038048;stroke-width:1.0;"/><text fill="#000000" font-family="sans-serif" font-size="14" lengthAdjust="spacing" textLength="246" x="947.5" y="331.5889">execute(self) : CheckoutResponse</text></g><!--MD5=[0ff90fa3199e99d180704784f7c52b46]
class UpdateWithSquareCommand--><g id="elem_UpdateWithSquareCommand"><rect codeLine="74" fill="#F1F1F1" height="80.5938" id="UpdateWithSquareCommand" rx="2.5" ry="2.5" style="stroke:#181818;stroke-width:0.5;" width="246" x="1234.5" y="258.2969"/><ellipse cx="1252.2" cy="274.2969" fill="#ADD1B2" rx="11" ry="11" style="stroke:#181818;stroke-width:1.0;"/><path d="M1254.5438,269.9688 C1253.6063,269.5313 1253.0125,269.3906 1252.1375,269.3906 C1249.5125,269.3906 1247.5125,271.4688 1247.5125,274.1875 L1247.5125,275.3125 C1247.5125,277.8906 1249.6219,279.7813 1252.5125,279.7813 C1253.7313,279.7813 1254.8875,279.4844 1255.6375,278.9375 C1256.2156,278.5313 1256.5438,278.0781 1256.5438,277.6875 C1256.5438,277.2344 1256.1531,276.8438 1255.6844,276.8438 C1255.4656,276.8438 1255.2625,276.9219 1255.075,277.1094 C1254.6219,277.5938 1254.6219,277.5938 1254.4344,277.6875 C1254.0125,277.9531 1253.325,278.0781 1252.5594,278.0781 C1250.5125,278.0781 1249.2156,276.9844 1249.2156,275.2813 L1249.2156,274.1875 C1249.2156,272.4063 1250.4656,271.0938 1252.2,271.0938 C1252.7781,271.0938 1253.3875,271.25 1253.8563,271.5 C1254.3406,271.7813 1254.5125,272 1254.6063,272.4063 C1254.6688,272.8125 1254.7,272.9375 1254.8406,273.0625 C1254.9813,273.2031 1255.2156,273.3125 1255.4344,273.3125 C1255.7,273.3125 1255.9656,273.1719 1256.1375,272.9531 C1256.2469,272.7969 1256.2781,272.6094 1256.2781,272.1875 L1256.2781,270.7656 C1256.2781,270.3281 1256.2625,270.2031 1256.1688,270.0469 C1256.0125,269.7813 1255.7313,269.6406 1255.4344,269.6406 C1255.1375,269.6406 1254.9344,269.7344 1254.7156,270.0469 L1254.5438,269.9688 Z " fill="#000000"/><text fill="#000000" font-family="sans-serif" font-size="14" lengthAdjust="spacing" textLength="208" x="1266.8" y="279.1436">UpdateWithSquareCommand</text><line style="stroke:#181818;stroke-width:0.5;" x1="1235.5" x2="1479.5" y1="290.2969" y2="290.2969"/><ellipse cx="1245.5" cy="301.2969" fill="none" rx="3" ry="3" style="stroke:#038048;stroke-width:1.0;"/><text fill="#000000" font-family="sans-serif" font-size="14" lengthAdjust="spacing" textLength="220" x="1254.5" y="307.292">square_service : SquareService</text><line style="stroke:#181818;stroke-width:0.5;" x1="1235.5" x2="1479.5" y1="314.5938" y2="314.5938"/><ellipse cx="1245.5" cy="325.5938" fill="#84BE84" rx="3" ry="3" style="stroke:#038048;stroke-width:1.0;"/><text fill="#000000" font-family="sans-serif" font-size="14" lengthAdjust="spacing" textLength="139" x="1254.5" y="331.5889">execute(self) : bool</text></g><!--MD5=[feba1852b3bd3ccf46da0fdb73cc640b]
class DeleteLinkSquareCommand--><g id="elem_DeleteLinkSquareCommand"><rect codeLine="79" fill="#F1F1F1" height="80.5938" id="DeleteLinkSquareCommand" rx="2.5" ry="2.5" style="stroke:#181818;stroke-width:0.5;" width="246" x="1515.5" y="258.2969"/><ellipse cx="1536.35" cy="274.2969" fill="#ADD1B2" rx="11" ry="11" style="stroke:#181818;stroke-width:1.0;"/><path d="M1538.6938,269.9688 C1537.7563,269.5313 1537.1625,269.3906 1536.2875,269.3906 C1533.6625,269.3906 1531.6625,271.4688 1531.6625,274.1875 L1531.6625,275.3125 C1531.6625,277.8906 1533.7719,279.7813 1536.6625,279.7813 C1537.8813,279.7813 1539.0375,279.4844 1539.7875,278.9375 C1540.3656,278.5313 1540.6938,278.0781 1540.6938,277.6875 C1540.6938,277.2344 1540.3031,276.8438 1539.8344,276.8438 C1539.6156,276.8438 1539.4125,276.9219 1539.225,277.1094 C1538.7719,277.5938 1538.7719,277.5938 1538.5844,277.6875 C1538.1625,277.9531 1537.475,278.0781 1536.7094,278.0781 C1534.6625,278.0781 1533.3656,276.9844 1533.3656,275.2813 L1533.3656,274.1875 C1533.3656,272.4063 1534.6156,271.0938 1536.35,271.0938 C1536.9281,271.0938 1537.5375,271.25 1538.0063,271.5 C1538.4906,271.7813 1538.6625,272 1538.7563,272.4063 C1538.8188,272.8125 1538.85,272.9375 1538.9906,273.0625 C1539.1313,273.2031 1539.3656,273.3125 1539.5844,273.3125 C1539.85,273.3125 1540.1156,273.1719 1540.2875,272.9531 C1540.3969,272.7969 1540.4281,272.6094 1540.4281,272.1875 L1540.4281,270.7656 C1540.4281,270.3281 1540.4125,270.2031 1540.3188,270.0469 C1540.1625,269.7813 1539.8813,269.6406 1539.5844,269.6406 C1539.2875,269.6406 1539.0844,269.7344 1538.8656,270.0469 L1538.6938,269.9688 Z " fill="#000000"/><text fill="#000000" font-family="sans-serif" font-size="14" lengthAdjust="spacing" textLength="201" x="1551.65" y="279.1436">DeleteLinkSquareCommand</text><line style="stroke:#181818;stroke-width:0.5;" x1="1516.5" x2="1760.5" y1="290.2969" y2="290.2969"/><ellipse cx="1526.5" cy="301.2969" fill="none" rx="3" ry="3" style="stroke:#038048;stroke-width:1.0;"/><text fill="#000000" font-family="sans-serif" font-size="14" lengthAdjust="spacing" textLength="220" x="1535.5" y="307.292">square_service : SquareService</text><line style="stroke:#181818;stroke-width:0.5;" x1="1516.5" x2="1760.5" y1="314.5938" y2="314.5938"/><ellipse cx="1526.5" cy="325.5938" fill="#84BE84" rx="3" ry="3" style="stroke:#038048;stroke-width:1.0;"/><text fill="#000000" font-family="sans-serif" font-size="14" lengthAdjust="spacing" textLength="139" x="1535.5" y="331.5889">execute(self) : bool</text></g><!--MD5=[48e4669d5beec46de07565680b1f0cff]
class CheckoutResponse--><g id="elem_CheckoutResponse"><rect codeLine="84" fill="#F1F1F1" height="129.4844" id="CheckoutResponse" rx="2.5" ry="2.5" style="stroke:#181818;stroke-width:0.5;" width="171" x="931" y="711.7969"/><ellipse cx="946" cy="727.7969" fill="#ADD1B2" rx="11" ry="11" style="stroke:#181818;stroke-width:1.0;"/><path d="M948.3438,723.4688 C947.4063,723.0313 946.8125,722.8906 945.9375,722.8906 C943.3125,722.8906 941.3125,724.9688 941.3125,727.6875 L941.3125,728.8125 C941.3125,731.3906 943.4219,733.2813 946.3125,733.2813 C947.5313,733.2813 948.6875,732.9844 949.4375,732.4375 C950.0156,732.0313 950.3438,731.5781 950.3438,731.1875 C950.3438,730.7344 949.9531,730.3438 949.4844,730.3438 C949.2656,730.3438 949.0625,730.4219 948.875,730.6094 C948.4219,731.0938 948.4219,731.0938 948.2344,731.1875 C947.8125,731.4531 947.125,731.5781 946.3594,731.5781 C944.3125,731.5781 943.0156,730.4844 943.0156,728.7813 L943.0156,727.6875 C943.0156,725.9063 944.2656,724.5938 946,724.5938 C946.5781,724.5938 947.1875,724.75 947.6563,725 C948.1406,725.2813 948.3125,725.5 948.4063,725.9063 C948.4688,726.3125 948.5,726.4375 948.6406,726.5625 C948.7813,726.7031 949.0156,726.8125 949.2344,726.8125 C949.5,726.8125 949.7656,726.6719 949.9375,726.4531 C950.0469,726.2969 950.0781,726.1094 950.0781,725.6875 L950.0781,724.2656 C950.0781,723.8281 950.0625,723.7031 949.9688,723.5469 C949.8125,723.2813 949.5313,723.1406 949.2344,723.1406 C948.9375,723.1406 948.7344,723.2344 948.5156,723.5469 L948.3438,723.4688 Z " fill="#000000"/><text fill="#000000" font-family="sans-serif" font-size="14" lengthAdjust="spacing" textLength="139" x="960" y="732.6436">CheckoutResponse</text><line style="stroke:#181818;stroke-width:0.5;" x1="932" x2="1101" y1="743.7969" y2="743.7969"/><ellipse cx="942" cy="754.7969" fill="none" rx="3" ry="3" style="stroke:#038048;stroke-width:1.0;"/><text fill="#000000" font-family="sans-serif" font-size="14" lengthAdjust="spacing" textLength="68" x="951" y="760.792">id : string</text><ellipse cx="942" cy="771.0938" fill="none" rx="3" ry="3" style="stroke:#038048;stroke-width:1.0;"/><text fill="#000000" font-family="sans-serif" font-size="14" lengthAdjust="spacing" textLength="133" x="951" y="777.0889">created_at : string</text><ellipse cx="942" cy="787.3906" fill="none" rx="3" ry="3" style="stroke:#038048;stroke-width:1.0;"/><text fill="#000000" font-family="sans-serif" font-size="14" lengthAdjust="spacing" textLength="114" x="951" y="793.3857">order_id : string</text><ellipse cx="942" cy="803.6875" fill="none" rx="3" ry="3" style="stroke:#038048;stroke-width:1.0;"/><text fill="#000000" font-family="sans-serif" font-size="14" lengthAdjust="spacing" textLength="73" x="951" y="809.6826">url : string</text><ellipse cx="942" cy="819.9844" fill="none" rx="3" ry="3" style="stroke:#038048;stroke-width:1.0;"/><text fill="#000000" font-family="sans-serif" font-size="14" lengthAdjust="spacing" textLength="107" x="951" y="825.9795">version : string</text><line style="stroke:#181818;stroke-width:0.5;" x1="932" x2="1101" y1="833.2813" y2="833.2813"/></g><!--MD5=[a96d3e6272ebfa61c2e302757b2000cc]
class CheckoutRequest--><g id="elem_CheckoutRequest"><rect codeLine="92" fill="#F1F1F1" height="80.5938" id="CheckoutRequest" rx="2.5" ry="2.5" style="stroke:#181818;stroke-width:0.5;" width="160" x="1137.5" y="735.7969"/><ellipse cx="1152.5" cy="751.7969" fill="#ADD1B2" rx="11" ry="11" style="stroke:#181818;stroke-width:1.0;"/><path d="M1154.8438,747.4688 C1153.9063,747.0313 1153.3125,746.8906 1152.4375,746.8906 C1149.8125,746.8906 1147.8125,748.9688 1147.8125,751.6875 L1147.8125,752.8125 C1147.8125,755.3906 1149.9219,757.2813 1152.8125,757.2813 C1154.0313,757.2813 1155.1875,756.9844 1155.9375,756.4375 C1156.5156,756.0313 1156.8438,755.5781 1156.8438,755.1875 C1156.8438,754.7344 1156.4531,754.3438 1155.9844,754.3438 C1155.7656,754.3438 1155.5625,754.4219 1155.375,754.6094 C1154.9219,755.0938 1154.9219,755.0938 1154.7344,755.1875 C1154.3125,755.4531 1153.625,755.5781 1152.8594,755.5781 C1150.8125,755.5781 1149.5156,754.4844 1149.5156,752.7813 L1149.5156,751.6875 C1149.5156,749.9063 1150.7656,748.5938 1152.5,748.5938 C1153.0781,748.5938 1153.6875,748.75 1154.1563,749 C1154.6406,749.2813 1154.8125,749.5 1154.9063,749.9063 C1154.9688,750.3125 1155,750.4375 1155.1406,750.5625 C1155.2813,750.7031 1155.5156,750.8125 1155.7344,750.8125 C1156,750.8125 1156.2656,750.6719 1156.4375,750.4531 C1156.5469,750.2969 1156.5781,750.1094 1156.5781,749.6875 L1156.5781,748.2656 C1156.5781,747.8281 1156.5625,747.7031 1156.4688,747.5469 C1156.3125,747.2813 1156.0313,747.1406 1155.7344,747.1406 C1155.4375,747.1406 1155.2344,747.2344 1155.0156,747.5469 L1154.8438,747.4688 Z " fill="#000000"/><text fill="#000000" font-family="sans-serif" font-size="14" lengthAdjust="spacing" textLength="128" x="1166.5" y="756.6436">CheckoutRequest</text><line style="stroke:#181818;stroke-width:0.5;" x1="1138.5" x2="1296.5" y1="767.7969" y2="767.7969"/><ellipse cx="1148.5" cy="778.7969" fill="none" rx="3" ry="3" style="stroke:#038048;stroke-width:1.0;"/><text fill="#000000" font-family="sans-serif" font-size="14" lengthAdjust="spacing" textLength="93" x="1157.5" y="784.792">order : Order</text><ellipse cx="1148.5" cy="795.0938" fill="none" rx="3" ry="3" style="stroke:#038048;stroke-width:1.0;"/><text fill="#000000" font-family="sans-serif" font-size="14" lengthAdjust="spacing" textLength="102" x="1157.5" y="801.0889">source : string</text><line style="stroke:#181818;stroke-width:0.5;" x1="1138.5" x2="1296.5" y1="808.3906" y2="808.3906"/></g><!--MD5=[cf4d6237fcae255cd2e1656cf84a30e2]
class Order--><g id="elem_Order"><rect codeLine="97" fill="#F1F1F1" height="129.4844" id="Order" rx="2.5" ry="2.5" style="stroke:#181818;stroke-width:0.5;" width="315" x="1060" y="934.2969"/><ellipse cx="1192.75" cy="950.2969" fill="#ADD1B2" rx="11" ry="11" style="stroke:#181818;stroke-width:1.0;"/><path d="M1195.0938,945.9688 C1194.1563,945.5313 1193.5625,945.3906 1192.6875,945.3906 C1190.0625,945.3906 1188.0625,947.4688 1188.0625,950.1875 L1188.0625,951.3125 C1188.0625,953.8906 1190.1719,955.7813 1193.0625,955.7813 C1194.2813,955.7813 1195.4375,955.4844 1196.1875,954.9375 C1196.7656,954.5313 1197.0938,954.0781 1197.0938,953.6875 C1197.0938,953.2344 1196.7031,952.8438 1196.2344,952.8438 C1196.0156,952.8438 1195.8125,952.9219 1195.625,953.1094 C1195.1719,953.5938 1195.1719,953.5938 1194.9844,953.6875 C1194.5625,953.9531 1193.875,954.0781 1193.1094,954.0781 C1191.0625,954.0781 1189.7656,952.9844 1189.7656,951.2813 L1189.7656,950.1875 C1189.7656,948.4063 1191.0156,947.0938 1192.75,947.0938 C1193.3281,947.0938 1193.9375,947.25 1194.4063,947.5 C1194.8906,947.7813 1195.0625,948 1195.1563,948.4063 C1195.2188,948.8125 1195.25,948.9375 1195.3906,949.0625 C1195.5313,949.2031 1195.7656,949.3125 1195.9844,949.3125 C1196.25,949.3125 1196.5156,949.1719 1196.6875,948.9531 C1196.7969,948.7969 1196.8281,948.6094 1196.8281,948.1875 L1196.8281,946.7656 C1196.8281,946.3281 1196.8125,946.2031 1196.7188,946.0469 C1196.5625,945.7813 1196.2813,945.6406 1195.9844,945.6406 C1195.6875,945.6406 1195.4844,945.7344 1195.2656,946.0469 L1195.0938,945.9688 Z " fill="#000000"/><text fill="#000000" font-family="sans-serif" font-size="14" lengthAdjust="spacing" textLength="41" x="1213.25" y="955.1436">Order</text><line style="stroke:#181818;stroke-width:0.5;" x1="1061" x2="1374" y1="966.2969" y2="966.2969"/><ellipse cx="1071" cy="977.2969" fill="none" rx="3" ry="3" style="stroke:#038048;stroke-width:1.0;"/><text fill="#000000" font-family="sans-serif" font-size="14" lengthAdjust="spacing" textLength="143" x="1080" y="983.292">customer_id : string</text><ellipse cx="1071" cy="993.5938" fill="none" rx="3" ry="3" style="stroke:#038048;stroke-width:1.0;"/><text fill="#000000" font-family="sans-serif" font-size="14" lengthAdjust="spacing" textLength="133" x="1080" y="999.5889">location_id : string</text><ellipse cx="1071" cy="1009.8906" fill="none" rx="3" ry="3" style="stroke:#038048;stroke-width:1.0;"/><text fill="#000000" font-family="sans-serif" font-size="14" lengthAdjust="spacing" textLength="161" x="1080" y="1015.8857">line_items : LineItem[]</text><ellipse cx="1071" cy="1026.1875" fill="none" rx="3" ry="3" style="stroke:#038048;stroke-width:1.0;"/><text fill="#000000" font-family="sans-serif" font-size="14" lengthAdjust="spacing" textLength="161" x="1080" y="1032.1826">payment_note : string</text><ellipse cx="1071" cy="1042.4844" fill="none" rx="3" ry="3" style="stroke:#038048;stroke-width:1.0;"/><text fill="#000000" font-family="sans-serif" font-size="14" lengthAdjust="spacing" textLength="289" x="1080" y="1048.4795">pre_populated_data : PrePopulatedData</text><line style="stroke:#181818;stroke-width:0.5;" x1="1061" x2="1374" y1="1055.7813" y2="1055.7813"/></g><!--MD5=[24e7354b14fe45153051fb5e63b1cd34]
class LineItem--><g id="elem_LineItem"><rect codeLine="105" fill="#F1F1F1" height="113.1875" id="LineItem" rx="2.5" ry="2.5" style="stroke:#181818;stroke-width:0.5;" width="220" x="909.5" y="1140.2969"/><ellipse cx="983.25" cy="1156.2969" fill="#ADD1B2" rx="11" ry="11" style="stroke:#181818;stroke-width:1.0;"/><path d="M985.5938,1151.9688 C984.6563,1151.5313 984.0625,1151.3906 983.1875,1151.3906 C980.5625,1151.3906 978.5625,1153.4688 978.5625,1156.1875 L978.5625,1157.3125 C978.5625,1159.8906 980.6719,1161.7813 983.5625,1161.7813 C984.7813,1161.7813 985.9375,1161.4844 986.6875,1160.9375 C987.2656,1160.5313 987.5938,1160.0781 987.5938,1159.6875 C987.5938,1159.2344 987.2031,1158.8438 986.7344,1158.8438 C986.5156,1158.8438 986.3125,1158.9219 986.125,1159.1094 C985.6719,1159.5938 985.6719,1159.5938 985.4844,1159.6875 C985.0625,1159.9531 984.375,1160.0781 983.6094,1160.0781 C981.5625,1160.0781 980.2656,1158.9844 980.2656,1157.2813 L980.2656,1156.1875 C980.2656,1154.4063 981.5156,1153.0938 983.25,1153.0938 C983.8281,1153.0938 984.4375,1153.25 984.9063,1153.5 C985.3906,1153.7813 985.5625,1154 985.6563,1154.4063 C985.7188,1154.8125 985.75,1154.9375 985.8906,1155.0625 C986.0313,1155.2031 986.2656,1155.3125 986.4844,1155.3125 C986.75,1155.3125 987.0156,1155.1719 987.1875,1154.9531 C987.2969,1154.7969 987.3281,1154.6094 987.3281,1154.1875 L987.3281,1152.7656 C987.3281,1152.3281 987.3125,1152.2031 987.2188,1152.0469 C987.0625,1151.7813 986.7813,1151.6406 986.4844,1151.6406 C986.1875,1151.6406 985.9844,1151.7344 985.7656,1152.0469 L985.5938,1151.9688 Z " fill="#000000"/><text fill="#000000" font-family="sans-serif" font-size="14" lengthAdjust="spacing" textLength="64" x="1003.75" y="1161.1436">LineItem</text><line style="stroke:#181818;stroke-width:0.5;" x1="910.5" x2="1128.5" y1="1172.2969" y2="1172.2969"/><ellipse cx="920.5" cy="1183.2969" fill="none" rx="3" ry="3" style="stroke:#038048;stroke-width:1.0;"/><text fill="#000000" font-family="sans-serif" font-size="14" lengthAdjust="spacing" textLength="130" x="929.5" y="1189.292">item_type : string</text><ellipse cx="920.5" cy="1199.5938" fill="none" rx="3" ry="3" style="stroke:#038048;stroke-width:1.0;"/><text fill="#000000" font-family="sans-serif" font-size="14" lengthAdjust="spacing" textLength="95" x="929.5" y="1205.5889">name : string</text><ellipse cx="920.5" cy="1215.8906" fill="none" rx="3" ry="3" style="stroke:#038048;stroke-width:1.0;"/><text fill="#000000" font-family="sans-serif" font-size="14" lengthAdjust="spacing" textLength="93" x="929.5" y="1221.8857">quantity : int</text><ellipse cx="920.5" cy="1232.1875" fill="none" rx="3" ry="3" style="stroke:#038048;stroke-width:1.0;"/><text fill="#000000" font-family="sans-serif" font-size="14" lengthAdjust="spacing" textLength="194" x="929.5" y="1238.1826">base_price_money : Money</text><line style="stroke:#181818;stroke-width:0.5;" x1="910.5" x2="1128.5" y1="1245.4844" y2="1245.4844"/></g><!--MD5=[7162a60a1e87e344919cb9da0847da14]
class PrePopulatedData--><g id="elem_PrePopulatedData"><rect codeLine="112" fill="#F1F1F1" height="80.5938" id="PrePopulatedData" rx="2.5" ry="2.5" style="stroke:#181818;stroke-width:0.5;" width="238" x="1164.5" y="1156.2969"/><ellipse cx="1213.75" cy="1172.2969" fill="#ADD1B2" rx="11" ry="11" style="stroke:#181818;stroke-width:1.0;"/><path d="M1216.0938,1167.9688 C1215.1563,1167.5313 1214.5625,1167.3906 1213.6875,1167.3906 C1211.0625,1167.3906 1209.0625,1169.4688 1209.0625,1172.1875 L1209.0625,1173.3125 C1209.0625,1175.8906 1211.1719,1177.7813 1214.0625,1177.7813 C1215.2813,1177.7813 1216.4375,1177.4844 1217.1875,1176.9375 C1217.7656,1176.5313 1218.0938,1176.0781 1218.0938,1175.6875 C1218.0938,1175.2344 1217.7031,1174.8438 1217.2344,1174.8438 C1217.0156,1174.8438 1216.8125,1174.9219 1216.625,1175.1094 C1216.1719,1175.5938 1216.1719,1175.5938 1215.9844,1175.6875 C1215.5625,1175.9531 1214.875,1176.0781 1214.1094,1176.0781 C1212.0625,1176.0781 1210.7656,1174.9844 1210.7656,1173.2813 L1210.7656,1172.1875 C1210.7656,1170.4063 1212.0156,1169.0938 1213.75,1169.0938 C1214.3281,1169.0938 1214.9375,1169.25 1215.4063,1169.5 C1215.8906,1169.7813 1216.0625,1170 1216.1563,1170.4063 C1216.2188,1170.8125 1216.25,1170.9375 1216.3906,1171.0625 C1216.5313,1171.2031 1216.7656,1171.3125 1216.9844,1171.3125 C1217.25,1171.3125 1217.5156,1171.1719 1217.6875,1170.9531 C1217.7969,1170.7969 1217.8281,1170.6094 1217.8281,1170.1875 L1217.8281,1168.7656 C1217.8281,1168.3281 1217.8125,1168.2031 1217.7188,1168.0469 C1217.5625,1167.7813 1217.2813,1167.6406 1216.9844,1167.6406 C1216.6875,1167.6406 1216.4844,1167.7344 1216.2656,1168.0469 L1216.0938,1167.9688 Z " fill="#000000"/><text fill="#000000" font-family="sans-serif" font-size="14" lengthAdjust="spacing" textLength="131" x="1234.25" y="1177.1436">PrePopulatedData</text><line style="stroke:#181818;stroke-width:0.5;" x1="1165.5" x2="1401.5" y1="1188.2969" y2="1188.2969"/><ellipse cx="1175.5" cy="1199.2969" fill="none" rx="3" ry="3" style="stroke:#038048;stroke-width:1.0;"/><text fill="#000000" font-family="sans-serif" font-size="14" lengthAdjust="spacing" textLength="142" x="1184.5" y="1205.292">buyer_email : string</text><ellipse cx="1175.5" cy="1215.5938" fill="none" rx="3" ry="3" style="stroke:#038048;stroke-width:1.0;"/><text fill="#000000" font-family="sans-serif" font-size="14" lengthAdjust="spacing" textLength="212" x="1184.5" y="1221.5889">buyer_phone_number : string</text><line style="stroke:#181818;stroke-width:0.5;" x1="1165.5" x2="1401.5" y1="1228.8906" y2="1228.8906"/></g><!--MD5=[08dbe06e87f91eb667838fe2f259c34a]
class Money--><g id="elem_Money"><rect codeLine="117" fill="#F1F1F1" height="80.5938" id="Money" rx="2.5" ry="2.5" style="stroke:#181818;stroke-width:0.5;" width="143" x="948" y="1330.2969"/><ellipse cx="991.8" cy="1346.2969" fill="#ADD1B2" rx="11" ry="11" style="stroke:#181818;stroke-width:1.0;"/><path d="M994.1438,1341.9688 C993.2063,1341.5313 992.6125,1341.3906 991.7375,1341.3906 C989.1125,1341.3906 987.1125,1343.4688 987.1125,1346.1875 L987.1125,1347.3125 C987.1125,1349.8906 989.2219,1351.7813 992.1125,1351.7813 C993.3313,1351.7813 994.4875,1351.4844 995.2375,1350.9375 C995.8156,1350.5313 996.1438,1350.0781 996.1438,1349.6875 C996.1438,1349.2344 995.7531,1348.8438 995.2844,1348.8438 C995.0656,1348.8438 994.8625,1348.9219 994.675,1349.1094 C994.2219,1349.5938 994.2219,1349.5938 994.0344,1349.6875 C993.6125,1349.9531 992.925,1350.0781 992.1594,1350.0781 C990.1125,1350.0781 988.8156,1348.9844 988.8156,1347.2813 L988.8156,1346.1875 C988.8156,1344.4063 990.0656,1343.0938 991.8,1343.0938 C992.3781,1343.0938 992.9875,1343.25 993.4563,1343.5 C993.9406,1343.7813 994.1125,1344 994.2063,1344.4063 C994.2688,1344.8125 994.3,1344.9375 994.4406,1345.0625 C994.5813,1345.2031 994.8156,1345.3125 995.0344,1345.3125 C995.3,1345.3125 995.5656,1345.1719 995.7375,1344.9531 C995.8469,1344.7969 995.8781,1344.6094 995.8781,1344.1875 L995.8781,1342.7656 C995.8781,1342.3281 995.8625,1342.2031 995.7688,1342.0469 C995.6125,1341.7813 995.3313,1341.6406 995.0344,1341.6406 C994.7375,1341.6406 994.5344,1341.7344 994.3156,1342.0469 L994.1438,1341.9688 Z " fill="#000000"/><text fill="#000000" font-family="sans-serif" font-size="14" lengthAdjust="spacing" textLength="47" x="1012.2" y="1351.1436">Money</text><line style="stroke:#181818;stroke-width:0.5;" x1="949" x2="1090" y1="1362.2969" y2="1362.2969"/><ellipse cx="959" cy="1373.2969" fill="none" rx="3" ry="3" style="stroke:#038048;stroke-width:1.0;"/><text fill="#000000" font-family="sans-serif" font-size="14" lengthAdjust="spacing" textLength="88" x="968" y="1379.292">amount : int</text><ellipse cx="959" cy="1389.5938" fill="none" rx="3" ry="3" style="stroke:#038048;stroke-width:1.0;"/><text fill="#000000" font-family="sans-serif" font-size="14" lengthAdjust="spacing" textLength="117" x="968" y="1395.5889">currency : string</text><line style="stroke:#181818;stroke-width:0.5;" x1="949" x2="1090" y1="1402.8906" y2="1402.8906"/></g><!--MD5=[d0dcb2546d2cd31c5ee16eb9612c4a83]
link SquareAuthController to AuthorizeWithSquareCommand--><g id="link_SquareAuthController_AuthorizeWithSquareCommand"><path codeLine="21" d="M255.204,141.4569 C239.022,166.8369 217.607,200.4169 198.773,229.9469 " fill="none" id="SquareAuthController-to-AuthorizeWithSquareCommand" style="stroke:#181818;stroke-width:1.0;stroke-dasharray:7.0,7.0;"/><polygon fill="#181818" points="196.014,234.2669,204.2233,228.8256,198.7005,230.0499,197.4761,224.5272,196.014,234.2669" style="stroke:#181818;stroke-width:1.0;"/><text fill="#000000" font-family="sans-serif" font-size="13" lengthAdjust="spacing" textLength="30" x="226.5" y="200.3638">uses</text></g><!--MD5=[9809b10a813bf0f0ada03c3f75e10f86]
link SquareAuthController to GetAuthLinkCommand--><g id="link_SquareAuthController_GetAuthLinkCommand"><path codeLine="22" d="M317.33,141.4569 C347.673,174.1369 390.649,220.4169 421.965,254.1469 " fill="none" id="SquareAuthController-to-GetAuthLinkCommand" style="stroke:#181818;stroke-width:1.0;stroke-dasharray:7.0,7.0;"/><polygon fill="#181818" points="425.724,258.1969,422.5328,248.8794,422.3224,254.5323,416.6695,254.3219,425.724,258.1969" style="stroke:#181818;stroke-width:1.0;"/><text fill="#000000" font-family="sans-serif" font-size="13" lengthAdjust="spacing" textLength="30" x="372.5" y="200.3638">uses</text></g><!--MD5=[ff5bfcb24f167bc57a76371933af786b]
link SquareService to ObtainTokenResponse--><g id="link_SquareService_ObtainTokenResponse"><path codeLine="52" d="M790.109,618.4009 C745.986,650.9629 697.081,687.0519 657.31,716.4009 " fill="none" id="SquareService-to-ObtainTokenResponse" style="stroke:#181818;stroke-width:1.0;stroke-dasharray:7.0,7.0;"/><polygon fill="#181818" points="653,719.5819,662.6168,717.4566,657.0232,716.6131,657.8667,711.0194,653,719.5819" style="stroke:#181818;stroke-width:1.0;"/><text fill="#000000" font-family="sans-serif" font-size="13" lengthAdjust="spacing" textLength="30" x="744.5" y="661.3638">uses</text></g><!--MD5=[efa7f6c70801d0919788d6107c4348bc]
link SquareService to ObtainTokenRequest--><g id="link_SquareService_ObtainTokenRequest"><path codeLine="53" d="M871.381,618.4009 C861.254,641.8089 850.338,667.0389 840.284,690.2779 " fill="none" id="SquareService-to-ObtainTokenRequest" style="stroke:#181818;stroke-width:1.0;stroke-dasharray:7.0,7.0;"/><polygon fill="#181818" points="838.285,694.8989,845.5304,688.2278,840.2708,690.3101,838.1884,685.0505,838.285,694.8989" style="stroke:#181818;stroke-width:1.0;"/><text fill="#000000" font-family="sans-serif" font-size="13" lengthAdjust="spacing" textLength="30" x="857.5" y="661.3638">uses</text></g><!--MD5=[ed8c0062ef3739a31f49e55aae468be9]
link AuthorizeWithSquareCommand to SquareService--><g id="link_AuthorizeWithSquareCommand_SquareService"><path codeLine="54" d="M304.131,357.4069 C309.982,359.4369 315.788,361.4069 321.5,363.2969 C401.444,389.7469 488.375,415.6589 570.266,438.8299 " fill="none" id="AuthorizeWithSquareCommand-to-SquareService" style="stroke:#181818;stroke-width:1.0;stroke-dasharray:7.0,7.0;"/><polygon fill="#181818" points="575.153,440.2119,567.5803,433.9147,570.3415,438.8519,565.4043,441.613,575.153,440.2119" style="stroke:#181818;stroke-width:1.0;"/><text fill="#000000" font-family="sans-serif" font-size="13" lengthAdjust="spacing" textLength="30" x="466.5" y="406.3638">uses</text></g><!--MD5=[799dde4a90b48c63af14f1165f605d14]
link GetAuthLinkCommand to SquareService--><g id="link_GetAuthLinkCommand_SquareService"><path codeLine="55" d="M539.851,339.3369 C592.926,366.4669 665.581,403.6069 732.436,437.7849 " fill="none" id="GetAuthLinkCommand-to-SquareService" style="stroke:#181818;stroke-width:1.0;stroke-dasharray:7.0,7.0;"/><polygon fill="#181818" points="737.239,440.2399,731.0463,432.5815,732.787,437.9639,727.4047,439.7047,737.239,440.2399" style="stroke:#181818;stroke-width:1.0;"/><text fill="#000000" font-family="sans-serif" font-size="13" lengthAdjust="spacing" textLength="30" x="674.5" y="406.3638">uses</text></g><!--MD5=[68f7875bb3ba2c77b6a97b7d41252ce6]
link SquareService to CheckoutResponse--><g id="link_SquareService_CheckoutResponse"><path codeLine="122" d="M947.978,618.4009 C960.722,647.5799 974.702,679.5919 986.693,707.0479 " fill="none" id="SquareService-to-CheckoutResponse" style="stroke:#181818;stroke-width:1.0;stroke-dasharray:7.0,7.0;"/><polygon fill="#181818" points="988.754,711.7659,988.8166,701.9172,986.7524,707.184,981.4856,705.1198,988.754,711.7659" style="stroke:#181818;stroke-width:1.0;"/><text fill="#000000" font-family="sans-serif" font-size="13" lengthAdjust="spacing" textLength="30" x="967.5" y="661.3638">uses</text></g><!--MD5=[3d189ccb6dc608014c4d21726f27022a]
link SquareService to CheckoutRequest--><g id="link_SquareService_CheckoutRequest"><path codeLine="123" d="M1022.33,618.3259 C1053.87,643.1029 1088.11,670.1529 1119.5,695.2969 C1134.39,707.2189 1150.45,720.2579 1165.18,732.2839 " fill="none" id="SquareService-to-CheckoutRequest" style="stroke:#181818;stroke-width:1.0;stroke-dasharray:7.0,7.0;"/><polygon fill="#181818" points="1169.29,735.6479,1164.8432,726.8601,1165.4151,732.4879,1159.7873,733.0599,1169.29,735.6479" style="stroke:#181818;stroke-width:1.0;"/><text fill="#000000" font-family="sans-serif" font-size="13" lengthAdjust="spacing" textLength="30" x="1081.5" y="661.3638">uses</text></g><!--MD5=[334aec969d338c8947a74d9978cd0e5b]
link CheckoutRequest to Order--><g id="link_CheckoutRequest_Order"><path codeLine="124" d="M1217.5,816.9729 C1217.5,848.0539 1217.5,892.0439 1217.5,928.8539 " fill="none" id="CheckoutRequest-to-Order" style="stroke:#181818;stroke-width:1.0;stroke-dasharray:7.0,7.0;"/><polygon fill="#181818" points="1217.5,934.2299,1221.5,925.2299,1217.5,929.2299,1213.5,925.2299,1217.5,934.2299" style="stroke:#181818;stroke-width:1.0;"/><text fill="#000000" font-family="sans-serif" font-size="13" lengthAdjust="spacing" textLength="30" x="1218.5" y="900.3638">uses</text></g><!--MD5=[bb7896cd95a18301bc8f089d30a057b9]
link Order to LineItem--><g id="link_Order_LineItem"><path codeLine="125" d="M1153.22,1063.4329 C1129.53,1086.8809 1102.8,1113.3349 1079.51,1136.3959 " fill="none" id="Order-to-LineItem" style="stroke:#181818;stroke-width:1.0;stroke-dasharray:7.0,7.0;"/><polygon fill="#181818" points="1075.8,1140.0669,1085.0122,1136.5834,1079.3555,1136.5514,1079.3875,1130.8946,1075.8,1140.0669" style="stroke:#181818;stroke-width:1.0;"/><text fill="#000000" font-family="sans-serif" font-size="13" lengthAdjust="spacing" textLength="30" x="1119.5" y="1106.3638">uses</text></g><!--MD5=[a4a886862249a7336f93bcf0fd737f87]
link Order to PrePopulatedData--><g id="link_Order_PrePopulatedData"><path codeLine="126" d="M1238.93,1063.4329 C1248.6,1092.1599 1259.79,1125.3989 1268.54,1151.3809 " fill="none" id="Order-to-PrePopulatedData" style="stroke:#181818;stroke-width:1.0;stroke-dasharray:7.0,7.0;"/><polygon fill="#181818" points="1270.15,1156.1449,1271.0712,1146.3392,1268.5556,1151.4059,1263.4889,1148.8902,1270.15,1156.1449" style="stroke:#181818;stroke-width:1.0;"/><text fill="#000000" font-family="sans-serif" font-size="13" lengthAdjust="spacing" textLength="30" x="1255.5" y="1106.3638">uses</text></g><!--MD5=[07d514fdf7df31a4574d1f405ff0258a]
link LineItem to Money--><g id="link_LineItem_Money"><path codeLine="127" d="M1019.5,1253.6399 C1019.5,1276.7969 1019.5,1303.2939 1019.5,1325.1281 " fill="none" id="LineItem-to-Money" style="stroke:#181818;stroke-width:1.0;stroke-dasharray:7.0,7.0;"/><polygon fill="#181818" points="1019.5,1330.2852,1023.5,1321.2852,1019.5,1325.2852,1015.5,1321.2852,1019.5,1330.2852" style="stroke:#181818;stroke-width:1.0;"/><text fill="#000000" font-family="sans-serif" font-size="13" lengthAdjust="spacing" textLength="30" x="1020.5" y="1296.3638">uses</text></g><!--MD5=[75e21f7395b5e261b36cdcd3fd3834b1]
link SquarePaymentController to CheckoutWithSquareCommand--><g id="link_SquarePaymentController_CheckoutWithSquareCommand"><path codeLine="131" d="M1081.2,157.3069 C1008.65,188.6969 919.421,227.3069 852.874,256.0969 " fill="none" id="SquarePaymentController-to-CheckoutWithSquareCommand" style="stroke:#181818;stroke-width:1.0;stroke-dasharray:7.0,7.0;"/><polygon fill="#181818" points="848.122,258.1569,857.9704,258.2512,852.7103,256.17,854.7915,250.9099,848.122,258.1569" style="stroke:#181818;stroke-width:1.0;"/><text fill="#000000" font-family="sans-serif" font-size="13" lengthAdjust="spacing" textLength="30" x="1011.5" y="200.3638">uses</text></g><!--MD5=[6a62bf26b339e661c4e95164d34c5764]
link SquarePaymentController to RetrieveWithSquareCommand--><g id="link_SquarePaymentController_RetrieveWithSquareCommand"><path codeLine="132" d="M1168.05,157.4369 C1145.23,188.0769 1117.32,225.5469 1096.07,254.0669 " fill="none" id="SquarePaymentController-to-RetrieveWithSquareCommand" style="stroke:#181818;stroke-width:1.0;stroke-dasharray:7.0,7.0;"/><polygon fill="#181818" points="1092.99,258.2069,1101.5818,253.3922,1095.9832,254.2017,1095.1736,248.6031,1092.99,258.2069" style="stroke:#181818;stroke-width:1.0;"/><text fill="#000000" font-family="sans-serif" font-size="13" lengthAdjust="spacing" textLength="30" x="1146.5" y="200.3638">uses</text></g><!--MD5=[c1e77a9a9e7a13c118b4a4c31205cd4d]
link SquarePaymentController to UpdateWithSquareCommand--><g id="link_SquarePaymentController_UpdateWithSquareCommand"><path codeLine="133" d="M1251.51,157.4369 C1274.65,188.0769 1302.94,225.5469 1324.48,254.0669 " fill="none" id="SquarePaymentController-to-UpdateWithSquareCommand" style="stroke:#181818;stroke-width:1.0;stroke-dasharray:7.0,7.0;"/><polygon fill="#181818" points="1327.61,258.2069,1325.3935,248.6107,1324.6031,254.212,1319.0018,253.4217,1327.61,258.2069" style="stroke:#181818;stroke-width:1.0;"/><text fill="#000000" font-family="sans-serif" font-size="13" lengthAdjust="spacing" textLength="30" x="1284.5" y="200.3638">uses</text></g><!--MD5=[da66d4e8a7b84fc45bb6581e71e6b313]
link SquarePaymentController to DeleteLinkSquareCommand--><g id="link_SquarePaymentController_DeleteLinkSquareCommand"><path codeLine="134" d="M1331,157.3069 C1399.57,188.6369 1483.87,227.1469 1546.85,255.9269 " fill="none" id="SquarePaymentController-to-DeleteLinkSquareCommand" style="stroke:#181818;stroke-width:1.0;stroke-dasharray:7.0,7.0;"/><polygon fill="#181818" points="1551.73,258.1569,1545.2006,250.7834,1547.1806,256.0825,1541.8816,258.0625,1551.73,258.1569" style="stroke:#181818;stroke-width:1.0;"/><text fill="#000000" font-family="sans-serif" font-size="13" lengthAdjust="spacing" textLength="30" x="1425.5" y="200.3638">uses</text></g><!--MD5=[52f62e828a577440d9bc21fd7a27d319]
link CheckoutWithSquareCommand to SquareService--><g id="link_CheckoutWithSquareCommand_SquareService"><path codeLine="136" d="M782.976,339.3369 C800.738,365.8669 824.907,401.9569 847.364,435.4989 " fill="none" id="CheckoutWithSquareCommand-to-SquareService" style="stroke:#181818;stroke-width:1.0;stroke-dasharray:7.0,7.0;"/><polygon fill="#181818" points="850.377,439.9999,848.6929,430.2961,847.5949,435.8453,842.0457,434.7474,850.377,439.9999" style="stroke:#181818;stroke-width:1.0;"/><text fill="#000000" font-family="sans-serif" font-size="13" lengthAdjust="spacing" textLength="30" x="829.5" y="406.3638">uses</text></g><!--MD5=[7786f31f8bd693d5f47b56539e896d79]
link RetrieveWithSquareCommand to SquareService--><g id="link_RetrieveWithSquareCommand_SquareService"><path codeLine="137" d="M1036.85,339.3369 C1018.97,365.8669 994.646,401.9569 972.042,435.4989 " fill="none" id="RetrieveWithSquareCommand-to-SquareService" style="stroke:#181818;stroke-width:1.0;stroke-dasharray:7.0,7.0;"/><polygon fill="#181818" points="969.009,439.9999,977.3553,434.7712,971.8029,435.8533,970.7208,430.3009,969.009,439.9999" style="stroke:#181818;stroke-width:1.0;"/><text fill="#000000" font-family="sans-serif" font-size="13" lengthAdjust="spacing" textLength="30" x="1001.5" y="406.3638">uses</text></g><!--MD5=[696414c2507c2bbace83a22be1c20218]
link UpdateWithSquareCommand to SquareService--><g id="link_UpdateWithSquareCommand_SquareService"><path codeLine="138" d="M1279.98,339.3369 C1226.78,366.4669 1153.96,403.6069 1086.96,437.7849 " fill="none" id="UpdateWithSquareCommand-to-SquareService" style="stroke:#181818;stroke-width:1.0;stroke-dasharray:7.0,7.0;"/><polygon fill="#181818" points="1082.15,440.2399,1091.9835,439.6897,1086.5985,437.9571,1088.3311,432.5721,1082.15,440.2399" style="stroke:#181818;stroke-width:1.0;"/><text fill="#000000" font-family="sans-serif" font-size="13" lengthAdjust="spacing" textLength="30" x="1175.5" y="406.3638">uses</text></g><!--MD5=[8bb7c55270c8f016de8212f55ebc1708]
link DeleteLinkSquareCommand to SquareService--><g id="link_DeleteLinkSquareCommand_SquareService"><path codeLine="139" d="M1556.22,339.3369 C1537.16,347.7969 1516.8,356.2869 1497.5,363.2969 C1422.17,390.6569 1340.06,416.2429 1261.74,438.7209 " fill="none" id="DeleteLinkSquareCommand-to-SquareService" style="stroke:#181818;stroke-width:1.0;stroke-dasharray:7.0,7.0;"/><polygon fill="#181818" points="1256.59,440.1969,1266.3459,441.5468,1261.3943,438.8116,1264.1294,433.8599,1256.59,440.1969" style="stroke:#181818;stroke-width:1.0;"/><text fill="#000000" font-family="sans-serif" font-size="13" lengthAdjust="spacing" textLength="30" x="1404.5" y="406.3638">uses</text></g><!--MD5=[70fc000836b7798a47a34b119fa15fdf]
@startuml
title "Help us Class Diagram"

class SquareAuthController {
    + authorize(AuthorizeWithSquareCommand command)
    + getAuthLink(GetAuthLinkCommand command)
}

class AuthorizeWithSquareCommand {
    + grant_type : string
    + refresh_token : string
    + code : string
    + square_service : SquareService
    + execute(self) : ObtainTokenResponse
}

class GetAuthLinkCommand {
    + square_service : SquareService
    + execute(self) : string
}

SquareAuthController ..> AuthorizeWithSquareCommand : uses
SquareAuthController ..> GetAuthLinkCommand : uses

class SquareService {
    + Variables : Variables
    + Constants : Constants
    + get_access_token(self, command) : str
    + authorize_with_square(self, AuthorizeWithSquareCommand command) : ObtainTokenResponse
    + checkout_with_square(self, CheckoutWithSquareCommand command) : CheckoutResponse
    + update_with_square(self, UpdateWithSquareCommand command) : bool
    + delete_link_square(self, DeleteLinkSquareCommand command) : bool
    + get_payment_link(self, RetrieveWithSquareCommand command) : string
}

class ObtainTokenResponse {
    + access_token : string
    + merchant_id : string
    + refresh_token : string
    + short_lived : string
}

class ObtainTokenRequest {
    + grant_type : string
    + refresh_token : string
    + code : string
    + short_lived : string
    + client_id : string
    + client_secret : string
    + scopes : string
}

SquareService ..> ObtainTokenResponse : uses
SquareService ..> ObtainTokenRequest : uses
AuthorizeWithSquareCommand ..> SquareService : uses
GetAuthLinkCommand ..> SquareService : uses

class SquarePaymentController {
    + create(CheckoutWithSquareCommand command)
    + read(RetrieveWithSquareCommand command)
    + update(UpdateWithSquareCommand command)
    + delete(DeleteLinkSquareCommand command)
}

class CheckoutWithSquareCommand {
    + square_service : SquareService
    + execute(self) : CheckoutResponse
}

class RetrieveWithSquareCommand {
    + square_service : SquareService
    + execute(self) : CheckoutResponse
}

class UpdateWithSquareCommand {
    + square_service : SquareService
    + execute(self) : bool
}

class DeleteLinkSquareCommand {
    + square_service : SquareService
    + execute(self) : bool
}

class CheckoutResponse {
    + id : string
    + created_at : string
    + order_id : string
    + url : string
    + version : string
}

class  CheckoutRequest {
    + order : Order
    + source : string
}

class Order {
    + customer_id : string
    + location_id : string
    + line_items : LineItem[]
    + payment_note : string
    + pre_populated_data : PrePopulatedData
}

class LineItem {
    + item_type : string
    + name : string
    + quantity : int
    + base_price_money : Money
}

class PrePopulatedData {
    + buyer_email : string
    + buyer_phone_number : string
}

class Money {
    + amount : int
    + currency : string
}

SquareService ..> CheckoutResponse : uses
SquareService ..> CheckoutRequest : uses
CheckoutRequest ..> Order : uses
Order ..> LineItem : uses
Order ..> PrePopulatedData : uses
LineItem ..> Money : uses



SquarePaymentController ..> CheckoutWithSquareCommand : uses
SquarePaymentController ..> RetrieveWithSquareCommand : uses
SquarePaymentController ..> UpdateWithSquareCommand : uses
SquarePaymentController ..> DeleteLinkSquareCommand : uses

CheckoutWithSquareCommand ..> SquareService : uses
RetrieveWithSquareCommand ..> SquareService : uses
UpdateWithSquareCommand ..> SquareService : uses
DeleteLinkSquareCommand ..> SquareService : uses
@enduml

PlantUML version 1.2022.7beta1(Unknown compile time)
(GPL source distribution)
Java Runtime: Java(TM) SE Runtime Environment
JVM: Java HotSpot(TM) 64-Bit Server VM
Default Encoding: UTF-8
Language: en
Country: US
--></g></svg>