<?xml version="1.0" encoding="UTF-8" standalone="no"?><svg xmlns="http://www.w3.org/2000/svg" xmlns:xlink="http://www.w3.org/1999/xlink" contentStyleType="text/css" height="751px" preserveAspectRatio="none" style="width:1440px;height:751px;background:#FFFFFF;" version="1.1" viewBox="0 0 1440 751" width="1440px" zoomAndPan="magnify"><defs/><g><rect height="26.2969" style="stroke:#00000000;stroke-width:1.0;fill:none;" width="190" x="618" y="5"/><text fill="#000000" font-family="sans-serif" font-size="14" font-weight="bold" lengthAdjust="spacing" textLength="180" x="623" y="22.9951">Help us Class Diagram</text><!--MD5=[6e99dd7eb643e9fd9f8b133e2e7a6b4c]
class ObtainTokenResponse--><g id="elem_ObtainTokenResponse"><rect codeLine="3" fill="#F1F1F1" height="113.1875" id="ObtainTokenResponse" rx="2.5" ry="2.5" style="stroke:#181818;stroke-width:0.5;" width="196" x="260.5" y="623.2969"/><ellipse cx="275.5" cy="639.2969" fill="#ADD1B2" rx="11" ry="11" style="stroke:#181818;stroke-width:1.0;"/><path d="M277.8438,634.9688 C276.9063,634.5313 276.3125,634.3906 275.4375,634.3906 C272.8125,634.3906 270.8125,636.4688 270.8125,639.1875 L270.8125,640.3125 C270.8125,642.8906 272.9219,644.7813 275.8125,644.7813 C277.0313,644.7813 278.1875,644.4844 278.9375,643.9375 C279.5156,643.5313 279.8438,643.0781 279.8438,642.6875 C279.8438,642.2344 279.4531,641.8438 278.9844,641.8438 C278.7656,641.8438 278.5625,641.9219 278.375,642.1094 C277.9219,642.5938 277.9219,642.5938 277.7344,642.6875 C277.3125,642.9531 276.625,643.0781 275.8594,643.0781 C273.8125,643.0781 272.5156,641.9844 272.5156,640.2813 L272.5156,639.1875 C272.5156,637.4063 273.7656,636.0938 275.5,636.0938 C276.0781,636.0938 276.6875,636.25 277.1563,636.5 C277.6406,636.7813 277.8125,637 277.9063,637.4063 C277.9688,637.8125 278,637.9375 278.1406,638.0625 C278.2813,638.2031 278.5156,638.3125 278.7344,638.3125 C279,638.3125 279.2656,638.1719 279.4375,637.9531 C279.5469,637.7969 279.5781,637.6094 279.5781,637.1875 L279.5781,635.7656 C279.5781,635.3281 279.5625,635.2031 279.4688,635.0469 C279.3125,634.7813 279.0313,634.6406 278.7344,634.6406 C278.4375,634.6406 278.2344,634.7344 278.0156,635.0469 L277.8438,634.9688 Z " fill="#000000"/><text fill="#000000" font-family="sans-serif" font-size="14" lengthAdjust="spacing" textLength="164" x="289.5" y="644.1436">ObtainTokenResponse</text><line style="stroke:#181818;stroke-width:0.5;" x1="261.5" x2="455.5" y1="655.2969" y2="655.2969"/><ellipse cx="271.5" cy="666.2969" fill="none" rx="3" ry="3" style="stroke:#038048;stroke-width:1.0;"/><text fill="#000000" font-family="sans-serif" font-size="14" lengthAdjust="spacing" textLength="130" x="280.5" y="672.292">access_token : str</text><ellipse cx="271.5" cy="682.5938" fill="none" rx="3" ry="3" style="stroke:#038048;stroke-width:1.0;"/><text fill="#000000" font-family="sans-serif" font-size="14" lengthAdjust="spacing" textLength="123" x="280.5" y="688.5889">merchant_id : str</text><ellipse cx="271.5" cy="698.8906" fill="none" rx="3" ry="3" style="stroke:#038048;stroke-width:1.0;"/><text fill="#000000" font-family="sans-serif" font-size="14" lengthAdjust="spacing" textLength="135" x="280.5" y="704.8857">refresh_token : str</text><ellipse cx="271.5" cy="715.1875" fill="none" rx="3" ry="3" style="stroke:#038048;stroke-width:1.0;"/><text fill="#000000" font-family="sans-serif" font-size="14" lengthAdjust="spacing" textLength="124" x="280.5" y="721.1826">short_lived : bool</text><line style="stroke:#181818;stroke-width:0.5;" x1="261.5" x2="455.5" y1="728.4844" y2="728.4844"/></g><!--MD5=[6648317ef4ae95a4ebcb0a31bb1ed1f3]
class ObtainTokenRequest--><g id="elem_ObtainTokenRequest"><rect codeLine="10" fill="#F1F1F1" height="129.4844" id="ObtainTokenRequest" rx="2.5" ry="2.5" style="stroke:#181818;stroke-width:0.5;" width="185" x="492" y="615.2969"/><ellipse cx="507" cy="631.2969" fill="#ADD1B2" rx="11" ry="11" style="stroke:#181818;stroke-width:1.0;"/><path d="M509.3438,626.9688 C508.4063,626.5313 507.8125,626.3906 506.9375,626.3906 C504.3125,626.3906 502.3125,628.4688 502.3125,631.1875 L502.3125,632.3125 C502.3125,634.8906 504.4219,636.7813 507.3125,636.7813 C508.5313,636.7813 509.6875,636.4844 510.4375,635.9375 C511.0156,635.5313 511.3438,635.0781 511.3438,634.6875 C511.3438,634.2344 510.9531,633.8438 510.4844,633.8438 C510.2656,633.8438 510.0625,633.9219 509.875,634.1094 C509.4219,634.5938 509.4219,634.5938 509.2344,634.6875 C508.8125,634.9531 508.125,635.0781 507.3594,635.0781 C505.3125,635.0781 504.0156,633.9844 504.0156,632.2813 L504.0156,631.1875 C504.0156,629.4063 505.2656,628.0938 507,628.0938 C507.5781,628.0938 508.1875,628.25 508.6563,628.5 C509.1406,628.7813 509.3125,629 509.4063,629.4063 C509.4688,629.8125 509.5,629.9375 509.6406,630.0625 C509.7813,630.2031 510.0156,630.3125 510.2344,630.3125 C510.5,630.3125 510.7656,630.1719 510.9375,629.9531 C511.0469,629.7969 511.0781,629.6094 511.0781,629.1875 L511.0781,627.7656 C511.0781,627.3281 511.0625,627.2031 510.9688,627.0469 C510.8125,626.7813 510.5313,626.6406 510.2344,626.6406 C509.9375,626.6406 509.7344,626.7344 509.5156,627.0469 L509.3438,626.9688 Z " fill="#000000"/><text fill="#000000" font-family="sans-serif" font-size="14" lengthAdjust="spacing" textLength="153" x="521" y="636.1436">ObtainTokenRequest</text><line style="stroke:#181818;stroke-width:0.5;" x1="493" x2="676" y1="647.2969" y2="647.2969"/><ellipse cx="503" cy="658.2969" fill="none" rx="3" ry="3" style="stroke:#038048;stroke-width:1.0;"/><text fill="#000000" font-family="sans-serif" font-size="14" lengthAdjust="spacing" textLength="113" x="512" y="664.292">grant_type : str</text><ellipse cx="503" cy="674.5938" fill="none" rx="3" ry="3" style="stroke:#038048;stroke-width:1.0;"/><text fill="#000000" font-family="sans-serif" font-size="14" lengthAdjust="spacing" textLength="94" x="512" y="680.5889">client_id : str</text><ellipse cx="503" cy="690.8906" fill="none" rx="3" ry="3" style="stroke:#038048;stroke-width:1.0;"/><text fill="#000000" font-family="sans-serif" font-size="14" lengthAdjust="spacing" textLength="127" x="512" y="696.8857">client_secret : str</text><ellipse cx="503" cy="707.1875" fill="none" rx="3" ry="3" style="stroke:#038048;stroke-width:1.0;"/><text fill="#000000" font-family="sans-serif" font-size="14" lengthAdjust="spacing" textLength="85" x="512" y="713.1826">scopes : list</text><ellipse cx="503" cy="723.4844" fill="none" rx="3" ry="3" style="stroke:#038048;stroke-width:1.0;"/><text fill="#000000" font-family="sans-serif" font-size="14" lengthAdjust="spacing" textLength="68" x="512" y="729.4795">code : str</text><line style="stroke:#181818;stroke-width:0.5;" x1="493" x2="676" y1="736.7813" y2="736.7813"/></g><!--MD5=[9cacc36a4b2316eea47106032a1700e9]
class SearchResultRequest--><g id="elem_SearchResultRequest"><rect codeLine="18" fill="#F1F1F1" height="80.5938" id="SearchResultRequest" rx="2.5" ry="2.5" style="stroke:#181818;stroke-width:0.5;" width="274" x="712.5" y="639.2969"/><ellipse cx="768.75" cy="655.2969" fill="#ADD1B2" rx="11" ry="11" style="stroke:#181818;stroke-width:1.0;"/><path d="M771.0938,650.9688 C770.1563,650.5313 769.5625,650.3906 768.6875,650.3906 C766.0625,650.3906 764.0625,652.4688 764.0625,655.1875 L764.0625,656.3125 C764.0625,658.8906 766.1719,660.7813 769.0625,660.7813 C770.2813,660.7813 771.4375,660.4844 772.1875,659.9375 C772.7656,659.5313 773.0938,659.0781 773.0938,658.6875 C773.0938,658.2344 772.7031,657.8438 772.2344,657.8438 C772.0156,657.8438 771.8125,657.9219 771.625,658.1094 C771.1719,658.5938 771.1719,658.5938 770.9844,658.6875 C770.5625,658.9531 769.875,659.0781 769.1094,659.0781 C767.0625,659.0781 765.7656,657.9844 765.7656,656.2813 L765.7656,655.1875 C765.7656,653.4063 767.0156,652.0938 768.75,652.0938 C769.3281,652.0938 769.9375,652.25 770.4063,652.5 C770.8906,652.7813 771.0625,653 771.1563,653.4063 C771.2188,653.8125 771.25,653.9375 771.3906,654.0625 C771.5313,654.2031 771.7656,654.3125 771.9844,654.3125 C772.25,654.3125 772.5156,654.1719 772.6875,653.9531 C772.7969,653.7969 772.8281,653.6094 772.8281,653.1875 L772.8281,651.7656 C772.8281,651.3281 772.8125,651.2031 772.7188,651.0469 C772.5625,650.7813 772.2813,650.6406 771.9844,650.6406 C771.6875,650.6406 771.4844,650.7344 771.2656,651.0469 L771.0938,650.9688 Z " fill="#000000"/><text fill="#000000" font-family="sans-serif" font-size="14" lengthAdjust="spacing" textLength="153" x="789.25" y="660.1436">SearchResultRequest</text><line style="stroke:#181818;stroke-width:0.5;" x1="713.5" x2="985.5" y1="671.2969" y2="671.2969"/><ellipse cx="723.5" cy="682.2969" fill="none" rx="3" ry="3" style="stroke:#038048;stroke-width:1.0;"/><text fill="#000000" font-family="sans-serif" font-size="14" lengthAdjust="spacing" textLength="166" x="732.5" y="688.292">authorizationCode : str</text><ellipse cx="723.5" cy="698.5938" fill="none" rx="3" ry="3" style="stroke:#038048;stroke-width:1.0;"/><text fill="#000000" font-family="sans-serif" font-size="14" lengthAdjust="spacing" textLength="248" x="732.5" y="704.5889">List&lt;SearchResult&gt; search_results</text><line style="stroke:#181818;stroke-width:0.5;" x1="713.5" x2="985.5" y1="711.8906" y2="711.8906"/></g><!--MD5=[f2bc77f958c6bf9c93552407cd3f26ea]
class TransactionResult--><g id="elem_TransactionResult"><rect codeLine="23" fill="#F1F1F1" height="48" id="TransactionResult" rx="2.5" ry="2.5" style="stroke:#181818;stroke-width:0.5;" width="161" x="1022" y="655.7969"/><ellipse cx="1037" cy="671.7969" fill="#ADD1B2" rx="11" ry="11" style="stroke:#181818;stroke-width:1.0;"/><path d="M1039.3438,667.4688 C1038.4063,667.0313 1037.8125,666.8906 1036.9375,666.8906 C1034.3125,666.8906 1032.3125,668.9688 1032.3125,671.6875 L1032.3125,672.8125 C1032.3125,675.3906 1034.4219,677.2813 1037.3125,677.2813 C1038.5313,677.2813 1039.6875,676.9844 1040.4375,676.4375 C1041.0156,676.0313 1041.3438,675.5781 1041.3438,675.1875 C1041.3438,674.7344 1040.9531,674.3438 1040.4844,674.3438 C1040.2656,674.3438 1040.0625,674.4219 1039.875,674.6094 C1039.4219,675.0938 1039.4219,675.0938 1039.2344,675.1875 C1038.8125,675.4531 1038.125,675.5781 1037.3594,675.5781 C1035.3125,675.5781 1034.0156,674.4844 1034.0156,672.7813 L1034.0156,671.6875 C1034.0156,669.9063 1035.2656,668.5938 1037,668.5938 C1037.5781,668.5938 1038.1875,668.75 1038.6563,669 C1039.1406,669.2813 1039.3125,669.5 1039.4063,669.9063 C1039.4688,670.3125 1039.5,670.4375 1039.6406,670.5625 C1039.7813,670.7031 1040.0156,670.8125 1040.2344,670.8125 C1040.5,670.8125 1040.7656,670.6719 1040.9375,670.4531 C1041.0469,670.2969 1041.0781,670.1094 1041.0781,669.6875 L1041.0781,668.2656 C1041.0781,667.8281 1041.0625,667.7031 1040.9688,667.5469 C1040.8125,667.2813 1040.5313,667.1406 1040.2344,667.1406 C1039.9375,667.1406 1039.7344,667.2344 1039.5156,667.5469 L1039.3438,667.4688 Z " fill="#000000"/><text fill="#000000" font-family="sans-serif" font-size="14" lengthAdjust="spacing" textLength="129" x="1051" y="676.6436">TransactionResult</text><line style="stroke:#181818;stroke-width:0.5;" x1="1023" x2="1182" y1="687.7969" y2="687.7969"/><line style="stroke:#181818;stroke-width:0.5;" x1="1023" x2="1182" y1="695.7969" y2="695.7969"/></g><!--MD5=[053bb6a4a3afdd20f74e89c760dc9638]
class SerpService--><g id="elem_SerpService"><rect codeLine="25" fill="#F1F1F1" height="80.5938" id="SerpService" rx="2.5" ry="2.5" style="stroke:#181818;stroke-width:0.5;" width="394" x="11.5" y="457.2969"/><ellipse cx="160.75" cy="473.2969" fill="#ADD1B2" rx="11" ry="11" style="stroke:#181818;stroke-width:1.0;"/><path d="M163.0938,468.9688 C162.1563,468.5313 161.5625,468.3906 160.6875,468.3906 C158.0625,468.3906 156.0625,470.4688 156.0625,473.1875 L156.0625,474.3125 C156.0625,476.8906 158.1719,478.7813 161.0625,478.7813 C162.2813,478.7813 163.4375,478.4844 164.1875,477.9375 C164.7656,477.5313 165.0938,477.0781 165.0938,476.6875 C165.0938,476.2344 164.7031,475.8438 164.2344,475.8438 C164.0156,475.8438 163.8125,475.9219 163.625,476.1094 C163.1719,476.5938 163.1719,476.5938 162.9844,476.6875 C162.5625,476.9531 161.875,477.0781 161.1094,477.0781 C159.0625,477.0781 157.7656,475.9844 157.7656,474.2813 L157.7656,473.1875 C157.7656,471.4063 159.0156,470.0938 160.75,470.0938 C161.3281,470.0938 161.9375,470.25 162.4063,470.5 C162.8906,470.7813 163.0625,471 163.1563,471.4063 C163.2188,471.8125 163.25,471.9375 163.3906,472.0625 C163.5313,472.2031 163.7656,472.3125 163.9844,472.3125 C164.25,472.3125 164.5156,472.1719 164.6875,471.9531 C164.7969,471.7969 164.8281,471.6094 164.8281,471.1875 L164.8281,469.7656 C164.8281,469.3281 164.8125,469.2031 164.7188,469.0469 C164.5625,468.7813 164.2813,468.6406 163.9844,468.6406 C163.6875,468.6406 163.4844,468.7344 163.2656,469.0469 L163.0938,468.9688 Z " fill="#000000"/><text fill="#000000" font-family="sans-serif" font-size="14" lengthAdjust="spacing" textLength="87" x="181.25" y="478.1436">SerpService</text><line style="stroke:#181818;stroke-width:0.5;" x1="12.5" x2="404.5" y1="489.2969" y2="489.2969"/><rect fill="none" height="6" style="stroke:#C82930;stroke-width:1.0;" width="6" x="19.5" y="497.2969"/><text fill="#000000" font-family="sans-serif" font-size="14" lengthAdjust="spacing" textLength="355" x="31.5" y="506.292">external_api_credentials : ExternalApiCredentials</text><line style="stroke:#181818;stroke-width:0.5;" x1="12.5" x2="404.5" y1="513.5938" y2="513.5938"/><ellipse cx="22.5" cy="524.5938" fill="#84BE84" rx="3" ry="3" style="stroke:#038048;stroke-width:1.0;"/><text fill="#000000" font-family="sans-serif" font-size="14" lengthAdjust="spacing" textLength="368" x="31.5" y="530.5889">List&lt;SearchResult&gt; search_with_ebay(str keyword)</text></g><!--MD5=[04c986212dbd7a6edcbb0c84ee03c1fe]
class PaymentService--><g id="elem_PaymentService"><rect codeLine="30" fill="#F1F1F1" height="80.5938" id="PaymentService" rx="2.5" ry="2.5" style="stroke:#181818;stroke-width:0.5;" width="549" x="442" y="457.2969"/><ellipse cx="653.75" cy="473.2969" fill="#ADD1B2" rx="11" ry="11" style="stroke:#181818;stroke-width:1.0;"/><path d="M656.0938,468.9688 C655.1563,468.5313 654.5625,468.3906 653.6875,468.3906 C651.0625,468.3906 649.0625,470.4688 649.0625,473.1875 L649.0625,474.3125 C649.0625,476.8906 651.1719,478.7813 654.0625,478.7813 C655.2813,478.7813 656.4375,478.4844 657.1875,477.9375 C657.7656,477.5313 658.0938,477.0781 658.0938,476.6875 C658.0938,476.2344 657.7031,475.8438 657.2344,475.8438 C657.0156,475.8438 656.8125,475.9219 656.625,476.1094 C656.1719,476.5938 656.1719,476.5938 655.9844,476.6875 C655.5625,476.9531 654.875,477.0781 654.1094,477.0781 C652.0625,477.0781 650.7656,475.9844 650.7656,474.2813 L650.7656,473.1875 C650.7656,471.4063 652.0156,470.0938 653.75,470.0938 C654.3281,470.0938 654.9375,470.25 655.4063,470.5 C655.8906,470.7813 656.0625,471 656.1563,471.4063 C656.2188,471.8125 656.25,471.9375 656.3906,472.0625 C656.5313,472.2031 656.7656,472.3125 656.9844,472.3125 C657.25,472.3125 657.5156,472.1719 657.6875,471.9531 C657.7969,471.7969 657.8281,471.6094 657.8281,471.1875 L657.8281,469.7656 C657.8281,469.3281 657.8125,469.2031 657.7188,469.0469 C657.5625,468.7813 657.2813,468.6406 656.9844,468.6406 C656.6875,468.6406 656.4844,468.7344 656.2656,469.0469 L656.0938,468.9688 Z " fill="#000000"/><text fill="#000000" font-family="sans-serif" font-size="14" lengthAdjust="spacing" textLength="117" x="674.25" y="478.1436">PaymentService</text><line style="stroke:#181818;stroke-width:0.5;" x1="443" x2="990" y1="489.2969" y2="489.2969"/><line style="stroke:#181818;stroke-width:0.5;" x1="443" x2="990" y1="497.2969" y2="497.2969"/><ellipse cx="453" cy="508.2969" fill="#84BE84" rx="3" ry="3" style="stroke:#038048;stroke-width:1.0;"/><text fill="#000000" font-family="sans-serif" font-size="14" lengthAdjust="spacing" textLength="469" x="462" y="514.292">authorize_with_square(str authorizationCode) : TransactionResult</text><ellipse cx="453" cy="524.5938" fill="#84BE84" rx="3" ry="3" style="stroke:#038048;stroke-width:1.0;"/><text fill="#000000" font-family="sans-serif" font-size="14" lengthAdjust="spacing" textLength="523" x="462" y="530.5889">checkout_with_square(SearchResultRequest search_results_request) : str</text></g><!--MD5=[bc7a2585be9684605f100403883890b4]
class BackendService--><g id="elem_BackendService"><rect codeLine="35" fill="#F1F1F1" height="64.2969" id="BackendService" rx="2.5" ry="2.5" style="stroke:#181818;stroke-width:0.5;" width="407" x="1026" y="465.7969"/><ellipse cx="1167.75" cy="481.7969" fill="#ADD1B2" rx="11" ry="11" style="stroke:#181818;stroke-width:1.0;"/><path d="M1170.0938,477.4688 C1169.1563,477.0313 1168.5625,476.8906 1167.6875,476.8906 C1165.0625,476.8906 1163.0625,478.9688 1163.0625,481.6875 L1163.0625,482.8125 C1163.0625,485.3906 1165.1719,487.2813 1168.0625,487.2813 C1169.2813,487.2813 1170.4375,486.9844 1171.1875,486.4375 C1171.7656,486.0313 1172.0938,485.5781 1172.0938,485.1875 C1172.0938,484.7344 1171.7031,484.3438 1171.2344,484.3438 C1171.0156,484.3438 1170.8125,484.4219 1170.625,484.6094 C1170.1719,485.0938 1170.1719,485.0938 1169.9844,485.1875 C1169.5625,485.4531 1168.875,485.5781 1168.1094,485.5781 C1166.0625,485.5781 1164.7656,484.4844 1164.7656,482.7813 L1164.7656,481.6875 C1164.7656,479.9063 1166.0156,478.5938 1167.75,478.5938 C1168.3281,478.5938 1168.9375,478.75 1169.4063,479 C1169.8906,479.2813 1170.0625,479.5 1170.1563,479.9063 C1170.2188,480.3125 1170.25,480.4375 1170.3906,480.5625 C1170.5313,480.7031 1170.7656,480.8125 1170.9844,480.8125 C1171.25,480.8125 1171.5156,480.6719 1171.6875,480.4531 C1171.7969,480.2969 1171.8281,480.1094 1171.8281,479.6875 L1171.8281,478.2656 C1171.8281,477.8281 1171.8125,477.7031 1171.7188,477.5469 C1171.5625,477.2813 1171.2813,477.1406 1170.9844,477.1406 C1170.6875,477.1406 1170.4844,477.2344 1170.2656,477.5469 L1170.0938,477.4688 Z " fill="#000000"/><text fill="#000000" font-family="sans-serif" font-size="14" lengthAdjust="spacing" textLength="115" x="1188.25" y="486.6436">BackendService</text><line style="stroke:#181818;stroke-width:0.5;" x1="1027" x2="1432" y1="497.7969" y2="497.7969"/><line style="stroke:#181818;stroke-width:0.5;" x1="1027" x2="1432" y1="505.7969" y2="505.7969"/><ellipse cx="1037" cy="516.7969" fill="#84BE84" rx="3" ry="3" style="stroke:#038048;stroke-width:1.0;"/><text fill="#000000" font-family="sans-serif" font-size="14" lengthAdjust="spacing" textLength="381" x="1046" y="522.792">save_payment_result(TransactionResult result) : bool</text></g><!--MD5=[0653f8dae23042bd6dde0eb89a530340]
class SearchResult--><g id="elem_SearchResult"><rect codeLine="39" fill="#F1F1F1" height="162.0781" id="SearchResult" rx="2.5" ry="2.5" style="stroke:#181818;stroke-width:0.5;" width="185" x="670" y="44.2969"/><ellipse cx="711.55" cy="60.2969" fill="#ADD1B2" rx="11" ry="11" style="stroke:#181818;stroke-width:1.0;"/><path d="M713.8938,55.9688 C712.9563,55.5313 712.3625,55.3906 711.4875,55.3906 C708.8625,55.3906 706.8625,57.4688 706.8625,60.1875 L706.8625,61.3125 C706.8625,63.8906 708.9719,65.7813 711.8625,65.7813 C713.0813,65.7813 714.2375,65.4844 714.9875,64.9375 C715.5656,64.5313 715.8938,64.0781 715.8938,63.6875 C715.8938,63.2344 715.5031,62.8438 715.0344,62.8438 C714.8156,62.8438 714.6125,62.9219 714.425,63.1094 C713.9719,63.5938 713.9719,63.5938 713.7844,63.6875 C713.3625,63.9531 712.675,64.0781 711.9094,64.0781 C709.8625,64.0781 708.5656,62.9844 708.5656,61.2813 L708.5656,60.1875 C708.5656,58.4063 709.8156,57.0938 711.55,57.0938 C712.1281,57.0938 712.7375,57.25 713.2063,57.5 C713.6906,57.7813 713.8625,58 713.9563,58.4063 C714.0188,58.8125 714.05,58.9375 714.1906,59.0625 C714.3313,59.2031 714.5656,59.3125 714.7844,59.3125 C715.05,59.3125 715.3156,59.1719 715.4875,58.9531 C715.5969,58.7969 715.6281,58.6094 715.6281,58.1875 L715.6281,56.7656 C715.6281,56.3281 715.6125,56.2031 715.5188,56.0469 C715.3625,55.7813 715.0813,55.6406 714.7844,55.6406 C714.4875,55.6406 714.2844,55.7344 714.0656,56.0469 L713.8938,55.9688 Z " fill="#000000"/><text fill="#000000" font-family="sans-serif" font-size="14" lengthAdjust="spacing" textLength="94" x="731.45" y="65.1436">SearchResult</text><line style="stroke:#181818;stroke-width:0.5;" x1="671" x2="854" y1="76.2969" y2="76.2969"/><ellipse cx="681" cy="87.2969" fill="none" rx="3" ry="3" style="stroke:#038048;stroke-width:1.0;"/><text fill="#000000" font-family="sans-serif" font-size="14" lengthAdjust="spacing" textLength="64" x="690" y="93.292">title : str</text><ellipse cx="681" cy="103.5938" fill="none" rx="3" ry="3" style="stroke:#038048;stroke-width:1.0;"/><text fill="#000000" font-family="sans-serif" font-size="14" lengthAdjust="spacing" textLength="59" x="690" y="109.5889">link : str</text><ellipse cx="681" cy="119.8906" fill="none" rx="3" ry="3" style="stroke:#038048;stroke-width:1.0;"/><text fill="#000000" font-family="sans-serif" font-size="14" lengthAdjust="spacing" textLength="101" x="690" y="125.8857">condition : str</text><ellipse cx="681" cy="136.1875" fill="none" rx="3" ry="3" style="stroke:#038048;stroke-width:1.0;"/><text fill="#000000" font-family="sans-serif" font-size="14" lengthAdjust="spacing" textLength="70" x="690" y="142.1826">price : str</text><ellipse cx="681" cy="152.4844" fill="none" rx="3" ry="3" style="stroke:#038048;stroke-width:1.0;"/><text fill="#000000" font-family="sans-serif" font-size="14" lengthAdjust="spacing" textLength="95" x="690" y="158.4795">shipping : str</text><ellipse cx="681" cy="168.7813" fill="none" rx="3" ry="3" style="stroke:#038048;stroke-width:1.0;"/><text fill="#000000" font-family="sans-serif" font-size="14" lengthAdjust="spacing" textLength="159" x="690" y="174.7764">extensions : List&lt;str&gt;</text><ellipse cx="681" cy="185.0781" fill="none" rx="3" ry="3" style="stroke:#038048;stroke-width:1.0;"/><text fill="#000000" font-family="sans-serif" font-size="14" lengthAdjust="spacing" textLength="106" x="690" y="191.0732">thumbnail : str</text><line style="stroke:#181818;stroke-width:0.5;" x1="671" x2="854" y1="198.375" y2="198.375"/></g><!--MD5=[2eba06dd0e991185ec81b0e205ea5301]
class SearchController--><g id="elem_SearchController"><rect codeLine="50" fill="#F1F1F1" height="80.5938" id="SearchController" rx="2.5" ry="2.5" style="stroke:#181818;stroke-width:0.5;" width="403" x="7" y="291.2969"/><ellipse cx="143.25" cy="307.2969" fill="#ADD1B2" rx="11" ry="11" style="stroke:#181818;stroke-width:1.0;"/><path d="M145.5938,302.9688 C144.6563,302.5313 144.0625,302.3906 143.1875,302.3906 C140.5625,302.3906 138.5625,304.4688 138.5625,307.1875 L138.5625,308.3125 C138.5625,310.8906 140.6719,312.7813 143.5625,312.7813 C144.7813,312.7813 145.9375,312.4844 146.6875,311.9375 C147.2656,311.5313 147.5938,311.0781 147.5938,310.6875 C147.5938,310.2344 147.2031,309.8438 146.7344,309.8438 C146.5156,309.8438 146.3125,309.9219 146.125,310.1094 C145.6719,310.5938 145.6719,310.5938 145.4844,310.6875 C145.0625,310.9531 144.375,311.0781 143.6094,311.0781 C141.5625,311.0781 140.2656,309.9844 140.2656,308.2813 L140.2656,307.1875 C140.2656,305.4063 141.5156,304.0938 143.25,304.0938 C143.8281,304.0938 144.4375,304.25 144.9063,304.5 C145.3906,304.7813 145.5625,305 145.6563,305.4063 C145.7188,305.8125 145.75,305.9375 145.8906,306.0625 C146.0313,306.2031 146.2656,306.3125 146.4844,306.3125 C146.75,306.3125 147.0156,306.1719 147.1875,305.9531 C147.2969,305.7969 147.3281,305.6094 147.3281,305.1875 L147.3281,303.7656 C147.3281,303.3281 147.3125,303.2031 147.2188,303.0469 C147.0625,302.7813 146.7813,302.6406 146.4844,302.6406 C146.1875,302.6406 145.9844,302.7344 145.7656,303.0469 L145.5938,302.9688 Z " fill="#000000"/><text fill="#000000" font-family="sans-serif" font-size="14" lengthAdjust="spacing" textLength="122" x="163.75" y="312.1436">SearchController</text><line style="stroke:#181818;stroke-width:0.5;" x1="8" x2="409" y1="323.2969" y2="323.2969"/><rect fill="none" height="6" style="stroke:#C82930;stroke-width:1.0;" width="6" x="15" y="331.2969"/><text fill="#000000" font-family="sans-serif" font-size="14" lengthAdjust="spacing" textLength="190" x="27" y="340.292">serp_service : SerpService</text><line style="stroke:#181818;stroke-width:0.5;" x1="8" x2="409" y1="347.5938" y2="347.5938"/><ellipse cx="18" cy="358.5938" fill="#84BE84" rx="3" ry="3" style="stroke:#038048;stroke-width:1.0;"/><text fill="#000000" font-family="sans-serif" font-size="14" lengthAdjust="spacing" textLength="377" x="27" y="364.5889">search_with_ebay(str keyword) : List&lt;SearchResult&gt;</text></g><!--MD5=[c83f54922bd1076e47c619e9ad7fd812]
class PaymentController--><g id="elem_PaymentController"><rect codeLine="55" fill="#F1F1F1" height="96.8906" id="PaymentController" rx="2.5" ry="2.5" style="stroke:#181818;stroke-width:0.5;" width="549" x="445" y="283.2969"/><ellipse cx="646.75" cy="299.2969" fill="#ADD1B2" rx="11" ry="11" style="stroke:#181818;stroke-width:1.0;"/><path d="M649.0938,294.9688 C648.1563,294.5313 647.5625,294.3906 646.6875,294.3906 C644.0625,294.3906 642.0625,296.4688 642.0625,299.1875 L642.0625,300.3125 C642.0625,302.8906 644.1719,304.7813 647.0625,304.7813 C648.2813,304.7813 649.4375,304.4844 650.1875,303.9375 C650.7656,303.5313 651.0938,303.0781 651.0938,302.6875 C651.0938,302.2344 650.7031,301.8438 650.2344,301.8438 C650.0156,301.8438 649.8125,301.9219 649.625,302.1094 C649.1719,302.5938 649.1719,302.5938 648.9844,302.6875 C648.5625,302.9531 647.875,303.0781 647.1094,303.0781 C645.0625,303.0781 643.7656,301.9844 643.7656,300.2813 L643.7656,299.1875 C643.7656,297.4063 645.0156,296.0938 646.75,296.0938 C647.3281,296.0938 647.9375,296.25 648.4063,296.5 C648.8906,296.7813 649.0625,297 649.1563,297.4063 C649.2188,297.8125 649.25,297.9375 649.3906,298.0625 C649.5313,298.2031 649.7656,298.3125 649.9844,298.3125 C650.25,298.3125 650.5156,298.1719 650.6875,297.9531 C650.7969,297.7969 650.8281,297.6094 650.8281,297.1875 L650.8281,295.7656 C650.8281,295.3281 650.8125,295.2031 650.7188,295.0469 C650.5625,294.7813 650.2813,294.6406 649.9844,294.6406 C649.6875,294.6406 649.4844,294.7344 649.2656,295.0469 L649.0938,294.9688 Z " fill="#000000"/><text fill="#000000" font-family="sans-serif" font-size="14" lengthAdjust="spacing" textLength="137" x="667.25" y="304.1436">PaymentController</text><line style="stroke:#181818;stroke-width:0.5;" x1="446" x2="993" y1="315.2969" y2="315.2969"/><rect fill="none" height="6" style="stroke:#C82930;stroke-width:1.0;" width="6" x="453" y="323.2969"/><text fill="#000000" font-family="sans-serif" font-size="14" lengthAdjust="spacing" textLength="253" x="465" y="332.292">payment_service : PaymentService</text><line style="stroke:#181818;stroke-width:0.5;" x1="446" x2="993" y1="339.5938" y2="339.5938"/><ellipse cx="456" cy="350.5938" fill="#84BE84" rx="3" ry="3" style="stroke:#038048;stroke-width:1.0;"/><text fill="#000000" font-family="sans-serif" font-size="14" lengthAdjust="spacing" textLength="523" x="465" y="356.5889">checkout_with_square(SearchResultRequest search_results_request) : str</text><ellipse cx="456" cy="366.8906" fill="#84BE84" rx="3" ry="3" style="stroke:#038048;stroke-width:1.0;"/><text fill="#000000" font-family="sans-serif" font-size="14" lengthAdjust="spacing" textLength="380" x="465" y="372.8857">callback_with_square(TransactionResult result) : bool</text></g><!--MD5=[009cfaa84eec3602558bae4f1cb7f7f6]
class LambdaHandler--><g id="elem_LambdaHandler"><rect codeLine="61" fill="#F1F1F1" height="64.2969" id="LambdaHandler" rx="2.5" ry="2.5" style="stroke:#181818;stroke-width:0.5;" width="232" x="402.5" y="93.2969"/><ellipse cx="458.25" cy="109.2969" fill="#ADD1B2" rx="11" ry="11" style="stroke:#181818;stroke-width:1.0;"/><path d="M460.5938,104.9688 C459.6563,104.5313 459.0625,104.3906 458.1875,104.3906 C455.5625,104.3906 453.5625,106.4688 453.5625,109.1875 L453.5625,110.3125 C453.5625,112.8906 455.6719,114.7813 458.5625,114.7813 C459.7813,114.7813 460.9375,114.4844 461.6875,113.9375 C462.2656,113.5313 462.5938,113.0781 462.5938,112.6875 C462.5938,112.2344 462.2031,111.8438 461.7344,111.8438 C461.5156,111.8438 461.3125,111.9219 461.125,112.1094 C460.6719,112.5938 460.6719,112.5938 460.4844,112.6875 C460.0625,112.9531 459.375,113.0781 458.6094,113.0781 C456.5625,113.0781 455.2656,111.9844 455.2656,110.2813 L455.2656,109.1875 C455.2656,107.4063 456.5156,106.0938 458.25,106.0938 C458.8281,106.0938 459.4375,106.25 459.9063,106.5 C460.3906,106.7813 460.5625,107 460.6563,107.4063 C460.7188,107.8125 460.75,107.9375 460.8906,108.0625 C461.0313,108.2031 461.2656,108.3125 461.4844,108.3125 C461.75,108.3125 462.0156,108.1719 462.1875,107.9531 C462.2969,107.7969 462.3281,107.6094 462.3281,107.1875 L462.3281,105.7656 C462.3281,105.3281 462.3125,105.2031 462.2188,105.0469 C462.0625,104.7813 461.7813,104.6406 461.4844,104.6406 C461.1875,104.6406 460.9844,104.7344 460.7656,105.0469 L460.5938,104.9688 Z " fill="#000000"/><text fill="#000000" font-family="sans-serif" font-size="14" lengthAdjust="spacing" textLength="112" x="478.75" y="114.1436">LambdaHandler</text><line style="stroke:#181818;stroke-width:0.5;" x1="403.5" x2="633.5" y1="125.2969" y2="125.2969"/><line style="stroke:#181818;stroke-width:0.5;" x1="403.5" x2="633.5" y1="133.2969" y2="133.2969"/><ellipse cx="413.5" cy="144.2969" fill="#84BE84" rx="3" ry="3" style="stroke:#038048;stroke-width:1.0;"/><text fill="#000000" font-family="sans-serif" font-size="14" lengthAdjust="spacing" textLength="206" x="422.5" y="150.292">handle(event, context) : dict</text></g><!--MD5=[48009b1da05e076677d63765034ebc95]
link SearchController to SerpService--><g id="link_SearchController_SerpService"><path codeLine="66" d="M208.5,372.4969 C208.5,396.4809 208.5,427.1139 208.5,451.9669 " fill="none" id="SearchController-to-SerpService" style="stroke:#181818;stroke-width:1.0;stroke-dasharray:7.0,7.0;"/><polygon fill="#181818" points="208.5,457.1789,212.5,448.1789,208.5,452.1789,204.5,448.1789,208.5,457.1789" style="stroke:#181818;stroke-width:1.0;"/><text fill="#000000" font-family="sans-serif" font-size="13" lengthAdjust="spacing" textLength="31" x="209.5" y="423.3638">Uses</text></g><!--MD5=[69fcafa38d1b1e331753b4931f3a1e98]
link PaymentController to PaymentService--><g id="link_PaymentController_PaymentService"><path codeLine="68" d="M718.624,380.6729 C718.213,403.1679 717.725,429.8329 717.321,451.9339 " fill="none" id="PaymentController-to-PaymentService" style="stroke:#181818;stroke-width:1.0;stroke-dasharray:7.0,7.0;"/><polygon fill="#181818" points="717.225,457.1569,721.3889,448.2315,717.3164,452.1577,713.3903,448.0852,717.225,457.1569" style="stroke:#181818;stroke-width:1.0;"/><text fill="#000000" font-family="sans-serif" font-size="13" lengthAdjust="spacing" textLength="31" x="719.5" y="423.3638">Uses</text></g><!--MD5=[c63de7087f8cf934a66850757b501d3b]
link PaymentController to BackendService--><g id="link_PaymentController_BackendService"><path codeLine="70" d="M867.356,380.3429 C950.968,407.2299 1053.37,440.1579 1127.92,464.1309 " fill="none" id="PaymentController-to-BackendService" style="stroke:#181818;stroke-width:1.0;stroke-dasharray:7.0,7.0;"/><polygon fill="#181818" points="1132.79,465.6969,1125.444,459.1367,1128.0294,464.1681,1122.998,466.7536,1132.79,465.6969" style="stroke:#181818;stroke-width:1.0;"/><text fill="#000000" font-family="sans-serif" font-size="13" lengthAdjust="spacing" textLength="31" x="1005.5" y="423.3638">Uses</text></g><!--MD5=[8578da7550e543eec33f2e12c0298132]
link PaymentService to ObtainTokenResponse--><g id="link_PaymentService_ObtainTokenResponse"><path codeLine="72" d="M631.409,538.4289 C584.781,560.4799 526.132,588.7599 474.5,615.2969 C470.135,617.5399 465.691,619.8519 461.21,622.2039 " fill="none" id="PaymentService-to-ObtainTokenResponse" style="stroke:#181818;stroke-width:1.0;stroke-dasharray:7.0,7.0;"/><polygon fill="#181818" points="456.719,624.5689,466.5461,623.9143,461.143,622.239,462.8183,616.8359,456.719,624.5689" style="stroke:#181818;stroke-width:1.0;"/><text fill="#000000" font-family="sans-serif" font-size="13" lengthAdjust="spacing" textLength="31" x="568.5" y="581.3638">Uses</text></g><!--MD5=[3565ede833ddc247b7c00665114fe223]
link PaymentService to ObtainTokenRequest--><g id="link_PaymentService_ObtainTokenRequest"><path codeLine="74" d="M687.532,538.2989 C671.964,559.5279 652.332,586.2989 634.391,610.7629 " fill="none" id="PaymentService-to-ObtainTokenRequest" style="stroke:#181818;stroke-width:1.0;stroke-dasharray:7.0,7.0;"/><polygon fill="#181818" points="631.296,614.9839,639.8445,610.0927,634.2533,610.9522,633.3938,605.361,631.296,614.9839" style="stroke:#181818;stroke-width:1.0;"/><text fill="#000000" font-family="sans-serif" font-size="13" lengthAdjust="spacing" textLength="31" x="663.5" y="581.3638">Uses</text></g><!--MD5=[e28223938a9118de62765230cbbb4ef7]
link PaymentService to TransactionResult--><g id="link_PaymentService_TransactionResult"><path codeLine="76" d="M828.464,538.3859 C882.715,558.9939 948.158,585.9879 1004.5,615.2969 C1025.56,626.2509 1047.85,640.4669 1065.85,652.67 " fill="none" id="PaymentService-to-TransactionResult" style="stroke:#181818;stroke-width:1.0;stroke-dasharray:7.0,7.0;"/><polygon fill="#181818" points="1070.33,655.726,1065.1448,647.3526,1066.198,652.9105,1060.6401,653.9638,1070.33,655.726" style="stroke:#181818;stroke-width:1.0;"/><text fill="#000000" font-family="sans-serif" font-size="13" lengthAdjust="spacing" textLength="31" x="935.5" y="581.3638">Uses</text></g><!--MD5=[c658fbdc95c4687c31995128f3c9ce1d]
link PaymentService to SearchResultRequest--><g id="link_PaymentService_SearchResultRequest"><path codeLine="78" d="M745.687,538.2989 C766.75,566.8049 795.197,605.3039 816.986,634.7939 " fill="none" id="PaymentService-to-SearchResultRequest" style="stroke:#181818;stroke-width:1.0;stroke-dasharray:7.0,7.0;"/><polygon fill="#181818" points="820.151,639.0769,818.0196,629.4614,817.1796,635.0555,811.5855,634.2156,820.151,639.0769" style="stroke:#181818;stroke-width:1.0;"/><text fill="#000000" font-family="sans-serif" font-size="13" lengthAdjust="spacing" textLength="31" x="780.5" y="581.3638">Uses</text></g><!--MD5=[b5c768fac94eed2a7e863c054f82a61c]
link LambdaHandler to PaymentController--><g id="link_LambdaHandler_PaymentController"><path codeLine="80" d="M549.028,157.3559 C580.838,189.7209 631.217,240.9769 668.973,279.3899 " fill="none" id="LambdaHandler-to-PaymentController" style="stroke:#181818;stroke-width:1.0;stroke-dasharray:7.0,7.0;"/><polygon fill="#181818" points="672.587,283.0669,669.1315,273.8441,669.0823,279.5008,663.4257,279.4516,672.587,283.0669" style="stroke:#181818;stroke-width:1.0;"/><text fill="#000000" font-family="sans-serif" font-size="13" lengthAdjust="spacing" textLength="31" x="644.5" y="249.3638">Uses</text></g><!--MD5=[3a1a64d06de1b264946364205c193755]
link LambdaHandler to SearchController--><g id="link_LambdaHandler_SearchController"><path codeLine="82" d="M471.418,157.3559 C418.404,192.3279 331.955,249.3569 272.759,288.4069 " fill="none" id="LambdaHandler-to-SearchController" style="stroke:#181818;stroke-width:1.0;stroke-dasharray:7.0,7.0;"/><polygon fill="#181818" points="268.545,291.1859,278.2601,289.5679,272.7184,288.4322,273.8541,282.8905,268.545,291.1859" style="stroke:#181818;stroke-width:1.0;"/><text fill="#000000" font-family="sans-serif" font-size="13" lengthAdjust="spacing" textLength="31" x="346.5" y="249.3638">Uses</text></g><!--MD5=[4953550925fb438605ae5a21f24212bf]
@startuml
title "Help us Class Diagram"

class ObtainTokenResponse {
    + access_token : str
    + merchant_id : str
    + refresh_token : str
    + short_lived : bool
}

class ObtainTokenRequest {
    + grant_type : str
    + client_id : str
    + client_secret : str
    + scopes : list
    + code : str
}

class SearchResultRequest {
    + authorizationCode : str
    + List<SearchResult> search_results
}

class TransactionResult

class SerpService {
    - external_api_credentials : ExternalApiCredentials
    + List<SearchResult> search_with_ebay(str keyword)
}

class PaymentService {
    + authorize_with_square(str authorizationCode) : TransactionResult
    + checkout_with_square(SearchResultRequest search_results_request) : str
}

class BackendService {
    + save_payment_result(TransactionResult result) : bool
}

class SearchResult {
    + title : str
    + link : str
    + condition : str
    + price : str
    + shipping : str
    + extensions : List<str>
    + thumbnail : str

}

class SearchController {
    - serp_service : SerpService
    + search_with_ebay(str keyword) : List<SearchResult>
}

class PaymentController {
    - payment_service : PaymentService
    + checkout_with_square(SearchResultRequest search_results_request) : str
    + callback_with_square(TransactionResult result) : bool
}

class LambdaHandler {
    + handle(event, context) : dict
}


SearchController ..> SerpService : Uses

PaymentController ..> PaymentService : Uses

PaymentController ..> BackendService : Uses

PaymentService ..> ObtainTokenResponse : Uses

PaymentService ..> ObtainTokenRequest : Uses

PaymentService ..> TransactionResult : Uses

PaymentService ..> SearchResultRequest : Uses

LambdaHandler ..> PaymentController : Uses

LambdaHandler ..> SearchController : Uses
@enduml

PlantUML version 1.2022.6beta5(Unknown compile time)
(GPL source distribution)
Java Runtime: Java(TM) SE Runtime Environment
JVM: Java HotSpot(TM) 64-Bit Server VM
Default Encoding: UTF-8
Language: en
Country: US
--></g></svg>