<?xml version="1.0" encoding="UTF-8" standalone="no"?><svg xmlns="http://www.w3.org/2000/svg" xmlns:xlink="http://www.w3.org/1999/xlink" contentStyleType="text/css" height="700px" preserveAspectRatio="none" style="width:1584px;height:700px;background:#FFFFFF;" version="1.1" viewBox="0 0 1584 700" width="1584px" zoomAndPan="magnify"><defs/><g><rect height="26.2969" id="_title" style="stroke:#00000000;stroke-width:1.0;fill:none;" width="338" x="624.5" y="10"/><text fill="#000000" font-family="sans-serif" font-size="14" font-weight="bold" lengthAdjust="spacing" textLength="328" x="629.5" y="27.9951">Sequence Diagram for help us (CHARITY)</text><rect fill="#008037" height="145.6641" style="stroke:#181818;stroke-width:1.0;" width="10" x="388" y="149.7266"/><rect fill="#FFFFFF" height="262.1953" style="stroke:#181818;stroke-width:1.0;" width="10" x="388" y="324.5234"/><rect fill="#008037" height="87.3984" style="stroke:#181818;stroke-width:1.0;" width="10" x="846" y="178.8594"/><rect fill="#008037" height="203.9297" style="stroke:#181818;stroke-width:1.0;" width="10" x="846" y="353.6563"/><rect fill="#008037" height="29.1328" style="stroke:#181818;stroke-width:1.0;" width="10" x="1291" y="207.9922"/><rect fill="#FFFFFF" height="29.1328" style="stroke:#181818;stroke-width:1.0;" width="10" x="1385" y="382.7891"/><rect fill="#FFFFFF" height="29.1328" style="stroke:#181818;stroke-width:1.0;" width="10" x="1385" y="441.0547"/><rect fill="#FFFFFF" height="29.1328" style="stroke:#181818;stroke-width:1.0;" width="10" x="1509" y="499.3203"/><line style="stroke:#181818;stroke-width:0.5;stroke-dasharray:5.0,5.0;" x1="34" x2="34" y1="118.5938" y2="604.7188"/><line style="stroke:#181818;stroke-width:0.5;stroke-dasharray:5.0,5.0;" x1="392.5" x2="392.5" y1="118.5938" y2="604.7188"/><line style="stroke:#181818;stroke-width:0.5;stroke-dasharray:5.0,5.0;" x1="851" x2="851" y1="118.5938" y2="604.7188"/><line style="stroke:#181818;stroke-width:0.5;stroke-dasharray:5.0,5.0;" x1="1296" x2="1296" y1="118.5938" y2="604.7188"/><line style="stroke:#181818;stroke-width:0.5;stroke-dasharray:5.0,5.0;" x1="1390" x2="1390" y1="118.5938" y2="604.7188"/><line style="stroke:#181818;stroke-width:0.5;stroke-dasharray:5.0,5.0;" x1="1514" x2="1514" y1="118.5938" y2="604.7188"/><text fill="#000000" font-family="sans-serif" font-size="14" lengthAdjust="spacing" textLength="52" x="5" y="115.292">Charity</text><ellipse cx="34" cy="50.7969" fill="#E2E2F0" rx="8" ry="8" style="stroke:#181818;stroke-width:0.5;"/><path d="M34,58.7969 L34,85.7969 M21,66.7969 L47,66.7969 M34,85.7969 L21,100.7969 M34,85.7969 L47,100.7969 " fill="none" style="stroke:#181818;stroke-width:0.5;"/><text fill="#000000" font-family="sans-serif" font-size="14" lengthAdjust="spacing" textLength="52" x="5" y="616.7139">Charity</text><ellipse cx="34" cy="628.5156" fill="#E2E2F0" rx="8" ry="8" style="stroke:#181818;stroke-width:0.5;"/><path d="M34,636.5156 L34,663.5156 M21,644.5156 L47,644.5156 M34,663.5156 L21,678.5156 M34,663.5156 L47,678.5156 " fill="none" style="stroke:#181818;stroke-width:0.5;"/><rect fill="#E2E2F0" height="30.2969" rx="2.5" ry="2.5" style="stroke:#181818;stroke-width:0.5;" width="99" x="343.5" y="87.2969"/><text fill="#000000" font-family="sans-serif" font-size="14" lengthAdjust="spacing" textLength="85" x="350.5" y="107.292">help us App</text><rect fill="#E2E2F0" height="30.2969" rx="2.5" ry="2.5" style="stroke:#181818;stroke-width:0.5;" width="99" x="343.5" y="603.7188"/><text fill="#000000" font-family="sans-serif" font-size="14" lengthAdjust="spacing" textLength="85" x="350.5" y="623.7139">help us App</text><rect fill="#E2E2F0" height="30.2969" rx="2.5" ry="2.5" style="stroke:#181818;stroke-width:0.5;" width="174" x="764" y="87.2969"/><text fill="#000000" font-family="sans-serif" font-size="14" lengthAdjust="spacing" textLength="160" x="771" y="107.292">AWS Lambda Function</text><rect fill="#E2E2F0" height="30.2969" rx="2.5" ry="2.5" style="stroke:#181818;stroke-width:0.5;" width="174" x="764" y="603.7188"/><text fill="#000000" font-family="sans-serif" font-size="14" lengthAdjust="spacing" textLength="160" x="771" y="623.7139">AWS Lambda Function</text><rect fill="#E2E2F0" height="30.2969" rx="2.5" ry="2.5" style="stroke:#181818;stroke-width:0.5;" width="78" x="1257" y="87.2969"/><text fill="#000000" font-family="sans-serif" font-size="14" lengthAdjust="spacing" textLength="64" x="1264" y="107.292">SERP API</text><rect fill="#E2E2F0" height="30.2969" rx="2.5" ry="2.5" style="stroke:#181818;stroke-width:0.5;" width="78" x="1257" y="603.7188"/><text fill="#000000" font-family="sans-serif" font-size="14" lengthAdjust="spacing" textLength="64" x="1264" y="623.7139">SERP API</text><rect fill="#E2E2F0" height="30.2969" rx="2.5" ry="2.5" style="stroke:#181818;stroke-width:0.5;" width="90" x="1345" y="87.2969"/><text fill="#000000" font-family="sans-serif" font-size="14" lengthAdjust="spacing" textLength="76" x="1352" y="107.292">Square API</text><rect fill="#E2E2F0" height="30.2969" rx="2.5" ry="2.5" style="stroke:#181818;stroke-width:0.5;" width="90" x="1345" y="603.7188"/><text fill="#000000" font-family="sans-serif" font-size="14" lengthAdjust="spacing" textLength="76" x="1352" y="623.7139">Square API</text><text fill="#000000" font-family="sans-serif" font-size="14" lengthAdjust="spacing" textLength="132" x="1445" y="115.292">Listings: Database</text><path d="M1496,66.2969 C1496,56.2969 1514,56.2969 1514,56.2969 C1514,56.2969 1532,56.2969 1532,66.2969 L1532,92.2969 C1532,102.2969 1514,102.2969 1514,102.2969 C1514,102.2969 1496,102.2969 1496,92.2969 L1496,66.2969 " fill="#E2E2F0" style="stroke:#181818;stroke-width:1.5;"/><path d="M1496,66.2969 C1496,76.2969 1514,76.2969 1514,76.2969 C1514,76.2969 1532,76.2969 1532,66.2969 " fill="none" style="stroke:#181818;stroke-width:1.5;"/><text fill="#000000" font-family="sans-serif" font-size="14" lengthAdjust="spacing" textLength="132" x="1445" y="616.7139">Listings: Database</text><path d="M1496,630.0156 C1496,620.0156 1514,620.0156 1514,620.0156 C1514,620.0156 1532,620.0156 1532,630.0156 L1532,656.0156 C1532,666.0156 1514,666.0156 1514,666.0156 C1514,666.0156 1496,666.0156 1496,656.0156 L1496,630.0156 " fill="#E2E2F0" style="stroke:#181818;stroke-width:1.5;"/><path d="M1496,630.0156 C1496,640.0156 1514,640.0156 1514,640.0156 C1514,640.0156 1532,640.0156 1532,630.0156 " fill="none" style="stroke:#181818;stroke-width:1.5;"/><rect fill="#008037" height="145.6641" style="stroke:#181818;stroke-width:1.0;" width="10" x="388" y="149.7266"/><rect fill="#FFFFFF" height="262.1953" style="stroke:#181818;stroke-width:1.0;" width="10" x="388" y="324.5234"/><rect fill="#008037" height="87.3984" style="stroke:#181818;stroke-width:1.0;" width="10" x="846" y="178.8594"/><rect fill="#008037" height="203.9297" style="stroke:#181818;stroke-width:1.0;" width="10" x="846" y="353.6563"/><rect fill="#008037" height="29.1328" style="stroke:#181818;stroke-width:1.0;" width="10" x="1291" y="207.9922"/><rect fill="#FFFFFF" height="29.1328" style="stroke:#181818;stroke-width:1.0;" width="10" x="1385" y="382.7891"/><rect fill="#FFFFFF" height="29.1328" style="stroke:#181818;stroke-width:1.0;" width="10" x="1385" y="441.0547"/><rect fill="#FFFFFF" height="29.1328" style="stroke:#181818;stroke-width:1.0;" width="10" x="1509" y="499.3203"/><polygon fill="#181818" points="376,145.7266,386,149.7266,376,153.7266,380,149.7266" style="stroke:#181818;stroke-width:1.0;"/><line style="stroke:#181818;stroke-width:1.0;" x1="34" x2="382" y1="149.7266" y2="149.7266"/><text fill="#000000" font-family="sans-serif" font-size="13" font-weight="bold" lengthAdjust="spacing" textLength="9" x="41" y="144.6606">1</text><text fill="#000000" font-family="sans-serif" font-size="13" lengthAdjust="spacing" textLength="322" x="54" y="144.6606">user searches for the items needed by the charity</text><polygon fill="#181818" points="834,174.8594,844,178.8594,834,182.8594,838,178.8594" style="stroke:#181818;stroke-width:1.0;"/><line style="stroke:#181818;stroke-width:1.0;" x1="398" x2="840" y1="178.8594" y2="178.8594"/><text fill="#000000" font-family="sans-serif" font-size="13" font-weight="bold" lengthAdjust="spacing" textLength="9" x="405" y="173.7935">2</text><text fill="#000000" font-family="sans-serif" font-size="13" lengthAdjust="spacing" textLength="280" x="418" y="173.7935">search query is sent to the lambda function</text><polygon fill="#181818" points="1279,203.9922,1289,207.9922,1279,211.9922,1283,207.9922" style="stroke:#181818;stroke-width:1.0;"/><line style="stroke:#181818;stroke-width:1.0;" x1="856" x2="1285" y1="207.9922" y2="207.9922"/><text fill="#000000" font-family="sans-serif" font-size="13" font-weight="bold" lengthAdjust="spacing" textLength="8" x="863" y="202.9263">3</text><text fill="#000000" font-family="sans-serif" font-size="13" lengthAdjust="spacing" textLength="404" x="875" y="202.9263">makes a call to the SERP API and returns the results from ebay</text><polygon fill="#181818" points="867,233.125,857,237.125,867,241.125,863,237.125" style="stroke:#181818;stroke-width:1.0;"/><line style="stroke:#181818;stroke-width:1.0;stroke-dasharray:2.0,2.0;" x1="861" x2="1295" y1="237.125" y2="237.125"/><text fill="#000000" font-family="sans-serif" font-size="13" font-weight="bold" lengthAdjust="spacing" textLength="9" x="873" y="232.0591">4</text><text fill="#000000" font-family="sans-serif" font-size="13" lengthAdjust="spacing" textLength="18" x="886" y="232.0591">OK</text><polygon fill="#181818" points="409,262.2578,399,266.2578,409,270.2578,405,266.2578" style="stroke:#181818;stroke-width:1.0;"/><line style="stroke:#181818;stroke-width:1.0;stroke-dasharray:2.0,2.0;" x1="403" x2="850" y1="266.2578" y2="266.2578"/><text fill="#000000" font-family="sans-serif" font-size="13" font-weight="bold" lengthAdjust="spacing" textLength="9" x="415" y="261.1919">5</text><text fill="#000000" font-family="sans-serif" font-size="13" lengthAdjust="spacing" textLength="18" x="428" y="261.1919">OK</text><polygon fill="#181818" points="45,291.3906,35,295.3906,45,299.3906,41,295.3906" style="stroke:#181818;stroke-width:1.0;"/><line style="stroke:#181818;stroke-width:1.0;stroke-dasharray:2.0,2.0;" x1="39" x2="392" y1="295.3906" y2="295.3906"/><text fill="#000000" font-family="sans-serif" font-size="13" font-weight="bold" lengthAdjust="spacing" textLength="9" x="51" y="290.3247">6</text><text fill="#000000" font-family="sans-serif" font-size="13" lengthAdjust="spacing" textLength="221" x="64" y="290.3247">results from the search from ebay</text><polygon fill="#181818" points="376,320.5234,386,324.5234,376,328.5234,380,324.5234" style="stroke:#181818;stroke-width:1.0;"/><line style="stroke:#181818;stroke-width:1.0;" x1="34" x2="382" y1="324.5234" y2="324.5234"/><text fill="#000000" font-family="sans-serif" font-size="13" font-weight="bold" lengthAdjust="spacing" textLength="9" x="41" y="319.4575">7</text><text fill="#000000" font-family="sans-serif" font-size="13" lengthAdjust="spacing" textLength="298" x="54" y="319.4575">user confirms the items needed by the charity</text><polygon fill="#181818" points="834,349.6563,844,353.6563,834,357.6563,838,353.6563" style="stroke:#181818;stroke-width:1.0;"/><line style="stroke:#181818;stroke-width:1.0;" x1="398" x2="840" y1="353.6563" y2="353.6563"/><text fill="#000000" font-family="sans-serif" font-size="13" font-weight="bold" lengthAdjust="spacing" textLength="9" x="405" y="348.5903">8</text><text fill="#000000" font-family="sans-serif" font-size="13" lengthAdjust="spacing" textLength="416" x="418" y="348.5903">list of items needed by the charity is sent to the lambda function</text><polygon fill="#181818" points="1373,378.7891,1383,382.7891,1373,386.7891,1377,382.7891" style="stroke:#181818;stroke-width:1.0;"/><line style="stroke:#181818;stroke-width:1.0;" x1="856" x2="1379" y1="382.7891" y2="382.7891"/><text fill="#000000" font-family="sans-serif" font-size="13" font-weight="bold" lengthAdjust="spacing" textLength="9" x="863" y="377.7231">9</text><text fill="#000000" font-family="sans-serif" font-size="13" lengthAdjust="spacing" textLength="199" x="876" y="377.7231">authorize with the "Square API"</text><polygon fill="#181818" points="867,407.9219,857,411.9219,867,415.9219,863,411.9219" style="stroke:#181818;stroke-width:1.0;"/><line style="stroke:#181818;stroke-width:1.0;stroke-dasharray:2.0,2.0;" x1="861" x2="1389" y1="411.9219" y2="411.9219"/><text fill="#000000" font-family="sans-serif" font-size="13" font-weight="bold" lengthAdjust="spacing" textLength="19" x="873" y="406.856">10</text><text fill="#000000" font-family="sans-serif" font-size="13" lengthAdjust="spacing" textLength="18" x="896" y="406.856">OK</text><polygon fill="#181818" points="1373,437.0547,1383,441.0547,1373,445.0547,1377,441.0547" style="stroke:#181818;stroke-width:1.0;"/><line style="stroke:#181818;stroke-width:1.0;" x1="856" x2="1379" y1="441.0547" y2="441.0547"/><text fill="#000000" font-family="sans-serif" font-size="13" font-weight="bold" lengthAdjust="spacing" textLength="18" x="863" y="435.9888">11</text><text fill="#000000" font-family="sans-serif" font-size="13" lengthAdjust="spacing" textLength="391" x="885" y="435.9888">the list of items needed by the charity is sent to "Square API"</text><polygon fill="#181818" points="867,466.1875,857,470.1875,867,474.1875,863,470.1875" style="stroke:#181818;stroke-width:1.0;"/><line style="stroke:#181818;stroke-width:1.0;stroke-dasharray:2.0,2.0;" x1="861" x2="1389" y1="470.1875" y2="470.1875"/><text fill="#000000" font-family="sans-serif" font-size="13" font-weight="bold" lengthAdjust="spacing" textLength="18" x="873" y="465.1216">12</text><text fill="#000000" font-family="sans-serif" font-size="13" lengthAdjust="spacing" textLength="18" x="895" y="465.1216">OK</text><polygon fill="#181818" points="1497,495.3203,1507,499.3203,1497,503.3203,1501,499.3203" style="stroke:#181818;stroke-width:1.0;"/><line style="stroke:#181818;stroke-width:1.0;" x1="856" x2="1503" y1="499.3203" y2="499.3203"/><text fill="#000000" font-family="sans-serif" font-size="13" font-weight="bold" lengthAdjust="spacing" textLength="17" x="863" y="494.2544">13</text><text fill="#000000" font-family="sans-serif" font-size="13" lengthAdjust="spacing" textLength="567" x="884" y="494.2544">the list of items needed by the charity is sent to the database and the results are stored</text><polygon fill="#181818" points="867,524.4531,857,528.4531,867,532.4531,863,528.4531" style="stroke:#181818;stroke-width:1.0;"/><line style="stroke:#181818;stroke-width:1.0;stroke-dasharray:2.0,2.0;" x1="861" x2="1513" y1="528.4531" y2="528.4531"/><text fill="#000000" font-family="sans-serif" font-size="13" font-weight="bold" lengthAdjust="spacing" textLength="18" x="873" y="523.3872">14</text><text fill="#000000" font-family="sans-serif" font-size="13" lengthAdjust="spacing" textLength="18" x="895" y="523.3872">OK</text><polygon fill="#181818" points="409,553.5859,399,557.5859,409,561.5859,405,557.5859" style="stroke:#181818;stroke-width:1.0;"/><line style="stroke:#181818;stroke-width:1.0;stroke-dasharray:2.0,2.0;" x1="403" x2="850" y1="557.5859" y2="557.5859"/><text fill="#000000" font-family="sans-serif" font-size="13" font-weight="bold" lengthAdjust="spacing" textLength="18" x="415" y="552.52">15</text><text fill="#000000" font-family="sans-serif" font-size="13" lengthAdjust="spacing" textLength="18" x="437" y="552.52">OK</text><polygon fill="#181818" points="45,582.7188,35,586.7188,45,590.7188,41,586.7188" style="stroke:#181818;stroke-width:1.0;"/><line style="stroke:#181818;stroke-width:1.0;stroke-dasharray:2.0,2.0;" x1="39" x2="392" y1="586.7188" y2="586.7188"/><text fill="#000000" font-family="sans-serif" font-size="13" font-weight="bold" lengthAdjust="spacing" textLength="18" x="51" y="581.6528">16</text><text fill="#000000" font-family="sans-serif" font-size="13" lengthAdjust="spacing" textLength="148" x="73" y="581.6528">success or failure page</text><rect height="11.6406" id="_title" style="stroke:#00000000;stroke-width:1.0;fill:none;" width="61" x="763" y="681.0156"/><text fill="#888888" font-family="sans-serif" font-size="10" lengthAdjust="spacing" textLength="61" x="763" y="690.2979">Page 1 of 1</text><!--MD5=[14cb8b7dec7025fd31bc4197e670983e]
@startuml
title "Sequence Diagram for help us (CHARITY)"
footer Page %page% of %lastpage%

autonumber
autoactivate on

actor Charity as charity

participant "help us App" as help_us_app

participant "AWS Lambda Function" as api_lambda

participant "SERP API" as boundary_serp_api

participant "Square API" as boundary_square_api

database "Listings: Database" as db_listings

charity -> help_us_app #008037 : user searches for the items needed by the charity

help_us_app -> api_lambda #008037 : search query is sent to the lambda function

api_lambda -> boundary_serp_api #008037 : makes a call to the SERP API and returns the results from ebay

return OK

return OK

return results from the search from ebay

charity -> help_us_app : user confirms the items needed by the charity

help_us_app -> api_lambda #008037 : list of items needed by the charity is sent to the lambda function

api_lambda -> boundary_square_api : authorize with the "Square API"

return OK

api_lambda -> boundary_square_api : the list of items needed by the charity is sent to "Square API"

return OK


api_lambda -> db_listings : the list of items needed by the charity is sent to the database and the results are stored

return OK

return OK

return success or failure page
@enduml

PlantUML version 1.2022.7beta1(Unknown compile time)
(GPL source distribution)
Java Runtime: Java(TM) SE Runtime Environment
JVM: Java HotSpot(TM) 64-Bit Server VM
Default Encoding: UTF-8
Language: en
Country: US
--></g></svg>