<?xml version="1.0" encoding="UTF-8" standalone="no"?><svg xmlns="http://www.w3.org/2000/svg" xmlns:xlink="http://www.w3.org/1999/xlink" contentStyleType="text/css" height="642px" preserveAspectRatio="none" style="width:1471px;height:642px;background:#FFFFFF;" version="1.1" viewBox="0 0 1471 642" width="1471px" zoomAndPan="magnify"><defs/><g><rect height="26.2969" style="stroke:#00000000;stroke-width:1.0;fill:none;" width="326" x="574" y="10"/><text fill="#000000" font-family="sans-serif" font-size="14" font-weight="bold" lengthAdjust="spacing" textLength="316" x="579" y="27.9951">Sequence Diagram for help us (DONOR)</text><rect fill="#008037" height="145.6641" style="stroke:#181818;stroke-width:1.0;" width="10" x="374" y="149.7266"/><rect fill="#FFFFFF" height="203.9297" style="stroke:#181818;stroke-width:1.0;" width="10" x="374" y="324.5234"/><rect fill="#FFFFFF" height="145.6641" style="stroke:#181818;stroke-width:1.0;" width="10" x="695" y="353.6563"/><rect fill="#008037" height="87.3984" style="stroke:#181818;stroke-width:1.0;" width="10" x="1119" y="178.8594"/><rect fill="#FFFFFF" height="29.1328" style="stroke:#181818;stroke-width:1.0;" width="10" x="1119" y="441.0547"/><rect fill="#FFFFFF" height="29.1328" style="stroke:#181818;stroke-width:1.0;" width="10" x="1262" y="382.7891"/><rect fill="#008037" height="29.1328" style="stroke:#181818;stroke-width:1.0;" width="10" x="1396" y="207.9922"/><line style="stroke:#181818;stroke-width:0.5;stroke-dasharray:5.0,5.0;" x1="30" x2="30" y1="118.5938" y2="546.4531"/><line style="stroke:#181818;stroke-width:0.5;stroke-dasharray:5.0,5.0;" x1="378.5" x2="378.5" y1="118.5938" y2="546.4531"/><line style="stroke:#181818;stroke-width:0.5;stroke-dasharray:5.0,5.0;" x1="700" x2="700" y1="118.5938" y2="546.4531"/><line style="stroke:#181818;stroke-width:0.5;stroke-dasharray:5.0,5.0;" x1="1124" x2="1124" y1="118.5938" y2="546.4531"/><line style="stroke:#181818;stroke-width:0.5;stroke-dasharray:5.0,5.0;" x1="1267" x2="1267" y1="118.5938" y2="546.4531"/><line style="stroke:#181818;stroke-width:0.5;stroke-dasharray:5.0,5.0;" x1="1401" x2="1401" y1="118.5938" y2="546.4531"/><text fill="#000000" font-family="sans-serif" font-size="14" lengthAdjust="spacing" textLength="44" x="5" y="115.292">Donor</text><ellipse cx="30" cy="50.7969" fill="#E2E2F0" rx="8" ry="8" style="stroke:#181818;stroke-width:0.5;"/><path d="M30,58.7969 L30,85.7969 M17,66.7969 L43,66.7969 M30,85.7969 L17,100.7969 M30,85.7969 L43,100.7969 " fill="none" style="stroke:#181818;stroke-width:0.5;"/><text fill="#000000" font-family="sans-serif" font-size="14" lengthAdjust="spacing" textLength="44" x="5" y="558.4482">Donor</text><ellipse cx="30" cy="570.25" fill="#E2E2F0" rx="8" ry="8" style="stroke:#181818;stroke-width:0.5;"/><path d="M30,578.25 L30,605.25 M17,586.25 L43,586.25 M30,605.25 L17,620.25 M30,605.25 L43,620.25 " fill="none" style="stroke:#181818;stroke-width:0.5;"/><rect fill="#E2E2F0" height="30.2969" rx="2.5" ry="2.5" style="stroke:#181818;stroke-width:0.5;" width="99" x="329.5" y="87.2969"/><text fill="#000000" font-family="sans-serif" font-size="14" lengthAdjust="spacing" textLength="85" x="336.5" y="107.292">help us App</text><rect fill="#E2E2F0" height="30.2969" rx="2.5" ry="2.5" style="stroke:#181818;stroke-width:0.5;" width="99" x="329.5" y="545.4531"/><text fill="#000000" font-family="sans-serif" font-size="14" lengthAdjust="spacing" textLength="85" x="336.5" y="565.4482">help us App</text><rect fill="#E2E2F0" height="30.2969" rx="2.5" ry="2.5" style="stroke:#181818;stroke-width:0.5;" width="174" x="613" y="87.2969"/><text fill="#000000" font-family="sans-serif" font-size="14" lengthAdjust="spacing" textLength="160" x="620" y="107.292">AWS Lambda Function</text><rect fill="#E2E2F0" height="30.2969" rx="2.5" ry="2.5" style="stroke:#181818;stroke-width:0.5;" width="174" x="613" y="545.4531"/><text fill="#000000" font-family="sans-serif" font-size="14" lengthAdjust="spacing" textLength="160" x="620" y="565.4482">AWS Lambda Function</text><rect fill="#E2E2F0" height="30.2969" rx="2.5" ry="2.5" style="stroke:#181818;stroke-width:0.5;" width="176" x="1036" y="87.2969"/><text fill="#000000" font-family="sans-serif" font-size="14" lengthAdjust="spacing" textLength="162" x="1043" y="107.292">Directus Headless CMS</text><rect fill="#E2E2F0" height="30.2969" rx="2.5" ry="2.5" style="stroke:#181818;stroke-width:0.5;" width="176" x="1036" y="545.4531"/><text fill="#000000" font-family="sans-serif" font-size="14" lengthAdjust="spacing" textLength="162" x="1043" y="565.4482">Directus Headless CMS</text><rect fill="#E2E2F0" height="30.2969" rx="2.5" ry="2.5" style="stroke:#181818;stroke-width:0.5;" width="90" x="1222" y="87.2969"/><text fill="#000000" font-family="sans-serif" font-size="14" lengthAdjust="spacing" textLength="76" x="1229" y="107.292">Square API</text><rect fill="#E2E2F0" height="30.2969" rx="2.5" ry="2.5" style="stroke:#181818;stroke-width:0.5;" width="90" x="1222" y="545.4531"/><text fill="#000000" font-family="sans-serif" font-size="14" lengthAdjust="spacing" textLength="76" x="1229" y="565.4482">Square API</text><text fill="#000000" font-family="sans-serif" font-size="14" lengthAdjust="spacing" textLength="132" x="1332" y="115.292">Listings: Database</text><path d="M1383,66.2969 C1383,56.2969 1401,56.2969 1401,56.2969 C1401,56.2969 1419,56.2969 1419,66.2969 L1419,92.2969 C1419,102.2969 1401,102.2969 1401,102.2969 C1401,102.2969 1383,102.2969 1383,92.2969 L1383,66.2969 " fill="#E2E2F0" style="stroke:#181818;stroke-width:1.5;"/><path d="M1383,66.2969 C1383,76.2969 1401,76.2969 1401,76.2969 C1401,76.2969 1419,76.2969 1419,66.2969 " fill="none" style="stroke:#181818;stroke-width:1.5;"/><text fill="#000000" font-family="sans-serif" font-size="14" lengthAdjust="spacing" textLength="132" x="1332" y="558.4482">Listings: Database</text><path d="M1383,571.75 C1383,561.75 1401,561.75 1401,561.75 C1401,561.75 1419,561.75 1419,571.75 L1419,597.75 C1419,607.75 1401,607.75 1401,607.75 C1401,607.75 1383,607.75 1383,597.75 L1383,571.75 " fill="#E2E2F0" style="stroke:#181818;stroke-width:1.5;"/><path d="M1383,571.75 C1383,581.75 1401,581.75 1401,581.75 C1401,581.75 1419,581.75 1419,571.75 " fill="none" style="stroke:#181818;stroke-width:1.5;"/><rect fill="#008037" height="145.6641" style="stroke:#181818;stroke-width:1.0;" width="10" x="374" y="149.7266"/><rect fill="#FFFFFF" height="203.9297" style="stroke:#181818;stroke-width:1.0;" width="10" x="374" y="324.5234"/><rect fill="#FFFFFF" height="145.6641" style="stroke:#181818;stroke-width:1.0;" width="10" x="695" y="353.6563"/><rect fill="#008037" height="87.3984" style="stroke:#181818;stroke-width:1.0;" width="10" x="1119" y="178.8594"/><rect fill="#FFFFFF" height="29.1328" style="stroke:#181818;stroke-width:1.0;" width="10" x="1119" y="441.0547"/><rect fill="#FFFFFF" height="29.1328" style="stroke:#181818;stroke-width:1.0;" width="10" x="1262" y="382.7891"/><rect fill="#008037" height="29.1328" style="stroke:#181818;stroke-width:1.0;" width="10" x="1396" y="207.9922"/><polygon fill="#181818" points="362,145.7266,372,149.7266,362,153.7266,366,149.7266" style="stroke:#181818;stroke-width:1.0;"/><line style="stroke:#181818;stroke-width:1.0;" x1="30" x2="368" y1="149.7266" y2="149.7266"/><text fill="#000000" font-family="sans-serif" font-size="13" font-weight="bold" lengthAdjust="spacing" textLength="9" x="37" y="144.6606">1</text><text fill="#000000" font-family="sans-serif" font-size="13" lengthAdjust="spacing" textLength="312" x="50" y="144.6606">user searches for the charity they want to assist</text><polygon fill="#181818" points="1107,174.8594,1117,178.8594,1107,182.8594,1111,178.8594" style="stroke:#181818;stroke-width:1.0;"/><line style="stroke:#181818;stroke-width:1.0;" x1="384" x2="1113" y1="178.8594" y2="178.8594"/><text fill="#000000" font-family="sans-serif" font-size="13" font-weight="bold" lengthAdjust="spacing" textLength="9" x="391" y="173.7935">2</text><text fill="#000000" font-family="sans-serif" font-size="13" lengthAdjust="spacing" textLength="250" x="404" y="173.7935">search query is sent to the directus api</text><polygon fill="#181818" points="1384,203.9922,1394,207.9922,1384,211.9922,1388,207.9922" style="stroke:#181818;stroke-width:1.0;"/><line style="stroke:#181818;stroke-width:1.0;" x1="1129" x2="1390" y1="207.9922" y2="207.9922"/><text fill="#000000" font-family="sans-serif" font-size="13" font-weight="bold" lengthAdjust="spacing" textLength="8" x="1136" y="202.9263">3</text><text fill="#000000" font-family="sans-serif" font-size="13" lengthAdjust="spacing" textLength="236" x="1148" y="202.9263">search query is sent to the database</text><polygon fill="#181818" points="1140,233.125,1130,237.125,1140,241.125,1136,237.125" style="stroke:#181818;stroke-width:1.0;"/><line style="stroke:#181818;stroke-width:1.0;stroke-dasharray:2.0,2.0;" x1="1134" x2="1400" y1="237.125" y2="237.125"/><text fill="#000000" font-family="sans-serif" font-size="13" font-weight="bold" lengthAdjust="spacing" textLength="9" x="1146" y="232.0591">4</text><text fill="#000000" font-family="sans-serif" font-size="13" lengthAdjust="spacing" textLength="43" x="1159" y="232.0591">results</text><polygon fill="#181818" points="395,262.2578,385,266.2578,395,270.2578,391,266.2578" style="stroke:#181818;stroke-width:1.0;"/><line style="stroke:#181818;stroke-width:1.0;stroke-dasharray:2.0,2.0;" x1="389" x2="1123" y1="266.2578" y2="266.2578"/><text fill="#000000" font-family="sans-serif" font-size="13" font-weight="bold" lengthAdjust="spacing" textLength="9" x="401" y="261.1919">5</text><text fill="#000000" font-family="sans-serif" font-size="13" lengthAdjust="spacing" textLength="18" x="414" y="261.1919">OK</text><polygon fill="#181818" points="41,291.3906,31,295.3906,41,299.3906,37,295.3906" style="stroke:#181818;stroke-width:1.0;"/><line style="stroke:#181818;stroke-width:1.0;stroke-dasharray:2.0,2.0;" x1="35" x2="378" y1="295.3906" y2="295.3906"/><text fill="#000000" font-family="sans-serif" font-size="13" font-weight="bold" lengthAdjust="spacing" textLength="9" x="47" y="290.3247">6</text><text fill="#000000" font-family="sans-serif" font-size="13" lengthAdjust="spacing" textLength="90" x="60" y="290.3247">search results</text><polygon fill="#181818" points="362,320.5234,372,324.5234,362,328.5234,366,324.5234" style="stroke:#181818;stroke-width:1.0;"/><line style="stroke:#181818;stroke-width:1.0;" x1="30" x2="368" y1="324.5234" y2="324.5234"/><text fill="#000000" font-family="sans-serif" font-size="13" font-weight="bold" lengthAdjust="spacing" textLength="9" x="37" y="319.4575">7</text><text fill="#000000" font-family="sans-serif" font-size="13" lengthAdjust="spacing" textLength="277" x="50" y="319.4575">user selects the charity they want to assist</text><polygon fill="#181818" points="683,349.6563,693,353.6563,683,357.6563,687,353.6563" style="stroke:#181818;stroke-width:1.0;"/><line style="stroke:#181818;stroke-width:1.0;" x1="384" x2="689" y1="353.6563" y2="353.6563"/><text fill="#000000" font-family="sans-serif" font-size="13" font-weight="bold" lengthAdjust="spacing" textLength="9" x="391" y="348.5903">8</text><text fill="#000000" font-family="sans-serif" font-size="13" lengthAdjust="spacing" textLength="279" x="404" y="348.5903">the list of items the charity needs and price</text><polygon fill="#181818" points="1250,378.7891,1260,382.7891,1250,386.7891,1254,382.7891" style="stroke:#181818;stroke-width:1.0;"/><line style="stroke:#181818;stroke-width:1.0;" x1="705" x2="1256" y1="382.7891" y2="382.7891"/><text fill="#000000" font-family="sans-serif" font-size="13" font-weight="bold" lengthAdjust="spacing" textLength="9" x="712" y="377.7231">9</text><text fill="#000000" font-family="sans-serif" font-size="13" lengthAdjust="spacing" textLength="441" x="725" y="377.7231">the list of items the charity needs and price and makes the payment</text><polygon fill="#181818" points="716,407.9219,706,411.9219,716,415.9219,712,411.9219" style="stroke:#181818;stroke-width:1.0;"/><line style="stroke:#181818;stroke-width:1.0;stroke-dasharray:2.0,2.0;" x1="710" x2="1266" y1="411.9219" y2="411.9219"/><text fill="#000000" font-family="sans-serif" font-size="13" font-weight="bold" lengthAdjust="spacing" textLength="19" x="722" y="406.856">10</text><text fill="#000000" font-family="sans-serif" font-size="13" lengthAdjust="spacing" textLength="18" x="745" y="406.856">OK</text><polygon fill="#181818" points="1107,437.0547,1117,441.0547,1107,445.0547,1111,441.0547" style="stroke:#181818;stroke-width:1.0;"/><line style="stroke:#181818;stroke-width:1.0;" x1="705" x2="1113" y1="441.0547" y2="441.0547"/><text fill="#000000" font-family="sans-serif" font-size="13" font-weight="bold" lengthAdjust="spacing" textLength="18" x="712" y="435.9888">11</text><text fill="#000000" font-family="sans-serif" font-size="13" lengthAdjust="spacing" textLength="373" x="734" y="435.9888">makes callback to the directus api to update the database</text><polygon fill="#181818" points="716,466.1875,706,470.1875,716,474.1875,712,470.1875" style="stroke:#181818;stroke-width:1.0;"/><line style="stroke:#181818;stroke-width:1.0;stroke-dasharray:2.0,2.0;" x1="710" x2="1123" y1="470.1875" y2="470.1875"/><text fill="#000000" font-family="sans-serif" font-size="13" font-weight="bold" lengthAdjust="spacing" textLength="18" x="722" y="465.1216">12</text><text fill="#000000" font-family="sans-serif" font-size="13" lengthAdjust="spacing" textLength="18" x="744" y="465.1216">OK</text><polygon fill="#181818" points="395,495.3203,385,499.3203,395,503.3203,391,499.3203" style="stroke:#181818;stroke-width:1.0;"/><line style="stroke:#181818;stroke-width:1.0;stroke-dasharray:2.0,2.0;" x1="389" x2="699" y1="499.3203" y2="499.3203"/><text fill="#000000" font-family="sans-serif" font-size="13" font-weight="bold" lengthAdjust="spacing" textLength="17" x="401" y="494.2544">13</text><text fill="#000000" font-family="sans-serif" font-size="13" lengthAdjust="spacing" textLength="18" x="422" y="494.2544">OK</text><polygon fill="#181818" points="41,524.4531,31,528.4531,41,532.4531,37,528.4531" style="stroke:#181818;stroke-width:1.0;"/><line style="stroke:#181818;stroke-width:1.0;stroke-dasharray:2.0,2.0;" x1="35" x2="378" y1="528.4531" y2="528.4531"/><text fill="#000000" font-family="sans-serif" font-size="13" font-weight="bold" lengthAdjust="spacing" textLength="18" x="47" y="523.3872">14</text><text fill="#000000" font-family="sans-serif" font-size="13" lengthAdjust="spacing" textLength="18" x="69" y="523.3872">OK</text><rect height="11.6406" style="stroke:#00000000;stroke-width:1.0;fill:none;" width="61" x="706.5" y="622.75"/><text fill="#888888" font-family="sans-serif" font-size="10" lengthAdjust="spacing" textLength="61" x="706.5" y="632.0322">Page 1 of 1</text><!--MD5=[a914129f4310f713c401fc1f8e48e44c]
@startuml
title "Sequence Diagram for help us (DONOR)"
footer Page %page% of %lastpage%

autonumber
autoactivate on

actor Donor as donor

participant "help us App" as help_us_app

participant "AWS Lambda Function" as api_lambda

participant "Directus Headless CMS" as api_directus

participant "Square API" as boundary_square_api

database "Listings: Database" as db_listings


donor -> help_us_app #008037 : user searches for the charity they want to assist

help_us_app -> api_directus #008037 : search query is sent to the directus api

api_directus -> db_listings #008037 : search query is sent to the database

return results

return OK

return search results

donor -> help_us_app : user selects the charity they want to assist

help_us_app -> api_lambda : the list of items the charity needs and price

api_lambda -> boundary_square_api : the list of items the charity needs and price and makes the payment

return OK

api_lambda -> api_directus : makes callback to the directus api to update the database

return OK

return OK

return OK
@enduml

PlantUML version 1.2022.6beta5(Unknown compile time)
(GPL source distribution)
Java Runtime: Java(TM) SE Runtime Environment
JVM: Java HotSpot(TM) 64-Bit Server VM
Default Encoding: UTF-8
Language: en
Country: US
--></g></svg>