<?xml version="1.0" encoding="UTF-8" standalone="no"?><svg xmlns="http://www.w3.org/2000/svg" xmlns:xlink="http://www.w3.org/1999/xlink" contentStyleType="text/css" height="467px" preserveAspectRatio="none" style="width:1510px;height:467px;background:#FFFFFF;" version="1.1" viewBox="0 0 1510 467" width="1510px" zoomAndPan="magnify"><defs/><g><rect height="26.2969" id="_title" style="stroke:#00000000;stroke-width:1.0;fill:none;" width="326" x="593.5" y="10"/><text fill="#000000" font-family="sans-serif" font-size="14" font-weight="bold" lengthAdjust="spacing" textLength="316" x="598.5" y="27.9951">Sequence Diagram for help us (DONOR)</text><rect fill="#FFFFFF" height="203.9297" style="stroke:#181818;stroke-width:1.0;" width="10" x="413" y="149.7266"/><rect fill="#FFFFFF" height="145.6641" style="stroke:#181818;stroke-width:1.0;" width="10" x="753" y="178.8594"/><rect fill="#FFFFFF" height="29.1328" style="stroke:#181818;stroke-width:1.0;" width="10" x="1168" y="266.2578"/><rect fill="#FFFFFF" height="29.1328" style="stroke:#181818;stroke-width:1.0;" width="10" x="1311" y="207.9922"/><line style="stroke:#181818;stroke-width:0.5;stroke-dasharray:5.0,5.0;" x1="30" x2="30" y1="118.5938" y2="371.6563"/><line style="stroke:#181818;stroke-width:0.5;stroke-dasharray:5.0,5.0;" x1="417.5" x2="417.5" y1="118.5938" y2="371.6563"/><line style="stroke:#181818;stroke-width:0.5;stroke-dasharray:5.0,5.0;" x1="758" x2="758" y1="118.5938" y2="371.6563"/><line style="stroke:#181818;stroke-width:0.5;stroke-dasharray:5.0,5.0;" x1="1173" x2="1173" y1="118.5938" y2="371.6563"/><line style="stroke:#181818;stroke-width:0.5;stroke-dasharray:5.0,5.0;" x1="1316" x2="1316" y1="118.5938" y2="371.6563"/><line style="stroke:#181818;stroke-width:0.5;stroke-dasharray:5.0,5.0;" x1="1440" x2="1440" y1="118.5938" y2="371.6563"/><text fill="#000000" font-family="sans-serif" font-size="14" lengthAdjust="spacing" textLength="44" x="5" y="115.292">Donor</text><ellipse cx="30" cy="50.7969" fill="#E2E2F0" rx="8" ry="8" style="stroke:#181818;stroke-width:0.5;"/><path d="M30,58.7969 L30,85.7969 M17,66.7969 L43,66.7969 M30,85.7969 L17,100.7969 M30,85.7969 L43,100.7969 " fill="none" style="stroke:#181818;stroke-width:0.5;"/><text fill="#000000" font-family="sans-serif" font-size="14" lengthAdjust="spacing" textLength="44" x="5" y="383.6514">Donor</text><ellipse cx="30" cy="395.4531" fill="#E2E2F0" rx="8" ry="8" style="stroke:#181818;stroke-width:0.5;"/><path d="M30,403.4531 L30,430.4531 M17,411.4531 L43,411.4531 M30,430.4531 L17,445.4531 M30,430.4531 L43,445.4531 " fill="none" style="stroke:#181818;stroke-width:0.5;"/><rect fill="#E2E2F0" height="30.2969" rx="2.5" ry="2.5" style="stroke:#181818;stroke-width:0.5;" width="99" x="368.5" y="87.2969"/><text fill="#000000" font-family="sans-serif" font-size="14" lengthAdjust="spacing" textLength="85" x="375.5" y="107.292">help us web</text><rect fill="#E2E2F0" height="30.2969" rx="2.5" ry="2.5" style="stroke:#181818;stroke-width:0.5;" width="99" x="368.5" y="370.6563"/><text fill="#000000" font-family="sans-serif" font-size="14" lengthAdjust="spacing" textLength="85" x="375.5" y="390.6514">help us web</text><rect fill="#E2E2F0" height="30.2969" rx="2.5" ry="2.5" style="stroke:#181818;stroke-width:0.5;" width="174" x="671" y="87.2969"/><text fill="#000000" font-family="sans-serif" font-size="14" lengthAdjust="spacing" textLength="160" x="678" y="107.292">AWS Lambda Function</text><rect fill="#E2E2F0" height="30.2969" rx="2.5" ry="2.5" style="stroke:#181818;stroke-width:0.5;" width="174" x="671" y="370.6563"/><text fill="#000000" font-family="sans-serif" font-size="14" lengthAdjust="spacing" textLength="160" x="678" y="390.6514">AWS Lambda Function</text><rect fill="#E2E2F0" height="30.2969" rx="2.5" ry="2.5" style="stroke:#181818;stroke-width:0.5;" width="176" x="1085" y="87.2969"/><text fill="#000000" font-family="sans-serif" font-size="14" lengthAdjust="spacing" textLength="162" x="1092" y="107.292">Directus Headless CMS</text><rect fill="#E2E2F0" height="30.2969" rx="2.5" ry="2.5" style="stroke:#181818;stroke-width:0.5;" width="176" x="1085" y="370.6563"/><text fill="#000000" font-family="sans-serif" font-size="14" lengthAdjust="spacing" textLength="162" x="1092" y="390.6514">Directus Headless CMS</text><rect fill="#E2E2F0" height="30.2969" rx="2.5" ry="2.5" style="stroke:#181818;stroke-width:0.5;" width="90" x="1271" y="87.2969"/><text fill="#000000" font-family="sans-serif" font-size="14" lengthAdjust="spacing" textLength="76" x="1278" y="107.292">Square API</text><rect fill="#E2E2F0" height="30.2969" rx="2.5" ry="2.5" style="stroke:#181818;stroke-width:0.5;" width="90" x="1271" y="370.6563"/><text fill="#000000" font-family="sans-serif" font-size="14" lengthAdjust="spacing" textLength="76" x="1278" y="390.6514">Square API</text><text fill="#000000" font-family="sans-serif" font-size="14" lengthAdjust="spacing" textLength="132" x="1371" y="115.292">Listings: Database</text><path d="M1422,66.2969 C1422,56.2969 1440,56.2969 1440,56.2969 C1440,56.2969 1458,56.2969 1458,66.2969 L1458,92.2969 C1458,102.2969 1440,102.2969 1440,102.2969 C1440,102.2969 1422,102.2969 1422,92.2969 L1422,66.2969 " fill="#E2E2F0" style="stroke:#181818;stroke-width:1.5;"/><path d="M1422,66.2969 C1422,76.2969 1440,76.2969 1440,76.2969 C1440,76.2969 1458,76.2969 1458,66.2969 " fill="none" style="stroke:#181818;stroke-width:1.5;"/><text fill="#000000" font-family="sans-serif" font-size="14" lengthAdjust="spacing" textLength="132" x="1371" y="383.6514">Listings: Database</text><path d="M1422,396.9531 C1422,386.9531 1440,386.9531 1440,386.9531 C1440,386.9531 1458,386.9531 1458,396.9531 L1458,422.9531 C1458,432.9531 1440,432.9531 1440,432.9531 C1440,432.9531 1422,432.9531 1422,422.9531 L1422,396.9531 " fill="#E2E2F0" style="stroke:#181818;stroke-width:1.5;"/><path d="M1422,396.9531 C1422,406.9531 1440,406.9531 1440,406.9531 C1440,406.9531 1458,406.9531 1458,396.9531 " fill="none" style="stroke:#181818;stroke-width:1.5;"/><rect fill="#FFFFFF" height="203.9297" style="stroke:#181818;stroke-width:1.0;" width="10" x="413" y="149.7266"/><rect fill="#FFFFFF" height="145.6641" style="stroke:#181818;stroke-width:1.0;" width="10" x="753" y="178.8594"/><rect fill="#FFFFFF" height="29.1328" style="stroke:#181818;stroke-width:1.0;" width="10" x="1168" y="266.2578"/><rect fill="#FFFFFF" height="29.1328" style="stroke:#181818;stroke-width:1.0;" width="10" x="1311" y="207.9922"/><polygon fill="#181818" points="401,145.7266,411,149.7266,401,153.7266,405,149.7266" style="stroke:#181818;stroke-width:1.0;"/><line style="stroke:#181818;stroke-width:1.0;" x1="30" x2="407" y1="149.7266" y2="149.7266"/><text fill="#000000" font-family="sans-serif" font-size="13" font-weight="bold" lengthAdjust="spacing" textLength="9" x="37" y="144.6606">1</text><text fill="#000000" font-family="sans-serif" font-size="13" lengthAdjust="spacing" textLength="351" x="50" y="144.6606">user selects the campaign and items they want to buy</text><polygon fill="#181818" points="741,174.8594,751,178.8594,741,182.8594,745,178.8594" style="stroke:#181818;stroke-width:1.0;"/><line style="stroke:#181818;stroke-width:1.0;" x1="423" x2="747" y1="178.8594" y2="178.8594"/><text fill="#000000" font-family="sans-serif" font-size="13" font-weight="bold" lengthAdjust="spacing" textLength="9" x="430" y="173.7935">2</text><text fill="#000000" font-family="sans-serif" font-size="13" lengthAdjust="spacing" textLength="298" x="443" y="173.7935">the list of items the non-profit needs and price</text><polygon fill="#181818" points="1299,203.9922,1309,207.9922,1299,211.9922,1303,207.9922" style="stroke:#181818;stroke-width:1.0;"/><line style="stroke:#181818;stroke-width:1.0;" x1="763" x2="1305" y1="207.9922" y2="207.9922"/><text fill="#000000" font-family="sans-serif" font-size="13" font-weight="bold" lengthAdjust="spacing" textLength="8" x="770" y="202.9263">3</text><text fill="#000000" font-family="sans-serif" font-size="13" lengthAdjust="spacing" textLength="460" x="782" y="202.9263">the list of items the non-profit needs and price and makes the payment</text><polygon fill="#181818" points="774,233.125,764,237.125,774,241.125,770,237.125" style="stroke:#181818;stroke-width:1.0;"/><line style="stroke:#181818;stroke-width:1.0;stroke-dasharray:2.0,2.0;" x1="768" x2="1315" y1="237.125" y2="237.125"/><text fill="#000000" font-family="sans-serif" font-size="13" font-weight="bold" lengthAdjust="spacing" textLength="9" x="780" y="232.0591">4</text><text fill="#000000" font-family="sans-serif" font-size="13" lengthAdjust="spacing" textLength="18" x="793" y="232.0591">OK</text><polygon fill="#181818" points="1156,262.2578,1166,266.2578,1156,270.2578,1160,266.2578" style="stroke:#181818;stroke-width:1.0;"/><line style="stroke:#181818;stroke-width:1.0;" x1="763" x2="1162" y1="266.2578" y2="266.2578"/><text fill="#000000" font-family="sans-serif" font-size="13" font-weight="bold" lengthAdjust="spacing" textLength="9" x="770" y="261.1919">5</text><text fill="#000000" font-family="sans-serif" font-size="13" lengthAdjust="spacing" textLength="373" x="783" y="261.1919">makes callback to the directus api to update the database</text><polygon fill="#181818" points="774,291.3906,764,295.3906,774,299.3906,770,295.3906" style="stroke:#181818;stroke-width:1.0;"/><line style="stroke:#181818;stroke-width:1.0;stroke-dasharray:2.0,2.0;" x1="768" x2="1172" y1="295.3906" y2="295.3906"/><text fill="#000000" font-family="sans-serif" font-size="13" font-weight="bold" lengthAdjust="spacing" textLength="9" x="780" y="290.3247">6</text><text fill="#000000" font-family="sans-serif" font-size="13" lengthAdjust="spacing" textLength="18" x="793" y="290.3247">OK</text><polygon fill="#181818" points="434,320.5234,424,324.5234,434,328.5234,430,324.5234" style="stroke:#181818;stroke-width:1.0;"/><line style="stroke:#181818;stroke-width:1.0;stroke-dasharray:2.0,2.0;" x1="428" x2="757" y1="324.5234" y2="324.5234"/><text fill="#000000" font-family="sans-serif" font-size="13" font-weight="bold" lengthAdjust="spacing" textLength="9" x="440" y="319.4575">7</text><text fill="#000000" font-family="sans-serif" font-size="13" lengthAdjust="spacing" textLength="18" x="453" y="319.4575">OK</text><polygon fill="#181818" points="41,349.6563,31,353.6563,41,357.6563,37,353.6563" style="stroke:#181818;stroke-width:1.0;"/><line style="stroke:#181818;stroke-width:1.0;stroke-dasharray:2.0,2.0;" x1="35" x2="417" y1="353.6563" y2="353.6563"/><text fill="#000000" font-family="sans-serif" font-size="13" font-weight="bold" lengthAdjust="spacing" textLength="9" x="47" y="348.5903">8</text><text fill="#000000" font-family="sans-serif" font-size="13" lengthAdjust="spacing" textLength="18" x="60" y="348.5903">OK</text><rect height="11.6406" id="_title" style="stroke:#00000000;stroke-width:1.0;fill:none;" width="61" x="726" y="447.9531"/><text fill="#888888" font-family="sans-serif" font-size="10" lengthAdjust="spacing" textLength="61" x="726" y="457.2354">Page 1 of 1</text><!--MD5=[c629e266f05340ece405bc85c3b27686]
@startuml
title "Sequence Diagram for help us (DONOR)"
footer Page %page% of %lastpage%

autonumber
autoactivate on

actor Donor as donor

participant "help us web" as help_us_web

participant "AWS Lambda Function" as api_lambda

participant "Directus Headless CMS" as api_directus

participant "Square API" as boundary_square_api

database "Listings: Database" as db_listings


donor -> help_us_web : user selects the campaign and items they want to buy

help_us_web -> api_lambda : the list of items the non-profit needs and price

api_lambda -> boundary_square_api : the list of items the non-profit needs and price and makes the payment

return OK

api_lambda -> api_directus : makes callback to the directus api to update the database

return OK

return OK

return OK
@enduml

PlantUML version 1.2022.7beta11(Unknown compile time)
(GPL source distribution)
Java Runtime: Java(TM) SE Runtime Environment
JVM: Java HotSpot(TM) 64-Bit Server VM
Default Encoding: UTF-8
Language: en
Country: US
--></g></svg>