<?xml version="1.0" encoding="UTF-8" standalone="no"?><svg xmlns="http://www.w3.org/2000/svg" xmlns:xlink="http://www.w3.org/1999/xlink" contentStyleType="text/css" height="584px" preserveAspectRatio="none" style="width:1409px;height:584px;background:#FFFFFF;" version="1.1" viewBox="0 0 1409 584" width="1409px" zoomAndPan="magnify"><defs/><g><rect height="26.2969" style="stroke:#00000000;stroke-width:1.0;fill:none;" width="338" x="537" y="10"/><text fill="#000000" font-family="sans-serif" font-size="14" font-weight="bold" lengthAdjust="spacing" textLength="328" x="542" y="27.9951">Sequence Diagram for help us (CHARITY)</text><rect fill="#008037" height="145.6641" style="stroke:#181818;stroke-width:1.0;" width="10" x="388" y="149.7266"/><rect fill="#FFFFFF" height="145.6641" style="stroke:#181818;stroke-width:1.0;" width="10" x="388" y="324.5234"/><rect fill="#008037" height="87.3984" style="stroke:#181818;stroke-width:1.0;" width="10" x="710" y="178.8594"/><rect fill="#FFFFFF" height="87.3984" style="stroke:#181818;stroke-width:1.0;" width="10" x="895" y="353.6563"/><rect fill="#008037" height="29.1328" style="stroke:#181818;stroke-width:1.0;" width="10" x="1155" y="207.9922"/><rect fill="#FFFFFF" height="29.1328" style="stroke:#181818;stroke-width:1.0;" width="10" x="1334" y="382.7891"/><line style="stroke:#181818;stroke-width:0.5;stroke-dasharray:5.0,5.0;" x1="34" x2="34" y1="118.5938" y2="488.1875"/><line style="stroke:#181818;stroke-width:0.5;stroke-dasharray:5.0,5.0;" x1="392.5" x2="392.5" y1="118.5938" y2="488.1875"/><line style="stroke:#181818;stroke-width:0.5;stroke-dasharray:5.0,5.0;" x1="715" x2="715" y1="118.5938" y2="488.1875"/><line style="stroke:#181818;stroke-width:0.5;stroke-dasharray:5.0,5.0;" x1="900" x2="900" y1="118.5938" y2="488.1875"/><line style="stroke:#181818;stroke-width:0.5;stroke-dasharray:5.0,5.0;" x1="1160" x2="1160" y1="118.5938" y2="488.1875"/><line style="stroke:#181818;stroke-width:0.5;stroke-dasharray:5.0,5.0;" x1="1339" x2="1339" y1="118.5938" y2="488.1875"/><text fill="#000000" font-family="sans-serif" font-size="14" lengthAdjust="spacing" textLength="52" x="5" y="115.292">Charity</text><ellipse cx="34" cy="50.7969" fill="#E2E2F0" rx="8" ry="8" style="stroke:#181818;stroke-width:0.5;"/><path d="M34,58.7969 L34,85.7969 M21,66.7969 L47,66.7969 M34,85.7969 L21,100.7969 M34,85.7969 L47,100.7969 " fill="none" style="stroke:#181818;stroke-width:0.5;"/><text fill="#000000" font-family="sans-serif" font-size="14" lengthAdjust="spacing" textLength="52" x="5" y="500.1826">Charity</text><ellipse cx="34" cy="511.9844" fill="#E2E2F0" rx="8" ry="8" style="stroke:#181818;stroke-width:0.5;"/><path d="M34,519.9844 L34,546.9844 M21,527.9844 L47,527.9844 M34,546.9844 L21,561.9844 M34,546.9844 L47,561.9844 " fill="none" style="stroke:#181818;stroke-width:0.5;"/><rect fill="#E2E2F0" height="30.2969" rx="2.5" ry="2.5" style="stroke:#181818;stroke-width:0.5;" width="99" x="343.5" y="87.2969"/><text fill="#000000" font-family="sans-serif" font-size="14" lengthAdjust="spacing" textLength="85" x="350.5" y="107.292">help us App</text><rect fill="#E2E2F0" height="30.2969" rx="2.5" ry="2.5" style="stroke:#181818;stroke-width:0.5;" width="99" x="343.5" y="487.1875"/><text fill="#000000" font-family="sans-serif" font-size="14" lengthAdjust="spacing" textLength="85" x="350.5" y="507.1826">help us App</text><rect fill="#E2E2F0" height="30.2969" rx="2.5" ry="2.5" style="stroke:#181818;stroke-width:0.5;" width="174" x="628" y="87.2969"/><text fill="#000000" font-family="sans-serif" font-size="14" lengthAdjust="spacing" textLength="160" x="635" y="107.292">AWS Lambda Function</text><rect fill="#E2E2F0" height="30.2969" rx="2.5" ry="2.5" style="stroke:#181818;stroke-width:0.5;" width="174" x="628" y="487.1875"/><text fill="#000000" font-family="sans-serif" font-size="14" lengthAdjust="spacing" textLength="160" x="635" y="507.1826">AWS Lambda Function</text><rect fill="#E2E2F0" height="30.2969" rx="2.5" ry="2.5" style="stroke:#181818;stroke-width:0.5;" width="176" x="812" y="87.2969"/><text fill="#000000" font-family="sans-serif" font-size="14" lengthAdjust="spacing" textLength="162" x="819" y="107.292">Directus Headless CMS</text><rect fill="#E2E2F0" height="30.2969" rx="2.5" ry="2.5" style="stroke:#181818;stroke-width:0.5;" width="176" x="812" y="487.1875"/><text fill="#000000" font-family="sans-serif" font-size="14" lengthAdjust="spacing" textLength="162" x="819" y="507.1826">Directus Headless CMS</text><rect fill="#E2E2F0" height="30.2969" rx="2.5" ry="2.5" style="stroke:#181818;stroke-width:0.5;" width="78" x="1121" y="87.2969"/><text fill="#000000" font-family="sans-serif" font-size="14" lengthAdjust="spacing" textLength="64" x="1128" y="107.292">SERP API</text><rect fill="#E2E2F0" height="30.2969" rx="2.5" ry="2.5" style="stroke:#181818;stroke-width:0.5;" width="78" x="1121" y="487.1875"/><text fill="#000000" font-family="sans-serif" font-size="14" lengthAdjust="spacing" textLength="64" x="1128" y="507.1826">SERP API</text><text fill="#000000" font-family="sans-serif" font-size="14" lengthAdjust="spacing" textLength="132" x="1270" y="115.292">Listings: Database</text><path d="M1321,66.2969 C1321,56.2969 1339,56.2969 1339,56.2969 C1339,56.2969 1357,56.2969 1357,66.2969 L1357,92.2969 C1357,102.2969 1339,102.2969 1339,102.2969 C1339,102.2969 1321,102.2969 1321,92.2969 L1321,66.2969 " fill="#E2E2F0" style="stroke:#181818;stroke-width:1.5;"/><path d="M1321,66.2969 C1321,76.2969 1339,76.2969 1339,76.2969 C1339,76.2969 1357,76.2969 1357,66.2969 " fill="none" style="stroke:#181818;stroke-width:1.5;"/><text fill="#000000" font-family="sans-serif" font-size="14" lengthAdjust="spacing" textLength="132" x="1270" y="500.1826">Listings: Database</text><path d="M1321,513.4844 C1321,503.4844 1339,503.4844 1339,503.4844 C1339,503.4844 1357,503.4844 1357,513.4844 L1357,539.4844 C1357,549.4844 1339,549.4844 1339,549.4844 C1339,549.4844 1321,549.4844 1321,539.4844 L1321,513.4844 " fill="#E2E2F0" style="stroke:#181818;stroke-width:1.5;"/><path d="M1321,513.4844 C1321,523.4844 1339,523.4844 1339,523.4844 C1339,523.4844 1357,523.4844 1357,513.4844 " fill="none" style="stroke:#181818;stroke-width:1.5;"/><rect fill="#008037" height="145.6641" style="stroke:#181818;stroke-width:1.0;" width="10" x="388" y="149.7266"/><rect fill="#FFFFFF" height="145.6641" style="stroke:#181818;stroke-width:1.0;" width="10" x="388" y="324.5234"/><rect fill="#008037" height="87.3984" style="stroke:#181818;stroke-width:1.0;" width="10" x="710" y="178.8594"/><rect fill="#FFFFFF" height="87.3984" style="stroke:#181818;stroke-width:1.0;" width="10" x="895" y="353.6563"/><rect fill="#008037" height="29.1328" style="stroke:#181818;stroke-width:1.0;" width="10" x="1155" y="207.9922"/><rect fill="#FFFFFF" height="29.1328" style="stroke:#181818;stroke-width:1.0;" width="10" x="1334" y="382.7891"/><polygon fill="#181818" points="376,145.7266,386,149.7266,376,153.7266,380,149.7266" style="stroke:#181818;stroke-width:1.0;"/><line style="stroke:#181818;stroke-width:1.0;" x1="34" x2="382" y1="149.7266" y2="149.7266"/><text fill="#000000" font-family="sans-serif" font-size="13" font-weight="bold" lengthAdjust="spacing" textLength="9" x="41" y="144.6606">1</text><text fill="#000000" font-family="sans-serif" font-size="13" lengthAdjust="spacing" textLength="322" x="54" y="144.6606">user searches for the items needed by the charity</text><polygon fill="#181818" points="698,174.8594,708,178.8594,698,182.8594,702,178.8594" style="stroke:#181818;stroke-width:1.0;"/><line style="stroke:#181818;stroke-width:1.0;" x1="398" x2="704" y1="178.8594" y2="178.8594"/><text fill="#000000" font-family="sans-serif" font-size="13" font-weight="bold" lengthAdjust="spacing" textLength="9" x="405" y="173.7935">2</text><text fill="#000000" font-family="sans-serif" font-size="13" lengthAdjust="spacing" textLength="280" x="418" y="173.7935">search query is sent to the lambda function</text><polygon fill="#181818" points="1143,203.9922,1153,207.9922,1143,211.9922,1147,207.9922" style="stroke:#181818;stroke-width:1.0;"/><line style="stroke:#181818;stroke-width:1.0;" x1="720" x2="1149" y1="207.9922" y2="207.9922"/><text fill="#000000" font-family="sans-serif" font-size="13" font-weight="bold" lengthAdjust="spacing" textLength="8" x="727" y="202.9263">3</text><text fill="#000000" font-family="sans-serif" font-size="13" lengthAdjust="spacing" textLength="404" x="739" y="202.9263">makes a call to the SERP API and returns the results from ebay</text><polygon fill="#181818" points="731,233.125,721,237.125,731,241.125,727,237.125" style="stroke:#181818;stroke-width:1.0;"/><line style="stroke:#181818;stroke-width:1.0;stroke-dasharray:2.0,2.0;" x1="725" x2="1159" y1="237.125" y2="237.125"/><text fill="#000000" font-family="sans-serif" font-size="13" font-weight="bold" lengthAdjust="spacing" textLength="9" x="737" y="232.0591">4</text><text fill="#000000" font-family="sans-serif" font-size="13" lengthAdjust="spacing" textLength="18" x="750" y="232.0591">OK</text><polygon fill="#181818" points="409,262.2578,399,266.2578,409,270.2578,405,266.2578" style="stroke:#181818;stroke-width:1.0;"/><line style="stroke:#181818;stroke-width:1.0;stroke-dasharray:2.0,2.0;" x1="403" x2="714" y1="266.2578" y2="266.2578"/><text fill="#000000" font-family="sans-serif" font-size="13" font-weight="bold" lengthAdjust="spacing" textLength="9" x="415" y="261.1919">5</text><text fill="#000000" font-family="sans-serif" font-size="13" lengthAdjust="spacing" textLength="18" x="428" y="261.1919">OK</text><polygon fill="#181818" points="45,291.3906,35,295.3906,45,299.3906,41,295.3906" style="stroke:#181818;stroke-width:1.0;"/><line style="stroke:#181818;stroke-width:1.0;stroke-dasharray:2.0,2.0;" x1="39" x2="392" y1="295.3906" y2="295.3906"/><text fill="#000000" font-family="sans-serif" font-size="13" font-weight="bold" lengthAdjust="spacing" textLength="9" x="51" y="290.3247">6</text><text fill="#000000" font-family="sans-serif" font-size="13" lengthAdjust="spacing" textLength="221" x="64" y="290.3247">results from the search from ebay</text><polygon fill="#181818" points="376,320.5234,386,324.5234,376,328.5234,380,324.5234" style="stroke:#181818;stroke-width:1.0;"/><line style="stroke:#181818;stroke-width:1.0;" x1="34" x2="382" y1="324.5234" y2="324.5234"/><text fill="#000000" font-family="sans-serif" font-size="13" font-weight="bold" lengthAdjust="spacing" textLength="9" x="41" y="319.4575">7</text><text fill="#000000" font-family="sans-serif" font-size="13" lengthAdjust="spacing" textLength="298" x="54" y="319.4575">user confirms the items needed by the charity</text><polygon fill="#181818" points="883,349.6563,893,353.6563,883,357.6563,887,353.6563" style="stroke:#181818;stroke-width:1.0;"/><line style="stroke:#181818;stroke-width:1.0;" x1="398" x2="889" y1="353.6563" y2="353.6563"/><text fill="#000000" font-family="sans-serif" font-size="13" font-weight="bold" lengthAdjust="spacing" textLength="9" x="405" y="348.5903">8</text><text fill="#000000" font-family="sans-serif" font-size="13" lengthAdjust="spacing" textLength="421" x="418" y="348.5903">the list of items needed by the charity is sent to the Directus CMS</text><polygon fill="#181818" points="1322,378.7891,1332,382.7891,1322,386.7891,1326,382.7891" style="stroke:#181818;stroke-width:1.0;"/><line style="stroke:#181818;stroke-width:1.0;" x1="905" x2="1328" y1="382.7891" y2="382.7891"/><text fill="#000000" font-family="sans-serif" font-size="13" font-weight="bold" lengthAdjust="spacing" textLength="9" x="912" y="377.7231">9</text><text fill="#000000" font-family="sans-serif" font-size="13" lengthAdjust="spacing" textLength="397" x="925" y="377.7231">the list of items needed by the charity is sent to the database</text><polygon fill="#181818" points="916,407.9219,906,411.9219,916,415.9219,912,411.9219" style="stroke:#181818;stroke-width:1.0;"/><line style="stroke:#181818;stroke-width:1.0;stroke-dasharray:2.0,2.0;" x1="910" x2="1338" y1="411.9219" y2="411.9219"/><text fill="#000000" font-family="sans-serif" font-size="13" font-weight="bold" lengthAdjust="spacing" textLength="19" x="922" y="406.856">10</text><text fill="#000000" font-family="sans-serif" font-size="13" lengthAdjust="spacing" textLength="18" x="945" y="406.856">OK</text><polygon fill="#181818" points="409,437.0547,399,441.0547,409,445.0547,405,441.0547" style="stroke:#181818;stroke-width:1.0;"/><line style="stroke:#181818;stroke-width:1.0;stroke-dasharray:2.0,2.0;" x1="403" x2="899" y1="441.0547" y2="441.0547"/><text fill="#000000" font-family="sans-serif" font-size="13" font-weight="bold" lengthAdjust="spacing" textLength="18" x="415" y="435.9888">11</text><text fill="#000000" font-family="sans-serif" font-size="13" lengthAdjust="spacing" textLength="18" x="437" y="435.9888">OK</text><polygon fill="#181818" points="45,466.1875,35,470.1875,45,474.1875,41,470.1875" style="stroke:#181818;stroke-width:1.0;"/><line style="stroke:#181818;stroke-width:1.0;stroke-dasharray:2.0,2.0;" x1="39" x2="392" y1="470.1875" y2="470.1875"/><text fill="#000000" font-family="sans-serif" font-size="13" font-weight="bold" lengthAdjust="spacing" textLength="18" x="51" y="465.1216">12</text><text fill="#000000" font-family="sans-serif" font-size="13" lengthAdjust="spacing" textLength="18" x="73" y="465.1216">OK</text><rect height="11.6406" style="stroke:#00000000;stroke-width:1.0;fill:none;" width="61" x="675.5" y="564.4844"/><text fill="#888888" font-family="sans-serif" font-size="10" lengthAdjust="spacing" textLength="61" x="675.5" y="573.7666">Page 1 of 1</text><!--MD5=[ad757648ef95fad25569370a3568c624]
@startuml
title "Sequence Diagram for help us (CHARITY)"
footer Page %page% of %lastpage%

autonumber
autoactivate on

actor Charity as charity

participant "help us App" as help_us_app

participant "AWS Lambda Function" as api_lambda

participant "Directus Headless CMS" as api_directus

participant "SERP API" as boundary_serp_api

database "Listings: Database" as db_listings


charity -> help_us_app #008037 : user searches for the items needed by the charity

help_us_app -> api_lambda #008037 : search query is sent to the lambda function

api_lambda -> boundary_serp_api #008037 : makes a call to the SERP API and returns the results from ebay

return OK

return OK

return results from the search from ebay

charity -> help_us_app : user confirms the items needed by the charity

help_us_app -> api_directus : the list of items needed by the charity is sent to the Directus CMS

api_directus -> db_listings : the list of items needed by the charity is sent to the database

return OK

return OK

return OK
@enduml

PlantUML version 1.2022.6beta5(Unknown compile time)
(GPL source distribution)
Java Runtime: Java(TM) SE Runtime Environment
JVM: Java HotSpot(TM) 64-Bit Server VM
Default Encoding: UTF-8
Language: en
Country: US
--></g></svg>