<?xml version="1.0" encoding="UTF-8" standalone="no"?><svg xmlns="http://www.w3.org/2000/svg" xmlns:xlink="http://www.w3.org/1999/xlink" contentStyleType="text/css" height="525px" preserveAspectRatio="none" style="width:1365px;height:525px;background:#FFFFFF;" version="1.1" viewBox="0 0 1365 525" width="1365px" zoomAndPan="magnify"><defs/><g><rect height="26.2969" id="_title" style="stroke:#00000000;stroke-width:1.0;fill:none;" width="362" x="503.25" y="10"/><text fill="#000000" font-family="sans-serif" font-size="14" font-weight="bold" lengthAdjust="spacing" textLength="352" x="508.25" y="27.9951">Sequence Diagram for help us (Non-profits)</text><rect fill="#008037" height="87.3984" style="stroke:#181818;stroke-width:1.0;" width="10" x="561.5" y="149.7266"/><rect fill="#FFFFFF" height="145.6641" style="stroke:#181818;stroke-width:1.0;" width="10" x="561.5" y="266.2578"/><rect fill="#008037" height="29.1328" style="stroke:#181818;stroke-width:1.0;" width="10" x="973.5" y="178.8594"/><rect fill="#FFFFFF" height="29.1328" style="stroke:#181818;stroke-width:1.0;" width="10" x="1148" y="295.3906"/><rect fill="#FFFFFF" height="29.1328" style="stroke:#181818;stroke-width:1.0;" width="10" x="1297.5" y="353.6563"/><line style="stroke:#181818;stroke-width:0.5;stroke-dasharray:5.0,5.0;" x1="44" x2="44" y1="118.5938" y2="429.9219"/><line style="stroke:#181818;stroke-width:0.5;stroke-dasharray:5.0,5.0;" x1="566" x2="566" y1="118.5938" y2="429.9219"/><line style="stroke:#181818;stroke-width:0.5;stroke-dasharray:5.0,5.0;" x1="978.5" x2="978.5" y1="118.5938" y2="429.9219"/><line style="stroke:#181818;stroke-width:0.5;stroke-dasharray:5.0,5.0;" x1="1152.5" x2="1152.5" y1="118.5938" y2="429.9219"/><line style="stroke:#181818;stroke-width:0.5;stroke-dasharray:5.0,5.0;" x1="1302.5" x2="1302.5" y1="118.5938" y2="429.9219"/><text fill="#000000" font-family="sans-serif" font-size="14" lengthAdjust="spacing" textLength="73" x="5" y="115.292">Non Profit</text><ellipse cx="44.5" cy="50.7969" fill="#E2E2F0" rx="8" ry="8" style="stroke:#181818;stroke-width:0.5;"/><path d="M44.5,58.7969 L44.5,85.7969 M31.5,66.7969 L57.5,66.7969 M44.5,85.7969 L31.5,100.7969 M44.5,85.7969 L57.5,100.7969 " fill="none" style="stroke:#181818;stroke-width:0.5;"/><text fill="#000000" font-family="sans-serif" font-size="14" lengthAdjust="spacing" textLength="73" x="5" y="441.917">Non Profit</text><ellipse cx="44.5" cy="453.7188" fill="#E2E2F0" rx="8" ry="8" style="stroke:#181818;stroke-width:0.5;"/><path d="M44.5,461.7188 L44.5,488.7188 M31.5,469.7188 L57.5,469.7188 M44.5,488.7188 L31.5,503.7188 M44.5,488.7188 L57.5,503.7188 " fill="none" style="stroke:#181818;stroke-width:0.5;"/><rect fill="#E2E2F0" height="30.2969" rx="2.5" ry="2.5" style="stroke:#181818;stroke-width:0.5;" width="151" x="491" y="87.2969"/><text fill="#000000" font-family="sans-serif" font-size="14" lengthAdjust="spacing" textLength="137" x="498" y="107.292">help us for Chrome</text><rect fill="#E2E2F0" height="30.2969" rx="2.5" ry="2.5" style="stroke:#181818;stroke-width:0.5;" width="151" x="491" y="428.9219"/><text fill="#000000" font-family="sans-serif" font-size="14" lengthAdjust="spacing" textLength="137" x="498" y="448.917">help us for Chrome</text><rect fill="#E2E2F0" height="30.2969" rx="2.5" ry="2.5" style="stroke:#181818;stroke-width:0.5;" width="174" x="891.5" y="87.2969"/><text fill="#000000" font-family="sans-serif" font-size="14" lengthAdjust="spacing" textLength="160" x="898.5" y="107.292">AWS Lambda Function</text><rect fill="#E2E2F0" height="30.2969" rx="2.5" ry="2.5" style="stroke:#181818;stroke-width:0.5;" width="174" x="891.5" y="428.9219"/><text fill="#000000" font-family="sans-serif" font-size="14" lengthAdjust="spacing" textLength="160" x="898.5" y="448.917">AWS Lambda Function</text><text fill="#000000" font-family="sans-serif" font-size="14" lengthAdjust="spacing" textLength="149" x="1075.5" y="115.292">Campaign: Database</text><path d="M1135,66.2969 C1135,56.2969 1153,56.2969 1153,56.2969 C1153,56.2969 1171,56.2969 1171,66.2969 L1171,92.2969 C1171,102.2969 1153,102.2969 1153,102.2969 C1153,102.2969 1135,102.2969 1135,92.2969 L1135,66.2969 " fill="#E2E2F0" style="stroke:#181818;stroke-width:1.5;"/><path d="M1135,66.2969 C1135,76.2969 1153,76.2969 1153,76.2969 C1153,76.2969 1171,76.2969 1171,66.2969 " fill="none" style="stroke:#181818;stroke-width:1.5;"/><text fill="#000000" font-family="sans-serif" font-size="14" lengthAdjust="spacing" textLength="149" x="1075.5" y="441.917">Campaign: Database</text><path d="M1135,455.2188 C1135,445.2188 1153,445.2188 1153,445.2188 C1153,445.2188 1171,445.2188 1171,455.2188 L1171,481.2188 C1171,491.2188 1153,491.2188 1153,491.2188 C1153,491.2188 1135,491.2188 1135,481.2188 L1135,455.2188 " fill="#E2E2F0" style="stroke:#181818;stroke-width:1.5;"/><path d="M1135,455.2188 C1135,465.2188 1153,465.2188 1153,465.2188 C1153,465.2188 1171,465.2188 1171,455.2188 " fill="none" style="stroke:#181818;stroke-width:1.5;"/><text fill="#000000" font-family="sans-serif" font-size="14" lengthAdjust="spacing" textLength="118" x="1240.5" y="115.292">Items: Database</text><path d="M1284.5,66.2969 C1284.5,56.2969 1302.5,56.2969 1302.5,56.2969 C1302.5,56.2969 1320.5,56.2969 1320.5,66.2969 L1320.5,92.2969 C1320.5,102.2969 1302.5,102.2969 1302.5,102.2969 C1302.5,102.2969 1284.5,102.2969 1284.5,92.2969 L1284.5,66.2969 " fill="#E2E2F0" style="stroke:#181818;stroke-width:1.5;"/><path d="M1284.5,66.2969 C1284.5,76.2969 1302.5,76.2969 1302.5,76.2969 C1302.5,76.2969 1320.5,76.2969 1320.5,66.2969 " fill="none" style="stroke:#181818;stroke-width:1.5;"/><text fill="#000000" font-family="sans-serif" font-size="14" lengthAdjust="spacing" textLength="118" x="1240.5" y="441.917">Items: Database</text><path d="M1284.5,455.2188 C1284.5,445.2188 1302.5,445.2188 1302.5,445.2188 C1302.5,445.2188 1320.5,445.2188 1320.5,455.2188 L1320.5,481.2188 C1320.5,491.2188 1302.5,491.2188 1302.5,491.2188 C1302.5,491.2188 1284.5,491.2188 1284.5,481.2188 L1284.5,455.2188 " fill="#E2E2F0" style="stroke:#181818;stroke-width:1.5;"/><path d="M1284.5,455.2188 C1284.5,465.2188 1302.5,465.2188 1302.5,465.2188 C1302.5,465.2188 1320.5,465.2188 1320.5,455.2188 " fill="none" style="stroke:#181818;stroke-width:1.5;"/><rect fill="#008037" height="87.3984" style="stroke:#181818;stroke-width:1.0;" width="10" x="561.5" y="149.7266"/><rect fill="#FFFFFF" height="145.6641" style="stroke:#181818;stroke-width:1.0;" width="10" x="561.5" y="266.2578"/><rect fill="#008037" height="29.1328" style="stroke:#181818;stroke-width:1.0;" width="10" x="973.5" y="178.8594"/><rect fill="#FFFFFF" height="29.1328" style="stroke:#181818;stroke-width:1.0;" width="10" x="1148" y="295.3906"/><rect fill="#FFFFFF" height="29.1328" style="stroke:#181818;stroke-width:1.0;" width="10" x="1297.5" y="353.6563"/><polygon fill="#181818" points="549.5,145.7266,559.5,149.7266,549.5,153.7266,553.5,149.7266" style="stroke:#181818;stroke-width:1.0;"/><line style="stroke:#181818;stroke-width:1.0;" x1="44.5" x2="555.5" y1="149.7266" y2="149.7266"/><text fill="#000000" font-family="sans-serif" font-size="13" font-weight="bold" lengthAdjust="spacing" textLength="9" x="51.5" y="144.6606">1</text><text fill="#000000" font-family="sans-serif" font-size="13" lengthAdjust="spacing" textLength="402" x="64.5" y="144.6606">user clicks on the "make a wishlist" button on a supported site.</text><polygon fill="#181818" points="961.5,174.8594,971.5,178.8594,961.5,182.8594,965.5,178.8594" style="stroke:#181818;stroke-width:1.0;"/><line style="stroke:#181818;stroke-width:1.0;" x1="571.5" x2="967.5" y1="178.8594" y2="178.8594"/><text fill="#000000" font-family="sans-serif" font-size="13" font-weight="bold" lengthAdjust="spacing" textLength="9" x="578.5" y="173.7935">2</text><text fill="#000000" font-family="sans-serif" font-size="13" lengthAdjust="spacing" textLength="326" x="591.5" y="173.7935">the scraped webpage of the cart is sent to the API.</text><polygon fill="#181818" points="582.5,203.9922,572.5,207.9922,582.5,211.9922,578.5,207.9922" style="stroke:#181818;stroke-width:1.0;"/><line style="stroke:#181818;stroke-width:1.0;stroke-dasharray:2.0,2.0;" x1="576.5" x2="977.5" y1="207.9922" y2="207.9922"/><text fill="#000000" font-family="sans-serif" font-size="13" font-weight="bold" lengthAdjust="spacing" textLength="8" x="588.5" y="202.9263">3</text><text fill="#000000" font-family="sans-serif" font-size="13" lengthAdjust="spacing" textLength="366" x="600.5" y="202.9263">the list of items from the webpage is returned to the API.</text><polygon fill="#181818" points="55.5,233.125,45.5,237.125,55.5,241.125,51.5,237.125" style="stroke:#181818;stroke-width:1.0;"/><line style="stroke:#181818;stroke-width:1.0;stroke-dasharray:2.0,2.0;" x1="49.5" x2="565.5" y1="237.125" y2="237.125"/><text fill="#000000" font-family="sans-serif" font-size="13" font-weight="bold" lengthAdjust="spacing" textLength="9" x="61.5" y="232.0591">4</text><text fill="#000000" font-family="sans-serif" font-size="13" lengthAdjust="spacing" textLength="227" x="74.5" y="232.0591">the list of items from the webpage.</text><polygon fill="#181818" points="549.5,262.2578,559.5,266.2578,549.5,270.2578,553.5,266.2578" style="stroke:#181818;stroke-width:1.0;"/><line style="stroke:#181818;stroke-width:1.0;" x1="44.5" x2="555.5" y1="266.2578" y2="266.2578"/><text fill="#000000" font-family="sans-serif" font-size="13" font-weight="bold" lengthAdjust="spacing" textLength="9" x="51.5" y="261.1919">5</text><text fill="#000000" font-family="sans-serif" font-size="13" lengthAdjust="spacing" textLength="485" x="64.5" y="261.1919">user enters the details (name, description, image) of the wishlist campaign.</text><polygon fill="#181818" points="1136,291.3906,1146,295.3906,1136,299.3906,1140,295.3906" style="stroke:#181818;stroke-width:1.0;"/><line style="stroke:#181818;stroke-width:1.0;" x1="571.5" x2="1142" y1="295.3906" y2="295.3906"/><text fill="#000000" font-family="sans-serif" font-size="13" font-weight="bold" lengthAdjust="spacing" textLength="9" x="578.5" y="290.3247">6</text><text fill="#000000" font-family="sans-serif" font-size="13" lengthAdjust="spacing" textLength="253" x="591.5" y="290.3247">the campaign is saved in the database.</text><polygon fill="#181818" points="582.5,320.5234,572.5,324.5234,582.5,328.5234,578.5,324.5234" style="stroke:#181818;stroke-width:1.0;"/><line style="stroke:#181818;stroke-width:1.0;stroke-dasharray:2.0,2.0;" x1="576.5" x2="1152" y1="324.5234" y2="324.5234"/><text fill="#000000" font-family="sans-serif" font-size="13" font-weight="bold" lengthAdjust="spacing" textLength="9" x="588.5" y="319.4575">7</text><text fill="#000000" font-family="sans-serif" font-size="13" lengthAdjust="spacing" textLength="18" x="601.5" y="319.4575">OK</text><polygon fill="#181818" points="1285.5,349.6563,1295.5,353.6563,1285.5,357.6563,1289.5,353.6563" style="stroke:#181818;stroke-width:1.0;"/><line style="stroke:#181818;stroke-width:1.0;" x1="571.5" x2="1291.5" y1="353.6563" y2="353.6563"/><text fill="#000000" font-family="sans-serif" font-size="13" font-weight="bold" lengthAdjust="spacing" textLength="9" x="578.5" y="348.5903">8</text><text fill="#000000" font-family="sans-serif" font-size="13" lengthAdjust="spacing" textLength="237" x="591.5" y="348.5903">the items are saved in the database.</text><polygon fill="#181818" points="582.5,378.7891,572.5,382.7891,582.5,386.7891,578.5,382.7891" style="stroke:#181818;stroke-width:1.0;"/><line style="stroke:#181818;stroke-width:1.0;stroke-dasharray:2.0,2.0;" x1="576.5" x2="1301.5" y1="382.7891" y2="382.7891"/><text fill="#000000" font-family="sans-serif" font-size="13" font-weight="bold" lengthAdjust="spacing" textLength="9" x="588.5" y="377.7231">9</text><text fill="#000000" font-family="sans-serif" font-size="13" lengthAdjust="spacing" textLength="18" x="601.5" y="377.7231">OK</text><polygon fill="#181818" points="55.5,407.9219,45.5,411.9219,55.5,415.9219,51.5,411.9219" style="stroke:#181818;stroke-width:1.0;"/><line style="stroke:#181818;stroke-width:1.0;stroke-dasharray:2.0,2.0;" x1="49.5" x2="565.5" y1="411.9219" y2="411.9219"/><text fill="#000000" font-family="sans-serif" font-size="13" font-weight="bold" lengthAdjust="spacing" textLength="19" x="61.5" y="406.856">10</text><text fill="#000000" font-family="sans-serif" font-size="13" lengthAdjust="spacing" textLength="51" x="84.5" y="406.856">success</text><rect height="11.6406" id="_title" style="stroke:#00000000;stroke-width:1.0;fill:none;" width="61" x="653.75" y="506.2188"/><text fill="#888888" font-family="sans-serif" font-size="10" lengthAdjust="spacing" textLength="61" x="653.75" y="515.501">Page 1 of 1</text><!--MD5=[89bb5c3d7a8e6e1498d1e8cdc94ccd76]
@startuml
title "Sequence Diagram for help us (Non-profits)"
footer Page %page% of %lastpage%

autonumber
autoactivate on

actor "Non Profit" as non_profit

participant "help us for Chrome" as help_us_for_chrome

participant "AWS Lambda Function" as api_lambda

database "Campaign: Database" as db_campaigns

database "Items: Database" as db_items

non_profit -> help_us_for_chrome #008037 : user clicks on the "make a wishlist" button on a supported site.

help_us_for_chrome -> api_lambda #008037 : the scraped webpage of the cart is sent to the API.

return the list of items from the webpage is returned to the API.

return the list of items from the webpage.

non_profit -> help_us_for_chrome : user enters the details (name, description, image) of the wishlist campaign.

help_us_for_chrome -> db_campaigns : the campaign is saved in the database.

return OK

help_us_for_chrome -> db_items : the items are saved in the database.

return OK

return success
@enduml

PlantUML version 1.2022.7beta11(Unknown compile time)
(GPL source distribution)
Java Runtime: Java(TM) SE Runtime Environment
JVM: Java HotSpot(TM) 64-Bit Server VM
Default Encoding: UTF-8
Language: en
Country: US
--></g></svg>